<svg width="217" height="32" viewBox="0 0 217 32" fill="none" xmlns="http://www.w3.org/2000/svg">
<g filter="url(#filter0_d_386_4760)">
<mask id="path-1-outside-1_386_4760" maskUnits="userSpaceOnUse" x="-2" y="-2" width="218" height="34" fill="black">
<rect fill="white" x="-2" y="-2" width="218" height="34"/>
<path d="M0.24 30L12.48 2H21.76L34 30H24.24L15.2 6.48H18.88L9.84 30H0.24ZM7.52 25.12L9.92 18.32H22.8L25.2 25.12H7.52ZM49.8266 30.4C47.8266 30.4 46.2132 30 44.9866 29.2C43.7599 28.4 42.8666 27.16 42.3066 25.48C41.7732 23.8 41.5066 21.6533 41.5066 19.04C41.5066 16.4533 41.7999 14.3333 42.3866 12.68C42.9732 11 43.8799 9.76 45.1066 8.96C46.3599 8.13333 47.9332 7.72 49.8266 7.72C51.7466 7.72 53.5066 8.17333 55.1066 9.08C56.7066 9.98667 57.9866 11.2933 58.9466 13C59.9066 14.68 60.3866 16.6933 60.3866 19.04C60.3866 21.3867 59.9066 23.4133 58.9466 25.12C57.9866 26.8 56.7066 28.1067 55.1066 29.04C53.5066 29.9467 51.7466 30.4 49.8266 30.4ZM35.2266 30V0.319998H44.2666V11.04L43.8666 19.04L43.8266 27.04V30H35.2266ZM47.6666 23.36C48.3332 23.36 48.9332 23.2 49.4666 22.88C49.9999 22.56 50.4266 22.08 50.7466 21.44C51.0666 20.7733 51.2266 19.9733 51.2266 19.04C51.2266 18.08 51.0666 17.2933 50.7466 16.68C50.4266 16.04 49.9999 15.56 49.4666 15.24C48.9332 14.92 48.3332 14.76 47.6666 14.76C46.9999 14.76 46.3999 14.92 45.8666 15.24C45.3332 15.56 44.9066 16.04 44.5866 16.68C44.2666 17.2933 44.1066 18.08 44.1066 19.04C44.1066 19.9733 44.2666 20.7733 44.5866 21.44C44.9066 22.08 45.3332 22.56 45.8666 22.88C46.3999 23.2 46.9999 23.36 47.6666 23.36ZM74.7944 30.4C72.3144 30.4 70.1144 29.92 68.1944 28.96C66.301 27.9733 64.8077 26.6267 63.7144 24.92C62.621 23.2133 62.0744 21.2533 62.0744 19.04C62.0744 16.8267 62.621 14.8667 63.7144 13.16C64.8077 11.4533 66.301 10.12 68.1944 9.16C70.1144 8.2 72.3144 7.72 74.7944 7.72C77.2744 7.72 79.4744 8.2 81.3944 9.16C83.3144 10.12 84.8077 11.4533 85.8744 13.16C86.9677 14.8667 87.5144 16.8267 87.5144 19.04C87.5144 21.2533 86.9677 23.2133 85.8744 24.92C84.8077 26.6267 83.3144 27.9733 81.3944 28.96C79.4744 29.92 77.2744 30.4 74.7944 30.4ZM74.7944 23.36C75.461 23.36 76.061 23.2 76.5944 22.88C77.1277 22.56 77.5544 22.08 77.8744 21.44C78.1944 20.7733 78.3544 19.9733 78.3544 19.04C78.3544 18.08 78.1944 17.2933 77.8744 16.68C77.5544 16.04 77.1277 15.56 76.5944 15.24C76.061 14.92 75.461 14.76 74.7944 14.76C74.1277 14.76 73.5277 14.92 72.9944 15.24C72.461 15.56 72.0344 16.04 71.7144 16.68C71.3944 17.2933 71.2344 18.08 71.2344 19.04C71.2344 19.9733 71.3944 20.7733 71.7144 21.44C72.0344 22.08 72.461 22.56 72.9944 22.88C73.5277 23.2 74.1277 23.36 74.7944 23.36ZM99.4638 30.4C97.7304 30.4 96.1571 30.0533 94.7438 29.36C93.3571 28.64 92.2638 27.5333 91.4638 26.04C90.6638 24.52 90.2638 22.5733 90.2638 20.2V8.12H99.3038V18.64C99.3038 20.1867 99.5571 21.2667 100.064 21.88C100.57 22.4933 101.264 22.8 102.144 22.8C102.677 22.8 103.17 22.6667 103.624 22.4C104.104 22.1067 104.49 21.64 104.784 21C105.077 20.3333 105.224 19.4667 105.224 18.4V8.12H114.264V30H105.664V23.68L107.384 25.4C106.61 27.1067 105.504 28.3733 104.064 29.2C102.65 30 101.117 30.4 99.4638 30.4ZM128.833 30.4C125.82 30.4 123.473 29.68 121.793 28.24C120.113 26.7733 119.273 24.5333 119.273 21.52V3.2H128.313V21.44C128.313 22.1067 128.487 22.6267 128.833 23C129.207 23.3733 129.66 23.56 130.193 23.56C130.967 23.56 131.647 23.36 132.233 22.96L134.393 29.24C133.7 29.64 132.86 29.9333 131.873 30.12C130.913 30.3067 129.9 30.4 128.833 30.4ZM116.273 15.92V9.32H132.793V15.92H116.273ZM177.624 7.72C179.277 7.72 180.757 8.06667 182.064 8.76C183.397 9.42667 184.437 10.48 185.184 11.92C185.957 13.36 186.344 15.2267 186.344 17.52V30H177.304V19.08C177.304 17.72 177.077 16.76 176.624 16.2C176.171 15.6133 175.584 15.32 174.864 15.32C174.331 15.32 173.851 15.4533 173.424 15.72C172.997 15.9867 172.651 16.4133 172.384 17C172.144 17.56 172.024 18.3333 172.024 19.32V30H162.984V19.08C162.984 17.72 162.771 16.76 162.344 16.2C161.917 15.6133 161.317 15.32 160.544 15.32C160.011 15.32 159.531 15.4533 159.104 15.72C158.677 15.9867 158.331 16.4133 158.064 17C157.824 17.56 157.704 18.3333 157.704 19.32V30H148.664V8.12H157.264V14.4L155.504 12.64C156.331 10.9867 157.437 9.76 158.824 8.96C160.211 8.13333 161.757 7.72 163.464 7.72C165.384 7.72 167.077 8.22666 168.544 9.24C170.037 10.2267 171.037 11.8 171.544 13.96L168.784 13.52C169.584 11.7067 170.744 10.2933 172.264 9.28C173.811 8.24 175.597 7.72 177.624 7.72ZM202.736 30.4C200.07 30.4 197.736 29.9067 195.736 28.92C193.763 27.9333 192.23 26.5867 191.136 24.88C190.043 23.1467 189.496 21.2 189.496 19.04C189.496 16.8267 190.03 14.8667 191.096 13.16C192.19 11.4533 193.67 10.12 195.536 9.16C197.43 8.2 199.55 7.72 201.896 7.72C204.056 7.72 206.043 8.14667 207.856 9C209.696 9.85333 211.163 11.12 212.256 12.8C213.376 14.48 213.936 16.56 213.936 19.04C213.936 19.36 213.923 19.72 213.896 20.12C213.87 20.4933 213.843 20.84 213.816 21.16H196.976V16.8H209.016L205.616 17.96C205.616 17.1067 205.456 16.3867 205.136 15.8C204.843 15.1867 204.43 14.72 203.896 14.4C203.363 14.0533 202.723 13.88 201.976 13.88C201.23 13.88 200.576 14.0533 200.016 14.4C199.483 14.72 199.07 15.1867 198.776 15.8C198.483 16.3867 198.336 17.1067 198.336 17.96V19.32C198.336 20.2533 198.523 21.0533 198.896 21.72C199.27 22.3867 199.803 22.8933 200.496 23.24C201.19 23.56 202.03 23.72 203.016 23.72C204.03 23.72 204.856 23.5867 205.496 23.32C206.163 23.0533 206.856 22.6533 207.576 22.12L212.296 26.88C211.23 28.0267 209.91 28.9067 208.336 29.52C206.79 30.1067 204.923 30.4 202.736 30.4Z"/>
</mask>
<path d="M0.24 30L12.48 2H21.76L34 30H24.24L15.2 6.48H18.88L9.84 30H0.24ZM7.52 25.12L9.92 18.32H22.8L25.2 25.12H7.52ZM49.8266 30.4C47.8266 30.4 46.2132 30 44.9866 29.2C43.7599 28.4 42.8666 27.16 42.3066 25.48C41.7732 23.8 41.5066 21.6533 41.5066 19.04C41.5066 16.4533 41.7999 14.3333 42.3866 12.68C42.9732 11 43.8799 9.76 45.1066 8.96C46.3599 8.13333 47.9332 7.72 49.8266 7.72C51.7466 7.72 53.5066 8.17333 55.1066 9.08C56.7066 9.98667 57.9866 11.2933 58.9466 13C59.9066 14.68 60.3866 16.6933 60.3866 19.04C60.3866 21.3867 59.9066 23.4133 58.9466 25.12C57.9866 26.8 56.7066 28.1067 55.1066 29.04C53.5066 29.9467 51.7466 30.4 49.8266 30.4ZM35.2266 30V0.319998H44.2666V11.04L43.8666 19.04L43.8266 27.04V30H35.2266ZM47.6666 23.36C48.3332 23.36 48.9332 23.2 49.4666 22.88C49.9999 22.56 50.4266 22.08 50.7466 21.44C51.0666 20.7733 51.2266 19.9733 51.2266 19.04C51.2266 18.08 51.0666 17.2933 50.7466 16.68C50.4266 16.04 49.9999 15.56 49.4666 15.24C48.9332 14.92 48.3332 14.76 47.6666 14.76C46.9999 14.76 46.3999 14.92 45.8666 15.24C45.3332 15.56 44.9066 16.04 44.5866 16.68C44.2666 17.2933 44.1066 18.08 44.1066 19.04C44.1066 19.9733 44.2666 20.7733 44.5866 21.44C44.9066 22.08 45.3332 22.56 45.8666 22.88C46.3999 23.2 46.9999 23.36 47.6666 23.36ZM74.7944 30.4C72.3144 30.4 70.1144 29.92 68.1944 28.96C66.301 27.9733 64.8077 26.6267 63.7144 24.92C62.621 23.2133 62.0744 21.2533 62.0744 19.04C62.0744 16.8267 62.621 14.8667 63.7144 13.16C64.8077 11.4533 66.301 10.12 68.1944 9.16C70.1144 8.2 72.3144 7.72 74.7944 7.72C77.2744 7.72 79.4744 8.2 81.3944 9.16C83.3144 10.12 84.8077 11.4533 85.8744 13.16C86.9677 14.8667 87.5144 16.8267 87.5144 19.04C87.5144 21.2533 86.9677 23.2133 85.8744 24.92C84.8077 26.6267 83.3144 27.9733 81.3944 28.96C79.4744 29.92 77.2744 30.4 74.7944 30.4ZM74.7944 23.36C75.461 23.36 76.061 23.2 76.5944 22.88C77.1277 22.56 77.5544 22.08 77.8744 21.44C78.1944 20.7733 78.3544 19.9733 78.3544 19.04C78.3544 18.08 78.1944 17.2933 77.8744 16.68C77.5544 16.04 77.1277 15.56 76.5944 15.24C76.061 14.92 75.461 14.76 74.7944 14.76C74.1277 14.76 73.5277 14.92 72.9944 15.24C72.461 15.56 72.0344 16.04 71.7144 16.68C71.3944 17.2933 71.2344 18.08 71.2344 19.04C71.2344 19.9733 71.3944 20.7733 71.7144 21.44C72.0344 22.08 72.461 22.56 72.9944 22.88C73.5277 23.2 74.1277 23.36 74.7944 23.36ZM99.4638 30.4C97.7304 30.4 96.1571 30.0533 94.7438 29.36C93.3571 28.64 92.2638 27.5333 91.4638 26.04C90.6638 24.52 90.2638 22.5733 90.2638 20.2V8.12H99.3038V18.64C99.3038 20.1867 99.5571 21.2667 100.064 21.88C100.57 22.4933 101.264 22.8 102.144 22.8C102.677 22.8 103.17 22.6667 103.624 22.4C104.104 22.1067 104.49 21.64 104.784 21C105.077 20.3333 105.224 19.4667 105.224 18.4V8.12H114.264V30H105.664V23.68L107.384 25.4C106.61 27.1067 105.504 28.3733 104.064 29.2C102.65 30 101.117 30.4 99.4638 30.4ZM128.833 30.4C125.82 30.4 123.473 29.68 121.793 28.24C120.113 26.7733 119.273 24.5333 119.273 21.52V3.2H128.313V21.44C128.313 22.1067 128.487 22.6267 128.833 23C129.207 23.3733 129.66 23.56 130.193 23.56C130.967 23.56 131.647 23.36 132.233 22.96L134.393 29.24C133.7 29.64 132.86 29.9333 131.873 30.12C130.913 30.3067 129.9 30.4 128.833 30.4ZM116.273 15.92V9.32H132.793V15.92H116.273ZM177.624 7.72C179.277 7.72 180.757 8.06667 182.064 8.76C183.397 9.42667 184.437 10.48 185.184 11.92C185.957 13.36 186.344 15.2267 186.344 17.52V30H177.304V19.08C177.304 17.72 177.077 16.76 176.624 16.2C176.171 15.6133 175.584 15.32 174.864 15.32C174.331 15.32 173.851 15.4533 173.424 15.72C172.997 15.9867 172.651 16.4133 172.384 17C172.144 17.56 172.024 18.3333 172.024 19.32V30H162.984V19.08C162.984 17.72 162.771 16.76 162.344 16.2C161.917 15.6133 161.317 15.32 160.544 15.32C160.011 15.32 159.531 15.4533 159.104 15.72C158.677 15.9867 158.331 16.4133 158.064 17C157.824 17.56 157.704 18.3333 157.704 19.32V30H148.664V8.12H157.264V14.4L155.504 12.64C156.331 10.9867 157.437 9.76 158.824 8.96C160.211 8.13333 161.757 7.72 163.464 7.72C165.384 7.72 167.077 8.22666 168.544 9.24C170.037 10.2267 171.037 11.8 171.544 13.96L168.784 13.52C169.584 11.7067 170.744 10.2933 172.264 9.28C173.811 8.24 175.597 7.72 177.624 7.72ZM202.736 30.4C200.07 30.4 197.736 29.9067 195.736 28.92C193.763 27.9333 192.23 26.5867 191.136 24.88C190.043 23.1467 189.496 21.2 189.496 19.04C189.496 16.8267 190.03 14.8667 191.096 13.16C192.19 11.4533 193.67 10.12 195.536 9.16C197.43 8.2 199.55 7.72 201.896 7.72C204.056 7.72 206.043 8.14667 207.856 9C209.696 9.85333 211.163 11.12 212.256 12.8C213.376 14.48 213.936 16.56 213.936 19.04C213.936 19.36 213.923 19.72 213.896 20.12C213.87 20.4933 213.843 20.84 213.816 21.16H196.976V16.8H209.016L205.616 17.96C205.616 17.1067 205.456 16.3867 205.136 15.8C204.843 15.1867 204.43 14.72 203.896 14.4C203.363 14.0533 202.723 13.88 201.976 13.88C201.23 13.88 200.576 14.0533 200.016 14.4C199.483 14.72 199.07 15.1867 198.776 15.8C198.483 16.3867 198.336 17.1067 198.336 17.96V19.32C198.336 20.2533 198.523 21.0533 198.896 21.72C199.27 22.3867 199.803 22.8933 200.496 23.24C201.19 23.56 202.03 23.72 203.016 23.72C204.03 23.72 204.856 23.5867 205.496 23.32C206.163 23.0533 206.856 22.6533 207.576 22.12L212.296 26.88C211.23 28.0267 209.91 28.9067 208.336 29.52C206.79 30.1067 204.923 30.4 202.736 30.4Z" fill="black"/>
<path d="M0.24 30L-1.16601 29.3854C-1.3734 29.8598 -1.32756 30.4068 -1.04409 30.8401C-0.760625 31.2734 -0.27777 31.5345 0.24 31.5345V30ZM12.48 2V0.465515C11.8702 0.465515 11.3182 0.826611 11.074 1.38537L12.48 2ZM21.76 2L23.166 1.38537C22.9218 0.826611 22.3698 0.465515 21.76 0.465515V2ZM34 30V31.5345C34.5178 31.5345 35.0006 31.2734 35.2841 30.8401C35.5676 30.4068 35.6134 29.8598 35.406 29.3854L34 30ZM24.24 30L22.8077 30.5505C23.0355 31.1433 23.6049 31.5345 24.24 31.5345V30ZM15.2 6.48V4.94552C14.6945 4.94552 14.2214 5.19447 13.9352 5.61113C13.649 6.02778 13.5863 6.55868 13.7677 7.03052L15.2 6.48ZM18.88 6.48L20.3123 7.03052C20.4937 6.55868 20.431 6.02778 20.1448 5.61113C19.8586 5.19447 19.3855 4.94552 18.88 4.94552V6.48ZM9.84 30V31.5345C10.4751 31.5345 11.0445 31.1433 11.2723 30.5505L9.84 30ZM7.52 25.12L6.073 24.6093C5.90725 25.0789 5.97971 25.5997 6.26734 26.0063C6.55497 26.4128 7.022 26.6545 7.52 26.6545V25.12ZM9.92 18.32V16.7855C9.26941 16.7855 8.68953 17.1958 8.473 17.8093L9.92 18.32ZM22.8 18.32L24.247 17.8093C24.0305 17.1958 23.4506 16.7855 22.8 16.7855V18.32ZM25.2 25.12V26.6545C25.698 26.6545 26.165 26.4128 26.4527 26.0063C26.7403 25.5997 26.8127 25.0789 26.647 24.6093L25.2 25.12ZM1.64601 30.6146L13.886 2.61463L11.074 1.38537L-1.16601 29.3854L1.64601 30.6146ZM12.48 3.53448H21.76V0.465515H12.48V3.53448ZM20.354 2.61463L32.594 30.6146L35.406 29.3854L23.166 1.38537L20.354 2.61463ZM34 28.4655H24.24V31.5345H34V28.4655ZM25.6723 29.4495L16.6323 5.92948L13.7677 7.03052L22.8077 30.5505L25.6723 29.4495ZM15.2 8.01448H18.88V4.94552H15.2V8.01448ZM17.4477 5.92948L8.40767 29.4495L11.2723 30.5505L20.3123 7.03052L17.4477 5.92948ZM9.84 28.4655H0.24V31.5345H9.84V28.4655ZM8.967 25.6307L11.367 18.8307L8.473 17.8093L6.073 24.6093L8.967 25.6307ZM9.92 19.8545H22.8V16.7855H9.92V19.8545ZM21.353 18.8307L23.753 25.6307L26.647 24.6093L24.247 17.8093L21.353 18.8307ZM25.2 23.5855H7.52V26.6545H25.2V23.5855ZM44.9866 29.2L44.1483 30.4853L44.1483 30.4853L44.9866 29.2ZM42.3066 25.48L40.844 25.9443C40.8462 25.9513 40.8485 25.9583 40.8508 25.9652L42.3066 25.48ZM42.3866 12.68L43.8327 13.1932L43.8353 13.1859L42.3866 12.68ZM45.1066 8.96L45.9448 10.2453L45.9514 10.2409L45.1066 8.96ZM55.1066 9.08L54.35 10.415L54.35 10.415L55.1066 9.08ZM58.9466 13L57.6091 13.7523L57.6143 13.7613L58.9466 13ZM58.9466 25.12L60.2789 25.8813L60.284 25.8723L58.9466 25.12ZM55.1066 29.04L55.8631 30.375C55.8687 30.3719 55.8742 30.3687 55.8797 30.3655L55.1066 29.04ZM35.2266 30H33.6921C33.6921 30.8475 34.3791 31.5345 35.2266 31.5345V30ZM35.2266 0.319998V-1.21448C34.3791 -1.21448 33.6921 -0.527473 33.6921 0.319998H35.2266ZM44.2666 0.319998H45.801C45.801 -0.527473 45.114 -1.21448 44.2666 -1.21448V0.319998ZM44.2666 11.04L45.7991 11.1166C45.8004 11.0911 45.801 11.0656 45.801 11.04L44.2666 11.04ZM43.8666 19.04L42.334 18.9634C42.3328 18.9863 42.3322 19.0093 42.3321 19.0323L43.8666 19.04ZM43.8266 27.04L42.2921 27.0323V27.04H43.8266ZM43.8266 30V31.5345C44.674 31.5345 45.361 30.8475 45.361 30H43.8266ZM49.4666 22.88L50.256 24.1958L50.256 24.1958L49.4666 22.88ZM50.7466 21.44L52.119 22.1262C52.1227 22.1189 52.1264 22.1115 52.1299 22.104L50.7466 21.44ZM50.7466 16.68L49.3741 17.3662C49.378 17.3741 49.382 17.382 49.3861 17.3898L50.7466 16.68ZM44.5866 16.68L45.947 17.3898C45.9511 17.382 45.9551 17.3741 45.959 17.3662L44.5866 16.68ZM44.5866 21.44L43.2032 22.104C43.2068 22.1115 43.2104 22.1189 43.2141 22.1262L44.5866 21.44ZM45.8666 22.88L45.0771 24.1958L45.0771 24.1958L45.8666 22.88ZM49.8266 28.8655C48.0187 28.8655 46.7264 28.5027 45.8248 27.9147L44.1483 30.4853C45.7 31.4973 47.6344 31.9345 49.8266 31.9345V28.8655ZM45.8248 27.9147C44.9455 27.3412 44.2364 26.4171 43.7623 24.9948L40.8508 25.9652C41.4967 27.9029 42.5743 29.4588 44.1483 30.4853L45.8248 27.9147ZM43.7691 25.0157C43.3005 23.5395 43.041 21.5642 43.041 19.04H39.9721C39.9721 21.7425 40.246 24.0605 40.844 25.9443L43.7691 25.0157ZM43.041 19.04C43.041 16.5531 43.3252 14.6233 43.8327 13.1931L40.9404 12.1669C40.2746 14.0433 39.9721 16.3536 39.9721 19.04H43.041ZM43.8353 13.1859C44.3349 11.7552 45.0591 10.8229 45.9448 10.2453L44.2683 7.6747C42.7007 8.69708 41.6116 10.2448 40.9379 12.1741L43.8353 13.1859ZM45.9514 10.2409C46.8959 9.61803 48.1554 9.25448 49.8266 9.25448V6.18552C47.7111 6.18552 45.8239 6.64863 44.2617 7.67905L45.9514 10.2409ZM49.8266 9.25448C51.4935 9.25448 52.9911 9.64496 54.35 10.415L55.8631 7.74497C54.022 6.70171 51.9996 6.18552 49.8266 6.18552V9.25448ZM54.35 10.415C55.6911 11.175 56.7769 12.2727 57.6091 13.7523L60.284 12.2477C59.1962 10.3139 57.722 8.79837 55.8631 7.74497L54.35 10.415ZM57.6143 13.7613C58.4162 15.1648 58.8521 16.9037 58.8521 19.04H61.921C61.921 16.4829 61.3969 14.1952 60.2789 12.2387L57.6143 13.7613ZM58.8521 19.04C58.8521 21.1754 58.4165 22.9323 57.6091 24.3677L60.284 25.8723C61.3966 23.8943 61.921 21.5979 61.921 19.04H58.8521ZM57.6143 24.3587C56.7817 25.8157 55.6902 26.9231 54.3334 27.7145L55.8797 30.3655C57.723 29.2902 59.1914 27.7843 60.2789 25.8813L57.6143 24.3587ZM54.35 27.705C52.9911 28.475 51.4935 28.8655 49.8266 28.8655V31.9345C51.9996 31.9345 54.022 31.4183 55.8631 30.375L54.35 27.705ZM36.761 30V0.319998H33.6921V30H36.761ZM35.2266 1.85448H44.2666V-1.21448H35.2266V1.85448ZM42.7321 0.319998V11.04H45.801V0.319998H42.7321ZM42.734 10.9634L42.334 18.9634L45.3991 19.1166L45.7991 11.1166L42.734 10.9634ZM42.3321 19.0323L42.2921 27.0323L45.361 27.0477L45.401 19.0477L42.3321 19.0323ZM42.2921 27.04V30H45.361V27.04H42.2921ZM43.8266 28.4655H35.2266V31.5345H43.8266V28.4655ZM47.6666 24.8945C48.5906 24.8945 49.467 24.6692 50.256 24.1958L48.6771 21.5642C48.3994 21.7308 48.0759 21.8255 47.6666 21.8255V24.8945ZM50.256 24.1958C51.0755 23.7041 51.6886 22.9871 52.119 22.1262L49.3741 20.7538C49.1645 21.1729 48.9242 21.4159 48.6771 21.5642L50.256 24.1958ZM52.1299 22.104C52.572 21.1831 52.761 20.1447 52.761 19.04H49.6921C49.6921 19.802 49.5612 20.3635 49.3632 20.776L52.1299 22.104ZM52.761 19.04C52.761 17.9234 52.577 16.8709 52.107 15.9702L49.3861 17.3898C49.5562 17.7157 49.6921 18.2366 49.6921 19.04H52.761ZM52.119 15.9938C51.6886 15.1329 51.0755 14.4159 50.256 13.9242L48.6771 16.5558C48.9242 16.7041 49.1645 16.9471 49.3741 17.3662L52.119 15.9938ZM50.256 13.9242C49.467 13.4508 48.5906 13.2255 47.6666 13.2255V16.2945C48.0759 16.2945 48.3994 16.3892 48.6771 16.5558L50.256 13.9242ZM47.6666 13.2255C46.7425 13.2255 45.8661 13.4508 45.0771 13.9242L46.656 16.5558C46.9337 16.3892 47.2573 16.2945 47.6666 16.2945V13.2255ZM45.0771 13.9242C44.2576 14.4159 43.6445 15.1329 43.2141 15.9938L45.959 17.3662C46.1686 16.9471 46.4089 16.7041 46.656 16.5558L45.0771 13.9242ZM43.2261 15.9702C42.7562 16.8709 42.5721 17.9234 42.5721 19.04H45.641C45.641 18.2366 45.777 17.7157 45.947 17.3898L43.2261 15.9702ZM42.5721 19.04C42.5721 20.1447 42.7612 21.1831 43.2032 22.104L45.9699 20.776C45.772 20.3635 45.641 19.802 45.641 19.04H42.5721ZM43.2141 22.1262C43.6445 22.9871 44.2576 23.7041 45.0771 24.1958L46.656 21.5642C46.4089 21.4159 46.1686 21.1729 45.959 20.7538L43.2141 22.1262ZM45.0771 24.1958C45.8661 24.6692 46.7425 24.8945 47.6666 24.8945V21.8255C47.2573 21.8255 46.9337 21.7308 46.656 21.5642L45.0771 24.1958ZM68.1944 28.96L67.4852 30.3208C67.4928 30.3248 67.5005 30.3287 67.5081 30.3325L68.1944 28.96ZM63.7144 24.92L62.4223 25.7477L62.4223 25.7477L63.7144 24.92ZM63.7144 13.16L62.4223 12.3323L62.4223 12.3323L63.7144 13.16ZM68.1944 9.16L67.5081 7.78749L67.5004 7.79139L68.1944 9.16ZM81.3944 9.16L80.7081 10.5325L80.7081 10.5325L81.3944 9.16ZM85.8744 13.16L84.5731 13.9733C84.5762 13.9781 84.5792 13.9829 84.5823 13.9877L85.8744 13.16ZM85.8744 24.92L84.5823 24.0923C84.5792 24.0971 84.5762 24.1019 84.5731 24.1067L85.8744 24.92ZM81.3944 28.96L82.0806 30.3325C82.0857 30.33 82.0907 30.3274 82.0957 30.3248L81.3944 28.96ZM76.5944 22.88L75.8049 21.5642L75.8049 21.5642L76.5944 22.88ZM77.8744 21.44L79.2469 22.1262C79.2505 22.1189 79.2542 22.1115 79.2577 22.104L77.8744 21.44ZM77.8744 16.68L76.5019 17.3662C76.5058 17.3741 76.5098 17.382 76.5139 17.3898L77.8744 16.68ZM76.5944 15.24L75.8049 16.5558L75.8049 16.5558L76.5944 15.24ZM72.9944 15.24L72.2049 13.9242L72.2049 13.9242L72.9944 15.24ZM71.7144 16.68L73.0748 17.3898C73.0789 17.382 73.0829 17.3741 73.0869 17.3662L71.7144 16.68ZM71.7144 21.44L70.331 22.104C70.3346 22.1115 70.3382 22.1189 70.3419 22.1262L71.7144 21.44ZM72.9944 22.88L72.2049 24.1958L72.2049 24.1958L72.9944 22.88ZM74.7944 28.8655C72.5156 28.8655 70.5567 28.4256 68.8806 27.5875L67.5081 30.3325C69.672 31.4144 72.1132 31.9345 74.7944 31.9345V28.8655ZM68.9035 27.5992C67.2345 26.7294 65.9475 25.5612 65.0065 24.0923L62.4223 25.7477C63.6679 27.6921 65.3676 29.2172 67.4852 30.3208L68.9035 27.5992ZM65.0065 24.0923C64.0859 22.6553 63.6089 20.988 63.6089 19.04H60.5399C60.5399 21.5187 61.1562 23.7714 62.4223 25.7477L65.0065 24.0923ZM63.6089 19.04C63.6089 17.092 64.0859 15.4247 65.0065 13.9877L62.4223 12.3323C61.1562 14.3086 60.5399 16.5613 60.5399 19.04H63.6089ZM65.0065 13.9877C65.9451 12.5226 67.227 11.371 68.8883 10.5286L67.5004 7.79139C65.3751 8.86902 63.6703 10.3841 62.4223 12.3323L65.0065 13.9877ZM68.8806 10.5325C70.5567 9.69443 72.5156 9.25448 74.7944 9.25448V6.18552C72.1132 6.18552 69.672 6.70557 67.5081 7.78752L68.8806 10.5325ZM74.7944 9.25448C77.0732 9.25448 79.032 9.69443 80.7081 10.5325L82.0806 7.78752C79.9167 6.70557 77.4756 6.18552 74.7944 6.18552V9.25448ZM80.7081 10.5325C82.3931 11.375 83.6662 12.5221 84.5731 13.9733L87.1756 12.3467C85.9493 10.3845 84.2356 8.86503 82.0806 7.78752L80.7081 10.5325ZM84.5823 13.9877C85.5029 15.4247 85.9799 17.092 85.9799 19.04H89.0489C89.0489 16.5613 88.4326 14.3086 87.1665 12.3323L84.5823 13.9877ZM85.9799 19.04C85.9799 20.988 85.5029 22.6553 84.5823 24.0923L87.1665 25.7477C88.4326 23.7714 89.0489 21.5187 89.0489 19.04H85.9799ZM84.5731 24.1067C83.6637 25.5618 82.3855 26.7254 80.693 27.5952L82.0957 30.3248C84.2432 29.2212 85.9517 27.6915 87.1756 25.7333L84.5731 24.1067ZM80.7081 27.5875C79.032 28.4256 77.0732 28.8655 74.7944 28.8655V31.9345C77.4756 31.9345 79.9167 31.4144 82.0806 30.3325L80.7081 27.5875ZM74.7944 24.8945C75.7184 24.8945 76.5949 24.6692 77.3839 24.1958L75.8049 21.5642C75.5272 21.7308 75.2037 21.8255 74.7944 21.8255V24.8945ZM77.3839 24.1958C78.2034 23.7041 78.8164 22.9871 79.2469 22.1262L76.5019 20.7538C76.2923 21.1729 76.0521 21.4159 75.8049 21.5642L77.3839 24.1958ZM79.2577 22.104C79.6998 21.1831 79.8889 20.1447 79.8889 19.04H76.8199C76.8199 19.802 76.689 20.3635 76.491 20.776L79.2577 22.104ZM79.8889 19.04C79.8889 17.9234 79.7048 16.8709 79.2348 15.9702L76.5139 17.3898C76.684 17.7157 76.8199 18.2366 76.8199 19.04H79.8889ZM79.2469 15.9938C78.8164 15.1329 78.2034 14.4159 77.3839 13.9242L75.8049 16.5558C76.0521 16.7041 76.2923 16.9471 76.5019 17.3662L79.2469 15.9938ZM77.3839 13.9242C76.5949 13.4508 75.7184 13.2255 74.7944 13.2255V16.2945C75.2037 16.2945 75.5272 16.3892 75.8049 16.5558L77.3839 13.9242ZM74.7944 13.2255C73.8703 13.2255 72.9939 13.4508 72.2049 13.9242L73.7839 16.5558C74.0615 16.3892 74.3851 16.2945 74.7944 16.2945V13.2255ZM72.2049 13.9242C71.3854 14.4159 70.7723 15.1329 70.3419 15.9938L73.0869 17.3662C73.2964 16.9471 73.5367 16.7041 73.7839 16.5558L72.2049 13.9242ZM70.3539 15.9702C69.884 16.8709 69.6999 17.9234 69.6999 19.04H72.7689C72.7689 18.2366 72.9048 17.7157 73.0748 17.3898L70.3539 15.9702ZM69.6999 19.04C69.6999 20.1447 69.889 21.1831 70.331 22.104L73.0977 20.776C72.8998 20.3635 72.7689 19.802 72.7689 19.04H69.6999ZM70.3419 22.1262C70.7723 22.9871 71.3854 23.7041 72.2049 24.1958L73.7839 21.5642C73.5367 21.4159 73.2964 21.1729 73.0869 20.7538L70.3419 22.1262ZM72.2049 24.1958C72.9939 24.6692 73.8703 24.8945 74.7944 24.8945V21.8255C74.3851 21.8255 74.0615 21.7308 73.7839 21.5642L72.2049 24.1958ZM94.7438 29.36L94.0366 30.7218C94.047 30.7272 94.0574 30.7325 94.0679 30.7376L94.7438 29.36ZM91.4638 26.04L90.1058 26.7547L90.1111 26.7646L91.4638 26.04ZM90.2638 8.12V6.58551C89.4163 6.58551 88.7293 7.27253 88.7293 8.12H90.2638ZM99.3038 8.12H100.838C100.838 7.27253 100.151 6.58551 99.3038 6.58551V8.12ZM103.624 22.4L104.402 23.7226C104.409 23.7183 104.417 23.7138 104.424 23.7093L103.624 22.4ZM104.784 21L106.179 21.6393C106.182 21.6323 106.185 21.6251 106.188 21.618L104.784 21ZM105.224 8.12V6.58551C104.376 6.58551 103.689 7.27253 103.689 8.12H105.224ZM114.264 8.12H115.798C115.798 7.27253 115.111 6.58551 114.264 6.58551V8.12ZM114.264 30V31.5345C115.111 31.5345 115.798 30.8475 115.798 30H114.264ZM105.664 30H104.129C104.129 30.8475 104.816 31.5345 105.664 31.5345V30ZM105.664 23.68L106.749 22.595C106.31 22.1561 105.65 22.0248 105.077 22.2623C104.503 22.4998 104.129 23.0594 104.129 23.68H105.664ZM107.384 25.4L108.781 26.0333C109.045 25.4513 108.921 24.7668 108.469 24.315L107.384 25.4ZM104.064 29.2L104.82 30.5354L104.828 30.5308L104.064 29.2ZM99.4638 28.8655C97.9407 28.8655 96.602 28.5624 95.4196 27.9824L94.0679 30.7376C95.7121 31.5442 97.5201 31.9345 99.4638 31.9345V28.8655ZM95.4509 27.9982C94.362 27.4328 93.4832 26.5602 92.8164 25.3154L90.1111 26.7646C91.0443 28.5065 92.3522 29.8472 94.0366 30.7218L95.4509 27.9982ZM92.8216 25.3253C92.1734 24.0936 91.7982 22.4144 91.7982 20.2H88.7293C88.7293 22.7323 89.1541 24.9464 90.1059 26.7547L92.8216 25.3253ZM91.7982 20.2V8.12H88.7293V20.2H91.7982ZM90.2638 9.65448H99.3038V6.58551H90.2638V9.65448ZM97.7693 8.12V18.64H100.838V8.12H97.7693ZM97.7693 18.64C97.7693 20.2545 98.0136 21.8076 98.8807 22.8573L101.247 20.9027C101.101 20.7257 100.838 20.1189 100.838 18.64H97.7693ZM98.8807 22.8573C99.7122 23.8638 100.861 24.3345 102.144 24.3345V21.2655C101.666 21.2655 101.429 21.1228 101.247 20.9027L98.8807 22.8573ZM102.144 24.3345C102.947 24.3345 103.709 24.13 104.402 23.7226L102.846 21.0774C102.632 21.2033 102.408 21.2655 102.144 21.2655V24.3345ZM104.424 23.7093C105.223 23.2209 105.79 22.4869 106.179 21.6393L103.389 20.3606C103.191 20.7931 102.984 20.9924 102.824 21.0907L104.424 23.7093ZM106.188 21.618C106.598 20.6879 106.758 19.5889 106.758 18.4H103.689C103.689 19.3445 103.557 19.9787 103.379 20.382L106.188 21.618ZM106.758 18.4V8.12H103.689V18.4H106.758ZM105.224 9.65448H114.264V6.58551H105.224V9.65448ZM112.729 8.12V30H115.798V8.12H112.729ZM114.264 28.4655H105.664V31.5345H114.264V28.4655ZM107.198 30V23.68H104.129V30H107.198ZM104.579 24.765L106.299 26.485L108.469 24.315L106.749 22.595L104.579 24.765ZM105.986 24.7667C105.328 26.2194 104.425 27.223 103.3 27.8692L104.828 30.5308C106.582 29.5236 107.893 27.9939 108.781 26.0333L105.986 24.7667ZM103.308 27.8646C102.129 28.5317 100.857 28.8655 99.4638 28.8655V31.9345C101.377 31.9345 103.171 31.4683 104.82 30.5354L103.308 27.8646ZM121.793 28.24L120.784 29.396L120.795 29.4051L121.793 28.24ZM119.273 3.2V1.66552C118.426 1.66552 117.739 2.35253 117.739 3.2H119.273ZM128.313 3.2H129.848C129.848 2.35253 129.161 1.66552 128.313 1.66552V3.2ZM128.833 23L127.709 24.0441C127.722 24.058 127.735 24.0717 127.748 24.085L128.833 23ZM132.233 22.96L133.684 22.4609C133.529 22.0084 133.171 21.6544 132.717 21.5037C132.263 21.3529 131.764 21.4226 131.369 21.6922L132.233 22.96ZM134.393 29.24L135.16 30.5691C135.797 30.2021 136.083 29.4355 135.844 28.7409L134.393 29.24ZM131.873 30.12L131.588 28.6122L131.581 28.6137L131.873 30.12ZM116.273 15.92H114.739C114.739 16.7675 115.426 17.4545 116.273 17.4545V15.92ZM116.273 9.32V7.78552C115.426 7.78552 114.739 8.47253 114.739 9.32H116.273ZM132.793 9.32H134.328C134.328 8.47253 133.641 7.78552 132.793 7.78552V9.32ZM132.793 15.92V17.4545C133.641 17.4545 134.328 16.7675 134.328 15.92H132.793ZM128.833 28.8655C126.054 28.8655 124.107 28.2024 122.792 27.0749L120.795 29.4051C122.839 31.1576 125.587 31.9345 128.833 31.9345V28.8655ZM122.803 27.084C121.562 26.0014 120.808 24.2538 120.808 21.52H117.739C117.739 24.8129 118.664 27.5453 120.784 29.396L122.803 27.084ZM120.808 21.52V3.2H117.739V21.52H120.808ZM119.273 4.73448H128.313V1.66552H119.273V4.73448ZM126.779 3.2V21.44H129.848V3.2H126.779ZM126.779 21.44C126.779 22.3711 127.026 23.3082 127.709 24.0441L129.958 21.9559C129.948 21.9451 129.848 21.8423 129.848 21.44H126.779ZM127.748 24.085C128.413 24.7494 129.258 25.0945 130.193 25.0945V22.0255C130.062 22.0255 130.001 21.9973 129.918 21.915L127.748 24.085ZM130.193 25.0945C131.246 25.0945 132.234 24.8171 133.098 24.2278L131.369 21.6922C131.06 21.9029 130.687 22.0255 130.193 22.0255V25.0945ZM130.782 23.4591L132.942 29.7391L135.844 28.7409L133.684 22.4609L130.782 23.4591ZM133.627 27.9109C133.115 28.2059 132.447 28.4498 131.588 28.6123L132.159 31.6277C133.273 31.4168 134.285 31.0741 135.16 30.5691L133.627 27.9109ZM131.581 28.6137C130.725 28.78 129.811 28.8655 128.833 28.8655V31.9345C129.99 31.9345 131.102 31.8333 132.166 31.6263L131.581 28.6137ZM117.808 15.92V9.32H114.739V15.92H117.808ZM116.273 10.8545H132.793V7.78552H116.273V10.8545ZM131.259 9.32V15.92H134.328V9.32H131.259ZM132.793 14.3855H116.273V17.4545H132.793V14.3855ZM182.064 8.76L181.345 10.1155C181.356 10.1213 181.367 10.1269 181.378 10.1325L182.064 8.76ZM185.184 11.92L183.822 12.6263C183.825 12.6329 183.829 12.6395 183.832 12.646L185.184 11.92ZM186.344 30V31.5345C187.192 31.5345 187.879 30.8475 187.879 30H186.344ZM177.304 30H175.77C175.77 30.8475 176.457 31.5345 177.304 31.5345V30ZM176.624 16.2L175.41 17.1383C175.417 17.1474 175.424 17.1565 175.431 17.1655L176.624 16.2ZM173.424 15.72L172.611 14.4188L172.611 14.4188L173.424 15.72ZM172.384 17L170.987 16.365C170.983 16.3751 170.978 16.3853 170.974 16.3955L172.384 17ZM172.024 30V31.5345C172.872 31.5345 173.559 30.8475 173.559 30H172.024ZM162.984 30H161.45C161.45 30.8475 162.137 31.5345 162.984 31.5345V30ZM162.344 16.2L161.103 17.1025C161.11 17.1118 161.117 17.1209 161.123 17.13L162.344 16.2ZM159.104 15.72L158.291 14.4188L158.291 14.4188L159.104 15.72ZM158.064 17L156.667 16.365C156.663 16.3751 156.658 16.3853 156.654 16.3955L158.064 17ZM157.704 30V31.5345C158.552 31.5345 159.239 30.8475 159.239 30H157.704ZM148.664 30H147.13C147.13 30.8475 147.817 31.5345 148.664 31.5345V30ZM148.664 8.12V6.58551C147.817 6.58551 147.13 7.27253 147.13 8.12H148.664ZM157.264 8.12H158.799C158.799 7.27253 158.112 6.58551 157.264 6.58551V8.12ZM157.264 14.4L156.179 15.485C156.618 15.9239 157.278 16.0552 157.851 15.8177C158.425 15.5802 158.799 15.0206 158.799 14.4H157.264ZM155.504 12.64L154.132 11.9538C153.836 12.5445 153.952 13.258 154.419 13.725L155.504 12.64ZM158.824 8.96L159.591 10.2891C159.597 10.2855 159.604 10.2818 159.61 10.278L158.824 8.96ZM168.544 9.24L167.672 10.5025C167.681 10.5085 167.689 10.5144 167.698 10.5203L168.544 9.24ZM171.544 13.96L171.302 15.4753C171.807 15.5558 172.319 15.3795 172.668 15.0051C173.016 14.6307 173.155 14.1074 173.038 13.6096L171.544 13.96ZM168.784 13.52L167.38 12.9006C167.188 13.336 167.209 13.8359 167.436 14.2538C167.664 14.6717 168.073 14.9604 168.542 15.0353L168.784 13.52ZM172.264 9.28L173.115 10.5568L173.12 10.5534L172.264 9.28ZM177.624 9.25448C179.057 9.25448 180.285 9.55298 181.345 10.1155L182.783 7.40452C181.23 6.58035 179.498 6.18552 177.624 6.18552V9.25448ZM181.378 10.1325C182.395 10.6412 183.211 11.4475 183.822 12.6263L186.546 11.2137C185.664 9.51251 184.4 8.21214 182.75 7.38752L181.378 10.1325ZM183.832 12.646C184.447 13.791 184.81 15.3836 184.81 17.52H187.879C187.879 15.0697 187.468 12.929 186.536 11.194L183.832 12.646ZM184.81 17.52V30H187.879V17.52H184.81ZM186.344 28.4655H177.304V31.5345H186.344V28.4655ZM178.839 30V19.08H175.77V30H178.839ZM178.839 19.08C178.839 17.6393 178.616 16.2222 177.817 15.2345L175.431 17.1655C175.538 17.2978 175.77 17.8007 175.77 19.08H178.839ZM177.838 15.2617C177.104 14.3121 176.076 13.7855 174.864 13.7855V16.8545C175.093 16.8545 175.237 16.9146 175.41 17.1383L177.838 15.2617ZM174.864 13.7855C174.061 13.7855 173.296 13.9904 172.611 14.4188L174.237 17.0212C174.405 16.9163 174.6 16.8545 174.864 16.8545V13.7855ZM172.611 14.4188C171.865 14.8847 171.344 15.5803 170.987 16.365L173.781 17.635C173.958 17.2464 174.13 17.0886 174.237 17.0212L172.611 14.4188ZM170.974 16.3955C170.617 17.2286 170.49 18.2388 170.49 19.32H173.559C173.559 18.4279 173.672 17.8914 173.794 17.6045L170.974 16.3955ZM170.49 19.32V30H173.559V19.32H170.49ZM172.024 28.4655H162.984V31.5345H172.024V28.4655ZM164.519 30V19.08H161.45V30H164.519ZM164.519 19.08C164.519 17.6508 164.312 16.2515 163.565 15.27L161.123 17.13C161.229 17.2685 161.45 17.7892 161.45 19.08H164.519ZM163.585 15.2975C162.848 14.284 161.77 13.7855 160.544 13.7855V16.8545C160.864 16.8545 160.987 16.9427 161.103 17.1025L163.585 15.2975ZM160.544 13.7855C159.741 13.7855 158.976 13.9904 158.291 14.4188L159.917 17.0212C160.085 16.9163 160.28 16.8545 160.544 16.8545V13.7855ZM158.291 14.4188C157.545 14.8847 157.024 15.5803 156.667 16.365L159.461 17.635C159.638 17.2464 159.81 17.0886 159.917 17.0212L158.291 14.4188ZM156.654 16.3955C156.297 17.2286 156.17 18.2388 156.17 19.32H159.239C159.239 18.4279 159.352 17.8914 159.474 17.6045L156.654 16.3955ZM156.17 19.32V30H159.239V19.32H156.17ZM157.704 28.4655H148.664V31.5345H157.704V28.4655ZM150.199 30V8.12H147.13V30H150.199ZM148.664 9.65448H157.264V6.58551H148.664V9.65448ZM155.73 8.12V14.4H158.799V8.12H155.73ZM158.349 13.315L156.589 11.555L154.419 13.725L156.179 15.485L158.349 13.315ZM156.877 13.3262C157.59 11.8993 158.503 10.9166 159.591 10.2891L158.057 7.63085C156.372 8.60336 155.071 10.0741 154.132 11.9538L156.877 13.3262ZM159.61 10.278C160.745 9.60123 162.018 9.25448 163.464 9.25448V6.18552C161.497 6.18552 159.676 6.66543 158.038 7.64196L159.61 10.278ZM163.464 9.25448C165.098 9.25448 166.482 9.6801 167.672 10.5025L169.416 7.97753C167.673 6.77323 165.67 6.18552 163.464 6.18552V9.25448ZM167.698 10.5203C168.791 11.2423 169.61 12.4358 170.05 14.3104L173.038 13.6096C172.464 11.1642 171.284 9.21107 169.39 7.95972L167.698 10.5203ZM171.786 12.4447L169.026 12.0047L168.542 15.0353L171.302 15.4753L171.786 12.4447ZM170.188 14.1394C170.88 12.5697 171.859 11.3943 173.115 10.5568L171.413 8.00323C169.629 9.19236 168.288 10.8436 167.38 12.9006L170.188 14.1394ZM173.12 10.5534C174.392 9.69849 175.875 9.25448 177.624 9.25448V6.18552C175.32 6.18552 173.23 6.7815 171.408 8.00662L173.12 10.5534ZM195.736 28.92L195.05 30.2925L195.057 30.2961L195.736 28.92ZM191.136 24.88L189.838 25.6987L189.844 25.7077L191.136 24.88ZM191.096 13.16L189.804 12.3323C189.801 12.3371 189.798 12.3419 189.795 12.3467L191.096 13.16ZM195.536 9.16L194.842 7.79137L194.834 7.7954L195.536 9.16ZM207.856 9L207.203 10.3884L207.211 10.3921L207.856 9ZM212.256 12.8L210.97 13.637C210.973 13.6417 210.976 13.6465 210.979 13.6512L212.256 12.8ZM213.896 20.12L215.427 20.2293L215.427 20.2221L213.896 20.12ZM213.816 21.16V22.6945C214.614 22.6945 215.279 22.0827 215.345 21.2874L213.816 21.16ZM196.976 21.16H195.442C195.442 22.0075 196.129 22.6945 196.976 22.6945V21.16ZM196.976 16.8V15.2655C196.129 15.2655 195.442 15.9525 195.442 16.8H196.976ZM209.016 16.8L209.512 18.2523C210.222 18.0099 210.653 17.2893 210.53 16.5489C210.407 15.8084 209.767 15.2655 209.016 15.2655V16.8ZM205.616 17.96H204.082C204.082 18.4552 204.321 18.9199 204.723 19.208C205.126 19.4961 205.643 19.5722 206.112 19.4123L205.616 17.96ZM205.136 15.8L203.752 16.4621C203.764 16.4866 203.776 16.5109 203.789 16.5348L205.136 15.8ZM203.896 14.4L203.06 15.6866C203.075 15.6966 203.091 15.7063 203.107 15.7158L203.896 14.4ZM200.016 14.4L200.806 15.7158C200.812 15.7122 200.818 15.7085 200.824 15.7047L200.016 14.4ZM198.776 15.8L200.149 16.4862C200.153 16.4782 200.157 16.4702 200.161 16.4621L198.776 15.8ZM198.896 21.72L200.235 20.9702L200.235 20.9702L198.896 21.72ZM200.496 23.24L199.81 24.6125C199.824 24.6196 199.839 24.6266 199.853 24.6332L200.496 23.24ZM205.496 23.32L204.926 21.8953C204.92 21.898 204.913 21.9007 204.906 21.9036L205.496 23.32ZM207.576 22.12L208.666 21.0395C208.129 20.498 207.276 20.433 206.663 20.887L207.576 22.12ZM212.296 26.88L213.42 27.9251C213.981 27.3223 213.966 26.3842 213.386 25.7995L212.296 26.88ZM208.336 29.52L208.88 30.9548L208.894 30.9497L208.336 29.52ZM202.736 28.8655C200.259 28.8655 198.167 28.4079 196.415 27.5439L195.057 30.2961C197.306 31.4054 199.88 31.9345 202.736 31.9345V28.8655ZM196.422 27.5475C194.674 26.6732 193.359 25.5057 192.428 24.0523L189.844 25.7077C191.1 27.6677 192.852 29.1935 195.05 30.2925L196.422 27.5475ZM192.434 24.0613C191.504 22.5866 191.031 20.9266 191.031 19.04H187.962C187.962 21.4734 188.582 23.7067 189.838 25.6987L192.434 24.0613ZM191.031 19.04C191.031 17.0846 191.498 15.4121 192.397 13.9733L189.795 12.3467C188.561 14.3213 187.962 16.5688 187.962 19.04H191.031ZM192.388 13.9877C193.33 12.5173 194.603 11.3654 196.238 10.5246L194.834 7.7954C192.736 8.87456 191.049 10.3894 189.804 12.3323L192.388 13.9877ZM196.23 10.5286C197.887 9.68876 199.765 9.25448 201.896 9.25448V6.18552C199.334 6.18552 196.973 6.71124 194.842 7.79139L196.23 10.5286ZM201.896 9.25448C203.848 9.25448 205.61 9.63861 207.203 10.3884L208.51 7.61157C206.476 6.65472 204.264 6.18552 201.896 6.18552V9.25448ZM207.211 10.3921C208.793 11.1257 210.036 12.2015 210.97 13.637L213.542 11.963C212.29 10.0385 210.6 8.58096 208.502 7.60793L207.211 10.3921ZM210.979 13.6512C211.897 15.0268 212.402 16.7933 212.402 19.04H215.471C215.471 16.3267 214.856 13.9332 213.533 11.9488L210.979 13.6512ZM212.402 19.04C212.402 19.3187 212.39 19.6438 212.365 20.0179L215.427 20.2221C215.456 19.7962 215.471 19.4013 215.471 19.04H212.402ZM212.366 20.0107C212.339 20.3789 212.313 20.7195 212.287 21.0326L215.345 21.2874C215.373 20.9605 215.4 20.6077 215.427 20.2293L212.366 20.0107ZM213.816 19.6255H196.976V22.6945H213.816V19.6255ZM198.511 21.16V16.8H195.442V21.16H198.511ZM196.976 18.3345H209.016V15.2655H196.976V18.3345ZM208.521 15.3477L205.121 16.5077L206.112 19.4123L209.512 18.2523L208.521 15.3477ZM207.151 17.96C207.151 16.9194 206.956 15.9312 206.483 15.0652L203.789 16.5348C203.957 16.8421 204.082 17.294 204.082 17.96H207.151ZM206.521 15.1379C206.11 14.2794 205.501 13.5734 204.686 13.0842L203.107 15.7158C203.358 15.8666 203.576 16.0939 203.752 16.4621L206.521 15.1379ZM204.733 13.1134C203.91 12.5785 202.967 12.3455 201.976 12.3455V15.4145C202.479 15.4145 202.816 15.5282 203.06 15.6866L204.733 13.1134ZM201.976 12.3455C200.983 12.3455 200.042 12.5791 199.209 13.0953L200.824 15.7047C201.11 15.5276 201.476 15.4145 201.976 15.4145V12.3455ZM199.227 13.0842C198.411 13.5734 197.803 14.2794 197.392 15.1379L200.161 16.4621C200.337 16.0939 200.554 15.8666 200.806 15.7158L199.227 13.0842ZM197.404 15.1138C196.977 15.9677 196.802 16.9376 196.802 17.96H199.871C199.871 17.2758 199.989 16.8056 200.149 16.4862L197.404 15.1138ZM196.802 17.96V19.32H199.871V17.96H196.802ZM196.802 19.32C196.802 20.4581 197.03 21.5284 197.557 22.4698L200.235 20.9702C200.016 20.5782 199.871 20.0485 199.871 19.32H196.802ZM197.557 22.4698C198.083 23.4088 198.846 24.1304 199.81 24.6125L201.182 21.8675C200.76 21.6562 200.456 21.3645 200.235 20.9702L197.557 22.4698ZM199.853 24.6332C200.798 25.0693 201.87 25.2545 203.016 25.2545V22.1855C202.189 22.1855 201.581 22.0507 201.139 21.8468L199.853 24.6332ZM203.016 25.2545C204.147 25.2545 205.194 25.1083 206.086 24.7364L204.906 21.9036C204.518 22.065 203.913 22.1855 203.016 22.1855V25.2545ZM206.066 24.7447C206.881 24.4189 207.689 23.9463 208.49 23.353L206.663 20.887C206.024 21.3604 205.445 21.6878 204.926 21.8953L206.066 24.7447ZM206.487 23.2005L211.207 27.9605L213.386 25.7995L208.666 21.0395L206.487 23.2005ZM211.173 25.8349C210.276 26.7994 209.154 27.5542 207.779 28.0903L208.894 30.9497C210.665 30.2591 212.184 29.254 213.42 27.9251L211.173 25.8349ZM207.792 28.0853C206.465 28.5885 204.793 28.8655 202.736 28.8655V31.9345C205.052 31.9345 207.114 31.6248 208.88 30.9547L207.792 28.0853Z" fill="white" mask="url(#path-1-outside-1_386_4760)"/>
</g>
<defs>
<filter id="filter0_d_386_4760" x="0.240234" y="0.319824" width="216.316" height="31.6527" filterUnits="userSpaceOnUse" color-interpolation-filters="sRGB">
<feFlood flood-opacity="0" result="BackgroundImageFix"/>
<feColorMatrix in="SourceAlpha" type="matrix" values="0 0 0 0 0 0 0 0 0 0 0 0 0 0 0 0 0 0 127 0" result="hardAlpha"/>
<feOffset dx="2.62101" dy="1.57261"/>
<feComposite in2="hardAlpha" operator="out"/>
<feColorMatrix type="matrix" values="0 0 0 0 0 0 0 0 0 0 0 0 0 0 0 0 0 0 1 0"/>
<feBlend mode="normal" in2="BackgroundImageFix" result="effect1_dropShadow_386_4760"/>
<feBlend mode="normal" in="SourceGraphic" in2="effect1_dropShadow_386_4760" result="shape"/>
</filter>
</defs>
</svg>
