<svg width="94" height="93" viewBox="0 0 94 93" fill="none" xmlns="http://www.w3.org/2000/svg">
<path d="M46.1169 1.71578C46.5954 1.27532 47.3316 1.27532 47.8101 1.71577L50.6722 4.3505C51.3355 4.96113 52.3163 5.07578 53.1026 4.63457L56.4951 2.73091C57.0622 2.41267 57.7786 2.58246 58.1426 3.12138L60.3199 6.34511C60.8245 7.09226 61.7525 7.43002 62.6193 7.18203L66.3594 6.11205C66.9847 5.93317 67.6426 6.26361 67.8725 6.87193L69.2477 10.5109C69.5664 11.3543 70.3914 11.8969 71.2921 11.8555L75.1781 11.6769C75.8277 11.6471 76.3917 12.1203 76.4751 12.7653L76.974 16.6233C77.0897 17.5174 77.7673 18.2357 78.6533 18.4031L82.4757 19.1255C83.1147 19.2463 83.5544 19.8368 83.4868 20.4836L83.0825 24.3527C82.9889 25.2494 83.4826 26.1046 84.306 26.4718L87.8589 28.0563C88.4528 28.3211 88.7444 28.9972 88.5295 29.611L87.2439 33.2825C86.9459 34.1334 87.2291 35.0795 87.9457 35.6267L91.0374 37.9878C91.5542 38.3825 91.682 39.1075 91.3314 39.6552L89.2337 42.9313C88.7475 43.6906 88.8049 44.6764 89.3759 45.3741L91.8398 48.3845C92.2517 48.8878 92.2089 49.6228 91.7413 50.0748L88.9447 52.7788C88.2965 53.4055 88.125 54.3781 88.5198 55.1886L90.2229 58.6861C90.5077 59.2708 90.2965 59.9761 89.7373 60.3081L86.3925 62.2943C85.6172 62.7546 85.2261 63.6614 85.4233 64.5412L86.274 68.3371C86.4162 68.9717 86.048 69.6093 85.4274 69.8035L81.7146 70.9647C80.8541 71.2338 80.2644 72.026 80.2534 72.9275L80.2057 76.8173C80.1978 77.4676 79.6925 78.0031 79.0438 78.0489L75.1633 78.3226C74.264 78.3861 73.5075 79.0208 73.2888 79.8955L72.3454 83.6695C72.1877 84.3004 71.5726 84.705 70.9308 84.5999L67.0918 83.9714C66.2021 83.8257 65.3196 84.2689 64.9051 85.0696L63.1168 88.5243C62.8178 89.1018 62.126 89.3536 61.5257 89.1034L57.9352 87.6064C57.103 87.2595 56.1421 87.4872 55.5541 88.1707L53.0173 91.1199C52.5932 91.6129 51.8619 91.6984 51.3356 91.3165L48.187 89.0318C47.4573 88.5023 46.4698 88.5023 45.74 89.0318L42.5915 91.3165C42.0651 91.6984 41.3338 91.6129 40.9097 91.1199L38.3729 88.1707C37.785 87.4872 36.8241 87.2595 35.9919 87.6064L32.4013 89.1034C31.8011 89.3536 31.1092 89.1018 30.8103 88.5243L29.0219 85.0696C28.6075 84.2689 27.725 83.8257 26.8352 83.9714L22.9962 84.5999C22.3544 84.705 21.7393 84.3004 21.5816 83.6695L20.6382 79.8955C20.4195 79.0208 19.6631 78.3861 18.7637 78.3226L14.8832 78.0489C14.2345 78.0031 13.7293 77.4676 13.7213 76.8173L13.6737 72.9275C13.6626 72.026 13.0729 71.2338 12.2124 70.9647L8.49965 69.8035C7.87899 69.6093 7.51086 68.9717 7.65307 68.3371L8.50378 64.5412C8.70095 63.6614 8.30981 62.7546 7.53458 62.2943L4.1897 60.3081C3.63053 59.9761 3.41937 59.2708 3.7041 58.6861L5.40729 55.1886C5.80203 54.3781 5.63054 53.4055 4.98237 52.7788L2.1857 50.0748C1.71817 49.6228 1.67536 48.8878 2.08725 48.3845L4.5511 45.3741C5.12213 44.6764 5.17955 43.6906 4.69338 42.9313L2.59567 39.6552C2.245 39.1075 2.37285 38.3825 2.88969 37.9878L5.98137 35.6267C6.69792 35.0795 6.98114 34.1334 6.68318 33.2825L5.39753 29.611C5.18261 28.9972 5.47422 28.3211 6.06816 28.0563L9.621 26.4718C10.4444 26.1046 10.9382 25.2494 10.8445 24.3527L10.4402 20.4836C10.3726 19.8368 10.8123 19.2463 11.4513 19.1255L15.2738 18.4031C16.1597 18.2357 16.8374 17.5174 16.953 16.6233L17.4519 12.7653C17.5353 12.1203 18.0993 11.6471 18.7489 11.6769L22.635 11.8555C23.5356 11.8969 24.3607 11.3543 24.6794 10.5109L26.0546 6.87194C26.2844 6.2636 26.9424 5.93317 27.5676 6.11205L31.3077 7.18203C32.1745 7.43001 33.1025 7.09226 33.6071 6.34512L35.7844 3.12138C36.1484 2.58246 36.8648 2.41267 37.4319 2.73091L40.8245 4.63458C41.6107 5.07578 42.5916 4.96113 43.2549 4.3505L46.1169 1.71578Z" fill="black" stroke="white" stroke-width="0.833309"/>
<path d="M46.9596 16.3691L47.6144 18.3844L49.7334 18.3845L48.0191 19.63L48.6739 21.6453L46.9596 20.3998L45.2452 21.6453L45.9 19.63L44.1857 18.3845L46.3047 18.3844L46.9596 16.3691Z" fill="white"/>
<path d="M29.5952 44.6738C28.7039 44.9629 27.7404 45.1074 26.7046 45.1074C23.0915 45.1074 21.2849 43.3129 21.2849 39.7238C21.2849 36.3274 23.0915 34.6292 26.7046 34.6292C27.7404 34.6292 28.7039 34.7737 29.5952 35.0628V36.219C28.7039 35.8818 27.7886 35.7132 26.8492 35.7132C24.0309 35.7132 22.6217 37.05 22.6217 39.7238C22.6217 42.5902 24.0309 44.0235 26.8492 44.0235C27.7886 44.0235 28.7039 43.8549 29.5952 43.5176V44.6738ZM32.6375 41.2124C32.6375 43.0383 33.3962 43.9512 34.9138 43.9512C36.4313 43.9512 37.1901 43.0383 37.1901 41.2124C37.1901 39.4251 36.4313 38.5314 34.9138 38.5314C33.3962 38.5314 32.6375 39.4251 32.6375 41.2124ZM31.3006 41.2413C31.3006 38.7121 32.505 37.4475 34.9138 37.4475C37.3226 37.4475 38.527 38.7121 38.527 41.2413C38.527 43.7657 37.3226 45.0279 34.9138 45.0279C32.5146 45.0279 31.3102 43.7657 31.3006 41.2413ZM40.3335 45.0352V37.4475H41.2368L41.4753 38.4158C42.2509 37.7703 43.1036 37.4475 44.0334 37.4475C45.9267 37.4475 46.8734 38.3893 46.8734 40.273V45.0352H45.5365V40.2513C45.5365 39.124 44.9753 38.5603 43.8528 38.5603C43.0868 38.5603 42.3593 38.8807 41.6704 39.5214V45.0352H40.3335ZM49.0485 36.219H49.8868L50.1758 37.4475H52.2281V38.5314H50.3854V42.8889C50.3854 43.5971 50.6913 43.9512 51.3032 43.9512H52.2281V45.0352H50.9563C49.6844 45.0352 49.0485 44.3535 49.0485 42.9901V36.219ZM53.5722 42.7444C53.5722 41.1883 54.5984 40.4103 56.6507 40.4103C57.3107 40.4103 57.9707 40.4585 58.6307 40.5548V39.8394C58.6307 38.9674 57.949 38.5314 56.5856 38.5314C55.8052 38.5314 55.0055 38.6519 54.1865 38.8928V37.8088C55.0055 37.5679 55.8052 37.4475 56.5856 37.4475C58.8402 37.4475 59.9676 38.2327 59.9676 39.8033V45.0352H59.216L58.7535 44.2836C57.9972 44.7846 57.1734 45.0352 56.2821 45.0352C54.4755 45.0352 53.5722 44.2716 53.5722 42.7444ZM56.6507 41.4942C55.4896 41.4942 54.9091 41.9037 54.9091 42.7227C54.9091 43.5417 55.3668 43.9512 56.2821 43.9512C57.2071 43.9512 57.9899 43.7055 58.6307 43.2141V41.6388C57.9707 41.5424 57.3107 41.4942 56.6507 41.4942ZM67.8515 44.8184C67.2252 44.9629 66.5508 45.0352 65.8281 45.0352C63.1303 45.0352 61.7814 43.7224 61.7814 41.0968C61.7814 38.6639 63.1303 37.4475 65.8281 37.4475C66.5508 37.4475 67.2252 37.5197 67.8515 37.6643V38.7482C67.2252 38.6037 66.5267 38.5314 65.7559 38.5314C63.9975 38.5314 63.1182 39.3866 63.1182 41.0968C63.1182 42.9997 63.9975 43.9512 65.7559 43.9512C66.5267 43.9512 67.2252 43.8789 67.8515 43.7344V44.8184ZM69.5569 36.219H70.3952L70.6842 37.4475H72.7365V38.5314H70.8938V42.8889C70.8938 43.5971 71.1997 43.9512 71.8116 43.9512H72.7365V45.0352H71.4647C70.1928 45.0352 69.5569 44.3535 69.5569 42.9901V36.219ZM37.4358 59.0352V51.4475H38.3391L38.5631 52.4014C39.2905 51.7654 40.083 51.4475 40.9406 51.4475C42.039 51.4475 42.7881 51.7943 43.188 52.4881C44.0118 51.7943 44.8476 51.4475 45.6955 51.4475C47.4395 51.4475 48.3114 52.4086 48.3114 54.3308V59.0352H46.9746V54.2585C46.9746 53.1264 46.4976 52.5603 45.5437 52.5603C44.8307 52.5603 44.1635 52.8879 43.542 53.5431V59.0352H42.2052V54.2802C42.2052 53.1336 41.7331 52.5603 40.7888 52.5603C40.0373 52.5603 39.3652 52.8879 38.7727 53.5431V59.0352H37.4358ZM53.6156 51.4475C55.7739 51.4475 56.853 52.5146 56.853 54.6488C56.853 54.9523 56.8313 55.2775 56.788 55.6243H51.4621C51.4621 57.1756 52.3678 57.9512 54.1792 57.9512C55.0416 57.9512 55.8076 57.8549 56.4772 57.6621V58.7461C55.8076 58.9388 54.9934 59.0352 54.0347 59.0352C51.4284 59.0352 50.1253 57.7416 50.1253 55.1546C50.1253 52.6832 51.2887 51.4475 53.6156 51.4475ZM51.4621 54.5115H55.5667C55.5378 53.1818 54.8874 52.517 53.6156 52.517C52.2667 52.517 51.5488 53.1818 51.4621 54.5115Z" fill="white"/>
<path d="M46.9596 71.8682L47.6144 73.8835L49.7334 73.8835L48.0191 75.129L48.6739 77.1443L46.9596 75.8988L45.2452 77.1443L45.9 75.129L44.1857 73.8835L46.3047 73.8835L46.9596 71.8682Z" fill="white"/>
</svg>
