<svg width="194" height="194" viewBox="0 0 194 194" fill="none" xmlns="http://www.w3.org/2000/svg">
<path d="M134.353 56.2073C133.939 56.0482 133.52 55.8495 133.096 55.6113C132.676 55.3765 132.304 55.1224 131.98 54.849C131.487 54.4337 131.121 54.0019 130.881 53.5537C130.641 53.1055 130.518 52.6435 130.512 52.1678C130.51 51.6956 130.619 51.2119 130.84 50.7169C131.064 50.2178 131.392 49.7117 131.825 49.1987C132.296 48.6405 132.782 48.2047 133.285 47.8915C133.792 47.5816 134.302 47.3935 134.815 47.3271C135.335 47.26 135.852 47.3132 136.366 47.4866C136.884 47.6636 137.389 47.9597 137.881 48.375C138.132 48.5861 138.364 48.8273 138.577 49.0987C138.794 49.366 139.003 49.6511 139.204 49.9541L138.213 50.5927C138.058 50.343 137.906 50.1197 137.756 49.923C137.61 49.7296 137.436 49.5482 137.235 49.3786C136.537 48.7903 135.828 48.54 135.108 48.628C134.391 48.7118 133.689 49.1621 133 49.9788C132.678 50.3605 132.416 50.7257 132.213 51.0744C132.018 51.4225 131.9 51.7621 131.86 52.0932C131.827 52.4236 131.885 52.7463 132.033 53.0614C132.186 53.3798 132.451 53.6983 132.829 54.0167C133.075 54.2243 133.366 54.4168 133.701 54.594C134.044 54.7706 134.415 54.9467 134.815 55.1222L134.353 56.2073Z" fill="black"/>
<path d="M145.947 56.4681C146.11 56.6747 146.263 56.903 146.405 57.153C146.552 57.3998 146.666 57.6656 146.747 57.9504C146.823 58.2385 146.856 58.5406 146.846 58.8566C146.843 59.1736 146.773 59.5055 146.636 59.8525C146.495 60.2028 146.277 60.563 145.981 60.9332C145.689 61.3 145.294 61.6795 144.796 62.0716C144.299 62.4638 143.835 62.7606 143.406 62.9621C142.982 63.1603 142.584 63.2853 142.215 63.3371C141.842 63.3922 141.498 63.386 141.185 63.3183C140.875 63.2549 140.592 63.1505 140.334 63.0053C140.071 62.8634 139.837 62.6923 139.632 62.4921C139.422 62.2952 139.235 62.0935 139.073 61.8869C138.913 61.6845 138.762 61.4583 138.62 61.2082C138.476 60.9657 138.366 60.7004 138.29 60.4122C138.209 60.1274 138.174 59.827 138.184 59.5109C138.195 59.1949 138.271 58.8617 138.412 58.5114C138.548 58.1645 138.762 57.8076 139.054 57.4408C139.351 57.0706 139.747 56.6895 140.245 56.2973C140.742 55.9051 141.204 55.61 141.628 55.4118C142.058 55.2103 142.459 55.082 142.832 55.0269C143.202 54.975 143.539 54.9825 143.845 55.0493C144.154 55.1127 144.44 55.2154 144.703 55.3573C144.961 55.5026 145.191 55.6732 145.393 55.8692C145.6 56.0618 145.785 56.2615 145.947 56.4681ZM145.056 57.171C144.866 56.9306 144.649 56.7329 144.403 56.5776C144.161 56.4266 143.882 56.3458 143.566 56.3351C143.243 56.3236 142.88 56.3973 142.479 56.5562C142.078 56.7151 141.623 56.9956 141.112 57.3978C140.606 57.7966 140.227 58.1741 139.975 58.5303C139.726 58.8832 139.572 59.2166 139.512 59.5306C139.445 59.8437 139.456 60.1356 139.546 60.4062C139.644 60.6777 139.788 60.9337 139.977 61.174C140.17 61.4186 140.387 61.6201 140.628 61.7786C140.877 61.9381 141.163 62.0236 141.486 62.0351C141.806 62.05 142.164 61.9759 142.562 61.8127C142.967 61.6505 143.423 61.37 143.929 60.9712C144.439 60.569 144.818 60.1915 145.067 59.8386C145.318 59.49 145.476 59.157 145.54 58.8397C145.6 58.5257 145.582 58.2291 145.485 57.9501C145.392 57.6752 145.248 57.4155 145.056 57.171Z" fill="black"/>
<path d="M151.85 65.21L152.693 66.289C152.446 66.5196 152.196 66.7188 151.943 66.8868C151.821 66.9684 151.574 67.1161 151.2 67.3297L151.272 67.4824C151.889 67.5161 152.436 67.66 152.914 67.9143C153.439 68.1935 153.816 68.573 154.044 69.053C154.388 69.7753 154.475 70.4086 154.306 70.9528C154.165 71.4183 153.819 71.8594 153.268 72.2761C152.89 72.557 152.289 72.8934 151.465 73.2856L147.48 75.1819L146.885 73.9312L151.219 71.8688C151.941 71.5251 152.424 71.2091 152.668 70.9209C153.029 70.4932 153.06 69.9643 152.76 69.3341C152.548 68.8881 152.127 68.5533 151.497 68.3297C151.075 68.1798 150.51 68.0739 149.803 68.0121L145.127 70.2371L144.532 68.9864L149.186 66.7718C149.841 66.4604 150.397 66.1746 150.856 65.9146C151.143 65.7545 151.474 65.5196 151.85 65.21Z" fill="black"/>
<path d="M159.677 78.6543L160.007 79.9996L158.145 80.4559L158.816 83.1934L157.682 83.4715L157.011 80.7339L152.342 81.8786C152.029 81.9552 151.791 82.0219 151.628 82.0784C151.471 82.1389 151.355 82.2171 151.279 82.3131C151.125 82.4947 151.098 82.7915 151.199 83.2034C151.255 83.4328 151.333 83.6487 151.432 83.851C151.533 84.0585 151.634 84.2465 151.736 84.4149C151.454 84.6389 151.137 84.8575 150.786 85.0707C150.427 84.5065 150.17 83.9116 150.017 83.2859C149.906 82.8322 149.868 82.4545 149.905 82.1525C149.938 81.8571 150.049 81.6031 150.24 81.3904C150.441 81.1699 150.701 80.9928 151.022 80.8588C151.343 80.7249 151.798 80.5857 152.387 80.4412L156.681 79.3886L156.394 78.2154L157.528 77.9374L157.816 79.1106L159.677 78.6543Z" fill="black"/>
<path d="M158.599 90.3856L159.708 89.9773C160.11 90.8608 160.336 91.7959 160.383 92.7826C160.425 93.6459 160.312 94.3125 160.045 94.7823C159.737 95.3185 159.184 95.606 158.385 95.6446L155.095 95.8036C154.655 95.8248 154.205 95.8519 153.745 95.885C153.471 95.9035 153.189 95.9441 152.896 96.0066C152.619 96.063 152.356 96.1321 152.108 96.214L151.754 94.9088C152.108 94.7681 152.506 94.671 152.95 94.6173L152.958 94.4556C152.089 93.8311 151.63 93.0041 151.58 91.9745C151.544 91.2237 151.721 90.6105 152.112 90.1347C152.508 89.6587 153.085 89.4024 153.841 89.3659C154.404 89.3387 154.871 89.4397 155.242 89.669C155.614 89.9037 155.934 90.243 156.202 90.6868C156.629 91.3865 156.873 92.3825 156.935 93.6748C156.944 93.8464 156.949 94.0773 156.953 94.3674L158.175 94.3083C158.561 94.2896 158.835 94.1582 158.995 93.9139C159.155 93.6697 159.223 93.2955 159.199 92.7915C159.163 92.0568 158.963 91.2549 158.599 90.3856ZM154.25 94.498L155.939 94.4163C155.943 94.271 155.938 94.059 155.925 93.7801C155.902 93.3082 155.841 92.8758 155.741 92.4829C155.594 91.8987 155.385 91.4493 155.111 91.1346C154.844 90.8251 154.471 90.6818 153.994 90.7049C153.136 90.7463 152.73 91.2336 152.775 92.1667C152.798 92.6493 152.949 93.0935 153.226 93.4993C153.457 93.8322 153.799 94.1651 154.25 94.498Z" fill="black"/>
<path d="M151.353 107.203C151.27 106.768 151.218 106.307 151.197 105.821C151.176 105.34 151.195 104.89 151.257 104.47C151.35 103.833 151.524 103.294 151.778 102.854C152.033 102.414 152.36 102.065 152.761 101.809C153.161 101.559 153.63 101.397 154.167 101.323C154.71 101.251 155.313 101.263 155.977 101.36C156.699 101.466 157.326 101.65 157.857 101.912C158.388 102.18 158.817 102.514 159.143 102.915C159.474 103.321 159.702 103.789 159.825 104.317C159.948 104.85 159.962 105.435 159.869 106.073C159.822 106.397 159.739 106.721 159.621 107.046C159.508 107.371 159.376 107.699 159.225 108.03L158.159 107.524C158.29 107.261 158.399 107.013 158.487 106.782C158.575 106.556 158.637 106.313 158.676 106.053C158.808 105.15 158.647 104.415 158.192 103.85C157.743 103.285 156.99 102.925 155.933 102.77C155.439 102.698 154.991 102.668 154.587 102.679C154.189 102.697 153.838 102.776 153.535 102.916C153.237 103.062 152.993 103.281 152.804 103.574C152.614 103.871 152.483 104.265 152.412 104.753C152.365 105.072 152.355 105.421 152.381 105.799C152.411 106.183 152.457 106.591 152.519 107.024L151.353 107.203Z" fill="black"/>
<path d="M159.683 115.353L159.234 116.663L157.421 116.042L156.507 118.708L155.403 118.33L156.316 115.664L151.768 114.105C151.463 114.001 151.227 113.928 151.059 113.888C150.895 113.854 150.755 113.857 150.639 113.897C150.411 113.966 150.228 114.202 150.091 114.603C150.014 114.826 149.963 115.05 149.938 115.274C149.91 115.503 149.894 115.716 149.889 115.913C149.53 115.949 149.146 115.962 148.735 115.952C148.737 115.283 148.843 114.643 149.051 114.034C149.203 113.592 149.375 113.254 149.569 113.02C149.756 112.789 149.988 112.635 150.263 112.559C150.551 112.482 150.866 112.474 151.208 112.534C151.551 112.595 152.009 112.723 152.583 112.92L156.765 114.353L157.157 113.211L158.261 113.589L157.87 114.732L159.683 115.353Z" fill="black"/>
<path d="M138.388 133.673C138.541 133.256 138.732 132.834 138.963 132.406C139.191 131.982 139.439 131.606 139.707 131.277C140.114 130.778 140.54 130.404 140.984 130.157C141.428 129.91 141.888 129.779 142.363 129.765C142.836 129.755 143.321 129.856 143.82 130.068C144.322 130.284 144.834 130.604 145.354 131.028C145.92 131.49 146.364 131.969 146.685 132.467C147.004 132.968 147.2 133.475 147.275 133.986C147.351 134.505 147.306 135.023 147.142 135.54C146.973 136.061 146.686 136.571 146.279 137.07C146.072 137.324 145.834 137.56 145.567 137.778C145.303 137.999 145.021 138.213 144.722 138.419L144.067 137.438C144.314 137.28 144.534 137.124 144.729 136.97C144.92 136.821 145.098 136.645 145.264 136.441C145.841 135.733 146.079 135.02 145.979 134.302C145.884 133.586 145.422 132.891 144.594 132.216C144.207 131.901 143.837 131.645 143.485 131.448C143.134 131.258 142.792 131.146 142.46 131.111C142.13 131.084 141.808 131.147 141.495 131.301C141.179 131.459 140.865 131.73 140.553 132.113C140.35 132.362 140.162 132.656 139.991 132.994C139.82 133.34 139.65 133.714 139.481 134.116L138.388 133.673Z" fill="black"/>
<path d="M138.318 145.261C138.114 145.427 137.889 145.584 137.641 145.73C137.397 145.881 137.133 145.999 136.85 146.085C136.563 146.167 136.261 146.205 135.945 146.199C135.628 146.202 135.295 146.137 134.946 146.007C134.593 145.872 134.229 145.659 133.854 145.369C133.483 145.084 133.097 144.695 132.696 144.204C132.296 143.714 131.991 143.255 131.782 142.83C131.577 142.408 131.445 142.013 131.387 141.645C131.326 141.272 131.326 140.929 131.389 140.615C131.447 140.304 131.547 140.018 131.688 139.758C131.825 139.493 131.992 139.257 132.189 139.048C132.382 138.834 132.581 138.645 132.785 138.478C132.984 138.316 133.208 138.161 133.455 138.014C133.696 137.867 133.959 137.752 134.246 137.671C134.529 137.585 134.829 137.545 135.145 137.55C135.461 137.556 135.796 137.626 136.148 137.761C136.498 137.891 136.858 138.1 137.23 138.385C137.605 138.675 137.993 139.066 138.393 139.557C138.794 140.047 139.096 140.504 139.302 140.925C139.51 141.351 139.645 141.75 139.707 142.122C139.765 142.491 139.763 142.828 139.701 143.135C139.643 143.446 139.545 143.733 139.408 143.998C139.267 144.258 139.1 144.491 138.908 144.697C138.719 144.907 138.522 145.095 138.318 145.261ZM137.6 144.381C137.838 144.188 138.032 143.967 138.183 143.719C138.33 143.475 138.406 143.194 138.411 142.878C138.417 142.554 138.337 142.193 138.172 141.795C138.006 141.397 137.718 140.946 137.307 140.442C136.9 139.943 136.516 139.57 136.156 139.324C135.799 139.082 135.463 138.933 135.148 138.878C134.834 138.816 134.542 138.832 134.273 138.927C134.003 139.029 133.75 139.177 133.513 139.371C133.271 139.568 133.073 139.788 132.919 140.032C132.764 140.283 132.683 140.571 132.677 140.894C132.667 141.214 132.748 141.571 132.917 141.966C133.086 142.369 133.375 142.819 133.782 143.319C134.193 143.822 134.576 144.195 134.933 144.437C135.286 144.683 135.622 144.835 135.94 144.894C136.255 144.949 136.551 144.925 136.829 144.824C137.102 144.726 137.359 144.578 137.6 144.381Z" fill="black"/>
<path d="M129.684 151.306L128.619 152.168C128.384 151.925 128.181 151.678 128.009 151.428C127.925 151.308 127.773 151.062 127.553 150.692L127.402 150.767C127.379 151.384 127.244 151.934 126.998 152.416C126.727 152.945 126.354 153.329 125.878 153.565C125.162 153.921 124.53 154.019 123.983 153.859C123.515 153.725 123.068 153.387 122.642 152.843C122.355 152.47 122.009 151.875 121.603 151.058L119.64 147.105L120.88 146.489L123.015 150.788C123.371 151.504 123.695 151.982 123.987 152.22C124.421 152.574 124.95 152.596 125.575 152.286C126.018 152.066 126.345 151.639 126.558 151.006C126.701 150.582 126.798 150.015 126.848 149.307L124.544 144.669L125.785 144.053L128.077 148.669C128.4 149.319 128.695 149.87 128.962 150.325C129.127 150.609 129.368 150.936 129.684 151.306Z" fill="black"/>
<path d="M116.375 159.357L115.036 159.709L114.548 157.856L111.822 158.572L111.525 157.443L114.251 156.726L113.029 152.077C112.947 151.765 112.876 151.528 112.817 151.366C112.754 151.211 112.674 151.096 112.576 151.022C112.392 150.87 112.095 150.848 111.685 150.956C111.457 151.016 111.242 151.098 111.041 151.2C110.836 151.304 110.649 151.409 110.483 151.514C110.254 151.235 110.03 150.922 109.811 150.575C110.369 150.206 110.96 149.939 111.583 149.776C112.034 149.657 112.412 149.613 112.714 149.645C113.01 149.672 113.266 149.78 113.482 149.967C113.706 150.164 113.887 150.422 114.026 150.74C114.166 151.059 114.312 151.512 114.467 152.098L115.591 156.374L116.759 156.067L117.056 157.196L115.888 157.503L116.375 159.357Z" fill="black"/>
<path d="M104.623 158.475L105.049 159.577C104.173 159.995 103.242 160.236 102.256 160.3C101.393 160.356 100.725 160.254 100.251 159.995C99.7095 159.696 99.4128 159.148 99.3609 158.35L99.1468 155.063C99.1182 154.624 99.0835 154.174 99.0428 153.714C99.0197 153.441 98.9744 153.159 98.907 152.868C98.846 152.592 98.7725 152.33 98.6864 152.083L99.9855 151.708C100.132 152.059 100.236 152.456 100.297 152.898L100.459 152.904C101.069 152.025 101.888 151.552 102.917 151.485C103.667 151.436 104.283 151.603 104.765 151.986C105.248 152.374 105.513 152.946 105.563 153.701C105.599 154.264 105.506 154.732 105.283 155.107C105.055 155.483 104.721 155.809 104.281 156.085C103.589 156.522 102.597 156.783 101.306 156.868C101.135 156.879 100.904 156.888 100.614 156.896L100.693 158.118C100.719 158.504 100.855 158.775 101.101 158.931C101.348 159.087 101.724 159.148 102.227 159.116C102.961 159.068 103.76 158.854 104.623 158.475ZM100.438 154.196L100.548 155.884C100.693 155.885 100.905 155.877 101.184 155.859C101.655 155.828 102.087 155.759 102.478 155.653C103.059 155.497 103.505 155.28 103.815 155.001C104.12 154.729 104.257 154.354 104.226 153.877C104.171 153.02 103.677 152.622 102.744 152.682C102.262 152.714 101.821 152.872 101.419 153.156C101.091 153.393 100.763 153.739 100.438 154.196Z" fill="black"/>
<path d="M87.6815 151.512C88.1154 151.422 88.5751 151.363 89.0607 151.333C89.5409 151.303 89.9914 151.316 90.412 151.37C91.0509 151.453 91.5926 151.617 92.0371 151.864C92.4815 152.111 92.8351 152.433 93.0978 152.83C93.3552 153.226 93.525 153.691 93.6073 154.227C93.689 154.768 93.6868 155.372 93.6007 156.037C93.5071 156.761 93.3337 157.391 93.0804 157.927C92.8217 158.462 92.495 158.896 92.1 159.229C91.699 159.567 91.2356 159.802 90.7096 159.934C90.1783 160.066 89.5932 160.091 88.9543 160.008C88.6295 159.966 88.3039 159.889 87.9774 159.776C87.6502 159.669 87.3201 159.542 86.9871 159.396L87.4751 158.323C87.7402 158.449 87.9892 158.554 88.2219 158.638C88.4493 158.722 88.6934 158.781 88.9543 158.814C89.8595 158.931 90.591 158.758 91.149 158.294C91.7063 157.836 92.0534 157.077 92.1904 156.017C92.2544 155.522 92.2773 155.073 92.259 154.67C92.2347 154.272 92.1499 153.922 92.0047 153.622C91.8535 153.326 91.6301 153.086 91.3345 152.902C91.0336 152.717 90.6383 152.593 90.1484 152.53C89.8289 152.488 89.4804 152.484 89.1027 152.516C88.7189 152.553 88.3115 152.606 87.8804 152.675L87.6815 151.512Z" fill="black"/>
<path d="M79.6772 159.978L78.3594 159.551L78.95 157.727L76.2686 156.859L76.6284 155.748L79.3098 156.617L80.7913 152.043C80.8905 151.736 80.959 151.499 80.9966 151.331C81.0274 151.166 81.022 151.026 80.9803 150.91C80.907 150.684 80.6687 150.505 80.2652 150.374C80.0404 150.301 79.8159 150.254 79.5916 150.232C79.3622 150.209 79.1491 150.196 78.9521 150.194C78.91 149.836 78.8906 149.452 78.8939 149.041C79.5627 149.032 80.2036 149.127 80.8165 149.325C81.2609 149.469 81.6018 149.636 81.8395 149.826C82.0736 150.009 82.2309 150.238 82.3113 150.512C82.3936 150.798 82.4073 151.113 82.3525 151.457C82.2977 151.8 82.1768 152.26 81.9899 152.837L80.6276 157.043L81.7767 157.416L81.4169 158.526L80.2678 158.154L79.6772 159.978Z" fill="black"/>
<path d="M60.9991 138.984C61.4178 139.129 61.843 139.314 62.2749 139.538C62.7025 139.758 63.0829 140 63.4161 140.262C63.9222 140.661 64.3027 141.08 64.5575 141.52C64.8124 141.96 64.9509 142.418 64.9729 142.893C64.9907 143.365 64.8976 143.852 64.6935 144.354C64.486 144.86 64.1746 145.377 63.7594 145.904C63.3076 146.478 62.8356 146.93 62.3434 147.26C61.847 147.586 61.3438 147.791 60.8338 147.875C60.3163 147.959 59.7978 147.923 59.2785 147.767C58.7549 147.607 58.24 147.328 57.7339 146.93C57.4767 146.727 57.2368 146.494 57.0143 146.23C56.7884 145.97 56.57 145.692 56.359 145.396L57.3286 144.724C57.4914 144.969 57.6511 145.187 57.8077 145.378C57.9601 145.567 58.1396 145.742 58.3462 145.905C59.0632 146.47 59.7801 146.696 60.497 146.584C61.2106 146.477 61.8979 146.003 62.559 145.164C62.8679 144.772 63.1179 144.398 63.3089 144.043C63.4923 143.688 63.5987 143.345 63.6281 143.013C63.6499 142.681 63.5812 142.361 63.4221 142.051C63.2587 141.738 62.983 141.428 62.595 141.123C62.342 140.923 62.045 140.741 61.7042 140.575C61.3558 140.41 60.9789 140.246 60.5736 140.084L60.9991 138.984Z" fill="black"/>
<path d="M49.4143 139.12C49.2446 138.919 49.0844 138.696 48.9336 138.451C48.7788 138.209 48.6561 137.947 48.5656 137.665C48.4792 137.38 48.436 137.079 48.436 136.763C48.4285 136.446 48.4872 136.112 48.6121 135.761C48.7411 135.406 48.9473 135.038 49.2308 134.659C49.5102 134.282 49.892 133.89 50.376 133.481C50.86 133.072 51.3131 132.76 51.7351 132.544C52.1531 132.332 52.5457 132.193 52.9131 132.129C53.2845 132.061 53.6278 132.056 53.943 132.113C54.2548 132.166 54.542 132.261 54.8048 132.397C55.0717 132.53 55.3113 132.693 55.5236 132.887C55.74 133.076 55.933 133.272 56.1027 133.473C56.269 133.67 56.4275 133.891 56.5782 134.136C56.7296 134.373 56.8485 134.635 56.9349 134.92C57.0254 135.202 57.0706 135.501 57.0706 135.817C57.0706 136.134 57.0061 136.469 56.8771 136.824C56.7522 137.175 56.55 137.539 56.2706 137.916C55.9871 138.296 55.6033 138.69 55.1193 139.099C54.6352 139.507 54.1842 139.818 53.7663 140.03C53.3443 140.246 52.9475 140.388 52.5761 140.455C52.2087 140.52 51.8712 140.524 51.5636 140.467C51.2518 140.414 50.9625 140.321 50.6957 140.188C50.4329 140.052 50.1971 139.889 49.9883 139.7C49.7753 139.514 49.584 139.321 49.4143 139.12ZM50.2819 138.387C50.4793 138.621 50.7033 138.812 50.9537 138.958C51.2007 139.101 51.4824 139.173 51.7986 139.173C52.1223 139.173 52.482 139.087 52.8775 138.915C53.273 138.743 53.719 138.447 54.2153 138.028C54.7076 137.612 55.0738 137.222 55.3141 136.858C55.5503 136.497 55.6932 136.158 55.7427 135.842C55.7998 135.527 55.7786 135.236 55.6793 134.968C55.5724 134.7 55.4202 134.449 55.2228 134.216C55.0219 133.978 54.7983 133.784 54.5519 133.633C54.298 133.482 54.0091 133.406 53.6854 133.406C53.3657 133.402 53.0098 133.488 52.6178 133.664C52.2182 133.84 51.7722 134.136 51.28 134.551C50.7836 134.971 50.4174 135.361 50.1812 135.722C49.9415 136.079 49.7949 136.417 49.7412 136.736C49.6917 137.052 49.7201 137.348 49.8264 137.623C49.9292 137.895 50.081 138.15 50.2819 138.387Z" fill="black"/>
<path d="M43.2245 130.587L42.3454 129.536C42.5845 129.298 42.8277 129.09 43.075 128.914C43.1938 128.828 43.4366 128.672 43.8032 128.446L43.7254 128.296C43.1082 128.283 42.5565 128.158 42.0706 127.92C41.5362 127.658 41.1469 127.291 40.9025 126.819C40.5348 126.109 40.4263 125.479 40.5771 124.929C40.7026 124.459 41.0336 124.007 41.5701 123.572C41.9382 123.279 42.5275 122.922 43.338 122.503L47.2571 120.474L47.8939 121.704L43.6315 123.91C42.9211 124.278 42.4491 124.61 42.2156 124.906C41.8688 125.346 41.8558 125.876 42.1766 126.495C42.4037 126.934 42.8356 127.254 43.4724 127.457C43.8993 127.593 44.4672 127.679 45.1761 127.717L49.7745 125.337L50.4113 126.567L45.8343 128.936C45.1906 129.27 44.6438 129.574 44.1939 129.849C43.9129 130.019 43.5898 130.265 43.2245 130.587Z" fill="black"/>
<path d="M34.9567 117.414L34.5822 116.08L36.4274 115.562L35.6653 112.848L36.7895 112.533L37.5516 115.246L42.1802 113.946C42.4903 113.859 42.7259 113.785 42.8869 113.723C43.0413 113.657 43.1549 113.575 43.2276 113.476C43.376 113.29 43.3928 112.992 43.2781 112.584C43.2142 112.357 43.1293 112.143 43.0232 111.945C42.9157 111.741 42.8082 111.556 42.7005 111.391C42.9751 111.158 43.2844 110.929 43.6283 110.704C44.0064 111.256 44.2825 111.842 44.4567 112.462C44.583 112.912 44.633 113.288 44.6065 113.591C44.5838 113.887 44.4805 114.145 44.2966 114.364C44.1039 114.591 43.8494 114.777 43.5331 114.921C43.2168 115.066 42.7666 115.22 42.1826 115.384L37.9262 116.58L38.2528 117.743L37.1286 118.059L36.802 116.896L34.9567 117.414Z" fill="black"/>
<path d="M35.6402 105.651L34.5456 106.096C34.1133 105.227 33.8569 104.3 33.7761 103.315C33.7055 102.454 33.796 101.784 34.0476 101.305C34.3368 100.759 34.88 100.453 35.6773 100.388L38.9599 100.119C39.3987 100.083 39.8477 100.041 40.307 99.9921C40.5794 99.9644 40.8608 99.9144 41.1512 99.8421C41.4259 99.7764 41.6862 99.6985 41.9319 99.6084L42.3288 100.901C41.9804 101.053 41.5855 101.164 41.144 101.232L41.1411 101.394C42.0302 101.989 42.5169 102.8 42.6012 103.828C42.6626 104.577 42.506 105.196 42.1313 105.684C41.7512 106.173 41.184 106.449 40.4295 106.511C39.8677 106.557 39.3974 106.471 39.0187 106.255C38.6396 106.033 38.3083 105.704 38.0249 105.27C37.5755 104.585 37.2979 103.597 37.1922 102.308C37.1781 102.137 37.1646 101.906 37.1516 101.616L35.9317 101.716C35.5464 101.748 35.2778 101.889 35.1259 102.138C34.974 102.388 34.9186 102.764 34.9599 103.267C35.02 104 35.2468 104.795 35.6402 105.651ZM39.8484 101.395L38.1629 101.533C38.1641 101.679 38.176 101.891 38.1989 102.169C38.2375 102.64 38.3131 103.07 38.4259 103.459C38.5919 104.038 38.8167 104.48 39.1003 104.786C39.3781 105.086 39.7551 105.217 40.2313 105.178C41.0874 105.107 41.4773 104.607 41.4009 103.676C41.3614 103.194 41.1962 102.755 40.9051 102.359C40.663 102.034 40.3108 101.713 39.8484 101.395Z" fill="black"/>
<path d="M42.3094 88.5978C42.4068 89.0301 42.4743 89.4887 42.5117 89.9737C42.5498 90.4534 42.5453 90.904 42.498 91.3255C42.4263 91.9657 42.2707 92.5101 42.0314 92.9587C41.792 93.4073 41.4763 93.7663 41.0841 94.0357C40.6926 94.2997 40.2297 94.4774 39.6954 94.5688C39.1558 94.6596 38.5526 94.6676 37.8856 94.5929C37.16 94.5116 36.5273 94.3488 35.9874 94.1047C35.4481 93.8552 35.0085 93.5358 34.6686 93.1465C34.3239 92.7513 34.081 92.2919 33.9398 91.7683C33.7992 91.2393 33.7647 90.6547 33.8365 90.0145C33.873 89.689 33.9447 89.3621 34.0517 89.0338C34.1534 88.7048 34.2744 88.3726 34.4146 88.0372L35.4965 88.5069C35.3747 88.7742 35.2737 89.0249 35.1934 89.259C35.1137 89.4877 35.0593 89.7328 35.03 89.9943C34.9283 90.9013 35.1141 91.6298 35.5873 92.1798C36.0551 92.7293 36.8199 93.0635 37.8816 93.1825C38.3778 93.2381 38.8272 93.2533 39.2298 93.2282C39.6276 93.1971 39.9754 93.1065 40.2732 92.9562C40.5662 92.7999 40.8024 92.5725 40.9817 92.2738C41.1617 91.9699 41.2791 91.5725 41.3341 91.0816C41.37 90.7615 41.3686 90.4129 41.3298 90.0358C41.2863 89.6527 41.2265 89.2463 41.1504 88.8164L42.3094 88.5978Z" fill="black"/>
<path d="M33.7114 80.75L34.1156 79.4252L35.9488 79.9845L36.7713 77.2886L37.8882 77.6293L37.0657 80.3252L41.6641 81.7282C41.9722 81.8222 42.2107 81.8865 42.3797 81.9212C42.5452 81.9493 42.6851 81.9414 42.7995 81.8977C43.0251 81.8206 43.1997 81.5793 43.3235 81.1736C43.3924 80.9476 43.4359 80.7224 43.4539 80.4977C43.4735 80.2679 43.4825 80.0546 43.4808 79.8576C43.8379 79.8094 44.2219 79.7834 44.6328 79.7797C44.6534 80.4483 44.5696 81.0907 44.3816 81.7069C44.2453 82.1536 44.0843 82.4974 43.8986 82.7383C43.7195 82.9755 43.4936 83.1367 43.2206 83.2218C42.9358 83.3089 42.6213 83.328 42.277 83.2791C41.9327 83.2302 41.4704 83.1172 40.8901 82.9402L36.6615 81.65L36.309 82.8054L35.1921 82.4647L35.5446 81.3093L33.7114 80.75Z" fill="black"/>
<path d="M54.3994 61.704C54.2612 62.1251 54.0837 62.5533 53.867 62.9888C53.6536 63.4201 53.4184 63.8045 53.1616 64.142C52.7715 64.6547 52.3586 65.0421 51.923 65.3043C51.4874 65.5665 51.0322 65.7126 50.5573 65.7426C50.0858 65.7683 49.5973 65.6833 49.0918 65.4876C48.5821 65.2887 48.0602 64.986 47.5261 64.5796C46.9451 64.1375 46.4855 63.6731 46.1474 63.1865C45.8126 62.6956 45.5992 62.1959 45.5071 61.6874C45.4141 61.1713 45.4413 60.6524 45.5888 60.1305C45.7396 59.6043 46.01 59.0849 46.4001 58.5722C46.5984 58.3115 46.8278 58.0678 47.0881 57.8409C47.3442 57.6107 47.6185 57.3877 47.911 57.1717L48.5985 58.13C48.3568 58.2969 48.1415 58.4602 47.9524 58.62C47.7667 58.7755 47.5941 58.9579 47.4349 59.1672C46.8822 59.8935 46.6678 60.6142 46.7917 61.3291C46.9113 62.0407 47.3962 62.72 48.2465 63.367C48.6438 63.6693 49.0217 63.913 49.3801 64.098C49.7375 64.2755 50.0826 64.3762 50.4153 64.4C50.7469 64.4162 51.0664 64.3422 51.3735 64.1779C51.6839 64.0093 51.9887 63.7285 52.2878 63.3354C52.4828 63.0791 52.6605 62.7791 52.8207 62.4356C52.9799 62.0845 53.1372 61.7049 53.2925 61.2969L54.3994 61.704Z" fill="black"/>
<path d="M54.0614 50.1248C54.2595 49.9517 54.4799 49.7877 54.7224 49.6328C54.9614 49.4739 55.2211 49.3468 55.5014 49.2516C55.7854 49.1604 56.0854 49.1121 56.4015 49.1068C56.7182 49.0939 57.0533 49.1469 57.4067 49.2659C57.7637 49.3889 58.1345 49.5889 58.5191 49.866C58.9002 50.139 59.2992 50.514 59.716 50.9911C60.1328 51.4681 60.4527 51.9158 60.6756 52.3342C60.895 52.7485 61.0399 53.1387 61.1103 53.505C61.1843 53.8752 61.1954 54.2184 61.1437 54.5345C61.096 54.8471 61.0061 55.1359 60.8741 55.401C60.7456 55.6701 60.5866 55.9124 60.397 56.1279C60.211 56.3474 60.019 56.5437 59.8209 56.7168C59.6268 56.8864 59.4085 57.0486 59.166 57.2035C58.931 57.3588 58.6716 57.4821 58.3877 57.5733C58.1073 57.6686 57.809 57.7189 57.4929 57.7242C57.1767 57.7295 56.8401 57.6707 56.4832 57.5477C56.1297 57.4287 55.7624 57.2328 55.3813 56.9597C54.9967 56.6827 54.596 56.3056 54.1792 55.8286C53.7623 55.3515 53.4442 54.9058 53.2249 54.4915C53.0019 54.0732 52.8535 53.6789 52.7795 53.3086C52.7091 52.9424 52.6995 52.605 52.7507 52.2965C52.7984 51.9839 52.8865 51.6931 53.015 51.424C53.147 51.1589 53.3058 50.9204 53.4913 50.7084C53.6733 50.4924 53.8633 50.2978 54.0614 50.1248ZM54.8085 50.9799C54.5781 51.1812 54.3915 51.4083 54.2489 51.6612C54.1104 51.9106 54.0437 52.1934 54.049 52.5096C54.0539 52.8333 54.1458 53.1915 54.3248 53.584C54.5038 53.9766 54.807 54.4174 55.2344 54.9066C55.6583 55.3918 56.0544 55.7514 56.423 55.9855C56.7879 56.2156 57.1287 56.3527 57.4454 56.3969C57.7615 56.4486 58.0524 56.4226 58.3181 56.3188C58.5844 56.2073 58.8327 56.051 59.0632 55.8496C59.2977 55.6447 59.488 55.4179 59.6341 55.169C59.7808 54.9125 59.8517 54.6224 59.8469 54.2987C59.8456 53.979 59.7535 53.6246 59.5704 53.2356C59.3879 52.839 59.0847 52.3982 58.6608 51.913C58.2334 51.4238 57.8372 51.0642 57.4722 50.8341C57.1113 50.6005 56.7707 50.4596 56.4506 50.4114C56.1339 50.3672 55.8387 50.4006 55.5649 50.5115C55.2951 50.6189 55.043 50.775 54.8085 50.9799Z" fill="black"/>
<path d="M62.4917 43.7916L63.527 42.895C63.7696 43.1301 63.9812 43.3698 64.1617 43.614C64.2494 43.7314 64.4093 43.9715 64.6415 44.3343L64.7903 44.2541C64.7929 43.6366 64.9092 43.083 65.1391 42.5931C65.3916 42.0544 65.7517 41.659 66.2195 41.4068C66.9237 41.0272 67.5518 40.9082 68.1038 41.0497C68.5758 41.1673 69.0338 41.4906 69.4776 42.0198C69.7771 42.3829 70.1433 42.9662 70.5765 43.7696L72.6706 47.6541L71.4514 48.3114L69.1738 44.0866C68.7942 43.3825 68.4543 42.9161 68.1542 42.6876C67.709 42.3482 67.1792 42.3441 66.5649 42.6753C66.1301 42.9096 65.8169 43.3469 65.6252 43.9869C65.4967 44.4161 65.4194 44.9853 65.3932 45.6948L67.8504 50.2527L66.6312 50.91L64.1854 46.3733C63.8415 45.7353 63.5281 45.1937 63.2454 44.7484C63.0711 44.4704 62.8199 44.1514 62.4917 43.7916Z" fill="black"/>
<path d="M75.524 35.3018L76.8511 34.9051L77.4001 36.7414L80.1006 35.934L80.435 37.0527L77.7346 37.8601L79.1118 42.4663C79.2041 42.7749 79.2825 43.0093 79.3472 43.1692C79.4154 43.3225 79.4994 43.4347 79.5991 43.5058C79.7882 43.651 80.0859 43.6628 80.4922 43.5413C80.7186 43.4737 80.9303 43.3851 81.1273 43.2758C81.3295 43.1649 81.5122 43.0543 81.6753 42.9439C81.9131 43.2146 82.1473 43.52 82.3779 43.8601C81.8324 44.2473 81.2511 44.5332 80.6338 44.7177C80.1863 44.8515 79.8109 44.9078 79.5075 44.8864C79.2108 44.8686 78.9515 44.7697 78.7295 44.5895C78.4993 44.4005 78.3093 44.1492 78.1594 43.8353C78.0096 43.5215 77.8478 43.074 77.674 42.4928L76.4075 38.2569L75.2502 38.6029L74.9157 37.4842L76.073 37.1382L75.524 35.3018Z" fill="black"/>
<path d="M87.2945 35.7904L86.8309 34.7033C87.693 34.2566 88.6156 33.9845 89.5986 33.8872C90.4588 33.8021 91.1302 33.8813 91.6129 34.1249C92.1639 34.4049 92.4788 34.9429 92.5576 35.7389L92.8819 39.0166C92.9253 39.4547 92.975 39.9029 93.0312 40.3613C93.0635 40.6333 93.1182 40.9138 93.1954 41.2029C93.2656 41.4765 93.3479 41.7354 93.4422 41.9796L92.1565 42.3982C91.9982 42.0524 91.881 41.6593 91.8051 41.2191L91.6432 41.2189C91.0632 42.1179 90.2603 42.6182 89.2346 42.7197C88.4866 42.7937 87.8652 42.6475 87.3704 42.2811C86.875 41.9093 86.5901 41.3467 86.5155 40.5934C86.46 40.0325 86.5374 39.5608 86.7477 39.1786C86.9634 38.7958 87.2862 38.459 87.716 38.1683C88.3933 37.7074 89.3757 37.4133 90.6633 37.2859C90.8342 37.269 91.0645 37.2516 91.3541 37.2337L91.2335 36.0156C91.1954 35.6309 91.0504 35.3647 90.7984 35.217C90.5464 35.0693 90.1693 35.0203 89.6671 35.07C88.9352 35.1425 88.1443 35.3826 87.2945 35.7904ZM91.6205 39.9264L91.454 38.2435C91.3087 38.247 91.0971 38.2626 90.8193 38.2901C90.3492 38.3366 89.9204 38.4195 89.5329 38.5388C88.9569 38.7145 88.5186 38.9467 88.2181 39.2354C87.9224 39.5182 87.7981 39.8973 87.8451 40.3728C87.9297 41.2276 88.4368 41.6091 89.3664 41.5171C89.8473 41.4695 90.2833 41.2968 90.6747 40.9992C90.9955 40.7516 91.3107 40.394 91.6205 39.9264Z" fill="black"/>
<path d="M104.454 42.1783C104.023 42.2831 103.566 42.3583 103.082 42.404C102.603 42.4503 102.152 42.4534 101.73 42.4133C101.088 42.3525 100.542 42.2062 100.089 41.9745C99.6363 41.7428 99.272 41.4332 98.996 41.0457C98.7253 40.6587 98.5398 40.1989 98.4393 39.6663C98.3393 39.1283 98.3211 38.5253 98.3844 37.8572C98.4534 37.1303 98.6054 36.4949 98.8403 35.9509C99.0806 35.4075 99.3925 34.9625 99.7759 34.616C100.165 34.2646 100.62 34.0139 101.142 33.8638C101.668 33.7142 102.252 33.6699 102.893 33.7307C103.219 33.7617 103.547 33.8278 103.878 33.9293C104.208 34.0253 104.542 34.1406 104.88 34.2751L104.429 35.3648C104.16 35.2476 103.907 35.1509 103.672 35.0746C103.442 34.9988 103.196 34.9485 102.934 34.9237C102.025 34.8375 101.3 35.0356 100.758 35.5181C100.217 35.9952 99.8955 36.7656 99.7946 37.8292C99.7475 38.3262 99.7399 38.7758 99.7718 39.1779C99.8096 39.5752 99.9062 39.9214 100.062 40.2166C100.223 40.5069 100.454 40.7392 100.756 40.9134C101.063 41.0881 101.462 41.1988 101.954 41.2454C102.275 41.2759 102.623 41.2685 102.999 41.2233C103.382 41.1733 103.787 41.1066 104.216 41.0232L104.454 42.1783Z" fill="black"/>
<path d="M112.152 33.443L113.483 33.8245L112.955 35.667L115.665 36.4434L115.343 37.5659L112.634 36.7895L111.309 41.4113C111.221 41.7209 111.16 41.9605 111.129 42.1301C111.103 42.296 111.114 42.4358 111.159 42.5494C111.24 42.7736 111.484 42.9442 111.892 43.061C112.119 43.1261 112.345 43.1657 112.57 43.1799C112.8 43.1955 113.014 43.2008 113.211 43.1958C113.265 43.552 113.297 43.9355 113.308 44.3463C112.64 44.3783 111.996 44.3055 111.377 44.1281C110.928 43.9994 110.582 43.8443 110.338 43.6627C110.097 43.4877 109.932 43.2645 109.842 42.9931C109.751 42.7099 109.726 42.3957 109.769 42.0506C109.812 41.7055 109.917 41.2413 110.084 40.6582L111.302 36.408L110.141 36.0753L110.462 34.9528L111.624 35.2855L112.152 33.443Z" fill="black"/>
</svg>
