<svg width="263" height="179" viewBox="0 0 263 179" fill="none" xmlns="http://www.w3.org/2000/svg">
<rect width="223" height="139" transform="translate(20 20)" fill="black"/>
<rect x="77.5" y="66.5" width="109" height="47" rx="23.5" stroke="#E6E4D5" stroke-opacity="0.6"/>
<path d="M98.4091 95.5V83.8636H105.386V85.1136H99.8182V89.0455H104.864V90.2955H99.8182V95.5H98.4091ZM107.618 95.5V86.7727H108.959V95.5H107.618ZM108.3 85.3182C108.038 85.3182 107.813 85.2292 107.624 85.0511C107.438 84.8731 107.345 84.6591 107.345 84.4091C107.345 84.1591 107.438 83.9451 107.624 83.767C107.813 83.589 108.038 83.5 108.3 83.5C108.561 83.5 108.785 83.589 108.97 83.767C109.16 83.9451 109.254 84.1591 109.254 84.4091C109.254 84.6591 109.16 84.8731 108.97 85.0511C108.785 85.2292 108.561 85.3182 108.3 85.3182ZM112.756 83.8636V95.5H111.415V83.8636H112.756ZM119.007 86.7727V87.9091H114.484V86.7727H119.007ZM115.803 84.6818H117.143V93C117.143 93.3788 117.198 93.6629 117.308 93.8523C117.422 94.0379 117.566 94.1629 117.74 94.2273C117.918 94.2879 118.106 94.3182 118.303 94.3182C118.45 94.3182 118.571 94.3106 118.666 94.2955C118.761 94.2765 118.837 94.2614 118.893 94.25L119.166 95.4545C119.075 95.4886 118.948 95.5227 118.786 95.5568C118.623 95.5947 118.416 95.6136 118.166 95.6136C117.787 95.6136 117.416 95.5322 117.053 95.3693C116.693 95.2064 116.393 94.9583 116.155 94.625C115.92 94.2917 115.803 93.8712 115.803 93.3636V84.6818ZM124.589 95.6818C123.749 95.6818 123.023 95.4962 122.413 95.125C121.807 94.75 121.339 94.2273 121.01 93.5568C120.684 92.8826 120.521 92.0985 120.521 91.2045C120.521 90.3106 120.684 89.5227 121.01 88.8409C121.339 88.1553 121.798 87.6212 122.385 87.2386C122.976 86.8523 123.665 86.6591 124.453 86.6591C124.908 86.6591 125.357 86.7348 125.8 86.8864C126.243 87.0379 126.646 87.2841 127.01 87.625C127.374 87.9621 127.663 88.4091 127.879 88.9659C128.095 89.5227 128.203 90.2083 128.203 91.0227V91.5909H121.476V90.4318H126.839C126.839 89.9394 126.741 89.5 126.544 89.1136C126.351 88.7273 126.074 88.4223 125.714 88.1989C125.358 87.9754 124.938 87.8636 124.453 87.8636C123.919 87.8636 123.457 87.9962 123.067 88.2614C122.68 88.5227 122.383 88.8636 122.175 89.2841C121.966 89.7045 121.862 90.1553 121.862 90.6364V91.4091C121.862 92.0682 121.976 92.6269 122.203 93.0852C122.434 93.5398 122.754 93.8864 123.163 94.125C123.572 94.3598 124.048 94.4773 124.589 94.4773C124.942 94.4773 125.26 94.428 125.544 94.3295C125.832 94.2273 126.08 94.0758 126.288 93.875C126.497 93.6705 126.658 93.4167 126.771 93.1136L128.067 93.4773C127.93 93.9167 127.701 94.303 127.379 94.6364C127.057 94.9659 126.66 95.2235 126.186 95.4091C125.713 95.5909 125.18 95.6818 124.589 95.6818ZM130.243 95.5V86.7727H131.538V88.0909H131.629C131.788 87.6591 132.076 87.3087 132.493 87.0398C132.91 86.7708 133.379 86.6364 133.902 86.6364C134 86.6364 134.124 86.6383 134.271 86.642C134.419 86.6458 134.531 86.6515 134.607 86.6591V88.0227C134.561 88.0114 134.457 87.9943 134.294 87.9716C134.135 87.9451 133.966 87.9318 133.788 87.9318C133.364 87.9318 132.985 88.0208 132.652 88.1989C132.322 88.3731 132.061 88.6155 131.868 88.9261C131.679 89.233 131.584 89.5833 131.584 89.9773V95.5H130.243Z" fill="#E6E4D5"/>
<path d="M155.5 87.375C155.5 88.2034 154.828 88.875 154 88.875C153.172 88.875 152.5 88.2034 152.5 87.375M155.5 87.375C155.5 86.5466 154.828 85.875 154 85.875C153.172 85.875 152.5 86.5466 152.5 87.375M155.5 87.375H164.125M152.5 87.375H149.875M158.5 93.375C158.5 92.5466 159.172 91.875 160 91.875C160.828 91.875 161.5 92.5466 161.5 93.375M158.5 93.375C158.5 94.2034 159.172 94.875 160 94.875C160.828 94.875 161.5 94.2034 161.5 93.375M158.5 93.375L149.875 93.375M161.5 93.375H164.125" stroke="#E6E4D5" stroke-linecap="round"/>
</svg>
