<svg width="263" height="179" viewBox="0 0 263 179" fill="none" xmlns="http://www.w3.org/2000/svg">
<rect width="223" height="139" transform="translate(20 20)" fill="black"/>
<rect x="77.5" y="66.5" width="109" height="47" rx="23.5" stroke="#E6E4D5" stroke-opacity="0.6"/>
<path d="M98.4091 95.5V83.8636H105.386V85.1136H99.8182V89.0455H104.864V90.2955H99.8182V95.5H98.4091ZM107.618 95.5V86.7727H108.959V95.5H107.618ZM108.3 85.3182C108.038 85.3182 107.813 85.2292 107.624 85.0511C107.438 84.8731 107.345 84.6591 107.345 84.4091C107.345 84.1591 107.438 83.9451 107.624 83.767C107.813 83.589 108.038 83.5 108.3 83.5C108.561 83.5 108.785 83.589 108.97 83.767C109.16 83.9451 109.254 84.1591 109.254 84.4091C109.254 84.6591 109.16 84.8731 108.97 85.0511C108.785 85.2292 108.561 85.3182 108.3 85.3182ZM112.756 83.8636V95.5H111.415V83.8636H112.756ZM119.007 86.7727V87.9091H114.484V86.7727H119.007ZM115.803 84.6818H117.143V93C117.143 93.3788 117.198 93.6629 117.308 93.8523C117.422 94.0379 117.566 94.1629 117.74 94.2273C117.918 94.2879 118.106 94.3182 118.303 94.3182C118.45 94.3182 118.571 94.3106 118.666 94.2955C118.761 94.2765 118.837 94.2614 118.893 94.25L119.166 95.4545C119.075 95.4886 118.948 95.5227 118.786 95.5568C118.623 95.5947 118.416 95.6136 118.166 95.6136C117.787 95.6136 117.416 95.5322 117.053 95.3693C116.693 95.2064 116.393 94.9583 116.155 94.625C115.92 94.2917 115.803 93.8712 115.803 93.3636V84.6818ZM124.589 95.6818C123.749 95.6818 123.023 95.4962 122.413 95.125C121.807 94.75 121.339 94.2273 121.01 93.5568C120.684 92.8826 120.521 92.0985 120.521 91.2045C120.521 90.3106 120.684 89.5227 121.01 88.8409C121.339 88.1553 121.798 87.6212 122.385 87.2386C122.976 86.8523 123.665 86.6591 124.453 86.6591C124.908 86.6591 125.357 86.7348 125.8 86.8864C126.243 87.0379 126.646 87.2841 127.01 87.625C127.374 87.9621 127.663 88.4091 127.879 88.9659C128.095 89.5227 128.203 90.2083 128.203 91.0227V91.5909H121.476V90.4318H126.839C126.839 89.9394 126.741 89.5 126.544 89.1136C126.351 88.7273 126.074 88.4223 125.714 88.1989C125.358 87.9754 124.938 87.8636 124.453 87.8636C123.919 87.8636 123.457 87.9962 123.067 88.2614C122.68 88.5227 122.383 88.8636 122.175 89.2841C121.966 89.7045 121.862 90.1553 121.862 90.6364V91.4091C121.862 92.0682 121.976 92.6269 122.203 93.0852C122.434 93.5398 122.754 93.8864 123.163 94.125C123.572 94.3598 124.048 94.4773 124.589 94.4773C124.942 94.4773 125.26 94.428 125.544 94.3295C125.832 94.2273 126.08 94.0758 126.288 93.875C126.497 93.6705 126.658 93.4167 126.771 93.1136L128.067 93.4773C127.93 93.9167 127.701 94.303 127.379 94.6364C127.057 94.9659 126.66 95.2235 126.186 95.4091C125.713 95.5909 125.18 95.6818 124.589 95.6818ZM130.243 95.5V86.7727H131.538V88.0909H131.629C131.788 87.6591 132.076 87.3087 132.493 87.0398C132.91 86.7708 133.379 86.6364 133.902 86.6364C134 86.6364 134.124 86.6383 134.271 86.642C134.419 86.6458 134.531 86.6515 134.607 86.6591V88.0227C134.561 88.0114 134.457 87.9943 134.294 87.9716C134.135 87.9451 133.966 87.9318 133.788 87.9318C133.364 87.9318 132.985 88.0208 132.652 88.1989C132.322 88.3731 132.061 88.6155 131.868 88.9261C131.679 89.233 131.584 89.5833 131.584 89.9773V95.5H130.243Z" fill="#E6E4D5"/>
<path d="M155.5 87.375C155.5 88.2034 154.828 88.875 154 88.875C153.172 88.875 152.5 88.2034 152.5 87.375M155.5 87.375C155.5 86.5466 154.828 85.875 154 85.875C153.172 85.875 152.5 86.5466 152.5 87.375M155.5 87.375H164.125M152.5 87.375H149.875M158.5 93.375C158.5 92.5466 159.172 91.875 160 91.875C160.828 91.875 161.5 92.5466 161.5 93.375M158.5 93.375C158.5 94.2034 159.172 94.875 160 94.875C160.828 94.875 161.5 94.2034 161.5 93.375M158.5 93.375L149.875 93.375M161.5 93.375H164.125" stroke="#E6E4D5" stroke-linecap="round"/>
<g opacity="0.2">
<rect x="76.5" y="65.5" width="109" height="47" rx="23.5" fill="white"/>
<rect x="76.5" y="65.5" width="109" height="47" rx="23.5" stroke="black"/>
<path d="M97.4091 94.5V82.8636H104.386V84.1136H98.8182V88.0455H103.864V89.2955H98.8182V94.5H97.4091ZM106.618 94.5V85.7727H107.959V94.5H106.618ZM107.3 84.3182C107.038 84.3182 106.813 84.2292 106.624 84.0511C106.438 83.8731 106.345 83.6591 106.345 83.4091C106.345 83.1591 106.438 82.9451 106.624 82.767C106.813 82.589 107.038 82.5 107.3 82.5C107.561 82.5 107.785 82.589 107.97 82.767C108.16 82.9451 108.254 83.1591 108.254 83.4091C108.254 83.6591 108.16 83.8731 107.97 84.0511C107.785 84.2292 107.561 84.3182 107.3 84.3182ZM111.756 82.8636V94.5H110.415V82.8636H111.756ZM118.007 85.7727V86.9091H113.484V85.7727H118.007ZM114.803 83.6818H116.143V92C116.143 92.3788 116.198 92.6629 116.308 92.8523C116.422 93.0379 116.566 93.1629 116.74 93.2273C116.918 93.2879 117.106 93.3182 117.303 93.3182C117.45 93.3182 117.571 93.3106 117.666 93.2955C117.761 93.2765 117.837 93.2614 117.893 93.25L118.166 94.4545C118.075 94.4886 117.948 94.5227 117.786 94.5568C117.623 94.5947 117.416 94.6136 117.166 94.6136C116.787 94.6136 116.416 94.5322 116.053 94.3693C115.693 94.2064 115.393 93.9583 115.155 93.625C114.92 93.2917 114.803 92.8712 114.803 92.3636V83.6818ZM123.589 94.6818C122.749 94.6818 122.023 94.4962 121.413 94.125C120.807 93.75 120.339 93.2273 120.01 92.5568C119.684 91.8826 119.521 91.0985 119.521 90.2045C119.521 89.3106 119.684 88.5227 120.01 87.8409C120.339 87.1553 120.798 86.6212 121.385 86.2386C121.976 85.8523 122.665 85.6591 123.453 85.6591C123.908 85.6591 124.357 85.7348 124.8 85.8864C125.243 86.0379 125.646 86.2841 126.01 86.625C126.374 86.9621 126.663 87.4091 126.879 87.9659C127.095 88.5227 127.203 89.2083 127.203 90.0227V90.5909H120.476V89.4318H125.839C125.839 88.9394 125.741 88.5 125.544 88.1136C125.351 87.7273 125.074 87.4223 124.714 87.1989C124.358 86.9754 123.938 86.8636 123.453 86.8636C122.919 86.8636 122.457 86.9962 122.067 87.2614C121.68 87.5227 121.383 87.8636 121.175 88.2841C120.966 88.7045 120.862 89.1553 120.862 89.6364V90.4091C120.862 91.0682 120.976 91.6269 121.203 92.0852C121.434 92.5398 121.754 92.8864 122.163 93.125C122.572 93.3598 123.048 93.4773 123.589 93.4773C123.942 93.4773 124.26 93.428 124.544 93.3295C124.832 93.2273 125.08 93.0758 125.288 92.875C125.497 92.6705 125.658 92.4167 125.771 92.1136L127.067 92.4773C126.93 92.9167 126.701 93.303 126.379 93.6364C126.057 93.9659 125.66 94.2235 125.186 94.4091C124.713 94.5909 124.18 94.6818 123.589 94.6818ZM129.243 94.5V85.7727H130.538V87.0909H130.629C130.788 86.6591 131.076 86.3087 131.493 86.0398C131.91 85.7708 132.379 85.6364 132.902 85.6364C133 85.6364 133.124 85.6383 133.271 85.642C133.419 85.6458 133.531 85.6515 133.607 85.6591V87.0227C133.561 87.0114 133.457 86.9943 133.294 86.9716C133.135 86.9451 132.966 86.9318 132.788 86.9318C132.364 86.9318 131.985 87.0208 131.652 87.1989C131.322 87.3731 131.061 87.6155 130.868 87.9261C130.679 88.233 130.584 88.5833 130.584 88.9773V94.5H129.243Z" fill="black"/>
<path d="M154.5 86.375C154.5 87.2034 153.828 87.875 153 87.875C152.172 87.875 151.5 87.2034 151.5 86.375M154.5 86.375C154.5 85.5466 153.828 84.875 153 84.875C152.172 84.875 151.5 85.5466 151.5 86.375M154.5 86.375H163.125M151.5 86.375H148.875M157.5 92.375C157.5 91.5466 158.172 90.875 159 90.875C159.828 90.875 160.5 91.5466 160.5 92.375M157.5 92.375C157.5 93.2034 158.172 93.875 159 93.875C159.828 93.875 160.5 93.2034 160.5 92.375M157.5 92.375L148.875 92.375M160.5 92.375H163.125" stroke="black" stroke-linecap="round"/>
</g>
<rect x="75.5" y="64.5" width="111" height="49" stroke="#616161"/>
<g clip-path="url(#clip0_706_16235)">
<g clip-path="url(#clip1_706_16235)">
<mask maskUnits="userSpaceOnUse" x="0" y="0" width="0" height="0" fill="black">
<rect fill="white" width="0" height="0"/>
</mask>
<path d="M199.854 55.1464C199.658 54.9512 199.342 54.9512 199.146 55.1464L195.964 58.3284C195.769 58.5237 195.769 58.8403 195.964 59.0355C196.16 59.2308 196.476 59.2308 196.672 59.0355L199.5 56.2071L202.328 59.0355C202.524 59.2308 202.84 59.2308 203.036 59.0355C203.231 58.8403 203.231 58.5237 203.036 58.3284L199.854 55.1464ZM199.146 88.3536C199.342 88.5488 199.658 88.5488 199.854 88.3536L203.036 85.1716C203.231 84.9763 203.231 84.6597 203.036 84.4645C202.84 84.2692 202.524 84.2692 202.328 84.4645L199.5 87.2929L196.672 84.4645C196.476 84.2692 196.16 84.2692 195.964 84.4645C195.769 84.6597 195.769 84.9763 195.964 85.1716L199.146 88.3536ZM199 55.5V88H200V55.5H199Z" fill="#616161" mask="url(#)"/>
<mask maskUnits="userSpaceOnUse" x="0" y="0" width="0" height="0" fill="black">
<rect fill="white" width="0" height="0"/>
</mask>
<path d="M199.854 89.6464C199.658 89.4512 199.342 89.4512 199.146 89.6464L195.964 92.8284C195.769 93.0237 195.769 93.3403 195.964 93.5355C196.16 93.7308 196.476 93.7308 196.672 93.5355L199.5 90.7071L202.328 93.5355C202.524 93.7308 202.84 93.7308 203.036 93.5355C203.231 93.3403 203.231 93.0237 203.036 92.8284L199.854 89.6464ZM199.146 122.854C199.342 123.049 199.658 123.049 199.854 122.854L203.036 119.672C203.231 119.476 203.231 119.16 203.036 118.964C202.84 118.769 202.524 118.769 202.328 118.964L199.5 121.793L196.672 118.964C196.476 118.769 196.16 118.769 195.964 118.964C195.769 119.16 195.769 119.476 195.964 119.672L199.146 122.854ZM199 90V122.5H200V90H199Z" fill="#616161" mask="url(#)"/>
</g>
</g>
<g clip-path="url(#clip2_706_16235)">
<mask maskUnits="userSpaceOnUse" x="0" y="0" width="0" height="0" fill="black">
<rect fill="white" width="0" height="0"/>
</mask>
<path d="M66.1464 130.146C65.9512 130.342 65.9512 130.658 66.1464 130.854L69.3284 134.036C69.5237 134.231 69.8403 134.231 70.0355 134.036C70.2308 133.84 70.2308 133.524 70.0355 133.328L67.2071 130.5L70.0355 127.672C70.2308 127.476 70.2308 127.16 70.0355 126.964C69.8403 126.769 69.5237 126.769 69.3284 126.964L66.1464 130.146ZM130.354 130.854C130.549 130.658 130.549 130.342 130.354 130.146L127.172 126.964C126.976 126.769 126.66 126.769 126.464 126.964C126.269 127.16 126.269 127.476 126.464 127.672L129.293 130.5L126.464 133.328C126.269 133.524 126.269 133.84 126.464 134.036C126.66 134.231 126.976 134.231 127.172 134.036L130.354 130.854ZM66.5 131H130V130H66.5V131Z" fill="#616161" mask="url(#)"/>
<mask maskUnits="userSpaceOnUse" x="0" y="0" width="0" height="0" fill="black">
<rect fill="white" width="0" height="0"/>
</mask>
<path d="M131.646 130.146C131.451 130.342 131.451 130.658 131.646 130.854L134.828 134.036C135.024 134.231 135.34 134.231 135.536 134.036C135.731 133.84 135.731 133.524 135.536 133.328L132.707 130.5L135.536 127.672C135.731 127.476 135.731 127.16 135.536 126.964C135.34 126.769 135.024 126.769 134.828 126.964L131.646 130.146ZM195.854 130.854C196.049 130.658 196.049 130.342 195.854 130.146L192.672 126.964C192.476 126.769 192.16 126.769 191.964 126.964C191.769 127.16 191.769 127.476 191.964 127.672L194.793 130.5L191.964 133.328C191.769 133.524 191.769 133.84 191.964 134.036C192.16 134.231 192.476 134.231 192.672 134.036L195.854 130.854ZM132 131H195.5V130H132V131Z" fill="#616161" mask="url(#)"/>
</g>
<rect x="134" y="77" width="10" height="24" fill="#C54600" fill-opacity="0.3"/>
<line x1="134.5" y1="49" x2="134.5" y2="113" stroke="#C54600"/>
<line x1="143.5" y1="49" x2="143.5" y2="113" stroke="#C54600"/>
<path d="M136.004 36.2727V45H134.159V38.0241H134.108L132.109 39.277V37.6406L134.27 36.2727H136.004ZM141.5 45.1918C140.767 45.1889 140.137 45.0085 139.608 44.6506C139.083 44.2926 138.678 43.7741 138.394 43.0952C138.113 42.4162 137.973 41.5994 137.976 40.6449C137.976 39.6932 138.117 38.8821 138.398 38.2116C138.682 37.5412 139.087 37.0312 139.613 36.6818C140.141 36.3295 140.77 36.1534 141.5 36.1534C142.23 36.1534 142.858 36.3295 143.384 36.6818C143.912 37.0341 144.319 37.5455 144.603 38.2159C144.887 38.8835 145.027 39.6932 145.025 40.6449C145.025 41.6023 144.882 42.4205 144.598 43.0994C144.317 43.7784 143.914 44.2969 143.388 44.6548C142.863 45.0128 142.233 45.1918 141.5 45.1918ZM141.5 43.6619C142 43.6619 142.4 43.4105 142.698 42.9077C142.996 42.4048 143.144 41.6506 143.141 40.6449C143.141 39.983 143.073 39.4318 142.936 38.9915C142.803 38.5511 142.613 38.2202 142.365 37.9986C142.121 37.777 141.833 37.6662 141.5 37.6662C141.003 37.6662 140.605 37.9148 140.307 38.4119C140.009 38.9091 139.858 39.6534 139.855 40.6449C139.855 41.3153 139.922 41.875 140.056 42.3239C140.192 42.7699 140.384 43.1051 140.631 43.3295C140.878 43.5511 141.168 43.6619 141.5 43.6619Z" fill="#C54600"/>
<g clip-path="url(#clip3_706_16235)">
<mask maskUnits="userSpaceOnUse" x="0" y="0" width="0" height="0" fill="black">
<rect fill="white" width="0" height="0"/>
</mask>
<path d="M86.1464 56.1464C85.9512 56.3417 85.9512 56.6583 86.1464 56.8536L89.3284 60.0355C89.5237 60.2308 89.8403 60.2308 90.0355 60.0355C90.2308 59.8403 90.2308 59.5237 90.0355 59.3284L87.2071 56.5L90.0355 53.6716C90.2308 53.4763 90.2308 53.1597 90.0355 52.9645C89.8403 52.7692 89.5237 52.7692 89.3284 52.9645L86.1464 56.1464ZM114.354 56.8536C114.549 56.6583 114.549 56.3417 114.354 56.1464L111.172 52.9645C110.976 52.7692 110.66 52.7692 110.464 52.9645C110.269 53.1597 110.269 53.4763 110.464 53.6716L113.293 56.5L110.464 59.3284C110.269 59.5237 110.269 59.8403 110.464 60.0355C110.66 60.2308 110.976 60.2308 111.172 60.0355L114.354 56.8536ZM86.5 57H114V56H86.5V57Z" fill="#616161" mask="url(#)"/>
<mask maskUnits="userSpaceOnUse" x="0" y="0" width="0" height="0" fill="black">
<rect fill="white" width="0" height="0"/>
</mask>
<path d="M115.646 56.1464C115.451 56.3417 115.451 56.6583 115.646 56.8536L118.828 60.0355C119.024 60.2308 119.34 60.2308 119.536 60.0355C119.731 59.8403 119.731 59.5237 119.536 59.3284L116.707 56.5L119.536 53.6716C119.731 53.4763 119.731 53.1597 119.536 52.9645C119.34 52.7692 119.024 52.7692 118.828 52.9645L115.646 56.1464ZM143.854 56.8536C144.049 56.6583 144.049 56.3417 143.854 56.1464L140.672 52.9645C140.476 52.7692 140.16 52.7692 139.964 52.9645C139.769 53.1597 139.769 53.4763 139.964 53.6716L142.793 56.5L139.964 59.3284C139.769 59.5237 139.769 59.8403 139.964 60.0355C140.16 60.2308 140.476 60.2308 140.672 60.0355L143.854 56.8536ZM116 57H143.5V56H116V57Z" fill="#616161" mask="url(#)"/>
</g>
<rect x="96" y="79.5" width="38" height="19" fill="#616161" fill-opacity="0.2"/>
<rect x="144" y="77" width="24" height="24" fill="#616161" fill-opacity="0.2"/>
<rect x="76" y="65" width="110" height="12" fill="#989898" fill-opacity="0.301961"/>
<line x1="60" y1="65.5" x2="186" y2="65.5" stroke="#E6E4D5"/>
<line x1="60" y1="76.5" x2="186" y2="76.5" stroke="#E6E4D5"/>
<path d="M46.5043 66.2727V75H44.6591V68.0241H44.608L42.6094 69.277V67.6406L44.7699 66.2727H46.5043ZM48.5785 75V73.6705L51.685 70.794C51.9492 70.5384 52.1708 70.3082 52.3498 70.1037C52.5316 69.8991 52.6694 69.6989 52.7631 69.5028C52.8569 69.304 52.9038 69.0895 52.9038 68.8594C52.9038 68.6037 52.8455 68.3835 52.729 68.1989C52.6126 68.0114 52.4535 67.8679 52.2518 67.7685C52.0501 67.6662 51.8214 67.6151 51.5657 67.6151C51.2987 67.6151 51.0657 67.669 50.8668 67.777C50.668 67.8849 50.5146 68.0398 50.4066 68.2415C50.2987 68.4432 50.2447 68.6832 50.2447 68.9616H48.4933C48.4933 68.3906 48.6225 67.8949 48.881 67.4744C49.1396 67.054 49.5018 66.7287 49.9677 66.4986C50.4336 66.2685 50.9705 66.1534 51.5785 66.1534C52.2035 66.1534 52.7475 66.2642 53.2106 66.4858C53.6765 66.7045 54.0387 67.0085 54.2972 67.3977C54.5558 67.7869 54.685 68.233 54.685 68.7358C54.685 69.0653 54.6197 69.3906 54.489 69.7116C54.3612 70.0327 54.1325 70.3892 53.8029 70.7812C53.4734 71.1705 53.0089 71.6378 52.4094 72.1832L51.1353 73.4318V73.4915H54.8001V75H48.5785Z" fill="#E6E4D5"/>
<rect x="76" y="101" width="110" height="12" fill="#989898" fill-opacity="0.301961"/>
<line x1="60" y1="101.5" x2="186" y2="101.5" stroke="#E6E4D5"/>
<line x1="60" y1="112.5" x2="186" y2="112.5" stroke="#E6E4D5"/>
<path d="M46.5043 102.273V111H44.6591V104.024H44.608L42.6094 105.277V103.641L44.7699 102.273H46.5043ZM48.5785 111V109.67L51.685 106.794C51.9492 106.538 52.1708 106.308 52.3498 106.104C52.5316 105.899 52.6694 105.699 52.7631 105.503C52.8569 105.304 52.9038 105.089 52.9038 104.859C52.9038 104.604 52.8455 104.384 52.729 104.199C52.6126 104.011 52.4535 103.868 52.2518 103.768C52.0501 103.666 51.8214 103.615 51.5657 103.615C51.2987 103.615 51.0657 103.669 50.8668 103.777C50.668 103.885 50.5146 104.04 50.4066 104.241C50.2987 104.443 50.2447 104.683 50.2447 104.962H48.4933C48.4933 104.391 48.6225 103.895 48.881 103.474C49.1396 103.054 49.5018 102.729 49.9677 102.499C50.4336 102.268 50.9705 102.153 51.5785 102.153C52.2035 102.153 52.7475 102.264 53.2106 102.486C53.6765 102.705 54.0387 103.009 54.2972 103.398C54.5558 103.787 54.685 104.233 54.685 104.736C54.685 105.065 54.6197 105.391 54.489 105.712C54.3612 106.033 54.1325 106.389 53.8029 106.781C53.4734 107.17 53.0089 107.638 52.4094 108.183L51.1353 109.432V109.491H54.8001V111H48.5785Z" fill="#E6E4D5"/>
<rect x="76" y="77" width="20" height="24" fill="#989898" fill-opacity="0.301961"/>
<line x1="76.5" y1="49" x2="76.5" y2="113" stroke="#E6E4D5"/>
<line x1="95.5" y1="49" x2="95.5" y2="113" stroke="#E6E4D5"/>
<path d="M78.7074 45V43.6705L81.8139 40.794C82.0781 40.5384 82.2997 40.3082 82.4787 40.1037C82.6605 39.8991 82.7983 39.6989 82.892 39.5028C82.9858 39.304 83.0327 39.0895 83.0327 38.8594C83.0327 38.6037 82.9744 38.3835 82.858 38.1989C82.7415 38.0114 82.5824 37.8679 82.3807 37.7685C82.179 37.6662 81.9503 37.6151 81.6946 37.6151C81.4276 37.6151 81.1946 37.669 80.9957 37.777C80.7969 37.8849 80.6435 38.0398 80.5355 38.2415C80.4276 38.4432 80.3736 38.6832 80.3736 38.9616H78.6222C78.6222 38.3906 78.7514 37.8949 79.0099 37.4744C79.2685 37.054 79.6307 36.7287 80.0966 36.4986C80.5625 36.2685 81.0994 36.1534 81.7074 36.1534C82.3324 36.1534 82.8764 36.2642 83.3395 36.4858C83.8054 36.7045 84.1676 37.0085 84.4261 37.3977C84.6847 37.7869 84.8139 38.233 84.8139 38.7358C84.8139 39.0653 84.7486 39.3906 84.6179 39.7116C84.4901 40.0327 84.2614 40.3892 83.9318 40.7812C83.6023 41.1705 83.1378 41.6378 82.5384 42.1832L81.2642 43.4318V43.4915H84.929V45H78.7074ZM89.6879 45.1918C88.9549 45.1889 88.3242 45.0085 87.7958 44.6506C87.2702 44.2926 86.8654 43.7741 86.5813 43.0952C86.3001 42.4162 86.1609 41.5994 86.1637 40.6449C86.1637 39.6932 86.3043 38.8821 86.5856 38.2116C86.8697 37.5412 87.2745 37.0312 87.8001 36.6818C88.3285 36.3295 88.9577 36.1534 89.6879 36.1534C90.418 36.1534 91.0458 36.3295 91.5714 36.6818C92.0998 37.0341 92.506 37.5455 92.7901 38.2159C93.0742 38.8835 93.2148 39.6932 93.212 40.6449C93.212 41.6023 93.07 42.4205 92.7859 43.0994C92.5046 43.7784 92.1012 44.2969 91.5756 44.6548C91.0501 45.0128 90.4208 45.1918 89.6879 45.1918ZM89.6879 43.6619C90.1879 43.6619 90.587 43.4105 90.8853 42.9077C91.1836 42.4048 91.3313 41.6506 91.3285 40.6449C91.3285 39.983 91.2603 39.4318 91.1239 38.9915C90.9904 38.5511 90.8001 38.2202 90.5529 37.9986C90.3086 37.777 90.0202 37.6662 89.6879 37.6662C89.1907 37.6662 88.793 37.9148 88.4947 38.4119C88.1964 38.9091 88.0458 39.6534 88.043 40.6449C88.043 41.3153 88.1097 41.875 88.2433 42.3239C88.3796 42.7699 88.5714 43.1051 88.8185 43.3295C89.0657 43.5511 89.3555 43.6619 89.6879 43.6619Z" fill="#E6E4D5"/>
<rect x="168" y="77" width="18" height="24" fill="#989898" fill-opacity="0.301961"/>
<line x1="168.5" y1="49" x2="168.5" y2="113" stroke="#E6E4D5"/>
<line x1="185.5" y1="49" x2="185.5" y2="113" stroke="#E6E4D5"/>
<path d="M174.504 36.2727V45H172.659V38.0241H172.608L170.609 39.277V37.6406L172.77 36.2727H174.504ZM179.834 45.1193C179.178 45.1193 178.594 45.0128 178.083 44.7997C177.574 44.5838 177.175 44.2898 176.885 43.9176C176.596 43.5455 176.451 43.1236 176.451 42.652C176.451 42.2884 176.533 41.9545 176.698 41.6506C176.865 41.3438 177.093 41.0895 177.38 40.8878C177.667 40.6832 177.988 40.5526 178.343 40.4957V40.4361C177.877 40.3423 177.499 40.1165 177.209 39.7585C176.919 39.3977 176.775 38.9787 176.775 38.5014C176.775 38.0497 176.907 37.6477 177.171 37.2955C177.435 36.9403 177.797 36.6619 178.257 36.4602C178.721 36.2557 179.246 36.1534 179.834 36.1534C180.422 36.1534 180.946 36.2557 181.407 36.4602C181.87 36.6648 182.233 36.9446 182.498 37.2997C182.762 37.652 182.895 38.0526 182.898 38.5014C182.895 38.9815 182.748 39.4006 182.455 39.7585C182.162 40.1165 181.787 40.3423 181.33 40.4361V40.4957C181.679 40.5526 181.996 40.6832 182.28 40.8878C182.567 41.0895 182.794 41.3438 182.962 41.6506C183.132 41.9545 183.219 42.2884 183.222 42.652C183.219 43.1236 183.073 43.5455 182.783 43.9176C182.493 44.2898 182.093 44.5838 181.581 44.7997C181.073 45.0128 180.49 45.1193 179.834 45.1193ZM179.834 43.7642C180.127 43.7642 180.382 43.7116 180.601 43.6065C180.82 43.4986 180.99 43.3509 181.113 43.1634C181.238 42.973 181.3 42.7543 181.3 42.5071C181.3 42.2543 181.236 42.0312 181.108 41.8381C180.98 41.642 180.807 41.4886 180.588 41.3778C180.37 41.2642 180.118 41.2074 179.834 41.2074C179.553 41.2074 179.301 41.2642 179.08 41.3778C178.858 41.4886 178.684 41.642 178.556 41.8381C178.431 42.0312 178.368 42.2543 178.368 42.5071C178.368 42.7543 178.429 42.973 178.551 43.1634C178.674 43.3509 178.846 43.4986 179.067 43.6065C179.289 43.7116 179.544 43.7642 179.834 43.7642ZM179.834 39.8651C180.078 39.8651 180.296 39.8153 180.486 39.7159C180.676 39.6165 180.826 39.4787 180.934 39.3026C181.042 39.1264 181.096 38.9233 181.096 38.6932C181.096 38.4659 181.042 38.267 180.934 38.0966C180.826 37.9233 180.678 37.7884 180.49 37.6918C180.303 37.5923 180.084 37.5426 179.834 37.5426C179.587 37.5426 179.368 37.5923 179.178 37.6918C178.988 37.7884 178.838 37.9233 178.73 38.0966C178.625 38.267 178.573 38.4659 178.573 38.6932C178.573 38.9233 178.627 39.1264 178.735 39.3026C178.843 39.4787 178.992 39.6165 179.182 39.7159C179.373 39.8153 179.59 39.8651 179.834 39.8651Z" fill="#E6E4D5"/>
<defs>
<clipPath id="clip0_706_16235">
<rect width="48" height="16" fill="white" transform="matrix(0 1 -1 0 207 65)"/>
</clipPath>
<clipPath id="clip1_706_16235">
<rect width="68" height="16" fill="white" transform="matrix(0 1 -1 0 207 55)"/>
</clipPath>
<clipPath id="clip2_706_16235">
<rect width="110" height="16" fill="white" transform="translate(76 123)"/>
</clipPath>
<clipPath id="clip3_706_16235">
<rect width="38" height="16" fill="white" transform="translate(96 49)"/>
</clipPath>
</defs>
</svg>
