<svg width="263" height="179" viewBox="0 0 263 179" fill="none" xmlns="http://www.w3.org/2000/svg">
<g opacity="0.8">
<rect width="223" height="139" transform="translate(20 20)" fill="black"/>
<rect x="36.25" y="81.9834" width="14.2625" height="14.2625" rx="2.7025" stroke="#E6E4D5" stroke-width="0.5"/>
<path d="M43.722 86.9207V90.6143H43.2553V87.5035L42.3142 87.8466V87.4253L43.6488 86.9207H43.722Z" fill="#E6E4D5"/>
<rect x="58.9832" y="78.5916" width="35.7313" height="21.1877" rx="3.32208" fill="#E6E4D5" fill-opacity="0.08"/>
<rect x="58.9832" y="78.5916" width="35.7313" height="21.1877" rx="3.32208" stroke="#E6E4D5" stroke-width="0.442944"/>
<path d="M68.7363 89.4085H67.4524L67.4455 88.7753H68.5667C68.7559 88.7753 68.9162 88.7476 69.0477 88.6922C69.1815 88.6345 69.283 88.5526 69.3522 88.4465C69.4214 88.3381 69.456 88.2077 69.456 88.0555C69.456 87.8871 69.4237 87.7498 69.3591 87.6437C69.2945 87.5376 69.1953 87.4603 69.0615 87.4118C68.93 87.3634 68.7616 87.3392 68.5563 87.3392H67.7154V91.6855H66.8468V86.6471H68.5563C68.8331 86.6471 69.08 86.6736 69.2969 86.7267C69.516 86.7797 69.7017 86.8628 69.854 86.9758C70.0086 87.0865 70.1251 87.2273 70.2035 87.398C70.2842 87.5687 70.3246 87.7717 70.3246 88.007C70.3246 88.2147 70.275 88.405 70.1758 88.578C70.0766 88.7487 69.9301 88.8883 69.7363 88.9967C69.5425 89.1052 69.3015 89.1698 69.0131 89.1905L68.7363 89.4085ZM68.6982 91.6855H67.179L67.5701 90.9969H68.6982C68.8943 90.9969 69.0581 90.9646 69.1896 90.9C69.3211 90.8331 69.4191 90.742 69.4837 90.6266C69.5506 90.509 69.5841 90.3717 69.5841 90.2148C69.5841 90.051 69.5552 89.9092 69.4976 89.7892C69.4399 89.6669 69.3488 89.5735 69.2242 89.5089C69.0996 89.442 68.937 89.4085 68.7363 89.4085H67.7604L67.7673 88.7753H69.0373L69.2346 89.014C69.5114 89.0233 69.7386 89.0844 69.9163 89.1974C70.0962 89.3105 70.23 89.457 70.3177 89.6369C70.4054 89.8169 70.4492 90.0107 70.4492 90.2183C70.4492 90.539 70.3788 90.8077 70.2381 91.0246C70.0997 91.2414 69.9001 91.4064 69.6394 91.5194C69.3788 91.6302 69.065 91.6855 68.6982 91.6855ZM73.4944 90.8031V87.9413H74.3319V91.6855H73.5429L73.4944 90.8031ZM73.6121 90.0245L73.8924 90.0176C73.8924 90.2691 73.8647 90.5009 73.8093 90.7131C73.754 90.9231 73.6686 91.1065 73.5533 91.2634C73.4379 91.4179 73.2903 91.5391 73.1103 91.6267C72.9304 91.7121 72.7147 91.7548 72.4632 91.7548C72.281 91.7548 72.1137 91.7282 71.9614 91.6752C71.8092 91.6221 71.6777 91.5402 71.5669 91.4295C71.4585 91.3187 71.3743 91.1745 71.3143 90.9969C71.2543 90.8193 71.2243 90.607 71.2243 90.3602V87.9413H72.0583V90.3671C72.0583 90.5032 72.0745 90.6174 72.1068 90.7097C72.1391 90.7997 72.1829 90.8723 72.2383 90.9277C72.2936 90.9831 72.3582 91.0223 72.4321 91.0454C72.5059 91.0684 72.5843 91.08 72.6674 91.08C72.905 91.08 73.0919 91.0338 73.228 90.9415C73.3664 90.847 73.4644 90.7201 73.5221 90.5609C73.5821 90.4017 73.6121 90.2229 73.6121 90.0245ZM76.903 87.9413V88.5503H74.7921V87.9413H76.903ZM75.4012 87.0243H76.2351V90.6509C76.2351 90.7662 76.2513 90.855 76.2836 90.9173C76.3182 90.9773 76.3655 91.0177 76.4255 91.0384C76.4855 91.0592 76.5558 91.0696 76.6366 91.0696C76.6942 91.0696 76.7496 91.0661 76.8027 91.0592C76.8557 91.0523 76.8984 91.0454 76.9307 91.0384L76.9342 91.6752C76.865 91.6959 76.7842 91.7144 76.6919 91.7305C76.602 91.7467 76.4981 91.7548 76.3805 91.7548C76.189 91.7548 76.0194 91.7213 75.8718 91.6544C75.7241 91.5852 75.6088 91.4733 75.5257 91.3187C75.4427 91.1642 75.4012 90.9588 75.4012 90.7028V87.0243ZM79.2631 87.9413V88.5503H77.1522V87.9413H79.2631ZM77.7612 87.0243H78.5952V90.6509C78.5952 90.7662 78.6114 90.855 78.6437 90.9173C78.6783 90.9773 78.7256 91.0177 78.7855 91.0384C78.8455 91.0592 78.9159 91.0696 78.9966 91.0696C79.0543 91.0696 79.1097 91.0661 79.1627 91.0592C79.2158 91.0523 79.2585 91.0454 79.2908 91.0384L79.2942 91.6752C79.225 91.6959 79.1443 91.7144 79.052 91.7305C78.962 91.7467 78.8582 91.7548 78.7405 91.7548C78.5491 91.7548 78.3795 91.7213 78.2319 91.6544C78.0842 91.5852 77.9689 91.4733 77.8858 91.3187C77.8028 91.1642 77.7612 90.9588 77.7612 90.7028V87.0243ZM79.6645 89.8549V89.7754C79.6645 89.5054 79.7037 89.2551 79.7822 89.0244C79.8606 88.7914 79.9736 88.5896 80.1213 88.4188C80.2712 88.2458 80.4535 88.112 80.668 88.0174C80.8849 87.9205 81.1294 87.8721 81.4017 87.8721C81.6762 87.8721 81.9207 87.9205 82.1353 88.0174C82.3522 88.112 82.5356 88.2458 82.6855 88.4188C82.8355 88.5896 82.9497 88.7914 83.0281 89.0244C83.1065 89.2551 83.1458 89.5054 83.1458 89.7754V89.8549C83.1458 90.1249 83.1065 90.3752 83.0281 90.6059C82.9497 90.8366 82.8355 91.0384 82.6855 91.2115C82.5356 91.3822 82.3533 91.516 82.1388 91.6129C81.9242 91.7075 81.6808 91.7548 81.4086 91.7548C81.1341 91.7548 80.8884 91.7075 80.6715 91.6129C80.457 91.516 80.2747 91.3822 80.1247 91.2115C79.9748 91.0384 79.8606 90.8366 79.7822 90.6059C79.7037 90.3752 79.6645 90.1249 79.6645 89.8549ZM80.4985 89.7754V89.8549C80.4985 90.0234 80.5158 90.1825 80.5504 90.3325C80.585 90.4824 80.6392 90.6139 80.713 90.727C80.7869 90.84 80.8814 90.9289 80.9968 90.9934C81.1121 91.058 81.2494 91.0903 81.4086 91.0903C81.5632 91.0903 81.697 91.058 81.81 90.9934C81.9254 90.9289 82.0199 90.84 82.0938 90.727C82.1676 90.6139 82.2218 90.4824 82.2564 90.3325C82.2933 90.1825 82.3118 90.0234 82.3118 89.8549V89.7754C82.3118 89.6092 82.2933 89.4524 82.2564 89.3047C82.2218 89.1548 82.1664 89.0221 82.0903 88.9068C82.0165 88.7914 81.9219 88.7014 81.8065 88.6368C81.6935 88.5699 81.5585 88.5365 81.4017 88.5365C81.2448 88.5365 81.1087 88.5699 80.9933 88.6368C80.8803 88.7014 80.7869 88.7914 80.713 88.9068C80.6392 89.0221 80.585 89.1548 80.5504 89.3047C80.5158 89.4524 80.4985 89.6092 80.4985 89.7754ZM84.6718 88.7407V91.6855H83.8379V87.9413H84.6234L84.6718 88.7407ZM84.523 89.675L84.2531 89.6715C84.2554 89.4062 84.2923 89.1628 84.3639 88.9414C84.4377 88.7199 84.5392 88.5296 84.6684 88.3704C84.7999 88.2112 84.9568 88.0889 85.139 88.0036C85.3213 87.9159 85.5243 87.8721 85.7481 87.8721C85.928 87.8721 86.0906 87.8975 86.236 87.9482C86.3836 87.9967 86.5094 88.0762 86.6132 88.187C86.7193 88.2977 86.8 88.4419 86.8554 88.6195C86.9108 88.7949 86.9385 89.0106 86.9385 89.2667V91.6855H86.101V89.2632C86.101 89.0833 86.0745 88.9414 86.0214 88.8376C85.9707 88.7314 85.8957 88.6565 85.7965 88.6126C85.6996 88.5665 85.5785 88.5434 85.4331 88.5434C85.2901 88.5434 85.1621 88.5734 85.049 88.6334C84.936 88.6934 84.8403 88.7753 84.7618 88.8791C84.6857 88.9829 84.6269 89.1029 84.5853 89.239C84.5438 89.3751 84.523 89.5204 84.523 89.675Z" fill="#E6E4D5"/>
<rect x="103.445" y="78.2554" width="133.11" height="21.8594" rx="3.92968" fill="#272727"/>
<rect x="103.445" y="78.2554" width="133.11" height="21.8594" rx="3.92968" stroke="#E6E4D5" stroke-width="1.01467"/>
<path d="M108.27 85.6643L109.703 88.4358L111.14 85.6643H111.97L110.067 89.1221V91.1846H109.335V89.1221L107.432 85.6643H108.27ZM112.137 89.1789V89.0917C112.137 88.796 112.18 88.5218 112.266 88.269C112.352 88.0137 112.476 87.7925 112.637 87.6055C112.799 87.4159 112.995 87.2693 113.225 87.1657C113.455 87.0595 113.713 87.0065 113.999 87.0065C114.287 87.0065 114.546 87.0595 114.776 87.1657C115.008 87.2693 115.205 87.4159 115.367 87.6055C115.532 87.7925 115.657 88.0137 115.743 88.269C115.829 88.5218 115.872 88.796 115.872 89.0917V89.1789C115.872 89.4747 115.829 89.7489 115.743 90.0017C115.657 90.2544 115.532 90.4756 115.367 90.6651C115.205 90.8522 115.01 90.9988 114.78 91.105C114.552 91.2086 114.294 91.2604 114.006 91.2604C113.718 91.2604 113.459 91.2086 113.229 91.105C112.999 90.9988 112.802 90.8522 112.637 90.6651C112.476 90.4756 112.352 90.2544 112.266 90.0017C112.18 89.7489 112.137 89.4747 112.137 89.1789ZM112.838 89.0917V89.1789C112.838 89.3837 112.862 89.577 112.91 89.759C112.958 89.9385 113.03 90.0977 113.127 90.2367C113.225 90.3757 113.348 90.4857 113.494 90.5666C113.641 90.6449 113.812 90.6841 114.006 90.6841C114.198 90.6841 114.366 90.6449 114.51 90.5666C114.657 90.4857 114.778 90.3757 114.874 90.2367C114.97 90.0977 115.042 89.9385 115.09 89.759C115.141 89.577 115.166 89.3837 115.166 89.1789V89.0917C115.166 88.8895 115.141 88.6987 115.09 88.5192C115.042 88.3372 114.969 88.1767 114.871 88.0377C114.775 87.8962 114.653 87.785 114.507 87.7041C114.363 87.6232 114.193 87.5827 113.999 87.5827C113.806 87.5827 113.637 87.6232 113.491 87.7041C113.346 87.785 113.225 87.8962 113.127 88.0377C113.03 88.1767 112.958 88.3372 112.91 88.5192C112.862 88.6987 112.838 88.8895 112.838 89.0917ZM119.261 90.2367V87.0823H119.966V91.1846H119.295L119.261 90.2367ZM119.394 89.3723L119.686 89.3647C119.686 89.6377 119.657 89.8904 119.598 90.123C119.543 90.353 119.452 90.5527 119.325 90.722C119.199 90.8914 119.034 91.0241 118.829 91.1201C118.624 91.2136 118.375 91.2604 118.082 91.2604C117.882 91.2604 117.699 91.2313 117.532 91.1732C117.368 91.1151 117.226 91.0253 117.108 90.904C116.989 90.7827 116.896 90.6247 116.831 90.4301C116.768 90.2355 116.736 90.0017 116.736 89.7287V87.0823H117.437V89.7363C117.437 89.9208 117.458 90.0737 117.498 90.195C117.541 90.3138 117.598 90.4086 117.669 90.4794C117.742 90.5476 117.823 90.5956 117.911 90.6234C118.002 90.6512 118.096 90.6651 118.192 90.6651C118.49 90.6651 118.726 90.6083 118.901 90.4945C119.075 90.3783 119.2 90.2228 119.276 90.0282C119.355 89.831 119.394 89.6124 119.394 89.3723ZM121.737 87.7268V91.1846H121.035V87.0823H121.718L121.737 87.7268ZM123.018 87.0595L123.014 87.7117C122.956 87.699 122.901 87.6914 122.848 87.6889C122.797 87.6839 122.739 87.6813 122.673 87.6813C122.511 87.6813 122.369 87.7066 122.245 87.7572C122.121 87.8077 122.016 87.8785 121.93 87.9695C121.844 88.0605 121.776 88.1692 121.725 88.2955C121.677 88.4194 121.646 88.5559 121.631 88.705L121.433 88.8187C121.433 88.571 121.457 88.3385 121.506 88.1211C121.556 87.9038 121.633 87.7117 121.737 87.5448C121.84 87.3755 121.972 87.2441 122.131 87.1505C122.293 87.0545 122.485 87.0065 122.707 87.0065C122.758 87.0065 122.816 87.0128 122.882 87.0254C122.948 87.0355 122.993 87.0469 123.018 87.0595ZM127.295 91.2604C127.009 91.2604 126.75 91.2124 126.518 91.1163C126.288 91.0177 126.089 90.88 125.922 90.7031C125.758 90.5261 125.632 90.3163 125.543 90.0737C125.455 89.831 125.411 89.5656 125.411 89.2775V89.1183C125.411 88.7846 125.46 88.4876 125.559 88.2273C125.657 87.9644 125.791 87.742 125.96 87.56C126.13 87.378 126.322 87.2403 126.537 87.1467C126.752 87.0532 126.974 87.0065 127.204 87.0065C127.497 87.0065 127.75 87.057 127.962 87.1581C128.177 87.2592 128.353 87.4008 128.489 87.5827C128.626 87.7622 128.727 87.9745 128.793 88.2197C128.858 88.4624 128.891 88.7277 128.891 89.0159V89.3306H125.828V88.7581H128.19V88.705C128.18 88.523 128.142 88.3461 128.076 88.1742C128.013 88.0023 127.912 87.8608 127.773 87.7496C127.634 87.6384 127.444 87.5827 127.204 87.5827C127.045 87.5827 126.898 87.6169 126.764 87.6851C126.63 87.7508 126.515 87.8494 126.419 87.9808C126.323 88.1123 126.249 88.2728 126.195 88.4624C126.142 88.6519 126.116 88.8706 126.116 89.1183V89.2775C126.116 89.4721 126.142 89.6554 126.195 89.8273C126.251 89.9966 126.331 90.1457 126.434 90.2746C126.54 90.4035 126.668 90.5046 126.817 90.5779C126.969 90.6512 127.141 90.6879 127.333 90.6879C127.581 90.6879 127.79 90.6373 127.962 90.5362C128.134 90.4351 128.285 90.2999 128.413 90.1306L128.838 90.468C128.75 90.602 128.637 90.7296 128.501 90.8509C128.364 90.9723 128.196 91.0708 127.996 91.1467C127.799 91.2225 127.565 91.2604 127.295 91.2604ZM130.408 87.8974V91.1846H129.703V87.0823H130.37L130.408 87.8974ZM130.264 88.978L129.938 88.9666C129.94 88.686 129.977 88.427 130.048 88.1894C130.118 87.9493 130.223 87.7407 130.362 87.5638C130.501 87.3869 130.674 87.2504 130.882 87.1543C131.089 87.0557 131.329 87.0065 131.602 87.0065C131.794 87.0065 131.971 87.0343 132.133 87.0899C132.295 87.1429 132.435 87.2276 132.554 87.3439C132.672 87.4602 132.765 87.6093 132.83 87.7913C132.896 87.9733 132.929 88.1932 132.929 88.451V91.1846H132.228V88.4851C132.228 88.2703 132.191 88.0984 132.118 87.9695C132.047 87.8406 131.946 87.747 131.814 87.6889C131.683 87.6282 131.529 87.5979 131.352 87.5979C131.144 87.5979 130.971 87.6346 130.832 87.7079C130.693 87.7812 130.582 87.8823 130.499 88.0112C130.415 88.1401 130.355 88.2879 130.317 88.4548C130.281 88.6191 130.264 88.7935 130.264 88.978ZM132.921 88.5913L132.451 88.7353C132.454 88.5104 132.49 88.2943 132.561 88.087C132.635 87.8797 132.739 87.6952 132.876 87.5335C133.015 87.3717 133.186 87.2441 133.388 87.1505C133.59 87.0545 133.821 87.0065 134.082 87.0065C134.301 87.0065 134.496 87.0355 134.665 87.0937C134.837 87.1518 134.981 87.2415 135.098 87.3628C135.216 87.4816 135.306 87.6346 135.367 87.8216C135.428 88.0086 135.458 88.2311 135.458 88.4889V91.1846H134.753V88.4813C134.753 88.2513 134.716 88.0731 134.643 87.9467C134.572 87.8178 134.471 87.7281 134.339 87.6775C134.21 87.6245 134.056 87.5979 133.877 87.5979C133.723 87.5979 133.586 87.6245 133.467 87.6775C133.349 87.7306 133.249 87.8039 133.168 87.8974C133.087 87.9884 133.025 88.0933 132.982 88.2121C132.942 88.3309 132.921 88.4573 132.921 88.5913ZM138.938 90.4832V88.3714C138.938 88.2096 138.905 88.0693 138.84 87.9505C138.777 87.8292 138.681 87.7357 138.552 87.67C138.423 87.6042 138.263 87.5714 138.074 87.5714C137.897 87.5714 137.742 87.6017 137.608 87.6624C137.476 87.723 137.372 87.8026 137.297 87.9012C137.223 87.9998 137.187 88.106 137.187 88.2197H136.485C136.485 88.0731 136.523 87.9278 136.599 87.7837C136.675 87.6396 136.784 87.5094 136.925 87.3932C137.069 87.2744 137.241 87.1809 137.441 87.1126C137.643 87.0418 137.868 87.0065 138.116 87.0065C138.414 87.0065 138.677 87.057 138.904 87.1581C139.134 87.2592 139.314 87.4121 139.443 87.6169C139.574 87.8191 139.64 88.0731 139.64 88.3789V90.2898C139.64 90.4263 139.651 90.5716 139.674 90.7258C139.699 90.88 139.736 91.0127 139.784 91.1239V91.1846H139.052C139.017 91.1037 138.989 90.9963 138.969 90.8623C138.948 90.7258 138.938 90.5994 138.938 90.4832ZM139.06 88.6974L139.067 89.1903H138.358C138.159 89.1903 137.98 89.2067 137.824 89.2396C137.667 89.2699 137.536 89.3167 137.429 89.3799C137.323 89.4431 137.242 89.5227 137.187 89.6187C137.131 89.7122 137.103 89.8222 137.103 89.9486C137.103 90.0775 137.132 90.195 137.19 90.3012C137.249 90.4073 137.336 90.492 137.452 90.5552C137.571 90.6159 137.716 90.6462 137.888 90.6462C138.103 90.6462 138.293 90.6007 138.457 90.5097C138.621 90.4187 138.751 90.3075 138.847 90.1761C138.946 90.0446 138.999 89.917 139.007 89.7931L139.306 90.1306C139.288 90.2367 139.24 90.3543 139.162 90.4832C139.084 90.6121 138.979 90.7359 138.847 90.8547C138.718 90.971 138.564 91.0683 138.385 91.1467C138.208 91.2225 138.008 91.2604 137.786 91.2604C137.508 91.2604 137.264 91.2061 137.054 91.0974C136.847 90.9887 136.685 90.8433 136.569 90.6614C136.455 90.4768 136.398 90.2708 136.398 90.0434C136.398 89.8235 136.441 89.6301 136.527 89.4633C136.613 89.2939 136.737 89.1536 136.899 89.0424C137.06 88.9287 137.255 88.8428 137.482 88.7846C137.71 88.7265 137.964 88.6974 138.245 88.6974H139.06ZM141.505 87.0823V91.1846H140.8V87.0823H141.505ZM140.747 85.9942C140.747 85.8804 140.781 85.7844 140.849 85.706C140.92 85.6277 141.024 85.5885 141.16 85.5885C141.294 85.5885 141.396 85.6277 141.467 85.706C141.54 85.7844 141.577 85.8804 141.577 85.9942C141.577 86.1028 141.54 86.1964 141.467 86.2747C141.396 86.3505 141.294 86.3885 141.16 86.3885C141.024 86.3885 140.92 86.3505 140.849 86.2747C140.781 86.1964 140.747 86.1028 140.747 85.9942ZM143.393 85.361V91.1846H142.688V85.361H143.393Z" fill="#E6E4D5"/>
</g>
</svg>
