<svg width="263" height="179" viewBox="0 0 263 179" fill="none" xmlns="http://www.w3.org/2000/svg">
<g opacity="0.8">
<rect width="223" height="139" transform="translate(20 20)" fill="black"/>
<rect x="36.25" y="44.458" width="14.2625" height="14.2625" rx="2.7025" fill="#E6E4D5" fill-opacity="0.28"/>
<rect x="36.25" y="44.458" width="14.2625" height="14.2625" rx="2.7025" stroke="#E6E4D5" stroke-width="0.5"/>
<path d="M43.722 49.3954V53.0889H43.2553V49.9781L42.3142 50.3213V49.8999L43.6488 49.3954H43.722Z" fill="#E6E4D5"/>
<g opacity="0.5">
<rect x="36.25" y="63.2207" width="14.2625" height="14.2625" rx="2.7025" stroke="#E6E4D5" stroke-width="0.5"/>
<path d="M43.722 68.1581V71.8516H43.2553V68.7408L42.3142 69.084V68.6626L43.6488 68.1581H43.722Z" fill="#E6E4D5"/>
</g>
<rect x="36.25" y="81.9834" width="14.2625" height="14.2625" rx="2.7025" stroke="#E6E4D5" stroke-width="0.5"/>
<path d="M43.722 86.9207V90.6143H43.2553V87.5035L42.3142 87.8466V87.4253L43.6488 86.9207H43.722Z" fill="#E6E4D5"/>
<rect x="36" y="100.495" width="14.7625" height="14.7625" rx="2.9525" fill="#E6E4D5"/>
<path d="M43.722 105.682V109.376H43.2553V106.265L42.3142 106.608V106.187L43.6488 105.682H43.722Z" fill="black"/>
<g filter="url(#filter0_dd_706_16231)">
<rect x="36" y="119.258" width="14.7625" height="14.905" rx="2.9525" fill="#E6E4D5"/>
<path d="M43.722 124.516V128.21H43.2553V125.099L42.3142 125.442V125.021L43.6488 124.516H43.722Z" fill="black"/>
</g>
<rect x="58.9832" y="29.3299" width="35.7313" height="21.1877" rx="3.32208" fill="#E6E4D5" fill-opacity="0.28"/>
<rect x="58.9832" y="29.3299" width="35.7313" height="21.1877" rx="3.32208" stroke="#E6E4D5" stroke-width="0.442944"/>
<path d="M68.7363 40.1468H67.4524L67.4455 39.5136H68.5667C68.7559 39.5136 68.9162 39.4859 69.0477 39.4305C69.1815 39.3728 69.283 39.2909 69.3522 39.1848C69.4214 39.0764 69.456 38.946 69.456 38.7938C69.456 38.6254 69.4237 38.4881 69.3591 38.382C69.2945 38.2758 69.1953 38.1986 69.0615 38.1501C68.93 38.1017 68.7616 38.0774 68.5563 38.0774H67.7154V42.4238H66.8468V37.3853H68.5563C68.8331 37.3853 69.08 37.4119 69.2969 37.4649C69.516 37.518 69.7017 37.601 69.854 37.7141C70.0086 37.8248 70.1251 37.9656 70.2035 38.1363C70.2842 38.307 70.3246 38.51 70.3246 38.7453C70.3246 38.9529 70.275 39.1433 70.1758 39.3163C70.0766 39.487 69.9301 39.6266 69.7363 39.735C69.5425 39.8435 69.3015 39.908 69.0131 39.9288L68.7363 40.1468ZM68.6982 42.4238H67.179L67.5701 41.7352H68.6982C68.8943 41.7352 69.0581 41.7029 69.1896 41.6383C69.3211 41.5714 69.4191 41.4803 69.4837 41.3649C69.5506 41.2473 69.5841 41.11 69.5841 40.9531C69.5841 40.7893 69.5552 40.6474 69.4976 40.5275C69.4399 40.4052 69.3488 40.3118 69.2242 40.2472C69.0996 40.1803 68.937 40.1468 68.7363 40.1468H67.7604L67.7673 39.5136H69.0373L69.2346 39.7523C69.5114 39.7616 69.7386 39.8227 69.9163 39.9357C70.0962 40.0488 70.23 40.1953 70.3177 40.3752C70.4054 40.5552 70.4492 40.7489 70.4492 40.9566C70.4492 41.2773 70.3788 41.546 70.2381 41.7629C70.0997 41.9797 69.9001 42.1447 69.6394 42.2577C69.3788 42.3685 69.065 42.4238 68.6982 42.4238ZM73.4944 41.5414V38.6796H74.3319V42.4238H73.5429L73.4944 41.5414ZM73.6121 40.7628L73.8924 40.7559C73.8924 41.0073 73.8647 41.2392 73.8093 41.4514C73.754 41.6614 73.6686 41.8448 73.5533 42.0016C73.4379 42.1562 73.2903 42.2773 73.1103 42.365C72.9304 42.4504 72.7147 42.493 72.4632 42.493C72.281 42.493 72.1137 42.4665 71.9614 42.4134C71.8092 42.3604 71.6777 42.2785 71.5669 42.1678C71.4585 42.057 71.3743 41.9128 71.3143 41.7352C71.2543 41.5576 71.2243 41.3453 71.2243 41.0985V38.6796H72.0583V41.1054C72.0583 41.2415 72.0745 41.3557 72.1068 41.448C72.1391 41.5379 72.1829 41.6106 72.2383 41.666C72.2936 41.7213 72.3582 41.7606 72.4321 41.7836C72.5059 41.8067 72.5843 41.8182 72.6674 41.8182C72.905 41.8182 73.0919 41.7721 73.228 41.6798C73.3664 41.5852 73.4644 41.4583 73.5221 41.2992C73.5821 41.14 73.6121 40.9612 73.6121 40.7628ZM76.903 38.6796V39.2886H74.7921V38.6796H76.903ZM75.4012 37.7625H76.2351V41.3891C76.2351 41.5045 76.2513 41.5933 76.2836 41.6556C76.3182 41.7156 76.3655 41.756 76.4255 41.7767C76.4855 41.7975 76.5558 41.8079 76.6366 41.8079C76.6942 41.8079 76.7496 41.8044 76.8027 41.7975C76.8557 41.7906 76.8984 41.7836 76.9307 41.7767L76.9342 42.4134C76.865 42.4342 76.7842 42.4527 76.6919 42.4688C76.602 42.485 76.4981 42.493 76.3805 42.493C76.189 42.493 76.0194 42.4596 75.8718 42.3927C75.7241 42.3235 75.6088 42.2116 75.5257 42.057C75.4427 41.9024 75.4012 41.6971 75.4012 41.441V37.7625ZM79.2631 38.6796V39.2886H77.1522V38.6796H79.2631ZM77.7612 37.7625H78.5952V41.3891C78.5952 41.5045 78.6114 41.5933 78.6437 41.6556C78.6783 41.7156 78.7256 41.756 78.7855 41.7767C78.8455 41.7975 78.9159 41.8079 78.9966 41.8079C79.0543 41.8079 79.1097 41.8044 79.1627 41.7975C79.2158 41.7906 79.2585 41.7836 79.2908 41.7767L79.2942 42.4134C79.225 42.4342 79.1443 42.4527 79.052 42.4688C78.962 42.485 78.8582 42.493 78.7405 42.493C78.5491 42.493 78.3795 42.4596 78.2319 42.3927C78.0842 42.3235 77.9689 42.2116 77.8858 42.057C77.8028 41.9024 77.7612 41.6971 77.7612 41.441V37.7625ZM79.6645 40.5932V40.5136C79.6645 40.2437 79.7037 39.9934 79.7822 39.7627C79.8606 39.5297 79.9736 39.3278 80.1213 39.1571C80.2712 38.9841 80.4535 38.8503 80.668 38.7557C80.8849 38.6588 81.1294 38.6104 81.4017 38.6104C81.6762 38.6104 81.9207 38.6588 82.1353 38.7557C82.3522 38.8503 82.5356 38.9841 82.6855 39.1571C82.8355 39.3278 82.9497 39.5297 83.0281 39.7627C83.1065 39.9934 83.1458 40.2437 83.1458 40.5136V40.5932C83.1458 40.8631 83.1065 41.1135 83.0281 41.3442C82.9497 41.5749 82.8355 41.7767 82.6855 41.9497C82.5356 42.1205 82.3533 42.2543 82.1388 42.3512C81.9242 42.4457 81.6808 42.493 81.4086 42.493C81.1341 42.493 80.8884 42.4457 80.6715 42.3512C80.457 42.2543 80.2747 42.1205 80.1247 41.9497C79.9748 41.7767 79.8606 41.5749 79.7822 41.3442C79.7037 41.1135 79.6645 40.8631 79.6645 40.5932ZM80.4985 40.5136V40.5932C80.4985 40.7616 80.5158 40.9208 80.5504 41.0708C80.585 41.2207 80.6392 41.3522 80.713 41.4653C80.7869 41.5783 80.8814 41.6671 80.9968 41.7317C81.1121 41.7963 81.2494 41.8286 81.4086 41.8286C81.5632 41.8286 81.697 41.7963 81.81 41.7317C81.9254 41.6671 82.0199 41.5783 82.0938 41.4653C82.1676 41.3522 82.2218 41.2207 82.2564 41.0708C82.2933 40.9208 82.3118 40.7616 82.3118 40.5932V40.5136C82.3118 40.3475 82.2933 40.1907 82.2564 40.043C82.2218 39.8931 82.1664 39.7604 82.0903 39.645C82.0165 39.5297 81.9219 39.4397 81.8065 39.3751C81.6935 39.3082 81.5585 39.2748 81.4017 39.2748C81.2448 39.2748 81.1087 39.3082 80.9933 39.3751C80.8803 39.4397 80.7869 39.5297 80.713 39.645C80.6392 39.7604 80.585 39.8931 80.5504 40.043C80.5158 40.1907 80.4985 40.3475 80.4985 40.5136ZM84.6718 39.4789V42.4238H83.8379V38.6796H84.6234L84.6718 39.4789ZM84.523 40.4133L84.2531 40.4098C84.2554 40.1445 84.2923 39.9011 84.3639 39.6797C84.4377 39.4582 84.5392 39.2679 84.6684 39.1087C84.7999 38.9495 84.9568 38.8272 85.139 38.7419C85.3213 38.6542 85.5243 38.6104 85.7481 38.6104C85.928 38.6104 86.0906 38.6357 86.236 38.6865C86.3836 38.7349 86.5094 38.8145 86.6132 38.9253C86.7193 39.036 86.8 39.1802 86.8554 39.3578C86.9108 39.5332 86.9385 39.7489 86.9385 40.0049V42.4238H86.101V40.0015C86.101 39.8215 86.0745 39.6797 86.0214 39.5758C85.9707 39.4697 85.8957 39.3947 85.7965 39.3509C85.6996 39.3048 85.5785 39.2817 85.4331 39.2817C85.2901 39.2817 85.1621 39.3117 85.049 39.3717C84.936 39.4317 84.8403 39.5136 84.7618 39.6174C84.6857 39.7212 84.6269 39.8411 84.5853 39.9773C84.5438 40.1134 84.523 40.2587 84.523 40.4133Z" fill="#E6E4D5"/>
<g opacity="0.5">
<rect x="58.9832" y="53.9607" width="35.7313" height="21.1877" rx="3.32208" fill="#E6E4D5" fill-opacity="0.08"/>
<rect x="58.9832" y="53.9607" width="35.7313" height="21.1877" rx="3.32208" stroke="#E6E4D5" stroke-width="0.442944"/>
<path d="M68.7363 64.7777H67.4524L67.4455 64.1444H68.5667C68.7559 64.1444 68.9162 64.1167 69.0477 64.0614C69.1815 64.0037 69.283 63.9218 69.3522 63.8157C69.4214 63.7072 69.456 63.5769 69.456 63.4246C69.456 63.2562 69.4237 63.1189 69.3591 63.0128C69.2945 62.9067 69.1953 62.8294 69.0615 62.781C68.93 62.7325 68.7616 62.7083 68.5563 62.7083H67.7154V67.0547H66.8468V62.0162H68.5563C68.8331 62.0162 69.08 62.0427 69.2969 62.0958C69.516 62.1489 69.7017 62.2319 69.854 62.345C70.0086 62.4557 70.1251 62.5964 70.2035 62.7671C70.2842 62.9378 70.3246 63.1409 70.3246 63.3762C70.3246 63.5838 70.275 63.7741 70.1758 63.9472C70.0766 64.1179 69.9301 64.2575 69.7363 64.3659C69.5425 64.4743 69.3015 64.5389 69.0131 64.5597L68.7363 64.7777ZM68.6982 67.0547H67.179L67.5701 66.366H68.6982C68.8943 66.366 69.0581 66.3338 69.1896 66.2692C69.3211 66.2023 69.4191 66.1111 69.4837 65.9958C69.5506 65.8781 69.5841 65.7409 69.5841 65.584C69.5841 65.4202 69.5552 65.2783 69.4976 65.1583C69.4399 65.0361 69.3488 64.9426 69.2242 64.878C69.0996 64.8111 68.937 64.7777 68.7363 64.7777H67.7604L67.7673 64.1444H69.0373L69.2346 64.3832C69.5114 64.3924 69.7386 64.4535 69.9163 64.5666C70.0962 64.6796 70.23 64.8261 70.3177 65.0061C70.4054 65.186 70.4492 65.3798 70.4492 65.5874C70.4492 65.9081 70.3788 66.1769 70.2381 66.3937C70.0997 66.6106 69.9001 66.7755 69.6394 66.8886C69.3788 66.9993 69.065 67.0547 68.6982 67.0547ZM73.4944 66.1723V63.3104H74.3319V67.0547H73.5429L73.4944 66.1723ZM73.6121 65.3936L73.8924 65.3867C73.8924 65.6382 73.8647 65.87 73.8093 66.0823C73.754 66.2922 73.6686 66.4756 73.5533 66.6325C73.4379 66.7871 73.2903 66.9082 73.1103 66.9959C72.9304 67.0812 72.7147 67.1239 72.4632 67.1239C72.281 67.1239 72.1137 67.0974 71.9614 67.0443C71.8092 66.9912 71.6777 66.9093 71.5669 66.7986C71.4585 66.6879 71.3743 66.5437 71.3143 66.366C71.2543 66.1884 71.2243 65.9762 71.2243 65.7293V63.3104H72.0583V65.7362C72.0583 65.8724 72.0745 65.9865 72.1068 66.0788C72.1391 66.1688 72.1829 66.2415 72.2383 66.2968C72.2936 66.3522 72.3582 66.3914 72.4321 66.4145C72.5059 66.4376 72.5843 66.4491 72.6674 66.4491C72.905 66.4491 73.0919 66.403 73.228 66.3107C73.3664 66.2161 73.4644 66.0892 73.5221 65.93C73.5821 65.7708 73.6121 65.5921 73.6121 65.3936ZM76.903 63.3104V63.9195H74.7921V63.3104H76.903ZM75.4012 62.3934H76.2351V66.02C76.2351 66.1353 76.2513 66.2242 76.2836 66.2865C76.3182 66.3464 76.3655 66.3868 76.4255 66.4076C76.4855 66.4283 76.5558 66.4387 76.6366 66.4387C76.6942 66.4387 76.7496 66.4353 76.8027 66.4283C76.8557 66.4214 76.8984 66.4145 76.9307 66.4076L76.9342 67.0443C76.865 67.0651 76.7842 67.0835 76.6919 67.0997C76.602 67.1158 76.4981 67.1239 76.3805 67.1239C76.189 67.1239 76.0194 67.0904 75.8718 67.0235C75.7241 66.9543 75.6088 66.8424 75.5257 66.6879C75.4427 66.5333 75.4012 66.328 75.4012 66.0719V62.3934ZM79.2631 63.3104V63.9195H77.1522V63.3104H79.2631ZM77.7612 62.3934H78.5952V66.02C78.5952 66.1353 78.6114 66.2242 78.6437 66.2865C78.6783 66.3464 78.7256 66.3868 78.7855 66.4076C78.8455 66.4283 78.9159 66.4387 78.9966 66.4387C79.0543 66.4387 79.1097 66.4353 79.1627 66.4283C79.2158 66.4214 79.2585 66.4145 79.2908 66.4076L79.2942 67.0443C79.225 67.0651 79.1443 67.0835 79.052 67.0997C78.962 67.1158 78.8582 67.1239 78.7405 67.1239C78.5491 67.1239 78.3795 67.0904 78.2319 67.0235C78.0842 66.9543 77.9689 66.8424 77.8858 66.6879C77.8028 66.5333 77.7612 66.328 77.7612 66.0719V62.3934ZM79.6645 65.2241V65.1445C79.6645 64.8746 79.7037 64.6243 79.7822 64.3936C79.8606 64.1606 79.9736 63.9587 80.1213 63.788C80.2712 63.615 80.4535 63.4811 80.668 63.3866C80.8849 63.2897 81.1294 63.2412 81.4017 63.2412C81.6762 63.2412 81.9207 63.2897 82.1353 63.3866C82.3522 63.4811 82.5356 63.615 82.6855 63.788C82.8355 63.9587 82.9497 64.1606 83.0281 64.3936C83.1065 64.6243 83.1458 64.8746 83.1458 65.1445V65.2241C83.1458 65.494 83.1065 65.7443 83.0281 65.975C82.9497 66.2057 82.8355 66.4076 82.6855 66.5806C82.5356 66.7513 82.3533 66.8851 82.1388 66.982C81.9242 67.0766 81.6808 67.1239 81.4086 67.1239C81.1341 67.1239 80.8884 67.0766 80.6715 66.982C80.457 66.8851 80.2747 66.7513 80.1247 66.5806C79.9748 66.4076 79.8606 66.2057 79.7822 65.975C79.7037 65.7443 79.6645 65.494 79.6645 65.2241ZM80.4985 65.1445V65.2241C80.4985 65.3925 80.5158 65.5517 80.5504 65.7016C80.585 65.8516 80.6392 65.9831 80.713 66.0961C80.7869 66.2092 80.8814 66.298 80.9968 66.3626C81.1121 66.4272 81.2494 66.4595 81.4086 66.4595C81.5632 66.4595 81.697 66.4272 81.81 66.3626C81.9254 66.298 82.0199 66.2092 82.0938 66.0961C82.1676 65.9831 82.2218 65.8516 82.2564 65.7016C82.2933 65.5517 82.3118 65.3925 82.3118 65.2241V65.1445C82.3118 64.9784 82.2933 64.8215 82.2564 64.6739C82.2218 64.5239 82.1664 64.3913 82.0903 64.2759C82.0165 64.1606 81.9219 64.0706 81.8065 64.006C81.6935 63.9391 81.5585 63.9056 81.4017 63.9056C81.2448 63.9056 81.1087 63.9391 80.9933 64.006C80.8803 64.0706 80.7869 64.1606 80.713 64.2759C80.6392 64.3913 80.585 64.5239 80.5504 64.6739C80.5158 64.8215 80.4985 64.9784 80.4985 65.1445ZM84.6718 64.1098V67.0547H83.8379V63.3104H84.6234L84.6718 64.1098ZM84.523 65.0441L84.2531 65.0407C84.2554 64.7754 84.2923 64.532 84.3639 64.3105C84.4377 64.089 84.5392 63.8987 84.6684 63.7395C84.7999 63.5803 84.9568 63.4581 85.139 63.3727C85.3213 63.2851 85.5243 63.2412 85.7481 63.2412C85.928 63.2412 86.0906 63.2666 86.236 63.3174C86.3836 63.3658 86.5094 63.4454 86.6132 63.5561C86.7193 63.6669 86.8 63.811 86.8554 63.9887C86.9108 64.164 86.9385 64.3797 86.9385 64.6358V67.0547H86.101V64.6323C86.101 64.4524 86.0745 64.3105 86.0214 64.2067C85.9707 64.1006 85.8957 64.0256 85.7965 63.9818C85.6996 63.9356 85.5785 63.9126 85.4331 63.9126C85.2901 63.9126 85.1621 63.9425 85.049 64.0025C84.936 64.0625 84.8403 64.1444 84.7618 64.2482C84.6857 64.352 84.6269 64.472 84.5853 64.6081C84.5438 64.7442 84.523 64.8896 84.523 65.0441Z" fill="#E6E4D5"/>
</g>
<rect x="58.9832" y="78.5916" width="35.7313" height="21.1877" rx="3.32208" fill="#E6E4D5" fill-opacity="0.08"/>
<rect x="58.9832" y="78.5916" width="35.7313" height="21.1877" rx="3.32208" stroke="#E6E4D5" stroke-width="0.442944"/>
<path d="M68.7363 89.4085H67.4524L67.4455 88.7753H68.5667C68.7559 88.7753 68.9162 88.7476 69.0477 88.6922C69.1815 88.6345 69.283 88.5526 69.3522 88.4465C69.4214 88.3381 69.456 88.2077 69.456 88.0555C69.456 87.8871 69.4237 87.7498 69.3591 87.6437C69.2945 87.5376 69.1953 87.4603 69.0615 87.4118C68.93 87.3634 68.7616 87.3392 68.5563 87.3392H67.7154V91.6855H66.8468V86.6471H68.5563C68.8331 86.6471 69.08 86.6736 69.2969 86.7267C69.516 86.7797 69.7017 86.8628 69.854 86.9758C70.0086 87.0865 70.1251 87.2273 70.2035 87.398C70.2842 87.5687 70.3246 87.7717 70.3246 88.007C70.3246 88.2147 70.275 88.405 70.1758 88.578C70.0766 88.7487 69.9301 88.8883 69.7363 88.9967C69.5425 89.1052 69.3015 89.1698 69.0131 89.1905L68.7363 89.4085ZM68.6982 91.6855H67.179L67.5701 90.9969H68.6982C68.8943 90.9969 69.0581 90.9646 69.1896 90.9C69.3211 90.8331 69.4191 90.742 69.4837 90.6266C69.5506 90.509 69.5841 90.3717 69.5841 90.2148C69.5841 90.051 69.5552 89.9092 69.4976 89.7892C69.4399 89.6669 69.3488 89.5735 69.2242 89.5089C69.0996 89.442 68.937 89.4085 68.7363 89.4085H67.7604L67.7673 88.7753H69.0373L69.2346 89.014C69.5114 89.0233 69.7386 89.0844 69.9163 89.1974C70.0962 89.3105 70.23 89.457 70.3177 89.6369C70.4054 89.8169 70.4492 90.0107 70.4492 90.2183C70.4492 90.539 70.3788 90.8077 70.2381 91.0246C70.0997 91.2414 69.9001 91.4064 69.6394 91.5194C69.3788 91.6302 69.065 91.6855 68.6982 91.6855ZM73.4944 90.8031V87.9413H74.3319V91.6855H73.5429L73.4944 90.8031ZM73.6121 90.0245L73.8924 90.0176C73.8924 90.2691 73.8647 90.5009 73.8093 90.7131C73.754 90.9231 73.6686 91.1065 73.5533 91.2634C73.4379 91.4179 73.2903 91.5391 73.1103 91.6267C72.9304 91.7121 72.7147 91.7548 72.4632 91.7548C72.281 91.7548 72.1137 91.7282 71.9614 91.6752C71.8092 91.6221 71.6777 91.5402 71.5669 91.4295C71.4585 91.3187 71.3743 91.1745 71.3143 90.9969C71.2543 90.8193 71.2243 90.607 71.2243 90.3602V87.9413H72.0583V90.3671C72.0583 90.5032 72.0745 90.6174 72.1068 90.7097C72.1391 90.7997 72.1829 90.8723 72.2383 90.9277C72.2936 90.9831 72.3582 91.0223 72.4321 91.0454C72.5059 91.0684 72.5843 91.08 72.6674 91.08C72.905 91.08 73.0919 91.0338 73.228 90.9415C73.3664 90.847 73.4644 90.7201 73.5221 90.5609C73.5821 90.4017 73.6121 90.2229 73.6121 90.0245ZM76.903 87.9413V88.5503H74.7921V87.9413H76.903ZM75.4012 87.0243H76.2351V90.6509C76.2351 90.7662 76.2513 90.855 76.2836 90.9173C76.3182 90.9773 76.3655 91.0177 76.4255 91.0384C76.4855 91.0592 76.5558 91.0696 76.6366 91.0696C76.6942 91.0696 76.7496 91.0661 76.8027 91.0592C76.8557 91.0523 76.8984 91.0454 76.9307 91.0384L76.9342 91.6752C76.865 91.6959 76.7842 91.7144 76.6919 91.7305C76.602 91.7467 76.4981 91.7548 76.3805 91.7548C76.189 91.7548 76.0194 91.7213 75.8718 91.6544C75.7241 91.5852 75.6088 91.4733 75.5257 91.3187C75.4427 91.1642 75.4012 90.9588 75.4012 90.7028V87.0243ZM79.2631 87.9413V88.5503H77.1522V87.9413H79.2631ZM77.7612 87.0243H78.5952V90.6509C78.5952 90.7662 78.6114 90.855 78.6437 90.9173C78.6783 90.9773 78.7256 91.0177 78.7855 91.0384C78.8455 91.0592 78.9159 91.0696 78.9966 91.0696C79.0543 91.0696 79.1097 91.0661 79.1627 91.0592C79.2158 91.0523 79.2585 91.0454 79.2908 91.0384L79.2942 91.6752C79.225 91.6959 79.1443 91.7144 79.052 91.7305C78.962 91.7467 78.8582 91.7548 78.7405 91.7548C78.5491 91.7548 78.3795 91.7213 78.2319 91.6544C78.0842 91.5852 77.9689 91.4733 77.8858 91.3187C77.8028 91.1642 77.7612 90.9588 77.7612 90.7028V87.0243ZM79.6645 89.8549V89.7754C79.6645 89.5054 79.7037 89.2551 79.7822 89.0244C79.8606 88.7914 79.9736 88.5896 80.1213 88.4188C80.2712 88.2458 80.4535 88.112 80.668 88.0174C80.8849 87.9205 81.1294 87.8721 81.4017 87.8721C81.6762 87.8721 81.9207 87.9205 82.1353 88.0174C82.3522 88.112 82.5356 88.2458 82.6855 88.4188C82.8355 88.5896 82.9497 88.7914 83.0281 89.0244C83.1065 89.2551 83.1458 89.5054 83.1458 89.7754V89.8549C83.1458 90.1249 83.1065 90.3752 83.0281 90.6059C82.9497 90.8366 82.8355 91.0384 82.6855 91.2115C82.5356 91.3822 82.3533 91.516 82.1388 91.6129C81.9242 91.7075 81.6808 91.7548 81.4086 91.7548C81.1341 91.7548 80.8884 91.7075 80.6715 91.6129C80.457 91.516 80.2747 91.3822 80.1247 91.2115C79.9748 91.0384 79.8606 90.8366 79.7822 90.6059C79.7037 90.3752 79.6645 90.1249 79.6645 89.8549ZM80.4985 89.7754V89.8549C80.4985 90.0234 80.5158 90.1825 80.5504 90.3325C80.585 90.4824 80.6392 90.6139 80.713 90.727C80.7869 90.84 80.8814 90.9289 80.9968 90.9934C81.1121 91.058 81.2494 91.0903 81.4086 91.0903C81.5632 91.0903 81.697 91.058 81.81 90.9934C81.9254 90.9289 82.0199 90.84 82.0938 90.727C82.1676 90.6139 82.2218 90.4824 82.2564 90.3325C82.2933 90.1825 82.3118 90.0234 82.3118 89.8549V89.7754C82.3118 89.6092 82.2933 89.4524 82.2564 89.3047C82.2218 89.1548 82.1664 89.0221 82.0903 88.9068C82.0165 88.7914 81.9219 88.7014 81.8065 88.6368C81.6935 88.5699 81.5585 88.5365 81.4017 88.5365C81.2448 88.5365 81.1087 88.5699 80.9933 88.6368C80.8803 88.7014 80.7869 88.7914 80.713 88.9068C80.6392 89.0221 80.585 89.1548 80.5504 89.3047C80.5158 89.4524 80.4985 89.6092 80.4985 89.7754ZM84.6718 88.7407V91.6855H83.8379V87.9413H84.6234L84.6718 88.7407ZM84.523 89.675L84.2531 89.6715C84.2554 89.4062 84.2923 89.1628 84.3639 88.9414C84.4377 88.7199 84.5392 88.5296 84.6684 88.3704C84.7999 88.2112 84.9568 88.0889 85.139 88.0036C85.3213 87.9159 85.5243 87.8721 85.7481 87.8721C85.928 87.8721 86.0906 87.8975 86.236 87.9482C86.3836 87.9967 86.5094 88.0762 86.6132 88.187C86.7193 88.2977 86.8 88.4419 86.8554 88.6195C86.9108 88.7949 86.9385 89.0106 86.9385 89.2667V91.6855H86.101V89.2632C86.101 89.0833 86.0745 88.9414 86.0214 88.8376C85.9707 88.7314 85.8957 88.6565 85.7965 88.6126C85.6996 88.5665 85.5785 88.5434 85.4331 88.5434C85.2901 88.5434 85.1621 88.5734 85.049 88.6334C84.936 88.6934 84.8403 88.7753 84.7618 88.8791C84.6857 88.9829 84.6269 89.1029 84.5853 89.239C84.5438 89.3751 84.523 89.5204 84.523 89.675Z" fill="#E6E4D5"/>
<g filter="url(#filter1_d_706_16231)">
<rect x="58.7617" y="103" width="36.1742" height="21.6306" rx="3.54355" fill="#E6E4D5"/>
<rect x="58.9832" y="103.221" width="35.7313" height="21.1877" rx="3.32208" stroke="#E6E4D5" stroke-width="0.442944"/>
<path d="M68.7363 114.038H67.4524L67.4455 113.405H68.5667C68.7559 113.405 68.9162 113.377 69.0477 113.322C69.1815 113.264 69.283 113.183 69.3522 113.076C69.4214 112.968 69.456 112.838 69.456 112.685C69.456 112.517 69.4237 112.38 69.3591 112.274C69.2945 112.167 69.1953 112.09 69.0615 112.042C68.93 111.993 68.7616 111.969 68.5563 111.969H67.7154V116.315H66.8468V111.277H68.5563C68.8331 111.277 69.08 111.303 69.2969 111.357C69.516 111.41 69.7017 111.493 69.854 111.606C70.0086 111.716 70.1251 111.857 70.2035 112.028C70.2842 112.199 70.3246 112.402 70.3246 112.637C70.3246 112.845 70.275 113.035 70.1758 113.208C70.0766 113.379 69.9301 113.518 69.7363 113.627C69.5425 113.735 69.3015 113.8 69.0131 113.82L68.7363 114.038ZM68.6982 116.315H67.179L67.5701 115.627H68.6982C68.8943 115.627 69.0581 115.594 69.1896 115.53C69.3211 115.463 69.4191 115.372 69.4837 115.257C69.5506 115.139 69.5841 115.002 69.5841 114.845C69.5841 114.681 69.5552 114.539 69.4976 114.419C69.4399 114.297 69.3488 114.203 69.2242 114.139C69.0996 114.072 68.937 114.038 68.7363 114.038H67.7604L67.7673 113.405H69.0373L69.2346 113.644C69.5114 113.653 69.7386 113.714 69.9163 113.827C70.0962 113.94 70.23 114.087 70.3177 114.267C70.4054 114.447 70.4492 114.641 70.4492 114.848C70.4492 115.169 70.3788 115.438 70.2381 115.654C70.0997 115.871 69.9001 116.036 69.6394 116.149C69.3788 116.26 69.065 116.315 68.6982 116.315ZM73.4944 115.433V112.571H74.3319V116.315H73.5429L73.4944 115.433ZM73.6121 114.654L73.8924 114.647C73.8924 114.899 73.8647 115.131 73.8093 115.343C73.754 115.553 73.6686 115.736 73.5533 115.893C73.4379 116.048 73.2903 116.169 73.1103 116.257C72.9304 116.342 72.7147 116.385 72.4632 116.385C72.281 116.385 72.1137 116.358 71.9614 116.305C71.8092 116.252 71.6777 116.17 71.5669 116.059C71.4585 115.949 71.3743 115.804 71.3143 115.627C71.2543 115.449 71.2243 115.237 71.2243 114.99V112.571H72.0583V114.997C72.0583 115.133 72.0745 115.247 72.1068 115.34C72.1391 115.43 72.1829 115.502 72.2383 115.558C72.2936 115.613 72.3582 115.652 72.4321 115.675C72.5059 115.698 72.5843 115.71 72.6674 115.71C72.905 115.71 73.0919 115.664 73.228 115.571C73.3664 115.477 73.4644 115.35 73.5221 115.191C73.5821 115.032 73.6121 114.853 73.6121 114.654ZM76.903 112.571V113.18H74.7921V112.571H76.903ZM75.4012 111.654H76.2351V115.281C76.2351 115.396 76.2513 115.485 76.2836 115.547C76.3182 115.607 76.3655 115.648 76.4255 115.668C76.4855 115.689 76.5558 115.699 76.6366 115.699C76.6942 115.699 76.7496 115.696 76.8027 115.689C76.8557 115.682 76.8984 115.675 76.9307 115.668L76.9342 116.305C76.865 116.326 76.7842 116.344 76.6919 116.36C76.602 116.377 76.4981 116.385 76.3805 116.385C76.189 116.385 76.0194 116.351 75.8718 116.284C75.7241 116.215 75.6088 116.103 75.5257 115.949C75.4427 115.794 75.4012 115.589 75.4012 115.333V111.654ZM79.2631 112.571V113.18H77.1522V112.571H79.2631ZM77.7612 111.654H78.5952V115.281C78.5952 115.396 78.6114 115.485 78.6437 115.547C78.6783 115.607 78.7256 115.648 78.7855 115.668C78.8455 115.689 78.9159 115.699 78.9966 115.699C79.0543 115.699 79.1097 115.696 79.1627 115.689C79.2158 115.682 79.2585 115.675 79.2908 115.668L79.2942 116.305C79.225 116.326 79.1443 116.344 79.052 116.36C78.962 116.377 78.8582 116.385 78.7405 116.385C78.5491 116.385 78.3795 116.351 78.2319 116.284C78.0842 116.215 77.9689 116.103 77.8858 115.949C77.8028 115.794 77.7612 115.589 77.7612 115.333V111.654ZM79.6645 114.485V114.405C79.6645 114.135 79.7037 113.885 79.7822 113.654C79.8606 113.421 79.9736 113.219 80.1213 113.049C80.2712 112.876 80.4535 112.742 80.668 112.647C80.8849 112.55 81.1294 112.502 81.4017 112.502C81.6762 112.502 81.9207 112.55 82.1353 112.647C82.3522 112.742 82.5356 112.876 82.6855 113.049C82.8355 113.219 82.9497 113.421 83.0281 113.654C83.1065 113.885 83.1458 114.135 83.1458 114.405V114.485C83.1458 114.755 83.1065 115.005 83.0281 115.236C82.9497 115.466 82.8355 115.668 82.6855 115.841C82.5356 116.012 82.3533 116.146 82.1388 116.243C81.9242 116.337 81.6808 116.385 81.4086 116.385C81.1341 116.385 80.8884 116.337 80.6715 116.243C80.457 116.146 80.2747 116.012 80.1247 115.841C79.9748 115.668 79.8606 115.466 79.7822 115.236C79.7037 115.005 79.6645 114.755 79.6645 114.485ZM80.4985 114.405V114.485C80.4985 114.653 80.5158 114.812 80.5504 114.962C80.585 115.112 80.6392 115.244 80.713 115.357C80.7869 115.47 80.8814 115.559 80.9968 115.623C81.1121 115.688 81.2494 115.72 81.4086 115.72C81.5632 115.72 81.697 115.688 81.81 115.623C81.9254 115.559 82.0199 115.47 82.0938 115.357C82.1676 115.244 82.2218 115.112 82.2564 114.962C82.2933 114.812 82.3118 114.653 82.3118 114.485V114.405C82.3118 114.239 82.2933 114.082 82.2564 113.935C82.2218 113.785 82.1664 113.652 82.0903 113.537C82.0165 113.421 81.9219 113.331 81.8065 113.267C81.6935 113.2 81.5585 113.166 81.4017 113.166C81.2448 113.166 81.1087 113.2 80.9933 113.267C80.8803 113.331 80.7869 113.421 80.713 113.537C80.6392 113.652 80.585 113.785 80.5504 113.935C80.5158 114.082 80.4985 114.239 80.4985 114.405ZM84.6718 113.371V116.315H83.8379V112.571H84.6234L84.6718 113.371ZM84.523 114.305L84.2531 114.301C84.2554 114.036 84.2923 113.793 84.3639 113.571C84.4377 113.35 84.5392 113.159 84.6684 113C84.7999 112.841 84.9568 112.719 85.139 112.633C85.3213 112.546 85.5243 112.502 85.7481 112.502C85.928 112.502 86.0906 112.527 86.236 112.578C86.3836 112.627 86.5094 112.706 86.6132 112.817C86.7193 112.928 86.8 113.072 86.8554 113.249C86.9108 113.425 86.9385 113.64 86.9385 113.897V116.315H86.101V113.893C86.101 113.713 86.0745 113.571 86.0214 113.467C85.9707 113.361 85.8957 113.286 85.7965 113.243C85.6996 113.196 85.5785 113.173 85.4331 113.173C85.2901 113.173 85.1621 113.203 85.049 113.263C84.936 113.323 84.8403 113.405 84.7618 113.509C84.6857 113.613 84.6269 113.733 84.5853 113.869C84.5438 114.005 84.523 114.15 84.523 114.305Z" fill="black"/>
</g>
<g filter="url(#filter2_d_706_16231)">
<rect x="58.7617" y="127.631" width="36.1742" height="21.6306" rx="3.54355" fill="#E6E4D5"/>
<rect x="58.9832" y="127.852" width="35.7313" height="21.1877" rx="3.32208" stroke="#E6E4D5" stroke-width="0.442944"/>
<path d="M68.7363 138.669H67.4524L67.4455 138.036H68.5667C68.7559 138.036 68.9162 138.008 69.0477 137.953C69.1815 137.895 69.283 137.813 69.3522 137.707C69.4214 137.599 69.456 137.468 69.456 137.316C69.456 137.148 69.4237 137.011 69.3591 136.904C69.2945 136.798 69.1953 136.721 69.0615 136.673C68.93 136.624 68.7616 136.6 68.5563 136.6H67.7154V140.946H66.8468V135.908H68.5563C68.8331 135.908 69.08 135.934 69.2969 135.987C69.516 136.04 69.7017 136.124 69.854 136.237C70.0086 136.347 70.1251 136.488 70.2035 136.659C70.2842 136.829 70.3246 137.032 70.3246 137.268C70.3246 137.475 70.275 137.666 70.1758 137.839C70.0766 138.009 69.9301 138.149 69.7363 138.257C69.5425 138.366 69.3015 138.431 69.0131 138.451L68.7363 138.669ZM68.6982 140.946H67.179L67.5701 140.258H68.6982C68.8943 140.258 69.0581 140.225 69.1896 140.161C69.3211 140.094 69.4191 140.003 69.4837 139.887C69.5506 139.77 69.5841 139.632 69.5841 139.476C69.5841 139.312 69.5552 139.17 69.4976 139.05C69.4399 138.928 69.3488 138.834 69.2242 138.77C69.0996 138.703 68.937 138.669 68.7363 138.669H67.7604L67.7673 138.036H69.0373L69.2346 138.275C69.5114 138.284 69.7386 138.345 69.9163 138.458C70.0962 138.571 70.23 138.718 70.3177 138.898C70.4054 139.078 70.4492 139.271 70.4492 139.479C70.4492 139.8 70.3788 140.068 70.2381 140.285C70.0997 140.502 69.9001 140.667 69.6394 140.78C69.3788 140.891 69.065 140.946 68.6982 140.946ZM73.4944 140.064V137.202H74.3319V140.946H73.5429L73.4944 140.064ZM73.6121 139.285L73.8924 139.278C73.8924 139.53 73.8647 139.762 73.8093 139.974C73.754 140.184 73.6686 140.367 73.5533 140.524C73.4379 140.679 73.2903 140.8 73.1103 140.887C72.9304 140.973 72.7147 141.015 72.4632 141.015C72.281 141.015 72.1137 140.989 71.9614 140.936C71.8092 140.883 71.6777 140.801 71.5669 140.69C71.4585 140.579 71.3743 140.435 71.3143 140.258C71.2543 140.08 71.2243 139.868 71.2243 139.621V137.202H72.0583V139.628C72.0583 139.764 72.0745 139.878 72.1068 139.97C72.1391 140.06 72.1829 140.133 72.2383 140.188C72.2936 140.244 72.3582 140.283 72.4321 140.306C72.5059 140.329 72.5843 140.341 72.6674 140.341C72.905 140.341 73.0919 140.295 73.228 140.202C73.3664 140.108 73.4644 139.981 73.5221 139.822C73.5821 139.662 73.6121 139.484 73.6121 139.285ZM76.903 137.202V137.811H74.7921V137.202H76.903ZM75.4012 136.285H76.2351V139.912C76.2351 140.027 76.2513 140.116 76.2836 140.178C76.3182 140.238 76.3655 140.278 76.4255 140.299C76.4855 140.32 76.5558 140.33 76.6366 140.33C76.6942 140.33 76.7496 140.327 76.8027 140.32C76.8557 140.313 76.8984 140.306 76.9307 140.299L76.9342 140.936C76.865 140.957 76.7842 140.975 76.6919 140.991C76.602 141.007 76.4981 141.015 76.3805 141.015C76.189 141.015 76.0194 140.982 75.8718 140.915C75.7241 140.846 75.6088 140.734 75.5257 140.579C75.4427 140.425 75.4012 140.22 75.4012 139.964V136.285ZM79.2631 137.202V137.811H77.1522V137.202H79.2631ZM77.7612 136.285H78.5952V139.912C78.5952 140.027 78.6114 140.116 78.6437 140.178C78.6783 140.238 78.7256 140.278 78.7855 140.299C78.8455 140.32 78.9159 140.33 78.9966 140.33C79.0543 140.33 79.1097 140.327 79.1627 140.32C79.2158 140.313 79.2585 140.306 79.2908 140.299L79.2942 140.936C79.225 140.957 79.1443 140.975 79.052 140.991C78.962 141.007 78.8582 141.015 78.7405 141.015C78.5491 141.015 78.3795 140.982 78.2319 140.915C78.0842 140.846 77.9689 140.734 77.8858 140.579C77.8028 140.425 77.7612 140.22 77.7612 139.964V136.285ZM79.6645 139.116V139.036C79.6645 138.766 79.7037 138.516 79.7822 138.285C79.8606 138.052 79.9736 137.85 80.1213 137.68C80.2712 137.507 80.4535 137.373 80.668 137.278C80.8849 137.181 81.1294 137.133 81.4017 137.133C81.6762 137.133 81.9207 137.181 82.1353 137.278C82.3522 137.373 82.5356 137.507 82.6855 137.68C82.8355 137.85 82.9497 138.052 83.0281 138.285C83.1065 138.516 83.1458 138.766 83.1458 139.036V139.116C83.1458 139.386 83.1065 139.636 83.0281 139.867C82.9497 140.097 82.8355 140.299 82.6855 140.472C82.5356 140.643 82.3533 140.777 82.1388 140.874C81.9242 140.968 81.6808 141.015 81.4086 141.015C81.1341 141.015 80.8884 140.968 80.6715 140.874C80.457 140.777 80.2747 140.643 80.1247 140.472C79.9748 140.299 79.8606 140.097 79.7822 139.867C79.7037 139.636 79.6645 139.386 79.6645 139.116ZM80.4985 139.036V139.116C80.4985 139.284 80.5158 139.443 80.5504 139.593C80.585 139.743 80.6392 139.875 80.713 139.988C80.7869 140.101 80.8814 140.19 80.9968 140.254C81.1121 140.319 81.2494 140.351 81.4086 140.351C81.5632 140.351 81.697 140.319 81.81 140.254C81.9254 140.19 82.0199 140.101 82.0938 139.988C82.1676 139.875 82.2218 139.743 82.2564 139.593C82.2933 139.443 82.3118 139.284 82.3118 139.116V139.036C82.3118 138.87 82.2933 138.713 82.2564 138.565C82.2218 138.416 82.1664 138.283 82.0903 138.168C82.0165 138.052 81.9219 137.962 81.8065 137.898C81.6935 137.831 81.5585 137.797 81.4017 137.797C81.2448 137.797 81.1087 137.831 80.9933 137.898C80.8803 137.962 80.7869 138.052 80.713 138.168C80.6392 138.283 80.585 138.416 80.5504 138.565C80.5158 138.713 80.4985 138.87 80.4985 139.036ZM84.6718 138.001V140.946H83.8379V137.202H84.6234L84.6718 138.001ZM84.523 138.936L84.2531 138.932C84.2554 138.667 84.2923 138.424 84.3639 138.202C84.4377 137.981 84.5392 137.79 84.6684 137.631C84.7999 137.472 84.9568 137.35 85.139 137.264C85.3213 137.177 85.5243 137.133 85.7481 137.133C85.928 137.133 86.0906 137.158 86.236 137.209C86.3836 137.257 86.5094 137.337 86.6132 137.448C86.7193 137.558 86.8 137.703 86.8554 137.88C86.9108 138.056 86.9385 138.271 86.9385 138.527V140.946H86.101V138.524C86.101 138.344 86.0745 138.202 86.0214 138.098C85.9707 137.992 85.8957 137.917 85.7965 137.873C85.6996 137.827 85.5785 137.804 85.4331 137.804C85.2901 137.804 85.1621 137.834 85.049 137.894C84.936 137.954 84.8403 138.036 84.7618 138.14C84.6857 138.244 84.6269 138.364 84.5853 138.5C84.5438 138.636 84.523 138.781 84.523 138.936Z" fill="black"/>
</g>
<rect x="103.445" y="24.5073" width="133.11" height="21.8594" rx="3.92968" fill="#E6E4D5" fill-opacity="0.3"/>
<rect x="103.445" y="24.5073" width="133.11" height="21.8594" rx="3.92968" stroke="#E6E4D5" stroke-width="1.01467"/>
<path d="M108.27 31.9163L109.703 34.6878L111.14 31.9163H111.97L110.067 35.374V37.4365H109.335V35.374L107.432 31.9163H108.27ZM112.137 35.4309V35.3437C112.137 35.0479 112.18 34.7737 112.266 34.5209C112.352 34.2657 112.476 34.0445 112.637 33.8575C112.799 33.6679 112.995 33.5213 113.225 33.4176C113.455 33.3115 113.713 33.2584 113.999 33.2584C114.287 33.2584 114.546 33.3115 114.776 33.4176C115.008 33.5213 115.205 33.6679 115.367 33.8575C115.532 34.0445 115.657 34.2657 115.743 34.5209C115.829 34.7737 115.872 35.0479 115.872 35.3437V35.4309C115.872 35.7266 115.829 36.0009 115.743 36.2536C115.657 36.5064 115.532 36.7275 115.367 36.9171C115.205 37.1041 115.01 37.2507 114.78 37.3569C114.552 37.4605 114.294 37.5124 114.006 37.5124C113.718 37.5124 113.459 37.4605 113.229 37.3569C112.999 37.2507 112.802 37.1041 112.637 36.9171C112.476 36.7275 112.352 36.5064 112.266 36.2536C112.18 36.0009 112.137 35.7266 112.137 35.4309ZM112.838 35.3437V35.4309C112.838 35.6356 112.862 35.829 112.91 36.011C112.958 36.1904 113.03 36.3497 113.127 36.4887C113.225 36.6277 113.348 36.7376 113.494 36.8185C113.641 36.8969 113.812 36.9361 114.006 36.9361C114.198 36.9361 114.366 36.8969 114.51 36.8185C114.657 36.7376 114.778 36.6277 114.874 36.4887C114.97 36.3497 115.042 36.1904 115.09 36.011C115.141 35.829 115.166 35.6356 115.166 35.4309V35.3437C115.166 35.1415 115.141 34.9506 115.09 34.7712C115.042 34.5892 114.969 34.4287 114.871 34.2897C114.775 34.1481 114.653 34.0369 114.507 33.956C114.363 33.8751 114.193 33.8347 113.999 33.8347C113.806 33.8347 113.637 33.8751 113.491 33.956C113.346 34.0369 113.225 34.1481 113.127 34.2897C113.03 34.4287 112.958 34.5892 112.91 34.7712C112.862 34.9506 112.838 35.1415 112.838 35.3437ZM119.261 36.4887V33.3342H119.966V37.4365H119.295L119.261 36.4887ZM119.394 35.6242L119.686 35.6167C119.686 35.8896 119.657 36.1424 119.598 36.3749C119.543 36.6049 119.452 36.8046 119.325 36.974C119.199 37.1433 119.034 37.276 118.829 37.3721C118.624 37.4656 118.375 37.5124 118.082 37.5124C117.882 37.5124 117.699 37.4833 117.532 37.4251C117.368 37.367 117.226 37.2773 117.108 37.156C116.989 37.0346 116.896 36.8767 116.831 36.682C116.768 36.4874 116.736 36.2536 116.736 35.9806V33.3342H117.437V35.9882C117.437 36.1727 117.458 36.3256 117.498 36.447C117.541 36.5658 117.598 36.6606 117.669 36.7313C117.742 36.7996 117.823 36.8476 117.911 36.8754C118.002 36.9032 118.096 36.9171 118.192 36.9171C118.49 36.9171 118.726 36.8602 118.901 36.7465C119.075 36.6302 119.2 36.4748 119.276 36.2801C119.355 36.083 119.394 35.8644 119.394 35.6242ZM121.737 33.9788V37.4365H121.035V33.3342H121.718L121.737 33.9788ZM123.018 33.3115L123.014 33.9636C122.956 33.951 122.901 33.9434 122.848 33.9409C122.797 33.9358 122.739 33.9333 122.673 33.9333C122.511 33.9333 122.369 33.9586 122.245 34.0091C122.121 34.0597 122.016 34.1304 121.93 34.2214C121.844 34.3124 121.776 34.4211 121.725 34.5475C121.677 34.6713 121.646 34.8078 121.631 34.957L121.433 35.0707C121.433 34.823 121.457 34.5905 121.506 34.3731C121.556 34.1557 121.633 33.9636 121.737 33.7968C121.84 33.6274 121.972 33.496 122.131 33.4025C122.293 33.3064 122.485 33.2584 122.707 33.2584C122.758 33.2584 122.816 33.2647 122.882 33.2774C122.948 33.2875 122.993 33.2989 123.018 33.3115ZM127.295 37.5124C127.009 37.5124 126.75 37.4643 126.518 37.3683C126.288 37.2697 126.089 37.1319 125.922 36.955C125.758 36.7781 125.632 36.5683 125.543 36.3256C125.455 36.083 125.411 35.8176 125.411 35.5295V35.3702C125.411 35.0366 125.46 34.7396 125.559 34.4792C125.657 34.2164 125.791 33.9939 125.96 33.812C126.13 33.63 126.322 33.4922 126.537 33.3987C126.752 33.3052 126.974 33.2584 127.204 33.2584C127.497 33.2584 127.75 33.309 127.962 33.4101C128.177 33.5112 128.353 33.6527 128.489 33.8347C128.626 34.0142 128.727 34.2265 128.793 34.4717C128.858 34.7143 128.891 34.9797 128.891 35.2678V35.5825H125.828V35.01H128.19V34.957C128.18 34.775 128.142 34.598 128.076 34.4262C128.013 34.2543 127.912 34.1127 127.773 34.0015C127.634 33.8903 127.444 33.8347 127.204 33.8347C127.045 33.8347 126.898 33.8688 126.764 33.9371C126.63 34.0028 126.515 34.1014 126.419 34.2328C126.323 34.3642 126.249 34.5247 126.195 34.7143C126.142 34.9039 126.116 35.1225 126.116 35.3702V35.5295C126.116 35.7241 126.142 35.9073 126.195 36.0792C126.251 36.2486 126.331 36.3977 126.434 36.5266C126.54 36.6555 126.668 36.7566 126.817 36.8299C126.969 36.9032 127.141 36.9399 127.333 36.9399C127.581 36.9399 127.79 36.8893 127.962 36.7882C128.134 36.6871 128.285 36.5519 128.413 36.3825L128.838 36.72C128.75 36.8539 128.637 36.9816 128.501 37.1029C128.364 37.2242 128.196 37.3228 127.996 37.3986C127.799 37.4744 127.565 37.5124 127.295 37.5124ZM130.408 34.1494V37.4365H129.703V33.3342H130.37L130.408 34.1494ZM130.264 35.2299L129.938 35.2186C129.94 34.938 129.977 34.6789 130.048 34.4413C130.118 34.2012 130.223 33.9927 130.362 33.8157C130.501 33.6388 130.674 33.5023 130.882 33.4063C131.089 33.3077 131.329 33.2584 131.602 33.2584C131.794 33.2584 131.971 33.2862 132.133 33.3418C132.295 33.3949 132.435 33.4796 132.554 33.5958C132.672 33.7121 132.765 33.8612 132.83 34.0432C132.896 34.2252 132.929 34.4451 132.929 34.7029V37.4365H132.228V34.7371C132.228 34.5222 132.191 34.3503 132.118 34.2214C132.047 34.0925 131.946 33.999 131.814 33.9409C131.683 33.8802 131.529 33.8499 131.352 33.8499C131.144 33.8499 130.971 33.8865 130.832 33.9598C130.693 34.0331 130.582 34.1342 130.499 34.2631C130.415 34.392 130.355 34.5399 130.317 34.7067C130.281 34.871 130.264 35.0454 130.264 35.2299ZM132.921 34.8432L132.451 34.9873C132.454 34.7623 132.49 34.5462 132.561 34.339C132.635 34.1317 132.739 33.9472 132.876 33.7854C133.015 33.6236 133.186 33.496 133.388 33.4025C133.59 33.3064 133.821 33.2584 134.082 33.2584C134.301 33.2584 134.496 33.2875 134.665 33.3456C134.837 33.4037 134.981 33.4935 135.098 33.6148C135.216 33.7336 135.306 33.8865 135.367 34.0736C135.428 34.2606 135.458 34.483 135.458 34.7408V37.4365H134.753V34.7333C134.753 34.5033 134.716 34.3251 134.643 34.1987C134.572 34.0698 134.471 33.98 134.339 33.9295C134.21 33.8764 134.056 33.8499 133.877 33.8499C133.723 33.8499 133.586 33.8764 133.467 33.9295C133.349 33.9826 133.249 34.0559 133.168 34.1494C133.087 34.2404 133.025 34.3453 132.982 34.4641C132.942 34.5829 132.921 34.7092 132.921 34.8432ZM138.938 36.7351V34.6233C138.938 34.4615 138.905 34.3213 138.84 34.2025C138.777 34.0811 138.681 33.9876 138.552 33.9219C138.423 33.8562 138.263 33.8233 138.074 33.8233C137.897 33.8233 137.742 33.8537 137.608 33.9143C137.476 33.975 137.372 34.0546 137.297 34.1532C137.223 34.2518 137.187 34.3579 137.187 34.4717H136.485C136.485 34.3251 136.523 34.1797 136.599 34.0356C136.675 33.8916 136.784 33.7614 136.925 33.6451C137.069 33.5263 137.241 33.4328 137.441 33.3646C137.643 33.2938 137.868 33.2584 138.116 33.2584C138.414 33.2584 138.677 33.309 138.904 33.4101C139.134 33.5112 139.314 33.6641 139.443 33.8688C139.574 34.071 139.64 34.3251 139.64 34.6309V36.5418C139.64 36.6782 139.651 36.8236 139.674 36.9778C139.699 37.1319 139.736 37.2646 139.784 37.3759V37.4365H139.052C139.017 37.3556 138.989 37.2482 138.969 37.1143C138.948 36.9778 138.938 36.8514 138.938 36.7351ZM139.06 34.9494L139.067 35.4423H138.358C138.159 35.4423 137.98 35.4587 137.824 35.4915C137.667 35.5219 137.536 35.5686 137.429 35.6318C137.323 35.695 137.242 35.7746 137.187 35.8707C137.131 35.9642 137.103 36.0742 137.103 36.2005C137.103 36.3294 137.132 36.447 137.19 36.5531C137.249 36.6593 137.336 36.744 137.452 36.8072C137.571 36.8678 137.716 36.8981 137.888 36.8981C138.103 36.8981 138.293 36.8526 138.457 36.7617C138.621 36.6707 138.751 36.5594 138.847 36.428C138.946 36.2966 138.999 36.1689 139.007 36.0451L139.306 36.3825C139.288 36.4887 139.24 36.6062 139.162 36.7351C139.084 36.864 138.979 36.9879 138.847 37.1067C138.718 37.2229 138.564 37.3203 138.385 37.3986C138.208 37.4744 138.008 37.5124 137.786 37.5124C137.508 37.5124 137.264 37.458 137.054 37.3493C136.847 37.2406 136.685 37.0953 136.569 36.9133C136.455 36.7288 136.398 36.5228 136.398 36.2953C136.398 36.0754 136.441 35.8821 136.527 35.7152C136.613 35.5459 136.737 35.4056 136.899 35.2944C137.06 35.1806 137.255 35.0947 137.482 35.0366C137.71 34.9784 137.964 34.9494 138.245 34.9494H139.06ZM141.505 33.3342V37.4365H140.8V33.3342H141.505ZM140.747 32.2461C140.747 32.1324 140.781 32.0363 140.849 31.958C140.92 31.8796 141.024 31.8404 141.16 31.8404C141.294 31.8404 141.396 31.8796 141.467 31.958C141.54 32.0363 141.577 32.1324 141.577 32.2461C141.577 32.3548 141.54 32.4483 141.467 32.5267C141.396 32.6025 141.294 32.6404 141.16 32.6404C141.024 32.6404 140.92 32.6025 140.849 32.5267C140.781 32.4483 140.747 32.3548 140.747 32.2461ZM143.393 31.6129V37.4365H142.688V31.6129H143.393Z" fill="#E6E4D5"/>
<g opacity="0.5">
<rect x="102.938" y="50.874" width="134.125" height="22.874" rx="4.43701" fill="#272727"/>
<rect x="103.445" y="51.3814" width="133.11" height="21.8594" rx="3.92968" stroke="#E6E4D5" stroke-opacity="0.5" stroke-width="1.01467"/>
<path d="M108.27 58.7903L109.703 61.5618L111.14 58.7903H111.97L110.067 62.248V64.3105H109.335V62.248L107.432 58.7903H108.27ZM112.137 62.3049V62.2177C112.137 61.922 112.18 61.6477 112.266 61.395C112.352 61.1397 112.476 60.9185 112.637 60.7315C112.799 60.5419 112.995 60.3953 113.225 60.2917C113.455 60.1855 113.713 60.1324 113.999 60.1324C114.287 60.1324 114.546 60.1855 114.776 60.2917C115.008 60.3953 115.205 60.5419 115.367 60.7315C115.532 60.9185 115.657 61.1397 115.743 61.395C115.829 61.6477 115.872 61.922 115.872 62.2177V62.3049C115.872 62.6006 115.829 62.8749 115.743 63.1276C115.657 63.3804 115.532 63.6016 115.367 63.7911C115.205 63.9782 115.01 64.1248 114.78 64.2309C114.552 64.3346 114.294 64.3864 114.006 64.3864C113.718 64.3864 113.459 64.3346 113.229 64.2309C112.999 64.1248 112.802 63.9782 112.637 63.7911C112.476 63.6016 112.352 63.3804 112.266 63.1276C112.18 62.8749 112.137 62.6006 112.137 62.3049ZM112.838 62.2177V62.3049C112.838 62.5096 112.862 62.703 112.91 62.885C112.958 63.0644 113.03 63.2237 113.127 63.3627C113.225 63.5017 113.348 63.6117 113.494 63.6926C113.641 63.7709 113.812 63.8101 114.006 63.8101C114.198 63.8101 114.366 63.7709 114.51 63.6926C114.657 63.6117 114.778 63.5017 114.874 63.3627C114.97 63.2237 115.042 63.0644 115.09 62.885C115.141 62.703 115.166 62.5096 115.166 62.3049V62.2177C115.166 62.0155 115.141 61.8247 115.09 61.6452C115.042 61.4632 114.969 61.3027 114.871 61.1637C114.775 61.0221 114.653 60.9109 114.507 60.8301C114.363 60.7492 114.193 60.7087 113.999 60.7087C113.806 60.7087 113.637 60.7492 113.491 60.8301C113.346 60.9109 113.225 61.0221 113.127 61.1637C113.03 61.3027 112.958 61.4632 112.91 61.6452C112.862 61.8247 112.838 62.0155 112.838 62.2177ZM119.261 63.3627V60.2083H119.966V64.3105H119.295L119.261 63.3627ZM119.394 62.4983L119.686 62.4907C119.686 62.7637 119.657 63.0164 119.598 63.249C119.543 63.479 119.452 63.6786 119.325 63.848C119.199 64.0173 119.034 64.15 118.829 64.2461C118.624 64.3396 118.375 64.3864 118.082 64.3864C117.882 64.3864 117.699 64.3573 117.532 64.2992C117.368 64.241 117.226 64.1513 117.108 64.03C116.989 63.9087 116.896 63.7507 116.831 63.5561C116.768 63.3614 116.736 63.1276 116.736 62.8547V60.2083H117.437V62.8622C117.437 63.0467 117.458 63.1997 117.498 63.321C117.541 63.4398 117.598 63.5346 117.669 63.6053C117.742 63.6736 117.823 63.7216 117.911 63.7494C118.002 63.7772 118.096 63.7911 118.192 63.7911C118.49 63.7911 118.726 63.7343 118.901 63.6205C119.075 63.5042 119.2 63.3488 119.276 63.1542C119.355 62.957 119.394 62.7384 119.394 62.4983ZM121.737 60.8528V64.3105H121.035V60.2083H121.718L121.737 60.8528ZM123.018 60.1855L123.014 60.8376C122.956 60.825 122.901 60.8174 122.848 60.8149C122.797 60.8098 122.739 60.8073 122.673 60.8073C122.511 60.8073 122.369 60.8326 122.245 60.8831C122.121 60.9337 122.016 61.0045 121.93 61.0954C121.844 61.1864 121.776 61.2951 121.725 61.4215C121.677 61.5454 121.646 61.6818 121.631 61.831L121.433 61.9447C121.433 61.697 121.457 61.4645 121.506 61.2471C121.556 61.0297 121.633 60.8376 121.737 60.6708C121.84 60.5015 121.972 60.37 122.131 60.2765C122.293 60.1805 122.485 60.1324 122.707 60.1324C122.758 60.1324 122.816 60.1388 122.882 60.1514C122.948 60.1615 122.993 60.1729 123.018 60.1855ZM127.295 64.3864C127.009 64.3864 126.75 64.3384 126.518 64.2423C126.288 64.1437 126.089 64.006 125.922 63.829C125.758 63.6521 125.632 63.4423 125.543 63.1997C125.455 62.957 125.411 62.6916 125.411 62.4035V62.2442C125.411 61.9106 125.46 61.6136 125.559 61.3533C125.657 61.0904 125.791 60.868 125.96 60.686C126.13 60.504 126.322 60.3662 126.537 60.2727C126.752 60.1792 126.974 60.1324 127.204 60.1324C127.497 60.1324 127.75 60.183 127.962 60.2841C128.177 60.3852 128.353 60.5267 128.489 60.7087C128.626 60.8882 128.727 61.1005 128.793 61.3457C128.858 61.5883 128.891 61.8537 128.891 62.1419V62.4566H125.828V61.8841H128.19V61.831C128.18 61.649 128.142 61.4721 128.076 61.3002C128.013 61.1283 127.912 60.9868 127.773 60.8755C127.634 60.7643 127.444 60.7087 127.204 60.7087C127.045 60.7087 126.898 60.7428 126.764 60.8111C126.63 60.8768 126.515 60.9754 126.419 61.1068C126.323 61.2383 126.249 61.3988 126.195 61.5883C126.142 61.7779 126.116 61.9965 126.116 62.2442V62.4035C126.116 62.5981 126.142 62.7814 126.195 62.9532C126.251 63.1226 126.331 63.2717 126.434 63.4006C126.54 63.5295 126.668 63.6306 126.817 63.7039C126.969 63.7772 127.141 63.8139 127.333 63.8139C127.581 63.8139 127.79 63.7633 127.962 63.6622C128.134 63.5611 128.285 63.4259 128.413 63.2565L128.838 63.594C128.75 63.7279 128.637 63.8556 128.501 63.9769C128.364 64.0982 128.196 64.1968 127.996 64.2726C127.799 64.3485 127.565 64.3864 127.295 64.3864ZM130.408 61.0234V64.3105H129.703V60.2083H130.37L130.408 61.0234ZM130.264 62.104L129.938 62.0926C129.94 61.812 129.977 61.5529 130.048 61.3153C130.118 61.0752 130.223 60.8667 130.362 60.6898C130.501 60.5128 130.674 60.3763 130.882 60.2803C131.089 60.1817 131.329 60.1324 131.602 60.1324C131.794 60.1324 131.971 60.1602 132.133 60.2158C132.295 60.2689 132.435 60.3536 132.554 60.4699C132.672 60.5861 132.765 60.7353 132.83 60.9173C132.896 61.0992 132.929 61.3191 132.929 61.577V64.3105H132.228V61.6111C132.228 61.3962 132.191 61.2244 132.118 61.0954C132.047 60.9665 131.946 60.873 131.814 60.8149C131.683 60.7542 131.529 60.7239 131.352 60.7239C131.144 60.7239 130.971 60.7605 130.832 60.8338C130.693 60.9071 130.582 61.0082 130.499 61.1372C130.415 61.2661 130.355 61.4139 130.317 61.5807C130.281 61.745 130.264 61.9194 130.264 62.104ZM132.921 61.7172L132.451 61.8613C132.454 61.6364 132.49 61.4202 132.561 61.213C132.635 61.0057 132.739 60.8212 132.876 60.6594C133.015 60.4977 133.186 60.37 133.388 60.2765C133.59 60.1805 133.821 60.1324 134.082 60.1324C134.301 60.1324 134.496 60.1615 134.665 60.2196C134.837 60.2778 134.981 60.3675 135.098 60.4888C135.216 60.6076 135.306 60.7605 135.367 60.9476C135.428 61.1346 135.458 61.3571 135.458 61.6149V64.3105H134.753V61.6073C134.753 61.3773 134.716 61.1991 134.643 61.0727C134.572 60.9438 134.471 60.8541 134.339 60.8035C134.21 60.7504 134.056 60.7239 133.877 60.7239C133.723 60.7239 133.586 60.7504 133.467 60.8035C133.349 60.8566 133.249 60.9299 133.168 61.0234C133.087 61.1144 133.025 61.2193 132.982 61.3381C132.942 61.4569 132.921 61.5833 132.921 61.7172ZM138.938 63.6091V61.4973C138.938 61.3356 138.905 61.1953 138.84 61.0765C138.777 60.9552 138.681 60.8616 138.552 60.7959C138.423 60.7302 138.263 60.6974 138.074 60.6974C137.897 60.6974 137.742 60.7277 137.608 60.7883C137.476 60.849 137.372 60.9286 137.297 61.0272C137.223 61.1258 137.187 61.2319 137.187 61.3457H136.485C136.485 61.1991 136.523 61.0537 136.599 60.9097C136.675 60.7656 136.784 60.6354 136.925 60.5192C137.069 60.4004 137.241 60.3068 137.441 60.2386C137.643 60.1678 137.868 60.1324 138.116 60.1324C138.414 60.1324 138.677 60.183 138.904 60.2841C139.134 60.3852 139.314 60.5381 139.443 60.7428C139.574 60.9451 139.64 61.1991 139.64 61.5049V63.4158C139.64 63.5523 139.651 63.6976 139.674 63.8518C139.699 64.006 139.736 64.1387 139.784 64.2499V64.3105H139.052C139.017 64.2297 138.989 64.1222 138.969 63.9883C138.948 63.8518 138.938 63.7254 138.938 63.6091ZM139.06 61.8234L139.067 62.3163H138.358C138.159 62.3163 137.98 62.3327 137.824 62.3656C137.667 62.3959 137.536 62.4427 137.429 62.5058C137.323 62.569 137.242 62.6487 137.187 62.7447C137.131 62.8382 137.103 62.9482 137.103 63.0746C137.103 63.2035 137.132 63.321 137.19 63.4272C137.249 63.5333 137.336 63.618 137.452 63.6812C137.571 63.7418 137.716 63.7722 137.888 63.7722C138.103 63.7722 138.293 63.7267 138.457 63.6357C138.621 63.5447 138.751 63.4335 138.847 63.302C138.946 63.1706 138.999 63.043 139.007 62.9191L139.306 63.2565C139.288 63.3627 139.24 63.4802 139.162 63.6091C139.084 63.738 138.979 63.8619 138.847 63.9807C138.718 64.097 138.564 64.1943 138.385 64.2726C138.208 64.3485 138.008 64.3864 137.786 64.3864C137.508 64.3864 137.264 64.332 137.054 64.2233C136.847 64.1147 136.685 63.9693 136.569 63.7873C136.455 63.6028 136.398 63.3968 136.398 63.1693C136.398 62.9494 136.441 62.7561 136.527 62.5893C136.613 62.4199 136.737 62.2796 136.899 62.1684C137.06 62.0547 137.255 61.9687 137.482 61.9106C137.71 61.8525 137.964 61.8234 138.245 61.8234H139.06ZM141.505 60.2083V64.3105H140.8V60.2083H141.505ZM140.747 59.1201C140.747 59.0064 140.781 58.9103 140.849 58.832C140.92 58.7536 141.024 58.7145 141.16 58.7145C141.294 58.7145 141.396 58.7536 141.467 58.832C141.54 58.9103 141.577 59.0064 141.577 59.1201C141.577 59.2288 141.54 59.3223 141.467 59.4007C141.396 59.4765 141.294 59.5144 141.16 59.5144C141.024 59.5144 140.92 59.4765 140.849 59.4007C140.781 59.3223 140.747 59.2288 140.747 59.1201ZM143.393 58.487V64.3105H142.688V58.487H143.393Z" fill="#E6E4D5"/>
</g>
<rect x="103.445" y="78.2554" width="133.11" height="21.8594" rx="3.92968" fill="#272727"/>
<rect x="103.445" y="78.2554" width="133.11" height="21.8594" rx="3.92968" stroke="#E6E4D5" stroke-width="1.01467"/>
<path d="M108.27 85.6643L109.703 88.4358L111.14 85.6643H111.97L110.067 89.1221V91.1846H109.335V89.1221L107.432 85.6643H108.27ZM112.137 89.1789V89.0917C112.137 88.796 112.18 88.5218 112.266 88.269C112.352 88.0137 112.476 87.7925 112.637 87.6055C112.799 87.4159 112.995 87.2693 113.225 87.1657C113.455 87.0595 113.713 87.0065 113.999 87.0065C114.287 87.0065 114.546 87.0595 114.776 87.1657C115.008 87.2693 115.205 87.4159 115.367 87.6055C115.532 87.7925 115.657 88.0137 115.743 88.269C115.829 88.5218 115.872 88.796 115.872 89.0917V89.1789C115.872 89.4747 115.829 89.7489 115.743 90.0017C115.657 90.2544 115.532 90.4756 115.367 90.6651C115.205 90.8522 115.01 90.9988 114.78 91.105C114.552 91.2086 114.294 91.2604 114.006 91.2604C113.718 91.2604 113.459 91.2086 113.229 91.105C112.999 90.9988 112.802 90.8522 112.637 90.6651C112.476 90.4756 112.352 90.2544 112.266 90.0017C112.18 89.7489 112.137 89.4747 112.137 89.1789ZM112.838 89.0917V89.1789C112.838 89.3837 112.862 89.577 112.91 89.759C112.958 89.9385 113.03 90.0977 113.127 90.2367C113.225 90.3757 113.348 90.4857 113.494 90.5666C113.641 90.6449 113.812 90.6841 114.006 90.6841C114.198 90.6841 114.366 90.6449 114.51 90.5666C114.657 90.4857 114.778 90.3757 114.874 90.2367C114.97 90.0977 115.042 89.9385 115.09 89.759C115.141 89.577 115.166 89.3837 115.166 89.1789V89.0917C115.166 88.8895 115.141 88.6987 115.09 88.5192C115.042 88.3372 114.969 88.1767 114.871 88.0377C114.775 87.8962 114.653 87.785 114.507 87.7041C114.363 87.6232 114.193 87.5827 113.999 87.5827C113.806 87.5827 113.637 87.6232 113.491 87.7041C113.346 87.785 113.225 87.8962 113.127 88.0377C113.03 88.1767 112.958 88.3372 112.91 88.5192C112.862 88.6987 112.838 88.8895 112.838 89.0917ZM119.261 90.2367V87.0823H119.966V91.1846H119.295L119.261 90.2367ZM119.394 89.3723L119.686 89.3647C119.686 89.6377 119.657 89.8904 119.598 90.123C119.543 90.353 119.452 90.5527 119.325 90.722C119.199 90.8914 119.034 91.0241 118.829 91.1201C118.624 91.2136 118.375 91.2604 118.082 91.2604C117.882 91.2604 117.699 91.2313 117.532 91.1732C117.368 91.1151 117.226 91.0253 117.108 90.904C116.989 90.7827 116.896 90.6247 116.831 90.4301C116.768 90.2355 116.736 90.0017 116.736 89.7287V87.0823H117.437V89.7363C117.437 89.9208 117.458 90.0737 117.498 90.195C117.541 90.3138 117.598 90.4086 117.669 90.4794C117.742 90.5476 117.823 90.5956 117.911 90.6234C118.002 90.6512 118.096 90.6651 118.192 90.6651C118.49 90.6651 118.726 90.6083 118.901 90.4945C119.075 90.3783 119.2 90.2228 119.276 90.0282C119.355 89.831 119.394 89.6124 119.394 89.3723ZM121.737 87.7268V91.1846H121.035V87.0823H121.718L121.737 87.7268ZM123.018 87.0595L123.014 87.7117C122.956 87.699 122.901 87.6914 122.848 87.6889C122.797 87.6839 122.739 87.6813 122.673 87.6813C122.511 87.6813 122.369 87.7066 122.245 87.7572C122.121 87.8077 122.016 87.8785 121.93 87.9695C121.844 88.0605 121.776 88.1692 121.725 88.2955C121.677 88.4194 121.646 88.5559 121.631 88.705L121.433 88.8187C121.433 88.571 121.457 88.3385 121.506 88.1211C121.556 87.9038 121.633 87.7117 121.737 87.5448C121.84 87.3755 121.972 87.2441 122.131 87.1505C122.293 87.0545 122.485 87.0065 122.707 87.0065C122.758 87.0065 122.816 87.0128 122.882 87.0254C122.948 87.0355 122.993 87.0469 123.018 87.0595ZM127.295 91.2604C127.009 91.2604 126.75 91.2124 126.518 91.1163C126.288 91.0177 126.089 90.88 125.922 90.7031C125.758 90.5261 125.632 90.3163 125.543 90.0737C125.455 89.831 125.411 89.5656 125.411 89.2775V89.1183C125.411 88.7846 125.46 88.4876 125.559 88.2273C125.657 87.9644 125.791 87.742 125.96 87.56C126.13 87.378 126.322 87.2403 126.537 87.1467C126.752 87.0532 126.974 87.0065 127.204 87.0065C127.497 87.0065 127.75 87.057 127.962 87.1581C128.177 87.2592 128.353 87.4008 128.489 87.5827C128.626 87.7622 128.727 87.9745 128.793 88.2197C128.858 88.4624 128.891 88.7277 128.891 89.0159V89.3306H125.828V88.7581H128.19V88.705C128.18 88.523 128.142 88.3461 128.076 88.1742C128.013 88.0023 127.912 87.8608 127.773 87.7496C127.634 87.6384 127.444 87.5827 127.204 87.5827C127.045 87.5827 126.898 87.6169 126.764 87.6851C126.63 87.7508 126.515 87.8494 126.419 87.9808C126.323 88.1123 126.249 88.2728 126.195 88.4624C126.142 88.6519 126.116 88.8706 126.116 89.1183V89.2775C126.116 89.4721 126.142 89.6554 126.195 89.8273C126.251 89.9966 126.331 90.1457 126.434 90.2746C126.54 90.4035 126.668 90.5046 126.817 90.5779C126.969 90.6512 127.141 90.6879 127.333 90.6879C127.581 90.6879 127.79 90.6373 127.962 90.5362C128.134 90.4351 128.285 90.2999 128.413 90.1306L128.838 90.468C128.75 90.602 128.637 90.7296 128.501 90.8509C128.364 90.9723 128.196 91.0708 127.996 91.1467C127.799 91.2225 127.565 91.2604 127.295 91.2604ZM130.408 87.8974V91.1846H129.703V87.0823H130.37L130.408 87.8974ZM130.264 88.978L129.938 88.9666C129.94 88.686 129.977 88.427 130.048 88.1894C130.118 87.9493 130.223 87.7407 130.362 87.5638C130.501 87.3869 130.674 87.2504 130.882 87.1543C131.089 87.0557 131.329 87.0065 131.602 87.0065C131.794 87.0065 131.971 87.0343 132.133 87.0899C132.295 87.1429 132.435 87.2276 132.554 87.3439C132.672 87.4602 132.765 87.6093 132.83 87.7913C132.896 87.9733 132.929 88.1932 132.929 88.451V91.1846H132.228V88.4851C132.228 88.2703 132.191 88.0984 132.118 87.9695C132.047 87.8406 131.946 87.747 131.814 87.6889C131.683 87.6282 131.529 87.5979 131.352 87.5979C131.144 87.5979 130.971 87.6346 130.832 87.7079C130.693 87.7812 130.582 87.8823 130.499 88.0112C130.415 88.1401 130.355 88.2879 130.317 88.4548C130.281 88.6191 130.264 88.7935 130.264 88.978ZM132.921 88.5913L132.451 88.7353C132.454 88.5104 132.49 88.2943 132.561 88.087C132.635 87.8797 132.739 87.6952 132.876 87.5335C133.015 87.3717 133.186 87.2441 133.388 87.1505C133.59 87.0545 133.821 87.0065 134.082 87.0065C134.301 87.0065 134.496 87.0355 134.665 87.0937C134.837 87.1518 134.981 87.2415 135.098 87.3628C135.216 87.4816 135.306 87.6346 135.367 87.8216C135.428 88.0086 135.458 88.2311 135.458 88.4889V91.1846H134.753V88.4813C134.753 88.2513 134.716 88.0731 134.643 87.9467C134.572 87.8178 134.471 87.7281 134.339 87.6775C134.21 87.6245 134.056 87.5979 133.877 87.5979C133.723 87.5979 133.586 87.6245 133.467 87.6775C133.349 87.7306 133.249 87.8039 133.168 87.8974C133.087 87.9884 133.025 88.0933 132.982 88.2121C132.942 88.3309 132.921 88.4573 132.921 88.5913ZM138.938 90.4832V88.3714C138.938 88.2096 138.905 88.0693 138.84 87.9505C138.777 87.8292 138.681 87.7357 138.552 87.67C138.423 87.6042 138.263 87.5714 138.074 87.5714C137.897 87.5714 137.742 87.6017 137.608 87.6624C137.476 87.723 137.372 87.8026 137.297 87.9012C137.223 87.9998 137.187 88.106 137.187 88.2197H136.485C136.485 88.0731 136.523 87.9278 136.599 87.7837C136.675 87.6396 136.784 87.5094 136.925 87.3932C137.069 87.2744 137.241 87.1809 137.441 87.1126C137.643 87.0418 137.868 87.0065 138.116 87.0065C138.414 87.0065 138.677 87.057 138.904 87.1581C139.134 87.2592 139.314 87.4121 139.443 87.6169C139.574 87.8191 139.64 88.0731 139.64 88.3789V90.2898C139.64 90.4263 139.651 90.5716 139.674 90.7258C139.699 90.88 139.736 91.0127 139.784 91.1239V91.1846H139.052C139.017 91.1037 138.989 90.9963 138.969 90.8623C138.948 90.7258 138.938 90.5994 138.938 90.4832ZM139.06 88.6974L139.067 89.1903H138.358C138.159 89.1903 137.98 89.2067 137.824 89.2396C137.667 89.2699 137.536 89.3167 137.429 89.3799C137.323 89.4431 137.242 89.5227 137.187 89.6187C137.131 89.7122 137.103 89.8222 137.103 89.9486C137.103 90.0775 137.132 90.195 137.19 90.3012C137.249 90.4073 137.336 90.492 137.452 90.5552C137.571 90.6159 137.716 90.6462 137.888 90.6462C138.103 90.6462 138.293 90.6007 138.457 90.5097C138.621 90.4187 138.751 90.3075 138.847 90.1761C138.946 90.0446 138.999 89.917 139.007 89.7931L139.306 90.1306C139.288 90.2367 139.24 90.3543 139.162 90.4832C139.084 90.6121 138.979 90.7359 138.847 90.8547C138.718 90.971 138.564 91.0683 138.385 91.1467C138.208 91.2225 138.008 91.2604 137.786 91.2604C137.508 91.2604 137.264 91.2061 137.054 91.0974C136.847 90.9887 136.685 90.8433 136.569 90.6614C136.455 90.4768 136.398 90.2708 136.398 90.0434C136.398 89.8235 136.441 89.6301 136.527 89.4633C136.613 89.2939 136.737 89.1536 136.899 89.0424C137.06 88.9287 137.255 88.8428 137.482 88.7846C137.71 88.7265 137.964 88.6974 138.245 88.6974H139.06ZM141.505 87.0823V91.1846H140.8V87.0823H141.505ZM140.747 85.9942C140.747 85.8804 140.781 85.7844 140.849 85.706C140.92 85.6277 141.024 85.5885 141.16 85.5885C141.294 85.5885 141.396 85.6277 141.467 85.706C141.54 85.7844 141.577 85.8804 141.577 85.9942C141.577 86.1028 141.54 86.1964 141.467 86.2747C141.396 86.3505 141.294 86.3885 141.16 86.3885C141.024 86.3885 140.92 86.3505 140.849 86.2747C140.781 86.1964 140.747 86.1028 140.747 85.9942ZM143.393 85.361V91.1846H142.688V85.361H143.393Z" fill="#E6E4D5"/>
<g filter="url(#filter3_d_706_16231)">
<rect x="102.938" y="104.622" width="134.125" height="22.874" rx="4.43701" fill="#E6E4D5"/>
<path d="M108.607 112.538V119.082H108.042V112.538H108.607Z" fill="black"/>
</g>
<g filter="url(#filter4_d_706_16231)">
<rect x="102.938" y="131.496" width="134.125" height="22.874" rx="4.43701" fill="#E6E4D5"/>
<path d="M108.607 139.412V145.956H108.042V139.412H108.607Z" fill="black"/>
</g>
</g>
<defs>
<filter id="filter0_dd_706_16231" x="34.5" y="117.758" width="17.7617" height="17.9053" filterUnits="userSpaceOnUse" color-interpolation-filters="sRGB">
<feFlood flood-opacity="0" result="BackgroundImageFix"/>
<feColorMatrix in="SourceAlpha" type="matrix" values="0 0 0 0 0 0 0 0 0 0 0 0 0 0 0 0 0 0 127 0" result="hardAlpha"/>
<feMorphology radius="1.5" operator="dilate" in="SourceAlpha" result="effect1_dropShadow_706_16231"/>
<feOffset/>
<feComposite in2="hardAlpha" operator="out"/>
<feColorMatrix type="matrix" values="0 0 0 0 0.901961 0 0 0 0 0.894118 0 0 0 0 0.835294 0 0 0 0.25 0"/>
<feBlend mode="normal" in2="BackgroundImageFix" result="effect1_dropShadow_706_16231"/>
<feColorMatrix in="SourceAlpha" type="matrix" values="0 0 0 0 0 0 0 0 0 0 0 0 0 0 0 0 0 0 127 0" result="hardAlpha"/>
<feMorphology radius="1" operator="dilate" in="SourceAlpha" result="effect2_dropShadow_706_16231"/>
<feOffset/>
<feComposite in2="hardAlpha" operator="out"/>
<feColorMatrix type="matrix" values="0 0 0 0 0.901961 0 0 0 0 0.894118 0 0 0 0 0.835294 0 0 0 0.25 0"/>
<feBlend mode="normal" in2="effect1_dropShadow_706_16231" result="effect2_dropShadow_706_16231"/>
<feBlend mode="normal" in="SourceGraphic" in2="effect2_dropShadow_706_16231" result="shape"/>
</filter>
<filter id="filter1_d_706_16231" x="54.7617" y="99" width="44.1758" height="29.6309" filterUnits="userSpaceOnUse" color-interpolation-filters="sRGB">
<feFlood flood-opacity="0" result="BackgroundImageFix"/>
<feColorMatrix in="SourceAlpha" type="matrix" values="0 0 0 0 0 0 0 0 0 0 0 0 0 0 0 0 0 0 127 0" result="hardAlpha"/>
<feMorphology radius="4" operator="dilate" in="SourceAlpha" result="effect1_dropShadow_706_16231"/>
<feOffset/>
<feComposite in2="hardAlpha" operator="out"/>
<feColorMatrix type="matrix" values="0 0 0 0 0.305882 0 0 0 0 0.27451 0 0 0 0 0.705882 0 0 0 0.2 0"/>
<feBlend mode="normal" in2="BackgroundImageFix" result="effect1_dropShadow_706_16231"/>
<feBlend mode="normal" in="SourceGraphic" in2="effect1_dropShadow_706_16231" result="shape"/>
</filter>
<filter id="filter2_d_706_16231" x="54.7617" y="123.631" width="44.1758" height="29.6309" filterUnits="userSpaceOnUse" color-interpolation-filters="sRGB">
<feFlood flood-opacity="0" result="BackgroundImageFix"/>
<feColorMatrix in="SourceAlpha" type="matrix" values="0 0 0 0 0 0 0 0 0 0 0 0 0 0 0 0 0 0 127 0" result="hardAlpha"/>
<feMorphology radius="4" operator="dilate" in="SourceAlpha" result="effect1_dropShadow_706_16231"/>
<feOffset/>
<feComposite in2="hardAlpha" operator="out"/>
<feColorMatrix type="matrix" values="0 0 0 0 0.305882 0 0 0 0 0.27451 0 0 0 0 0.705882 0 0 0 0.2 0"/>
<feBlend mode="normal" in2="BackgroundImageFix" result="effect1_dropShadow_706_16231"/>
<feBlend mode="normal" in="SourceGraphic" in2="effect1_dropShadow_706_16231" result="shape"/>
</filter>
<filter id="filter3_d_706_16231" x="100.719" y="102.404" width="138.562" height="27.311" filterUnits="userSpaceOnUse" color-interpolation-filters="sRGB">
<feFlood flood-opacity="0" result="BackgroundImageFix"/>
<feColorMatrix in="SourceAlpha" type="matrix" values="0 0 0 0 0 0 0 0 0 0 0 0 0 0 0 0 0 0 127 0" result="hardAlpha"/>
<feMorphology radius="2.21851" operator="dilate" in="SourceAlpha" result="effect1_dropShadow_706_16231"/>
<feOffset/>
<feComposite in2="hardAlpha" operator="out"/>
<feColorMatrix type="matrix" values="0 0 0 0 0.305882 0 0 0 0 0.27451 0 0 0 0 0.705882 0 0 0 0.2 0"/>
<feBlend mode="normal" in2="BackgroundImageFix" result="effect1_dropShadow_706_16231"/>
<feBlend mode="normal" in="SourceGraphic" in2="effect1_dropShadow_706_16231" result="shape"/>
</filter>
<filter id="filter4_d_706_16231" x="100.719" y="129.278" width="138.562" height="27.311" filterUnits="userSpaceOnUse" color-interpolation-filters="sRGB">
<feFlood flood-opacity="0" result="BackgroundImageFix"/>
<feColorMatrix in="SourceAlpha" type="matrix" values="0 0 0 0 0 0 0 0 0 0 0 0 0 0 0 0 0 0 127 0" result="hardAlpha"/>
<feMorphology radius="2.21851" operator="dilate" in="SourceAlpha" result="effect1_dropShadow_706_16231"/>
<feOffset/>
<feComposite in2="hardAlpha" operator="out"/>
<feColorMatrix type="matrix" values="0 0 0 0 0.305882 0 0 0 0 0.27451 0 0 0 0 0.705882 0 0 0 0.2 0"/>
<feBlend mode="normal" in2="BackgroundImageFix" result="effect1_dropShadow_706_16231"/>
<feBlend mode="normal" in="SourceGraphic" in2="effect1_dropShadow_706_16231" result="shape"/>
</filter>
</defs>
</svg>
