<svg width="179" height="151" viewBox="0 0 179 151" fill="none" xmlns="http://www.w3.org/2000/svg">
<circle cx="113.51" cy="75.5114" r="24.1022" fill="#1ABCFE" stroke="black" stroke-width="2.41022"/>
<rect x="40" y="2" width="96.4087" height="48.2044" rx="24.1022" fill="#FF7262" stroke="black" stroke-width="2.41022"/>
<path d="M40 74.3063C40 60.995 50.7909 50.2041 64.1022 50.2041H88.2044V100.819H64.1022C50.7909 100.819 40 90.0278 40 76.7165V74.3063Z" fill="#A259FF" stroke="black" stroke-width="2.41022"/>
<path d="M39.998 124.921C39.998 111.609 50.789 100.818 64.1002 100.818H88.2024V124.921C88.2024 138.232 77.4115 149.023 64.1002 149.023H61.69C49.7099 149.023 39.998 139.311 39.998 127.331V124.921Z" fill="#0ACF83" stroke="black" stroke-width="2.41022"/>
<path d="M40 23.692C40 11.7118 49.7118 2 61.692 2H88.2044V50.2044H61.692C49.7118 50.2044 40 40.4925 40 28.5124V23.692Z" fill="#F24E1E" stroke="black" stroke-width="2.41022"/>
</svg>
