<svg width="106" height="32" viewBox="0 0 106 32" fill="none" xmlns="http://www.w3.org/2000/svg">
<path d="M0.5 0H105.5V22C105.5 27.5228 101.023 32 95.5 32H10.5C4.97715 32 0.5 27.5228 0.5 22V0Z" fill="black"/>
<path d="M12.436 24V22.736H16.548V24H12.436ZM11.46 24V12.72H12.916V24H11.46ZM17.995 24V15.92H19.451V24H17.995ZM18.715 14.848C18.4483 14.848 18.2243 14.7573 18.043 14.576C17.8617 14.3947 17.771 14.1707 17.771 13.904C17.771 13.6373 17.8617 13.4133 18.043 13.232C18.2243 13.04 18.4483 12.944 18.715 12.944C18.9817 12.944 19.2057 13.04 19.387 13.232C19.579 13.4133 19.675 13.6373 19.675 13.904C19.675 14.1707 19.579 14.3947 19.387 14.576C19.2057 14.7573 18.9817 14.848 18.715 14.848ZM21.4113 22.704L25.0113 17.2H26.6113L23.0273 22.704H21.4113ZM21.4113 24V22.704H26.6113V24H21.4113ZM21.4113 17.2V15.92H26.6113V17.2H21.4113ZM32.7175 24V18.496H34.1735V24H32.7175ZM30.7655 24.24L30.8775 23.04C31.2615 23.04 31.5868 22.944 31.8535 22.752C32.1308 22.56 32.3442 22.2773 32.4935 21.904C32.6428 21.5307 32.7175 21.088 32.7175 20.576L33.4375 20.544C33.4375 21.2693 33.3202 21.9093 33.0855 22.464C32.8508 23.0187 32.5308 23.456 32.1255 23.776C31.7308 24.0853 31.2775 24.24 30.7655 24.24ZM30.7655 24.24C30.2855 24.24 29.8482 24.128 29.4535 23.904C29.0588 23.68 28.7442 23.376 28.5095 22.992C28.2748 22.5973 28.1575 22.16 28.1575 21.68L29.5335 21.632C29.5335 22.0373 29.6668 22.3733 29.9335 22.64C30.2108 22.9067 30.5255 23.04 30.8775 23.04L30.7655 24.24ZM28.1575 21.68C28.1575 21.1787 28.2802 20.7413 28.5255 20.368C28.7815 19.984 29.1228 19.68 29.5495 19.456C29.9762 19.232 30.4615 19.12 31.0055 19.12L31.0855 20.24C30.6375 20.24 30.2642 20.3733 29.9655 20.64C29.6775 20.896 29.5335 21.2267 29.5335 21.632L28.1575 21.68ZM31.0855 20.24L31.0055 19.12H33.4695V20.24H31.0855ZM32.7175 20.576V18.512H33.4375V20.544L32.7175 20.576ZM34.1735 18.528H32.7175C32.7175 18.0587 32.5735 17.6747 32.2855 17.376C32.0082 17.0773 31.6455 16.928 31.1975 16.928V15.68C31.7735 15.68 32.2802 15.8027 32.7175 16.048C33.1655 16.2933 33.5175 16.6347 33.7735 17.072C34.0402 17.4987 34.1735 17.984 34.1735 18.528ZM29.6935 18.336L28.3495 18.064C28.4135 17.584 28.5735 17.168 28.8295 16.816C29.0962 16.464 29.4322 16.1867 29.8375 15.984C30.2535 15.7813 30.7122 15.68 31.2135 15.68V16.928C30.8188 16.928 30.4775 17.0453 30.1895 17.28C29.9122 17.504 29.7468 17.856 29.6935 18.336ZM39.4263 17.952L42.7383 12.72H44.1943L40.8343 17.952H39.4263ZM42.8663 24L39.2983 17.952H40.8343L44.4023 24H42.8663ZM38.8663 24V12.72H40.3223V24H38.8663ZM45.1981 24V12.48H46.6541V24H45.1981ZM48.7584 20.4V19.36H54.2144V20.4H48.7584ZM51.2384 24.256V22.992H51.3184V24.256H51.2384ZM48.2944 21.136V18.784H49.7504V21.136H48.2944ZM52.7584 19.36V18.528H54.2144V19.36H52.7584ZM54.2144 18.528H52.7584C52.7584 18.0587 52.6144 17.6747 52.3264 17.376C52.049 17.0773 51.6864 16.928 51.2384 16.928V15.68C51.8144 15.68 52.321 15.8027 52.7584 16.048C53.2064 16.2933 53.5584 16.6347 53.8144 17.072C54.081 17.4987 54.2144 17.984 54.2144 18.528ZM52.8224 21.6L54.1824 21.872C54.1184 22.3307 53.953 22.7413 53.6864 23.104C53.4197 23.4667 53.0837 23.7493 52.6784 23.952C52.273 24.1547 51.8197 24.256 51.3184 24.256V22.992C51.7024 22.992 52.033 22.88 52.3104 22.656C52.5984 22.4213 52.769 22.0693 52.8224 21.6ZM48.2944 18.8C48.2944 18.192 48.4224 17.6587 48.6784 17.2C48.945 16.7307 49.297 16.3627 49.7344 16.096C50.1824 15.8187 50.689 15.68 51.2544 15.68V16.928C50.785 16.928 50.417 17.0933 50.1504 17.424C49.8837 17.744 49.7504 18.2027 49.7504 18.8H48.2944ZM48.2944 21.136H49.7504C49.7504 21.7227 49.8837 22.1813 50.1504 22.512C50.417 22.832 50.785 22.992 51.2544 22.992V24.256C50.689 24.256 50.1824 24.1227 49.7344 23.856C49.297 23.5787 48.945 23.2053 48.6784 22.736C48.4224 22.2667 48.2944 21.7333 48.2944 21.136ZM58.0293 24L60.5253 15.92H61.9813L59.3733 24H58.0293ZM57.8853 24L55.2613 15.92H56.7173L59.2133 24H57.8853ZM67.5456 24V18.496H69.0016V24H67.5456ZM65.5936 24.24L65.7056 23.04C66.0896 23.04 66.415 22.944 66.6816 22.752C66.959 22.56 67.1723 22.2773 67.3216 21.904C67.471 21.5307 67.5456 21.088 67.5456 20.576L68.2656 20.544C68.2656 21.2693 68.1483 21.9093 67.9136 22.464C67.679 23.0187 67.359 23.456 66.9536 23.776C66.559 24.0853 66.1056 24.24 65.5936 24.24ZM65.5936 24.24C65.1136 24.24 64.6763 24.128 64.2816 23.904C63.887 23.68 63.5723 23.376 63.3376 22.992C63.103 22.5973 62.9856 22.16 62.9856 21.68L64.3616 21.632C64.3616 22.0373 64.495 22.3733 64.7616 22.64C65.039 22.9067 65.3536 23.04 65.7056 23.04L65.5936 24.24ZM62.9856 21.68C62.9856 21.1787 63.1083 20.7413 63.3536 20.368C63.6096 19.984 63.951 19.68 64.3776 19.456C64.8043 19.232 65.2896 19.12 65.8336 19.12L65.9136 20.24C65.4656 20.24 65.0923 20.3733 64.7936 20.64C64.5056 20.896 64.3616 21.2267 64.3616 21.632L62.9856 21.68ZM65.9136 20.24L65.8336 19.12H68.2976V20.24H65.9136ZM67.5456 20.576V18.512H68.2656V20.544L67.5456 20.576ZM69.0016 18.528H67.5456C67.5456 18.0587 67.4016 17.6747 67.1136 17.376C66.8363 17.0773 66.4736 16.928 66.0256 16.928V15.68C66.6016 15.68 67.1083 15.8027 67.5456 16.048C67.9936 16.2933 68.3456 16.6347 68.6016 17.072C68.8683 17.4987 69.0016 17.984 69.0016 18.528ZM64.5216 18.336L63.1776 18.064C63.2416 17.584 63.4016 17.168 63.6576 16.816C63.9243 16.464 64.2603 16.1867 64.6656 15.984C65.0816 15.7813 65.5403 15.68 66.0416 15.68V16.928C65.647 16.928 65.3056 17.0453 65.0176 17.28C64.7403 17.504 64.575 17.856 64.5216 18.336ZM74.6959 24L71.8319 19.536L73.2239 19.072L76.2159 24H74.6959ZM71.8799 21.12L70.7599 20.368L74.2639 15.92H76.0239L71.8799 21.12ZM70.6319 24V12.48H72.0879V24H70.6319ZM77.6825 24V15.92H79.1385V24H77.6825ZM78.4025 14.848C78.1358 14.848 77.9118 14.7573 77.7305 14.576C77.5492 14.3947 77.4585 14.1707 77.4585 13.904C77.4585 13.6373 77.5492 13.4133 77.7305 13.232C77.9118 13.04 78.1358 12.944 78.4025 12.944C78.6692 12.944 78.8932 13.04 79.0745 13.232C79.2665 13.4133 79.3625 13.6373 79.3625 13.904C79.3625 14.1707 79.2665 14.3947 79.0745 14.576C78.8932 14.7573 78.6692 14.848 78.4025 14.848ZM81.2256 24V15.92H82.6816V24H81.2256ZM85.7216 24V18.496H87.1776V24H85.7216ZM85.7216 18.496C85.7216 18.048 85.583 17.6853 85.3056 17.408C85.0283 17.12 84.671 16.976 84.2336 16.976L84.6016 15.68C85.0923 15.68 85.5296 15.8027 85.9136 16.048C86.3083 16.2933 86.6176 16.6293 86.8416 17.056C87.0656 17.4827 87.1776 17.9627 87.1776 18.496H85.7216ZM82.0416 18.528C82.0416 17.984 82.1536 17.4987 82.3776 17.072C82.6016 16.6347 82.9056 16.2933 83.2896 16.048C83.6736 15.8027 84.111 15.68 84.6016 15.68L84.2336 16.976C83.775 16.976 83.4016 17.12 83.1136 17.408C82.8256 17.696 82.6816 18.0693 82.6816 18.528H82.0416ZM93.2331 24V18.496H94.6891V24H93.2331ZM91.2811 24.24L91.3931 23.04C91.7771 23.04 92.1025 22.944 92.3691 22.752C92.6465 22.56 92.8598 22.2773 93.0091 21.904C93.1585 21.5307 93.2331 21.088 93.2331 20.576L93.9531 20.544C93.9531 21.2693 93.8358 21.9093 93.6011 22.464C93.3665 23.0187 93.0465 23.456 92.6411 23.776C92.2465 24.0853 91.7931 24.24 91.2811 24.24ZM91.2811 24.24C90.8011 24.24 90.3638 24.128 89.9691 23.904C89.5745 23.68 89.2598 23.376 89.0251 22.992C88.7905 22.5973 88.6731 22.16 88.6731 21.68L90.0491 21.632C90.0491 22.0373 90.1825 22.3733 90.4491 22.64C90.7265 22.9067 91.0411 23.04 91.3931 23.04L91.2811 24.24ZM88.6731 21.68C88.6731 21.1787 88.7958 20.7413 89.0411 20.368C89.2971 19.984 89.6385 19.68 90.0651 19.456C90.4918 19.232 90.9771 19.12 91.5211 19.12L91.6011 20.24C91.1531 20.24 90.7798 20.3733 90.4811 20.64C90.1931 20.896 90.0491 21.2267 90.0491 21.632L88.6731 21.68ZM91.6011 20.24L91.5211 19.12H93.9851V20.24H91.6011ZM93.2331 20.576V18.512H93.9531V20.544L93.2331 20.576ZM94.6891 18.528H93.2331C93.2331 18.0587 93.0891 17.6747 92.8011 17.376C92.5238 17.0773 92.1611 16.928 91.7131 16.928V15.68C92.2891 15.68 92.7958 15.8027 93.2331 16.048C93.6811 16.2933 94.0331 16.6347 94.2891 17.072C94.5558 17.4987 94.6891 17.984 94.6891 18.528ZM90.2091 18.336L88.8651 18.064C88.9291 17.584 89.0891 17.168 89.3451 16.816C89.6118 16.464 89.9478 16.1867 90.3531 15.984C90.7691 15.7813 91.2278 15.68 91.7291 15.68V16.928C91.3345 16.928 90.9931 17.0453 90.7051 17.28C90.4278 17.504 90.2625 17.856 90.2091 18.336Z" fill="white" fill-opacity="0.9"/>
<path d="M3.38532 23.6134C3.21683 23.0573 3.10071 22.4784 3.04272 21.8825L3.24178 21.8631C3.21415 21.5792 3.2 21.2913 3.2 21V20H3V18H3.2V16H3V14H3.2V12H3V10H3.2V8H3V6H3.2V5.2H4.01005V5H6.03005V5.2H8.05004V5H10.07V5.2H12.09V5H14.11V5.2H16.13V5H18.15V5.2H20.17V5H22.19V5.2H24.21V5H26.23V5.2H28.25V5H30.27V5.2H32.29V5H34.31V5.2H36.33V5H38.35V5.2H40.37V5H42.39V5.2H44.41V5H46.43V5.2H48.45V5H50.47V5.2H52.49V5H54.51V5.2H56.53V5H58.55V5.2H60.57V5H62.59V5.2H64.61V5H66.63V5.2H68.65V5H70.67V5.2H72.69V5H74.71V5.2H76.73V5H78.75V5.2H80.77V5H82.79V5.2H84.81V5H86.83V5.2H88.85V5H90.87V5.2H92.89V5H94.91V5.2H96.93V5H98.95V5.2H100.97V5H102.99V5.2H103.8V6H104V8H103.8V10H104V12H103.8V14H104V16H103.8V18H104V20H103.8V21C103.8 21.2913 103.786 21.5792 103.758 21.8631L103.957 21.8825C103.899 22.4784 103.783 23.0573 103.615 23.6134L103.423 23.5555C103.255 24.1119 103.032 24.645 102.763 25.1489L102.939 25.2433C102.659 25.765 102.33 26.2559 101.957 26.7096L101.803 26.5827C101.437 27.0281 101.028 27.4369 100.583 27.8028L100.71 27.9574C100.256 28.3302 99.765 28.6595 99.2433 28.9389L99.1489 28.7626C98.645 29.0325 98.1119 29.2547 97.5555 29.4233L97.6134 29.6147C97.0573 29.7832 96.4784 29.8993 95.8825 29.9573L95.8631 29.7582C95.5792 29.7859 95.2913 29.8 95 29.8H94.0119V30H92.0357V29.8H90.0595V30H88.0833V29.8H86.1071V30H84.1309V29.8H82.1547V30H80.1785V29.8H78.2024V30H76.2262V29.8H74.25V30H72.2738V29.8H70.2976V30H68.3214V29.8H66.3452V30H64.369V29.8H62.3928V30H60.4167V29.8H58.4405V30H56.4643V29.8H54.4881V30H52.5119V29.8H50.5357V30H48.5595V29.8H46.5833V30H44.6071V29.8H42.631V30H40.6548V29.8H38.6786V30H36.7024V29.8H34.7262V30H32.75V29.8H30.7738V30H28.7976V29.8H26.8214V30H24.8452V29.8H22.869V30H20.8929V29.8H18.9167V30H16.9405V29.8H14.9643V30H12.9881V29.8H12C11.7087 29.8 11.4208 29.7859 11.1369 29.7582L11.1175 29.9573C10.5216 29.8993 9.94268 29.7832 9.38655 29.6147L9.44454 29.4233C8.88811 29.2547 8.35496 29.0325 7.8511 28.7626L7.75667 28.9389C7.23504 28.6595 6.74415 28.3302 6.29037 27.9574L6.41734 27.8028C5.97194 27.4369 5.56311 27.0281 5.19717 26.5827L5.04264 26.7096C4.66981 26.2559 4.3405 25.765 4.06111 25.2433L4.23741 25.1489C3.96754 24.645 3.74531 24.1119 3.57673 23.5555L3.38532 23.6134Z" stroke="white" stroke-width="0.4" stroke-dasharray="2 2"/>
</svg>
