<svg width="212" height="79" viewBox="0 0 212 79" fill="none" xmlns="http://www.w3.org/2000/svg">
<g filter="url(#filter0_d_386_2828)">
<rect x="29.3555" y="38.9786" width="179.56" height="36.8666" rx="18.4333" fill="#EA8698" shape-rendering="crispEdges"/>
<rect x="30.1705" y="39.7936" width="177.93" height="35.2366" rx="17.6183" stroke="black" stroke-width="1.62999" shape-rendering="crispEdges"/>
<path d="M41.1777 65.412V50.1988H44.003V63.0213H51.9574V65.412H41.1777ZM53.9271 65.412V53.8065H56.6437V65.412H53.9271ZM55.2963 51.8939C54.7892 51.8939 54.369 51.7346 54.0358 51.4158C53.717 51.0971 53.5576 50.7131 53.5576 50.264C53.5576 49.8003 53.717 49.4164 54.0358 49.1121C54.369 48.7933 54.7892 48.634 55.2963 48.634C55.8034 48.634 56.2163 48.7861 56.5351 49.0904C56.8683 49.3801 57.0349 49.7496 57.0349 50.1988C57.0349 50.6769 56.8756 51.0826 56.5568 51.4158C56.2381 51.7346 55.8179 51.8939 55.2963 51.8939ZM59.2531 65.412V63.6951L66.4033 55.0453L66.9032 55.9798H59.3835V53.8065H69.0765V55.5234L61.9263 64.1732L61.3829 63.2387H69.2721V65.412H59.2531ZM78.9265 65.412V63.0648L78.7744 62.5649V58.4574C78.7744 57.6605 78.5353 57.0447 78.0572 56.61C77.5791 56.1609 76.8546 55.9363 75.8839 55.9363C75.2319 55.9363 74.5872 56.0377 73.9496 56.2406C73.3266 56.4434 72.7978 56.726 72.3631 57.0882L71.2982 55.1105C71.9212 54.6323 72.6601 54.2773 73.515 54.0455C74.3843 53.7992 75.2826 53.6761 76.2099 53.6761C77.8906 53.6761 79.1873 54.0817 80.1001 54.8931C81.0274 55.69 81.4911 56.9288 81.4911 58.6095V65.412H78.9265ZM75.2754 65.5641C74.406 65.5641 73.6454 65.4192 72.9934 65.1295C72.3414 64.8252 71.8343 64.4123 71.4721 63.8907C71.1243 63.3546 70.9505 62.7533 70.9505 62.0868C70.9505 61.4348 71.1026 60.848 71.4069 60.3264C71.7256 59.8048 72.24 59.3919 72.9499 59.0876C73.6599 58.7834 74.6016 58.6312 75.7752 58.6312H79.1439V60.4351H75.9708C75.0435 60.4351 74.4205 60.5872 74.1018 60.8915C73.783 61.1813 73.6236 61.5435 73.6236 61.9781C73.6236 62.4708 73.8192 62.862 74.2104 63.1517C74.6016 63.4415 75.145 63.5864 75.8404 63.5864C76.5069 63.5864 77.101 63.4343 77.6226 63.13C78.1586 62.8257 78.5426 62.3766 78.7744 61.7825L79.2308 63.4125C78.97 64.0935 78.4991 64.6223 77.8182 64.9991C77.1517 65.3758 76.3041 65.5641 75.2754 65.5641ZM93.7657 61.826L93.6136 58.4791L101.59 50.1988H104.763L98.1341 57.2403L96.5693 58.9572L93.7657 61.826ZM91.2447 65.412V50.1988H94.07V65.412H91.2447ZM101.85 65.412L96.026 58.4791L97.895 56.4144L105.154 65.412H101.85ZM106.817 65.412V49.286H109.534V65.412H106.817ZM118.554 65.5641C117.265 65.5641 116.135 65.3106 115.164 64.8035C114.208 64.2819 113.461 63.5719 112.925 62.6736C112.404 61.7753 112.143 60.7538 112.143 59.6092C112.143 58.4501 112.396 57.4287 112.904 56.5448C113.425 55.6465 114.135 54.9438 115.033 54.4367C115.946 53.9296 116.982 53.6761 118.141 53.6761C119.271 53.6761 120.278 53.9224 121.162 54.415C122.046 54.9076 122.741 55.6031 123.249 56.5014C123.756 57.3997 124.009 58.4574 124.009 59.6744C124.009 59.7903 124.002 59.9207 123.987 60.0656C123.987 60.2105 123.98 60.3482 123.966 60.4786H114.294V58.6747H122.531L121.466 59.2398C121.481 58.5733 121.343 57.9865 121.053 57.4794C120.764 56.9723 120.365 56.5738 119.858 56.284C119.366 55.9943 118.793 55.8494 118.141 55.8494C117.475 55.8494 116.888 55.9943 116.381 56.284C115.888 56.5738 115.497 56.9795 115.207 57.5011C114.932 58.0082 114.794 58.6095 114.794 59.305V59.7396C114.794 60.4351 114.954 61.0509 115.272 61.5869C115.591 62.123 116.04 62.536 116.62 62.8257C117.199 63.1155 117.866 63.2604 118.619 63.2604C119.271 63.2604 119.858 63.159 120.38 62.9561C120.901 62.7533 121.365 62.4345 121.771 61.9999L123.227 63.6733C122.705 64.2819 122.046 64.7527 121.249 65.086C120.467 65.4047 119.568 65.5641 118.554 65.5641ZM129.493 65.412L124.516 53.8065H127.341L131.622 64.0428H130.231L134.665 53.8065H137.273L132.296 65.412H129.493ZM145.76 65.412V63.0648L145.608 62.5649V58.4574C145.608 57.6605 145.369 57.0447 144.891 56.61C144.413 56.1609 143.688 55.9363 142.718 55.9363C142.066 55.9363 141.421 56.0377 140.783 56.2406C140.16 56.4434 139.632 56.726 139.197 57.0882L138.132 55.1105C138.755 54.6323 139.494 54.2773 140.349 54.0455C141.218 53.7992 142.116 53.6761 143.044 53.6761C144.724 53.6761 146.021 54.0817 146.934 54.8931C147.861 55.69 148.325 56.9288 148.325 58.6095V65.412H145.76ZM142.109 65.5641C141.24 65.5641 140.479 65.4192 139.827 65.1295C139.175 64.8252 138.668 64.4123 138.306 63.8907C137.958 63.3546 137.784 62.7533 137.784 62.0868C137.784 61.4348 137.936 60.848 138.241 60.3264C138.559 59.8048 139.074 59.3919 139.784 59.0876C140.494 58.7834 141.435 58.6312 142.609 58.6312H145.978V60.4351H142.805C141.877 60.4351 141.254 60.5872 140.936 60.8915C140.617 61.1813 140.457 61.5435 140.457 61.9781C140.457 62.4708 140.653 62.862 141.044 63.1517C141.435 63.4415 141.979 63.5864 142.674 63.5864C143.341 63.5864 143.935 63.4343 144.456 63.13C144.992 62.8257 145.376 62.3766 145.608 61.7825L146.065 63.4125C145.804 64.0935 145.333 64.6223 144.652 64.9991C143.985 65.3758 143.138 65.5641 142.109 65.5641ZM154.028 62.8257L154.093 59.4136L160.157 53.8065H163.417L158.266 58.979L156.832 60.1743L154.028 62.8257ZM151.811 65.412V49.286H154.528V65.412H151.811ZM160.57 65.412L156.332 60.1743L158.049 58.001L163.873 65.412H160.57ZM165.628 65.412V53.8065H168.345V65.412H165.628ZM166.997 51.8939C166.49 51.8939 166.07 51.7346 165.737 51.4158C165.418 51.0971 165.259 50.7131 165.259 50.264C165.259 49.8003 165.418 49.4164 165.737 49.1121C166.07 48.7933 166.49 48.634 166.997 48.634C167.504 48.634 167.917 48.7861 168.236 49.0904C168.569 49.3801 168.736 49.7496 168.736 50.1988C168.736 50.6769 168.577 51.0826 168.258 51.4158C167.939 51.7346 167.519 51.8939 166.997 51.8939ZM178.495 53.6761C179.423 53.6761 180.249 53.8572 180.973 54.2194C181.712 54.5816 182.292 55.1394 182.712 55.8928C183.132 56.6318 183.342 57.588 183.342 58.7616V65.412H180.625V59.1094C180.625 58.0807 180.379 57.3127 179.886 56.8056C179.408 56.2985 178.735 56.045 177.865 56.045C177.228 56.045 176.663 56.1754 176.17 56.4362C175.677 56.697 175.293 57.0882 175.018 57.6098C174.757 58.1169 174.627 58.7616 174.627 59.544V65.412H171.91V53.8065H174.497V56.936L174.04 55.9798C174.446 55.2409 175.033 54.6758 175.801 54.2846C176.583 53.8789 177.481 53.6761 178.495 53.6761ZM193.938 65.412V63.0648L193.786 62.5649V58.4574C193.786 57.6605 193.547 57.0447 193.069 56.61C192.591 56.1609 191.867 55.9363 190.896 55.9363C190.244 55.9363 189.599 56.0377 188.962 56.2406C188.339 56.4434 187.81 56.726 187.375 57.0882L186.31 55.1105C186.933 54.6323 187.672 54.2773 188.527 54.0455C189.396 53.7992 190.295 53.6761 191.222 53.6761C192.902 53.6761 194.199 54.0817 195.112 54.8931C196.039 55.69 196.503 56.9288 196.503 58.6095V65.412H193.938ZM190.287 65.5641C189.418 65.5641 188.657 65.4192 188.005 65.1295C187.353 64.8252 186.846 64.4123 186.484 63.8907C186.136 63.3546 185.962 62.7533 185.962 62.0868C185.962 61.4348 186.114 60.848 186.419 60.3264C186.738 59.8048 187.252 59.3919 187.962 59.0876C188.672 58.7834 189.614 58.6312 190.787 58.6312H194.156V60.4351H190.983C190.055 60.4351 189.432 60.5872 189.114 60.8915C188.795 61.1813 188.636 61.5435 188.636 61.9781C188.636 62.4708 188.831 62.862 189.222 63.1517C189.614 63.4415 190.157 63.5864 190.852 63.5864C191.519 63.5864 192.113 63.4343 192.634 63.13C193.171 62.8257 193.554 62.3766 193.786 61.7825L194.243 63.4125C193.982 64.0935 193.511 64.6223 192.83 64.9991C192.164 65.3758 191.316 65.5641 190.287 65.5641Z" fill="#110F10"/>
</g>
<g filter="url(#filter1_d_386_2828)">
<path d="M12.9981 11.5642C12.8146 10.0663 14.5195 9.08201 15.725 9.98984L38.4869 27.131C39.7352 28.0711 39.1732 30.0549 37.6173 30.2006L26.9748 31.197C26.4787 31.2435 26.0274 31.504 25.7391 31.9105L19.5549 40.6289C18.6508 41.9035 16.6518 41.3983 16.4618 39.8472L12.9981 11.5642Z" fill="#EA8698"/>
<path d="M13.6348 11.4862C13.5201 10.5501 14.5857 9.93487 15.3391 10.5023L38.101 27.6434C38.8812 28.231 38.5299 29.4709 37.5575 29.5619L26.915 30.5583C26.2328 30.6222 25.6123 30.9804 25.2159 31.5394L19.0317 40.2578C18.4667 41.0544 17.2173 40.7387 17.0985 39.7692L13.6348 11.4862Z" stroke="black" stroke-width="1.28293"/>
</g>
<defs>
<filter id="filter0_d_386_2828" x="29.3555" y="38.9786" width="182.644" height="39.3331" filterUnits="userSpaceOnUse" color-interpolation-filters="sRGB">
<feFlood flood-opacity="0" result="BackgroundImageFix"/>
<feColorMatrix in="SourceAlpha" type="matrix" values="0 0 0 0 0 0 0 0 0 0 0 0 0 0 0 0 0 0 127 0" result="hardAlpha"/>
<feOffset dx="3.08315" dy="2.46652"/>
<feComposite in2="hardAlpha" operator="out"/>
<feColorMatrix type="matrix" values="0 0 0 0 0 0 0 0 0 0 0 0 0 0 0 0 0 0 1 0"/>
<feBlend mode="normal" in2="BackgroundImageFix" result="effect1_dropShadow_386_2828"/>
<feBlend mode="normal" in="SourceGraphic" in2="effect1_dropShadow_386_2828" result="shape"/>
</filter>
<filter id="filter1_d_386_2828" x="12.9844" y="9.64111" width="27.8961" height="32.5657" filterUnits="userSpaceOnUse" color-interpolation-filters="sRGB">
<feFlood flood-opacity="0" result="BackgroundImageFix"/>
<feColorMatrix in="SourceAlpha" type="matrix" values="0 0 0 0 0 0 0 0 0 0 0 0 0 0 0 0 0 0 127 0" result="hardAlpha"/>
<feOffset dx="1.71058" dy="0.85529"/>
<feComposite in2="hardAlpha" operator="out"/>
<feColorMatrix type="matrix" values="0 0 0 0 0 0 0 0 0 0 0 0 0 0 0 0 0 0 1 0"/>
<feBlend mode="normal" in2="BackgroundImageFix" result="effect1_dropShadow_386_2828"/>
<feBlend mode="normal" in="SourceGraphic" in2="effect1_dropShadow_386_2828" result="shape"/>
</filter>
</defs>
</svg>
