<svg width="313" height="60" viewBox="0 0 313 60" fill="none" xmlns="http://www.w3.org/2000/svg">
<g filter="url(#filter0_d_386_3100)">
<mask id="path-1-outside-1_386_3100" maskUnits="userSpaceOnUse" x="-6" y="-6" width="315" height="66" fill="black">
<rect fill="white" x="-6" y="-6" width="315" height="66"/>
<path d="M0.670801 53V7.91999H22.3736C26.5811 7.91999 30.2089 8.60692 33.2572 9.98079C36.3484 11.3547 38.7312 13.3296 40.4056 15.9056C42.08 18.4387 42.9172 21.444 42.9172 24.9216C42.9172 28.3992 42.08 31.4045 40.4056 33.9376C38.7312 36.4707 36.3484 38.4456 33.2572 39.8624C30.2089 41.2363 26.5811 41.9232 22.3736 41.9232H9.1072L15.8692 35.4188V53H0.670801ZM15.8692 37.0932L9.1072 30.2024H21.4076C23.5113 30.2024 25.0569 29.7301 26.0444 28.7856C27.0748 27.8411 27.59 26.5531 27.59 24.9216C27.59 23.2901 27.0748 22.0021 26.0444 21.0576C25.0569 20.1131 23.5113 19.6408 21.4076 19.6408H9.1072L15.8692 12.75V37.0932ZM66.0625 53.644C62.0697 53.644 58.5277 52.8712 55.4365 51.3256C52.3882 49.7371 49.9839 47.5689 48.2237 44.8212C46.4634 42.0735 45.5833 38.9179 45.5833 35.3544C45.5833 31.7909 46.4634 28.6353 48.2237 25.8876C49.9839 23.1399 52.3882 20.9932 55.4365 19.4476C58.5277 17.902 62.0697 17.1292 66.0625 17.1292C70.0553 17.1292 73.5973 17.902 76.6885 19.4476C79.7797 20.9932 82.1839 23.1399 83.9013 25.8876C85.6615 28.6353 86.5417 31.7909 86.5417 35.3544C86.5417 38.9179 85.6615 42.0735 83.9013 44.8212C82.1839 47.5689 79.7797 49.7371 76.6885 51.3256C73.5973 52.8712 70.0553 53.644 66.0625 53.644ZM66.0625 42.3096C67.1358 42.3096 68.1018 42.052 68.9605 41.5368C69.8191 41.0216 70.5061 40.2488 71.0213 39.2184C71.5365 38.1451 71.7941 36.8571 71.7941 35.3544C71.7941 33.8088 71.5365 32.5423 71.0213 31.5548C70.5061 30.5244 69.8191 29.7516 68.9605 29.2364C68.1018 28.7212 67.1358 28.4636 66.0625 28.4636C64.9891 28.4636 64.0231 28.7212 63.1645 29.2364C62.3058 29.7516 61.6189 30.5244 61.1037 31.5548C60.5885 32.5423 60.3309 33.8088 60.3309 35.3544C60.3309 36.8571 60.5885 38.1451 61.1037 39.2184C61.6189 40.2488 62.3058 41.0216 63.1645 41.5368C64.0231 42.052 64.9891 42.3096 66.0625 42.3096ZM91.097 53V17.7732H104.943V28.3992L102.689 25.3724C103.762 22.6247 105.48 20.5639 107.841 19.19C110.202 17.8161 113.036 17.1292 116.342 17.1292V30.0092C115.698 29.9233 115.118 29.8589 114.603 29.816C114.131 29.7731 113.637 29.7516 113.122 29.7516C110.932 29.7516 109.129 30.3312 107.712 31.4904C106.338 32.6067 105.651 34.5601 105.651 37.3508V53H91.097ZM138.412 53.644C133.56 53.644 129.782 52.4848 127.077 50.1664C124.373 47.8051 123.02 44.1987 123.02 39.3472V9.85199H137.575V39.2184C137.575 40.2917 137.854 41.1289 138.412 41.73C139.013 42.3311 139.743 42.6316 140.601 42.6316C141.847 42.6316 142.941 42.3096 143.886 41.6656L147.363 51.7764C146.247 52.4204 144.895 52.8927 143.306 53.1932C141.761 53.4937 140.129 53.644 138.412 53.644ZM118.19 30.3312V19.7052H144.787V30.3312H118.19ZM152.642 53V19.512C152.642 14.9611 153.994 11.3332 156.699 8.62839C159.447 5.92359 163.332 4.57119 168.355 4.57119C169.901 4.57119 171.447 4.72146 172.992 5.02199C174.581 5.27959 175.912 5.70893 176.985 6.30999L173.507 16.4208C173.035 16.2061 172.52 16.0129 171.962 15.8412C171.404 15.6695 170.824 15.5836 170.223 15.5836C169.193 15.5836 168.355 15.9056 167.711 16.5496C167.067 17.1936 166.745 18.224 166.745 19.6408V21.3152L167.196 27.3044V53H152.642ZM147.812 30.3312V19.7052H174.409V30.3312H147.812ZM196.749 53.644C192.756 53.644 189.214 52.8712 186.123 51.3256C183.075 49.7371 180.671 47.5689 178.91 44.8212C177.15 42.0735 176.27 38.9179 176.27 35.3544C176.27 31.7909 177.15 28.6353 178.91 25.8876C180.671 23.1399 183.075 20.9932 186.123 19.4476C189.214 17.902 192.756 17.1292 196.749 17.1292C200.742 17.1292 204.284 17.902 207.375 19.4476C210.466 20.9932 212.871 23.1399 214.588 25.8876C216.348 28.6353 217.228 31.7909 217.228 35.3544C217.228 38.9179 216.348 42.0735 214.588 44.8212C212.871 47.5689 210.466 49.7371 207.375 51.3256C204.284 52.8712 200.742 53.644 196.749 53.644ZM196.749 42.3096C197.823 42.3096 198.789 42.052 199.647 41.5368C200.506 41.0216 201.193 40.2488 201.708 39.2184C202.223 38.1451 202.481 36.8571 202.481 35.3544C202.481 33.8088 202.223 32.5423 201.708 31.5548C201.193 30.5244 200.506 29.7516 199.647 29.2364C198.789 28.7212 197.823 28.4636 196.749 28.4636C195.676 28.4636 194.71 28.7212 193.851 29.2364C192.993 29.7516 192.306 30.5244 191.79 31.5548C191.275 32.5423 191.018 33.8088 191.018 35.3544C191.018 36.8571 191.275 38.1451 191.79 39.2184C192.306 40.2488 192.993 41.0216 193.851 41.5368C194.71 42.052 195.676 42.3096 196.749 42.3096ZM221.784 53V5.21519H236.338V53H221.784ZM242.789 53V17.7732H257.344V53H242.789ZM250.066 14.9396C247.405 14.9396 245.279 14.2312 243.691 12.8144C242.102 11.3976 241.308 9.63733 241.308 7.53359C241.308 5.42986 242.102 3.66959 243.691 2.25279C245.279 0.83599 247.405 0.12759 250.066 0.12759C252.728 0.12759 254.853 0.793057 256.442 2.12399C258.031 3.45492 258.825 5.17226 258.825 7.27599C258.825 9.50852 258.031 11.3547 256.442 12.8144C254.853 14.2312 252.728 14.9396 250.066 14.9396ZM282.406 53.644C278.413 53.644 274.871 52.8712 271.78 51.3256C268.732 49.7371 266.328 47.5689 264.567 44.8212C262.807 42.0735 261.927 38.9179 261.927 35.3544C261.927 31.7909 262.807 28.6353 264.567 25.8876C266.328 23.1399 268.732 20.9932 271.78 19.4476C274.871 17.902 278.413 17.1292 282.406 17.1292C286.399 17.1292 289.941 17.902 293.032 19.4476C296.123 20.9932 298.528 23.1399 300.245 25.8876C302.005 28.6353 302.885 31.7909 302.885 35.3544C302.885 38.9179 302.005 42.0735 300.245 44.8212C298.528 47.5689 296.123 49.7371 293.032 51.3256C289.941 52.8712 286.399 53.644 282.406 53.644ZM282.406 42.3096C283.48 42.3096 284.446 42.052 285.304 41.5368C286.163 41.0216 286.85 40.2488 287.365 39.2184C287.88 38.1451 288.138 36.8571 288.138 35.3544C288.138 33.8088 287.88 32.5423 287.365 31.5548C286.85 30.5244 286.163 29.7516 285.304 29.2364C284.446 28.7212 283.48 28.4636 282.406 28.4636C281.333 28.4636 280.367 28.7212 279.508 29.2364C278.65 29.7516 277.963 30.5244 277.447 31.5548C276.932 32.5423 276.675 33.8088 276.675 35.3544C276.675 36.8571 276.932 38.1451 277.447 39.2184C277.963 40.2488 278.65 41.0216 279.508 41.5368C280.367 42.052 281.333 42.3096 282.406 42.3096Z"/>
</mask>
<path d="M0.670801 53V7.91999H22.3736C26.5811 7.91999 30.2089 8.60692 33.2572 9.98079C36.3484 11.3547 38.7312 13.3296 40.4056 15.9056C42.08 18.4387 42.9172 21.444 42.9172 24.9216C42.9172 28.3992 42.08 31.4045 40.4056 33.9376C38.7312 36.4707 36.3484 38.4456 33.2572 39.8624C30.2089 41.2363 26.5811 41.9232 22.3736 41.9232H9.1072L15.8692 35.4188V53H0.670801ZM15.8692 37.0932L9.1072 30.2024H21.4076C23.5113 30.2024 25.0569 29.7301 26.0444 28.7856C27.0748 27.8411 27.59 26.5531 27.59 24.9216C27.59 23.2901 27.0748 22.0021 26.0444 21.0576C25.0569 20.1131 23.5113 19.6408 21.4076 19.6408H9.1072L15.8692 12.75V37.0932ZM66.0625 53.644C62.0697 53.644 58.5277 52.8712 55.4365 51.3256C52.3882 49.7371 49.9839 47.5689 48.2237 44.8212C46.4634 42.0735 45.5833 38.9179 45.5833 35.3544C45.5833 31.7909 46.4634 28.6353 48.2237 25.8876C49.9839 23.1399 52.3882 20.9932 55.4365 19.4476C58.5277 17.902 62.0697 17.1292 66.0625 17.1292C70.0553 17.1292 73.5973 17.902 76.6885 19.4476C79.7797 20.9932 82.1839 23.1399 83.9013 25.8876C85.6615 28.6353 86.5417 31.7909 86.5417 35.3544C86.5417 38.9179 85.6615 42.0735 83.9013 44.8212C82.1839 47.5689 79.7797 49.7371 76.6885 51.3256C73.5973 52.8712 70.0553 53.644 66.0625 53.644ZM66.0625 42.3096C67.1358 42.3096 68.1018 42.052 68.9605 41.5368C69.8191 41.0216 70.5061 40.2488 71.0213 39.2184C71.5365 38.1451 71.7941 36.8571 71.7941 35.3544C71.7941 33.8088 71.5365 32.5423 71.0213 31.5548C70.5061 30.5244 69.8191 29.7516 68.9605 29.2364C68.1018 28.7212 67.1358 28.4636 66.0625 28.4636C64.9891 28.4636 64.0231 28.7212 63.1645 29.2364C62.3058 29.7516 61.6189 30.5244 61.1037 31.5548C60.5885 32.5423 60.3309 33.8088 60.3309 35.3544C60.3309 36.8571 60.5885 38.1451 61.1037 39.2184C61.6189 40.2488 62.3058 41.0216 63.1645 41.5368C64.0231 42.052 64.9891 42.3096 66.0625 42.3096ZM91.097 53V17.7732H104.943V28.3992L102.689 25.3724C103.762 22.6247 105.48 20.5639 107.841 19.19C110.202 17.8161 113.036 17.1292 116.342 17.1292V30.0092C115.698 29.9233 115.118 29.8589 114.603 29.816C114.131 29.7731 113.637 29.7516 113.122 29.7516C110.932 29.7516 109.129 30.3312 107.712 31.4904C106.338 32.6067 105.651 34.5601 105.651 37.3508V53H91.097ZM138.412 53.644C133.56 53.644 129.782 52.4848 127.077 50.1664C124.373 47.8051 123.02 44.1987 123.02 39.3472V9.85199H137.575V39.2184C137.575 40.2917 137.854 41.1289 138.412 41.73C139.013 42.3311 139.743 42.6316 140.601 42.6316C141.847 42.6316 142.941 42.3096 143.886 41.6656L147.363 51.7764C146.247 52.4204 144.895 52.8927 143.306 53.1932C141.761 53.4937 140.129 53.644 138.412 53.644ZM118.19 30.3312V19.7052H144.787V30.3312H118.19ZM152.642 53V19.512C152.642 14.9611 153.994 11.3332 156.699 8.62839C159.447 5.92359 163.332 4.57119 168.355 4.57119C169.901 4.57119 171.447 4.72146 172.992 5.02199C174.581 5.27959 175.912 5.70893 176.985 6.30999L173.507 16.4208C173.035 16.2061 172.52 16.0129 171.962 15.8412C171.404 15.6695 170.824 15.5836 170.223 15.5836C169.193 15.5836 168.355 15.9056 167.711 16.5496C167.067 17.1936 166.745 18.224 166.745 19.6408V21.3152L167.196 27.3044V53H152.642ZM147.812 30.3312V19.7052H174.409V30.3312H147.812ZM196.749 53.644C192.756 53.644 189.214 52.8712 186.123 51.3256C183.075 49.7371 180.671 47.5689 178.91 44.8212C177.15 42.0735 176.27 38.9179 176.27 35.3544C176.27 31.7909 177.15 28.6353 178.91 25.8876C180.671 23.1399 183.075 20.9932 186.123 19.4476C189.214 17.902 192.756 17.1292 196.749 17.1292C200.742 17.1292 204.284 17.902 207.375 19.4476C210.466 20.9932 212.871 23.1399 214.588 25.8876C216.348 28.6353 217.228 31.7909 217.228 35.3544C217.228 38.9179 216.348 42.0735 214.588 44.8212C212.871 47.5689 210.466 49.7371 207.375 51.3256C204.284 52.8712 200.742 53.644 196.749 53.644ZM196.749 42.3096C197.823 42.3096 198.789 42.052 199.647 41.5368C200.506 41.0216 201.193 40.2488 201.708 39.2184C202.223 38.1451 202.481 36.8571 202.481 35.3544C202.481 33.8088 202.223 32.5423 201.708 31.5548C201.193 30.5244 200.506 29.7516 199.647 29.2364C198.789 28.7212 197.823 28.4636 196.749 28.4636C195.676 28.4636 194.71 28.7212 193.851 29.2364C192.993 29.7516 192.306 30.5244 191.79 31.5548C191.275 32.5423 191.018 33.8088 191.018 35.3544C191.018 36.8571 191.275 38.1451 191.79 39.2184C192.306 40.2488 192.993 41.0216 193.851 41.5368C194.71 42.052 195.676 42.3096 196.749 42.3096ZM221.784 53V5.21519H236.338V53H221.784ZM242.789 53V17.7732H257.344V53H242.789ZM250.066 14.9396C247.405 14.9396 245.279 14.2312 243.691 12.8144C242.102 11.3976 241.308 9.63733 241.308 7.53359C241.308 5.42986 242.102 3.66959 243.691 2.25279C245.279 0.83599 247.405 0.12759 250.066 0.12759C252.728 0.12759 254.853 0.793057 256.442 2.12399C258.031 3.45492 258.825 5.17226 258.825 7.27599C258.825 9.50852 258.031 11.3547 256.442 12.8144C254.853 14.2312 252.728 14.9396 250.066 14.9396ZM282.406 53.644C278.413 53.644 274.871 52.8712 271.78 51.3256C268.732 49.7371 266.328 47.5689 264.567 44.8212C262.807 42.0735 261.927 38.9179 261.927 35.3544C261.927 31.7909 262.807 28.6353 264.567 25.8876C266.328 23.1399 268.732 20.9932 271.78 19.4476C274.871 17.902 278.413 17.1292 282.406 17.1292C286.399 17.1292 289.941 17.902 293.032 19.4476C296.123 20.9932 298.528 23.1399 300.245 25.8876C302.005 28.6353 302.885 31.7909 302.885 35.3544C302.885 38.9179 302.005 42.0735 300.245 44.8212C298.528 47.5689 296.123 49.7371 293.032 51.3256C289.941 52.8712 286.399 53.644 282.406 53.644ZM282.406 42.3096C283.48 42.3096 284.446 42.052 285.304 41.5368C286.163 41.0216 286.85 40.2488 287.365 39.2184C287.88 38.1451 288.138 36.8571 288.138 35.3544C288.138 33.8088 287.88 32.5423 287.365 31.5548C286.85 30.5244 286.163 29.7516 285.304 29.2364C284.446 28.7212 283.48 28.4636 282.406 28.4636C281.333 28.4636 280.367 28.7212 279.508 29.2364C278.65 29.7516 277.963 30.5244 277.447 31.5548C276.932 32.5423 276.675 33.8088 276.675 35.3544C276.675 36.8571 276.932 38.1451 277.447 39.2184C277.963 40.2488 278.65 41.0216 279.508 41.5368C280.367 42.052 281.333 42.3096 282.406 42.3096Z" fill="black"/>
<path d="M0.670801 53H-5.18375C-5.18375 56.2334 -2.56258 58.8545 0.670801 58.8545L0.670801 53ZM0.670801 7.91999V2.06544C-2.56258 2.06544 -5.18375 4.68661 -5.18375 7.91999H0.670801ZM33.2572 9.98079L30.8516 15.3183C30.8609 15.3225 30.8702 15.3266 30.8795 15.3307L33.2572 9.98079ZM40.4056 15.9056L35.4969 19.0963C35.5051 19.1089 35.5133 19.1214 35.5216 19.134L40.4056 15.9056ZM40.4056 33.9376L35.5216 30.7092L35.5216 30.7092L40.4056 33.9376ZM33.2572 39.8624L35.6628 45.1999C35.6741 45.1948 35.6853 45.1897 35.6965 45.1846L33.2572 39.8624ZM9.1072 41.9232L5.04856 37.7038C3.32706 39.3597 2.78418 41.8954 3.67681 44.111C4.56944 46.3266 6.71856 47.7777 9.1072 47.7777L9.1072 41.9232ZM15.8692 35.4188H21.7237C21.7237 33.0715 20.3218 30.9512 18.162 30.0319C16.0023 29.1126 13.5022 29.5722 11.8106 31.1994L15.8692 35.4188ZM15.8692 53V58.8545C19.1026 58.8545 21.7237 56.2334 21.7237 53H15.8692ZM15.8692 37.0932L11.6905 41.1937C13.3561 42.891 15.8829 43.4122 18.0841 42.5126C20.2854 41.613 21.7237 39.4712 21.7237 37.0932H15.8692ZM9.1072 30.2024V24.3479C6.74931 24.3479 4.62153 25.7623 3.70893 27.9365C2.79634 30.1106 3.27706 32.62 4.92854 34.3029L9.1072 30.2024ZM26.0444 28.7856L22.0883 24.4699C22.0578 24.4979 22.0276 24.5262 21.9976 24.5549L26.0444 28.7856ZM26.0444 21.0576L21.9976 25.2883C22.0276 25.317 22.0578 25.3453 22.0883 25.3733L26.0444 21.0576ZM9.1072 19.6408L4.92854 15.5402C3.27706 17.2232 2.79634 19.7326 3.70893 21.9067C4.62153 24.0809 6.74931 25.4953 9.1072 25.4953L9.1072 19.6408ZM15.8692 12.75H21.7237C21.7237 10.372 20.2854 8.23024 18.0841 7.33059C15.8829 6.43094 13.3561 6.95216 11.6905 8.64944L15.8692 12.75ZM6.52535 53V7.91999H-5.18375V53H6.52535ZM0.670801 13.7745H22.3736V2.06544H0.670801V13.7745ZM22.3736 13.7745C25.9591 13.7745 28.7282 14.3613 30.8516 15.3183L35.6628 4.64331C31.6897 2.85259 27.203 2.06544 22.3736 2.06544V13.7745ZM30.8795 15.3307C33.0445 16.293 34.5013 17.5645 35.4969 19.0963L45.3143 12.7149C42.9611 9.09464 39.6523 6.41633 35.635 4.63084L30.8795 15.3307ZM35.5216 19.134C36.4746 20.5756 37.0627 22.4205 37.0627 24.9216H48.7718C48.7718 20.4675 47.6854 16.3017 45.2896 12.6772L35.5216 19.134ZM37.0627 24.9216C37.0627 27.4227 36.4746 29.2676 35.5216 30.7092L45.2896 37.166C47.6854 33.5415 48.7718 29.3757 48.7718 24.9216H37.0627ZM35.5216 30.7092C34.5208 32.2233 33.0373 33.523 30.8179 34.5402L35.6965 45.1846C39.6596 43.3682 42.9416 40.7181 45.2896 37.166L35.5216 30.7092ZM30.8516 34.5249C28.7282 35.4819 25.9591 36.0687 22.3736 36.0687V47.7777C27.203 47.7777 31.6897 46.9906 35.6628 45.1999L30.8516 34.5249ZM22.3736 36.0687H9.1072V47.7777H22.3736V36.0687ZM13.1658 46.1426L19.9278 39.6382L11.8106 31.1994L5.04856 37.7038L13.1658 46.1426ZM10.0147 35.4188V53H21.7237V35.4188H10.0147ZM15.8692 47.1455H0.670801V58.8545H15.8692V47.1455ZM20.0479 32.9926L13.2859 26.1018L4.92854 34.3029L11.6905 41.1937L20.0479 32.9926ZM9.1072 36.0569H21.4076V24.3479H9.1072V36.0569ZM21.4076 36.0569C24.2288 36.0569 27.5527 35.4445 30.0912 33.0163L21.9976 24.5549C22.2754 24.2891 22.4907 24.2318 22.4338 24.2492C22.3535 24.2737 22.0443 24.3479 21.4076 24.3479V36.0569ZM30.0005 33.1013C32.4455 30.86 33.4446 27.8938 33.4446 24.9216H21.7355C21.7355 25.1214 21.7046 25.0948 21.7678 24.9369C21.7987 24.8596 21.8446 24.7705 21.907 24.6803C21.9694 24.5903 22.0339 24.5198 22.0883 24.4699L30.0005 33.1013ZM33.4446 24.9216C33.4446 21.9494 32.4456 18.9832 30.0005 16.7419L22.0883 25.3733C22.0339 25.3234 21.9694 25.2529 21.907 25.1629C21.8446 25.0727 21.7987 24.9836 21.7678 24.9063C21.7046 24.7484 21.7355 24.7218 21.7355 24.9216H33.4446ZM30.0912 16.8269C27.5527 14.3987 24.2288 13.7862 21.4076 13.7862V25.4953C22.0443 25.4953 22.3535 25.5695 22.4338 25.594C22.4907 25.6114 22.2754 25.5541 21.9976 25.2883L30.0912 16.8269ZM21.4076 13.7862H9.1072V25.4953H21.4076V13.7862ZM13.2859 23.7413L20.0479 16.8505L11.6905 8.64944L4.92854 15.5402L13.2859 23.7413ZM10.0147 12.75V37.0932H21.7237V12.75H10.0147ZM55.4365 51.3256L52.7309 56.5175C52.7599 56.5326 52.789 56.5474 52.8182 56.5621L55.4365 51.3256ZM48.2237 44.8212L43.2939 47.9793L43.2939 47.9793L48.2237 44.8212ZM48.2237 25.8876L43.2939 22.7295L43.2939 22.7295L48.2237 25.8876ZM55.4365 19.4476L52.8182 14.2111C52.8084 14.216 52.7986 14.221 52.7889 14.2259L55.4365 19.4476ZM76.6885 19.4476L74.0702 24.6841L74.0702 24.6841L76.6885 19.4476ZM83.9013 25.8876L78.9366 28.9905C78.9482 29.009 78.9598 29.0274 78.9716 29.0457L83.9013 25.8876ZM83.9013 44.8212L78.9716 41.6631C78.9598 41.6814 78.9482 41.6998 78.9366 41.7183L83.9013 44.8212ZM76.6885 51.3256L79.3067 56.5621C79.326 56.5524 79.3452 56.5427 79.3644 56.5328L76.6885 51.3256ZM68.9605 41.5368L65.9483 36.5166L65.9483 36.5166L68.9605 41.5368ZM71.0213 39.2184L76.2577 41.8366C76.2718 41.8085 76.2857 41.7802 76.2993 41.7518L71.0213 39.2184ZM71.0213 31.5548L65.7848 34.173C65.7999 34.2031 65.8152 34.2331 65.8307 34.2629L71.0213 31.5548ZM68.9605 29.2364L65.9483 34.2566L65.9483 34.2566L68.9605 29.2364ZM63.1645 29.2364L60.1523 24.2162L60.1523 24.2162L63.1645 29.2364ZM61.1037 31.5548L66.2942 34.2629C66.3098 34.2331 66.3251 34.2031 66.3401 34.173L61.1037 31.5548ZM61.1037 39.2184L55.8257 41.7518C55.8393 41.7802 55.8531 41.8085 55.8672 41.8366L61.1037 39.2184ZM63.1645 41.5368L60.1523 46.557L60.1523 46.557L63.1645 41.5368ZM66.0625 47.7895C62.8372 47.7895 60.2154 47.1695 58.0547 46.0891L52.8182 56.5621C56.84 58.5729 61.3021 59.4985 66.0625 59.4985V47.7895ZM58.1421 46.1337C55.9497 44.9912 54.3327 43.504 53.1534 41.6631L43.2939 47.9793C45.6352 51.6339 48.8267 54.4829 52.7309 56.5175L58.1421 46.1337ZM53.1534 41.6631C52.0523 39.9443 51.4378 37.9055 51.4378 35.3544H39.7287C39.7287 39.9303 40.8745 44.2027 43.2939 47.9793L53.1534 41.6631ZM51.4378 35.3544C51.4378 32.8033 52.0523 30.7645 53.1534 29.0457L43.2939 22.7295C40.8745 26.5061 39.7287 30.7785 39.7287 35.3544H51.4378ZM53.1534 29.0457C54.3234 27.2194 55.9209 25.7661 58.0841 24.6693L52.7889 14.2259C48.8555 16.2203 45.6445 19.0603 43.2939 22.7295L53.1534 29.0457ZM58.0547 24.6841C60.2154 23.6037 62.8372 22.9837 66.0625 22.9837V11.2746C61.3021 11.2746 56.84 12.2003 52.8182 14.2111L58.0547 24.6841ZM66.0625 22.9837C69.2877 22.9837 71.9096 23.6037 74.0702 24.6841L79.3067 14.2111C75.285 12.2003 70.8228 11.2746 66.0625 11.2746V22.9837ZM74.0702 24.6841C76.2647 25.7813 77.8286 27.2176 78.9366 28.9905L88.8659 22.7847C86.5393 19.0621 83.2946 16.2051 79.3067 14.2111L74.0702 24.6841ZM78.9716 29.0457C80.0727 30.7645 80.6871 32.8033 80.6871 35.3544H92.3962C92.3962 30.7785 91.2504 26.5061 88.831 22.7295L78.9716 29.0457ZM80.6871 35.3544C80.6871 37.9055 80.0727 39.9443 78.9716 41.6631L88.831 47.9793C91.2504 44.2027 92.3962 39.9303 92.3962 35.3544H80.6871ZM78.9366 41.7183C77.8193 43.5061 76.2358 44.9759 74.0125 46.1184L79.3644 56.5328C83.3235 54.4983 86.5486 51.6318 88.8659 47.9241L78.9366 41.7183ZM74.0702 46.0891C71.9096 47.1695 69.2877 47.7895 66.0625 47.7895V59.4985C70.8228 59.4985 75.285 58.5729 79.3067 56.5621L74.0702 46.0891ZM66.0625 48.1641C68.1177 48.1641 70.1385 47.6575 71.9726 46.557L65.9483 36.5166C65.9652 36.5065 65.9872 36.4949 66.0131 36.4839C66.039 36.473 66.0632 36.4649 66.0835 36.4595C66.1273 36.4478 66.1271 36.4551 66.0625 36.4551V48.1641ZM71.9726 46.557C73.9231 45.3867 75.3212 43.7096 76.2577 41.8366L65.7848 36.6002C65.7312 36.7073 65.7096 36.7199 65.7439 36.6812C65.7606 36.6625 65.7872 36.6354 65.8243 36.6045C65.8615 36.5735 65.9034 36.5435 65.9483 36.5166L71.9726 46.557ZM76.2993 41.7518C77.28 39.7086 77.6486 37.5108 77.6486 35.3544H65.9395C65.9395 36.2033 65.7929 36.5815 65.7433 36.6849L76.2993 41.7518ZM77.6486 35.3544C77.6486 33.2115 77.2991 30.9307 76.2118 28.8467L65.8307 34.2629C65.7738 34.1539 65.9395 34.4061 65.9395 35.3544H77.6486ZM76.2577 28.9366C75.3212 27.0636 73.9231 25.3864 71.9726 24.2162L65.9483 34.2566C65.9034 34.2297 65.8615 34.1997 65.8243 34.1687C65.7872 34.1378 65.7606 34.1107 65.7439 34.0919C65.7096 34.0533 65.7312 34.0659 65.7848 34.173L76.2577 28.9366ZM71.9726 24.2162C70.1385 23.1157 68.1177 22.609 66.0625 22.609V34.3181C66.1271 34.3181 66.1273 34.3254 66.0835 34.3137C66.0632 34.3083 66.039 34.3002 66.0131 34.2893C65.9872 34.2783 65.9652 34.2667 65.9483 34.2566L71.9726 24.2162ZM66.0625 22.609C64.0072 22.609 61.9865 23.1157 60.1523 24.2162L66.1766 34.2566C66.1597 34.2667 66.1377 34.2783 66.1118 34.2893C66.0859 34.3002 66.0617 34.3083 66.0415 34.3137C65.9976 34.3254 65.9978 34.3181 66.0625 34.3181V22.609ZM60.1523 24.2162C58.2019 25.3864 56.8037 27.0636 55.8672 28.9366L66.3401 34.173C66.3937 34.0659 66.4154 34.0533 66.381 34.0919C66.3643 34.1107 66.3377 34.1378 66.3007 34.1687C66.2635 34.1997 66.2215 34.2297 66.1766 34.2566L60.1523 24.2162ZM55.9131 28.8467C54.8258 30.9307 54.4763 33.2115 54.4763 35.3544H66.1854C66.1854 34.4061 66.3511 34.1539 66.2942 34.2629L55.9131 28.8467ZM54.4763 35.3544C54.4763 37.5108 54.8449 39.7086 55.8257 41.7518L66.3817 36.6849C66.332 36.5815 66.1854 36.2033 66.1854 35.3544H54.4763ZM55.8672 41.8366C56.8037 43.7096 58.2019 45.3867 60.1523 46.557L66.1766 36.5166C66.2215 36.5435 66.2635 36.5735 66.3007 36.6045C66.3377 36.6354 66.3643 36.6625 66.381 36.6813C66.4154 36.7199 66.3937 36.7073 66.3401 36.6002L55.8672 41.8366ZM60.1523 46.557C61.9865 47.6575 64.0072 48.1641 66.0625 48.1641V36.4551C65.9978 36.4551 65.9976 36.4478 66.0415 36.4595C66.0617 36.4649 66.0859 36.473 66.1118 36.4839C66.1377 36.4949 66.1597 36.5064 66.1766 36.5166L60.1523 46.557ZM91.097 53H85.2424C85.2424 56.2334 87.8636 58.8545 91.097 58.8545V53ZM91.097 17.7732V11.9186C87.8636 11.9186 85.2424 14.5398 85.2424 17.7732H91.097ZM104.943 17.7732H110.798C110.798 14.5398 108.176 11.9186 104.943 11.9186V17.7732ZM104.943 28.3992L100.247 31.8959C101.755 33.92 104.389 34.7504 106.785 33.9565C109.18 33.1625 110.798 30.9228 110.798 28.3992H104.943ZM102.689 25.3724L97.2357 23.2422C96.501 25.123 96.7874 27.2496 97.9934 28.8691L102.689 25.3724ZM107.841 19.19L104.897 14.1296L104.897 14.1296L107.841 19.19ZM116.342 17.1292H122.196C122.196 13.8958 119.575 11.2746 116.342 11.2746V17.1292ZM116.342 30.0092L115.568 35.8124C117.241 36.0354 118.929 35.5257 120.198 34.4141C121.468 33.3024 122.196 31.6968 122.196 30.0092H116.342ZM114.603 29.816L114.073 35.6465C114.088 35.6478 114.102 35.6491 114.117 35.6503L114.603 29.816ZM107.712 31.4904L111.404 36.0342C111.409 36.03 111.414 36.0258 111.419 36.0216L107.712 31.4904ZM105.651 53V58.8545C108.885 58.8545 111.506 56.2334 111.506 53H105.651ZM96.9515 53V17.7732H85.2424V53H96.9515ZM91.097 23.6277H104.943V11.9186H91.097V23.6277ZM99.0884 17.7732V28.3992H110.798V17.7732H99.0884ZM109.639 24.9025L107.385 21.8757L97.9934 28.8691L100.247 31.8959L109.639 24.9025ZM108.142 27.5026C108.775 25.8819 109.661 24.9044 110.785 24.2504L104.897 14.1296C101.298 16.2233 98.7493 19.3674 97.2357 23.2422L108.142 27.5026ZM110.785 24.2504C112.082 23.4959 113.853 22.9837 116.342 22.9837V11.2746C112.219 11.2746 108.323 12.1363 104.897 14.1296L110.785 24.2504ZM110.487 17.1292V30.0092H122.196V17.1292H110.487ZM117.116 24.206C116.399 24.1105 115.721 24.0343 115.089 23.9817L114.117 35.6503C114.515 35.6835 114.997 35.7362 115.568 35.8124L117.116 24.206ZM115.133 23.9855C114.47 23.9252 113.799 23.897 113.122 23.897V35.6061C113.475 35.6061 113.791 35.6209 114.073 35.6465L115.133 23.9855ZM113.122 23.897C109.857 23.897 106.663 24.7845 104.005 26.9592L111.419 36.0216C111.595 35.8779 112.008 35.6061 113.122 35.6061V23.897ZM104.02 26.9466C100.647 29.6875 99.7968 33.8148 99.7968 37.3508H111.506C111.506 36.402 111.627 35.9128 111.69 35.7349C111.736 35.6021 111.69 35.8022 111.404 36.0342L104.02 26.9466ZM99.7968 37.3508V53H111.506V37.3508H99.7968ZM105.651 47.1455H91.097V58.8545H105.651V47.1455ZM127.077 50.1664L123.227 54.5767C123.241 54.5884 123.254 54.6 123.267 54.6115L127.077 50.1664ZM123.02 9.85199V3.99745C119.787 3.99745 117.166 6.61862 117.166 9.85199H123.02ZM137.575 9.85199H143.429C143.429 6.61862 140.808 3.99745 137.575 3.99745V9.85199ZM138.412 41.73L134.122 45.7137C134.171 45.7667 134.221 45.8187 134.272 45.8698L138.412 41.73ZM143.886 41.6656L149.422 39.7614C148.828 38.0351 147.463 36.6845 145.731 36.1093C143.998 35.534 142.096 35.8 140.588 36.8284L143.886 41.6656ZM147.363 51.7764L150.289 56.8475C152.717 55.447 153.811 52.5225 152.9 49.8722L147.363 51.7764ZM143.306 53.1932L142.218 47.4407C142.208 47.4425 142.199 47.4444 142.189 47.4463L143.306 53.1932ZM118.19 30.3312H112.336C112.336 33.5646 114.957 36.1857 118.19 36.1857V30.3312ZM118.19 19.7052V13.8506C114.957 13.8506 112.336 16.4718 112.336 19.7052H118.19ZM144.787 19.7052H150.642C150.642 16.4718 148.021 13.8506 144.787 13.8506V19.7052ZM144.787 30.3312V36.1857C148.021 36.1857 150.642 33.5646 150.642 30.3312H144.787ZM138.412 47.7895C134.451 47.7895 132.201 46.8472 130.888 45.7213L123.267 54.6115C127.363 58.1224 132.67 59.4985 138.412 59.4985V47.7895ZM130.928 45.7561C129.901 44.8599 128.875 43.1321 128.875 39.3472H117.166C117.166 45.2652 118.844 50.7502 123.227 54.5767L130.928 45.7561ZM128.875 39.3472V9.85199H117.166V39.3472H128.875ZM123.02 15.7065H137.575V3.99745H123.02V15.7065ZM131.72 9.85199V39.2184H143.429V9.85199H131.72ZM131.72 39.2184C131.72 41.3006 132.279 43.7292 134.122 45.7137L142.702 37.7463C143.034 38.1037 143.234 38.4868 143.338 38.7999C143.435 39.0913 143.429 39.2571 143.429 39.2184H131.72ZM134.272 45.8698C135.984 47.5813 138.208 48.4861 140.601 48.4861V36.7771C140.869 36.7771 141.237 36.827 141.639 36.9926C142.042 37.1587 142.348 37.3866 142.552 37.5902L134.272 45.8698ZM140.601 48.4861C142.913 48.4861 145.18 47.8689 147.184 46.5028L140.588 36.8284C140.6 36.82 140.619 36.8086 140.643 36.7972C140.667 36.7858 140.689 36.7781 140.704 36.7734C140.72 36.7689 140.723 36.7694 140.709 36.7713C140.695 36.7733 140.66 36.7771 140.601 36.7771V48.4861ZM138.35 43.5698L141.827 53.6806L152.9 49.8722L149.422 39.7614L138.35 43.5698ZM144.438 46.7053C144.015 46.949 143.318 47.2327 142.218 47.4407L144.395 58.9457C146.472 58.5527 148.479 57.8918 150.289 56.8475L144.438 46.7053ZM142.189 47.4463C141.043 47.6691 139.788 47.7895 138.412 47.7895V59.4985C140.471 59.4985 142.478 59.3184 144.424 58.9401L142.189 47.4463ZM124.045 30.3312V19.7052H112.336V30.3312H124.045ZM118.19 25.5597H144.787V13.8506H118.19V25.5597ZM138.933 19.7052V30.3312H150.642V19.7052H138.933ZM144.787 24.4766H118.19V36.1857H144.787V24.4766ZM152.642 53H146.787C146.787 56.2334 149.408 58.8545 152.642 58.8545V53ZM156.699 8.62839L152.592 4.45614C152.581 4.46692 152.57 4.47774 152.559 4.4886L156.699 8.62839ZM172.992 5.02199L171.875 10.7689C171.935 10.7806 171.995 10.7913 172.055 10.801L172.992 5.02199ZM176.985 6.30999L182.521 8.21417C183.442 5.53726 182.315 2.58502 179.845 1.20187L176.985 6.30999ZM173.507 16.4208L171.085 21.7506C172.587 22.4332 174.307 22.4506 175.822 21.7984C177.337 21.1462 178.507 19.885 179.044 18.325L173.507 16.4208ZM171.962 15.8412L173.683 10.2455L173.683 10.2455L171.962 15.8412ZM167.711 16.5496L163.572 12.4098L163.572 12.4098L167.711 16.5496ZM166.745 21.3152H160.891C160.891 21.4618 160.896 21.6084 160.907 21.7546L166.745 21.3152ZM167.196 27.3044H173.051C173.051 27.1578 173.045 27.0112 173.034 26.865L167.196 27.3044ZM167.196 53V58.8545C170.43 58.8545 173.051 56.2334 173.051 53H167.196ZM147.812 30.3312H141.957C141.957 33.5646 144.578 36.1857 147.812 36.1857V30.3312ZM147.812 19.7052V13.8506C144.578 13.8506 141.957 16.4718 141.957 19.7052H147.812ZM174.409 19.7052H180.263C180.263 16.4718 177.642 13.8506 174.409 13.8506V19.7052ZM174.409 30.3312V36.1857C177.642 36.1857 180.263 33.5646 180.263 30.3312H174.409ZM158.496 53V19.512H146.787V53H158.496ZM158.496 19.512C158.496 16.1976 159.437 14.17 160.839 12.7682L152.559 4.4886C148.551 8.49635 146.787 13.7245 146.787 19.512H158.496ZM160.806 12.8006C162.156 11.4713 164.385 10.4257 168.355 10.4257V-1.28336C162.279 -1.28336 156.737 0.375905 152.592 4.45614L160.806 12.8006ZM168.355 10.4257C169.519 10.4257 170.69 10.5386 171.875 10.7689L174.11 -0.724924C172.203 -1.0957 170.283 -1.28336 168.355 -1.28336V10.4257ZM172.055 10.801C173.165 10.981 173.8 11.2366 174.124 11.4181L179.845 1.20187C178.023 0.181241 175.996 -0.421854 173.929 -0.757064L172.055 10.801ZM171.449 4.40581L167.971 14.5166L179.044 18.325L182.521 8.21417L171.449 4.40581ZM175.93 11.091C175.204 10.7609 174.451 10.4819 173.683 10.2455L170.24 21.4368C170.588 21.544 170.866 21.6513 171.085 21.7506L175.93 11.091ZM173.683 10.2455C172.551 9.89717 171.39 9.72905 170.223 9.72905V21.4381C170.234 21.4381 170.241 21.4385 170.245 21.4388C170.249 21.4391 170.251 21.4394 170.25 21.4393C170.25 21.4393 170.249 21.439 170.246 21.4385C170.244 21.438 170.242 21.4374 170.24 21.4368L173.683 10.2455ZM170.223 9.72905C167.862 9.72905 165.461 10.5201 163.572 12.4098L171.851 20.6894C171.603 20.9375 171.282 21.1517 170.924 21.2894C170.58 21.4217 170.321 21.4381 170.223 21.4381V9.72905ZM163.572 12.4098C161.352 14.6295 160.891 17.5113 160.891 19.6408H172.6C172.6 19.3508 172.636 19.3567 172.575 19.5517C172.506 19.7728 172.312 20.2287 171.851 20.6894L163.572 12.4098ZM160.891 19.6408V21.3152H172.6V19.6408H160.891ZM160.907 21.7546L161.358 27.7438L173.034 26.865L172.583 20.8758L160.907 21.7546ZM161.342 27.3044V53H173.051V27.3044H161.342ZM167.196 47.1455H152.642V58.8545H167.196V47.1455ZM153.666 30.3312V19.7052H141.957V30.3312H153.666ZM147.812 25.5597H174.409V13.8506H147.812V25.5597ZM168.554 19.7052V30.3312H180.263V19.7052H168.554ZM174.409 24.4766H147.812V36.1857H174.409V24.4766ZM186.123 51.3256L183.418 56.5175C183.447 56.5326 183.476 56.5474 183.505 56.5621L186.123 51.3256ZM178.91 44.8212L173.981 47.9793L173.981 47.9793L178.91 44.8212ZM178.91 25.8876L173.981 22.7295L173.981 22.7295L178.91 25.8876ZM186.123 19.4476L183.505 14.2111C183.495 14.216 183.485 14.221 183.476 14.2259L186.123 19.4476ZM207.375 19.4476L204.757 24.6841L204.757 24.6841L207.375 19.4476ZM214.588 25.8876L209.623 28.9905C209.635 29.009 209.647 29.0274 209.658 29.0457L214.588 25.8876ZM214.588 44.8212L209.658 41.6631C209.647 41.6814 209.635 41.6998 209.623 41.7183L214.588 44.8212ZM207.375 51.3256L209.993 56.5621C210.013 56.5524 210.032 56.5427 210.051 56.5328L207.375 51.3256ZM199.647 41.5368L196.635 36.5166L196.635 36.5166L199.647 41.5368ZM201.708 39.2184L206.944 41.8366C206.959 41.8085 206.972 41.7802 206.986 41.7518L201.708 39.2184ZM201.708 31.5548L196.472 34.173C196.487 34.2031 196.502 34.2331 196.517 34.2629L201.708 31.5548ZM199.647 29.2364L196.635 34.2566L196.635 34.2566L199.647 29.2364ZM193.851 29.2364L190.839 24.2162L190.839 24.2162L193.851 29.2364ZM191.79 31.5548L196.981 34.2629C196.997 34.2331 197.012 34.2031 197.027 34.173L191.79 31.5548ZM191.79 39.2184L186.512 41.7518C186.526 41.7802 186.54 41.8085 186.554 41.8366L191.79 39.2184ZM193.851 41.5368L190.839 46.557L190.839 46.557L193.851 41.5368ZM196.749 47.7895C193.524 47.7895 190.902 47.1695 188.741 46.0891L183.505 56.5621C187.527 58.5729 191.989 59.4985 196.749 59.4985V47.7895ZM188.829 46.1337C186.636 44.9912 185.019 43.504 183.84 41.6631L173.981 47.9793C176.322 51.6339 179.513 54.4829 183.418 56.5175L188.829 46.1337ZM183.84 41.6631C182.739 39.9443 182.125 37.9055 182.125 35.3544H170.415C170.415 39.9303 171.561 44.2027 173.981 47.9793L183.84 41.6631ZM182.125 35.3544C182.125 32.8033 182.739 30.7645 183.84 29.0457L173.981 22.7295C171.561 26.5061 170.415 30.7785 170.415 35.3544H182.125ZM183.84 29.0457C185.01 27.2194 186.608 25.7661 188.771 24.6693L183.476 14.2259C179.542 16.2203 176.331 19.0603 173.981 22.7295L183.84 29.0457ZM188.741 24.6841C190.902 23.6037 193.524 22.9837 196.749 22.9837V11.2746C191.989 11.2746 187.527 12.2003 183.505 14.2111L188.741 24.6841ZM196.749 22.9837C199.974 22.9837 202.596 23.6037 204.757 24.6841L209.993 14.2111C205.972 12.2003 201.51 11.2746 196.749 11.2746V22.9837ZM204.757 24.6841C206.951 25.7813 208.515 27.2176 209.623 28.9905L219.553 22.7847C217.226 19.0621 213.981 16.2051 209.993 14.2111L204.757 24.6841ZM209.658 29.0457C210.759 30.7645 211.374 32.8033 211.374 35.3544H223.083C223.083 30.7785 221.937 26.5061 219.518 22.7295L209.658 29.0457ZM211.374 35.3544C211.374 37.9055 210.759 39.9443 209.658 41.6631L219.518 47.9793C221.937 44.2027 223.083 39.9303 223.083 35.3544H211.374ZM209.623 41.7183C208.506 43.5061 206.923 44.9759 204.699 46.1184L210.051 56.5328C214.01 54.4983 217.235 51.6318 219.553 47.9241L209.623 41.7183ZM204.757 46.0891C202.596 47.1695 199.974 47.7895 196.749 47.7895V59.4985C201.51 59.4985 205.972 58.5729 209.993 56.5621L204.757 46.0891ZM196.749 48.1641C198.804 48.1641 200.825 47.6575 202.659 46.557L196.635 36.5166C196.652 36.5065 196.674 36.4949 196.7 36.4839C196.726 36.473 196.75 36.4649 196.77 36.4595C196.814 36.4478 196.814 36.4551 196.749 36.4551V48.1641ZM202.659 46.557C204.61 45.3867 206.008 43.7096 206.944 41.8366L196.472 36.6002C196.418 36.7073 196.396 36.7199 196.431 36.6812C196.447 36.6625 196.474 36.6354 196.511 36.6045C196.548 36.5735 196.59 36.5435 196.635 36.5166L202.659 46.557ZM206.986 41.7518C207.967 39.7086 208.335 37.5108 208.335 35.3544H196.626C196.626 36.2033 196.48 36.5815 196.43 36.6849L206.986 41.7518ZM208.335 35.3544C208.335 33.2115 207.986 30.9307 206.899 28.8467L196.517 34.2629C196.461 34.1539 196.626 34.4061 196.626 35.3544H208.335ZM206.944 28.9366C206.008 27.0636 204.61 25.3864 202.659 24.2162L196.635 34.2566C196.59 34.2297 196.548 34.1997 196.511 34.1687C196.474 34.1378 196.447 34.1107 196.431 34.0919C196.396 34.0533 196.418 34.0659 196.472 34.173L206.944 28.9366ZM202.659 24.2162C200.825 23.1157 198.804 22.609 196.749 22.609V34.3181C196.814 34.3181 196.814 34.3254 196.77 34.3137C196.75 34.3083 196.726 34.3002 196.7 34.2893C196.674 34.2783 196.652 34.2667 196.635 34.2566L202.659 24.2162ZM196.749 22.609C194.694 22.609 192.673 23.1157 190.839 24.2162L196.863 34.2566C196.846 34.2667 196.824 34.2783 196.799 34.2893C196.773 34.3002 196.748 34.3083 196.728 34.3137C196.684 34.3254 196.685 34.3181 196.749 34.3181V22.609ZM190.839 24.2162C188.889 25.3864 187.49 27.0636 186.554 28.9366L197.027 34.173C197.08 34.0659 197.102 34.0533 197.068 34.0919C197.051 34.1107 197.024 34.1378 196.987 34.1687C196.95 34.1997 196.908 34.2297 196.863 34.2566L190.839 24.2162ZM186.6 28.8467C185.513 30.9307 185.163 33.2115 185.163 35.3544H196.872C196.872 34.4061 197.038 34.1539 196.981 34.2629L186.6 28.8467ZM185.163 35.3544C185.163 37.5108 185.532 39.7086 186.512 41.7518L197.068 36.6849C197.019 36.5815 196.872 36.2033 196.872 35.3544H185.163ZM186.554 41.8366C187.49 43.7096 188.889 45.3867 190.839 46.557L196.863 36.5166C196.908 36.5435 196.95 36.5735 196.987 36.6045C197.024 36.6354 197.051 36.6625 197.068 36.6813C197.102 36.7199 197.08 36.7073 197.027 36.6002L186.554 41.8366ZM190.839 46.557C192.673 47.6575 194.694 48.1641 196.749 48.1641V36.4551C196.685 36.4551 196.684 36.4478 196.728 36.4595C196.748 36.4649 196.773 36.473 196.799 36.4839C196.824 36.4949 196.846 36.5064 196.863 36.5166L190.839 46.557ZM221.784 53H215.929C215.929 56.2334 218.55 58.8545 221.784 58.8545V53ZM221.784 5.21519V-0.639356C218.55 -0.639356 215.929 1.98181 215.929 5.21519H221.784ZM236.338 5.21519H242.193C242.193 1.98181 239.571 -0.639356 236.338 -0.639356V5.21519ZM236.338 53V58.8545C239.571 58.8545 242.193 56.2334 242.193 53H236.338ZM227.638 53V5.21519H215.929V53H227.638ZM221.784 11.0697H236.338V-0.639356H221.784V11.0697ZM230.484 5.21519V53H242.193V5.21519H230.484ZM236.338 47.1455H221.784V58.8545H236.338V47.1455ZM242.789 53H236.935C236.935 56.2334 239.556 58.8545 242.789 58.8545V53ZM242.789 17.7732V11.9186C239.556 11.9186 236.935 14.5398 236.935 17.7732H242.789ZM257.344 17.7732H263.198C263.198 14.5398 260.577 11.9186 257.344 11.9186V17.7732ZM257.344 53V58.8545C260.577 58.8545 263.198 56.2334 263.198 53H257.344ZM243.691 12.8144L247.588 8.44517L247.588 8.44517L243.691 12.8144ZM243.691 2.25279L247.588 6.62201L247.588 6.62201L243.691 2.25279ZM256.442 2.12399L252.682 6.61162L252.682 6.61162L256.442 2.12399ZM256.442 12.8144L260.339 17.1836C260.36 17.1643 260.382 17.1449 260.403 17.1253L256.442 12.8144ZM248.644 53V17.7732H236.935V53H248.644ZM242.789 23.6277H257.344V11.9186H242.789V23.6277ZM251.489 17.7732V53H263.198V17.7732H251.489ZM257.344 47.1455H242.789V58.8545H257.344V47.1455ZM250.066 9.08505C248.468 9.08505 247.854 8.6827 247.588 8.44517L239.794 17.1836C242.705 19.7797 246.341 20.7941 250.066 20.7941V9.08505ZM247.588 8.44517C247.342 8.22633 247.267 8.08316 247.24 8.02368C247.214 7.96591 247.163 7.83021 247.163 7.53359H235.453C235.453 11.3286 236.977 14.671 239.794 17.1836L247.588 8.44517ZM247.163 7.53359C247.163 7.23697 247.214 7.10127 247.24 7.0435C247.267 6.98403 247.342 6.84085 247.588 6.62201L239.794 -2.11643C236.977 0.39618 235.453 3.73858 235.453 7.53359H247.163ZM247.588 6.62201C247.854 6.38448 248.468 5.98214 250.066 5.98214V-5.72696C246.341 -5.72696 242.705 -4.7125 239.794 -2.11643L247.588 6.62201ZM250.066 5.98214C251.752 5.98214 252.417 6.3899 252.682 6.61162L260.202 -2.36364C257.289 -4.80378 253.704 -5.72696 250.066 -5.72696V5.98214ZM252.682 6.61162C252.879 6.77659 252.914 6.86419 252.915 6.8678C252.918 6.87384 252.97 6.97723 252.97 7.27599H264.679C264.679 3.47046 263.141 0.0989733 260.202 -2.36364L252.682 6.61162ZM252.97 7.27599C252.97 7.9346 252.816 8.1955 252.481 8.50353L260.403 17.1253C263.245 14.5138 264.679 11.0824 264.679 7.27599H252.97ZM252.545 8.44517C252.279 8.6827 251.665 9.08505 250.066 9.08505V20.7941C253.792 20.7941 257.428 19.7797 260.339 17.1836L252.545 8.44517ZM271.78 51.3256L269.075 56.5175C269.104 56.5326 269.133 56.5474 269.162 56.5621L271.78 51.3256ZM264.567 44.8212L259.638 47.9793L259.638 47.9793L264.567 44.8212ZM264.567 25.8876L259.638 22.7295L259.638 22.7295L264.567 25.8876ZM271.78 19.4476L269.162 14.2111C269.152 14.216 269.142 14.221 269.133 14.2259L271.78 19.4476ZM293.032 19.4476L290.414 24.6841L290.414 24.6841L293.032 19.4476ZM300.245 25.8876L295.28 28.9905C295.292 29.009 295.304 29.0274 295.315 29.0457L300.245 25.8876ZM300.245 44.8212L295.315 41.6631C295.304 41.6814 295.292 41.6998 295.28 41.7183L300.245 44.8212ZM293.032 51.3256L295.65 56.5621C295.67 56.5524 295.689 56.5427 295.708 56.5328L293.032 51.3256ZM285.304 41.5368L282.292 36.5166L282.292 36.5166L285.304 41.5368ZM287.365 39.2184L292.602 41.8366C292.616 41.8085 292.629 41.7802 292.643 41.7518L287.365 39.2184ZM287.365 31.5548L282.129 34.173C282.144 34.2031 282.159 34.2331 282.175 34.2629L287.365 31.5548ZM285.304 29.2364L282.292 34.2566L282.292 34.2566L285.304 29.2364ZM279.508 29.2364L276.496 24.2162L276.496 24.2162L279.508 29.2364ZM277.447 31.5548L282.638 34.2629C282.654 34.2331 282.669 34.2031 282.684 34.173L277.447 31.5548ZM277.447 39.2184L272.169 41.7518C272.183 41.7802 272.197 41.8085 272.211 41.8366L277.447 39.2184ZM279.508 41.5368L276.496 46.557L276.496 46.557L279.508 41.5368ZM282.406 47.7895C279.181 47.7895 276.559 47.1695 274.398 46.0891L269.162 56.5621C273.184 58.5729 277.646 59.4985 282.406 59.4985V47.7895ZM274.486 46.1337C272.294 44.9912 270.676 43.504 269.497 41.6631L259.638 47.9793C261.979 51.6339 265.17 54.4829 269.075 56.5175L274.486 46.1337ZM269.497 41.6631C268.396 39.9443 267.782 37.9055 267.782 35.3544H256.073C256.073 39.9303 257.218 44.2027 259.638 47.9793L269.497 41.6631ZM267.782 35.3544C267.782 32.8033 268.396 30.7645 269.497 29.0457L259.638 22.7295C257.218 26.5061 256.073 30.7785 256.073 35.3544H267.782ZM269.497 29.0457C270.667 27.2194 272.265 25.7661 274.428 24.6693L269.133 14.2259C265.199 16.2203 261.988 19.0603 259.638 22.7295L269.497 29.0457ZM274.398 24.6841C276.559 23.6037 279.181 22.9837 282.406 22.9837V11.2746C277.646 11.2746 273.184 12.2003 269.162 14.2111L274.398 24.6841ZM282.406 22.9837C285.631 22.9837 288.253 23.6037 290.414 24.6841L295.65 14.2111C291.629 12.2003 287.167 11.2746 282.406 11.2746V22.9837ZM290.414 24.6841C292.609 25.7813 294.172 27.2176 295.28 28.9905L305.21 22.7847C302.883 19.0621 299.638 16.2051 295.65 14.2111L290.414 24.6841ZM295.315 29.0457C296.416 30.7645 297.031 32.8033 297.031 35.3544H308.74C308.74 30.7785 307.594 26.5061 305.175 22.7295L295.315 29.0457ZM297.031 35.3544C297.031 37.9055 296.416 39.9443 295.315 41.6631L305.175 47.9793C307.594 44.2027 308.74 39.9303 308.74 35.3544H297.031ZM295.28 41.7183C294.163 43.5061 292.58 44.9759 290.356 46.1184L295.708 56.5328C299.667 54.4983 302.892 51.6318 305.21 47.9241L295.28 41.7183ZM290.414 46.0891C288.253 47.1695 285.631 47.7895 282.406 47.7895V59.4985C287.167 59.4985 291.629 58.5729 295.65 56.5621L290.414 46.0891ZM282.406 48.1641C284.462 48.1641 286.482 47.6575 288.316 46.557L282.292 36.5166C282.309 36.5065 282.331 36.4949 282.357 36.4839C282.383 36.473 282.407 36.4649 282.427 36.4595C282.471 36.4478 282.471 36.4551 282.406 36.4551V48.1641ZM288.316 46.557C290.267 45.3867 291.665 43.7096 292.602 41.8366L282.129 36.6002C282.075 36.7073 282.053 36.7199 282.088 36.6812C282.104 36.6625 282.131 36.6354 282.168 36.6045C282.205 36.5735 282.247 36.5435 282.292 36.5166L288.316 46.557ZM292.643 41.7518C293.624 39.7086 293.992 37.5108 293.992 35.3544H282.283C282.283 36.2033 282.137 36.5815 282.087 36.6849L292.643 41.7518ZM293.992 35.3544C293.992 33.2115 293.643 30.9307 292.556 28.8467L282.175 34.2629C282.118 34.1539 282.283 34.4061 282.283 35.3544H293.992ZM292.602 28.9366C291.665 27.0636 290.267 25.3864 288.316 24.2162L282.292 34.2566C282.247 34.2297 282.205 34.1997 282.168 34.1687C282.131 34.1378 282.104 34.1107 282.088 34.0919C282.053 34.0533 282.075 34.0659 282.129 34.173L292.602 28.9366ZM288.316 24.2162C286.482 23.1157 284.462 22.609 282.406 22.609V34.3181C282.471 34.3181 282.471 34.3254 282.427 34.3137C282.407 34.3083 282.383 34.3002 282.357 34.2893C282.331 34.2783 282.309 34.2667 282.292 34.2566L288.316 24.2162ZM282.406 22.609C280.351 22.609 278.33 23.1157 276.496 24.2162L282.52 34.2566C282.504 34.2667 282.482 34.2783 282.456 34.2893C282.43 34.3002 282.405 34.3083 282.385 34.3137C282.341 34.3254 282.342 34.3181 282.406 34.3181V22.609ZM276.496 24.2162C274.546 25.3864 273.147 27.0636 272.211 28.9366L282.684 34.173C282.737 34.0659 282.759 34.0533 282.725 34.0919C282.708 34.1107 282.681 34.1378 282.644 34.1687C282.607 34.1997 282.565 34.2297 282.52 34.2566L276.496 24.2162ZM272.257 28.8467C271.17 30.9307 270.82 33.2115 270.82 35.3544H282.529C282.529 34.4061 282.695 34.1539 282.638 34.2629L272.257 28.8467ZM270.82 35.3544C270.82 37.5108 271.189 39.7086 272.169 41.7518L282.725 36.6849C282.676 36.5815 282.529 36.2033 282.529 35.3544H270.82ZM272.211 41.8366C273.147 43.7096 274.546 45.3867 276.496 46.557L282.52 36.5166C282.565 36.5435 282.607 36.5735 282.644 36.6045C282.681 36.6354 282.708 36.6625 282.725 36.6813C282.759 36.7199 282.737 36.7073 282.684 36.6002L272.211 41.8366ZM276.496 46.557C278.33 47.6575 280.351 48.1641 282.406 48.1641V36.4551C282.342 36.4551 282.341 36.4478 282.385 36.4595C282.405 36.4649 282.43 36.473 282.456 36.4839C282.482 36.4949 282.504 36.5064 282.52 36.5166L276.496 46.557Z" fill="white" mask="url(#path-1-outside-1_386_3100)"/>
</g>
<defs>
<filter id="filter0_d_386_3100" x="0.669922" y="0.127441" width="312.215" height="59.5166" filterUnits="userSpaceOnUse" color-interpolation-filters="sRGB">
<feFlood flood-opacity="0" result="BackgroundImageFix"/>
<feColorMatrix in="SourceAlpha" type="matrix" values="0 0 0 0 0 0 0 0 0 0 0 0 0 0 0 0 0 0 127 0" result="hardAlpha"/>
<feOffset dx="10" dy="6"/>
<feComposite in2="hardAlpha" operator="out"/>
<feColorMatrix type="matrix" values="0 0 0 0 0 0 0 0 0 0 0 0 0 0 0 0 0 0 1 0"/>
<feBlend mode="normal" in2="BackgroundImageFix" result="effect1_dropShadow_386_3100"/>
<feBlend mode="normal" in="SourceGraphic" in2="effect1_dropShadow_386_3100" result="shape"/>
</filter>
</defs>
</svg>
