<svg width="188" height="109" viewBox="0 0 188 109" fill="none" xmlns="http://www.w3.org/2000/svg">
<mask id="path-1-inside-1_592_10781" fill="white">
<path fill-rule="evenodd" clip-rule="evenodd" d="M84.2759 9.40985C84.2759 4.21293 88.4888 0 93.6857 0H178.59C183.787 0 188 4.21293 188 9.40985V49V92V99.5901C188 104.787 183.787 109 178.59 109H9.40985C4.21294 109 0 104.787 0 99.5901V58.4099C0 53.2129 4.21294 49 9.40985 49H74.866C80.0629 49 84.2759 44.7871 84.2759 39.5901V9.40985Z"/>
</mask>
<path fill-rule="evenodd" clip-rule="evenodd" d="M84.2759 9.40985C84.2759 4.21293 88.4888 0 93.6857 0H178.59C183.787 0 188 4.21293 188 9.40985V49V92V99.5901C188 104.787 183.787 109 178.59 109H9.40985C4.21294 109 0 104.787 0 99.5901V58.4099C0 53.2129 4.21294 49 9.40985 49H74.866C80.0629 49 84.2759 44.7871 84.2759 39.5901V9.40985Z" fill="black"/>
<path d="M178.59 1.88197H93.6857V-1.88197H178.59V1.88197ZM186.118 49V9.40985H189.882V49H186.118ZM186.118 92V49H189.882V92H186.118ZM186.118 99.5901V92H189.882V99.5901H186.118ZM9.40985 107.118H178.59V110.882H9.40985V107.118ZM1.88197 58.4099V99.5901H-1.88197V58.4099H1.88197ZM74.866 50.882H9.40985V47.118H74.866V50.882ZM86.1578 9.40985V39.5901H82.3939V9.40985H86.1578ZM74.866 47.118C79.0235 47.118 82.3939 43.7477 82.3939 39.5901H86.1578C86.1578 45.8265 81.1023 50.882 74.866 50.882V47.118ZM189.882 99.5901C189.882 105.826 184.826 110.882 178.59 110.882V107.118C182.748 107.118 186.118 103.748 186.118 99.5901H189.882ZM-1.88197 58.4099C-1.88197 52.1735 3.17355 47.118 9.40985 47.118V50.882C5.25232 50.882 1.88197 54.2523 1.88197 58.4099H-1.88197ZM93.6857 1.88197C89.5282 1.88197 86.1578 5.25232 86.1578 9.40985H82.3939C82.3939 3.17355 87.4494 -1.88197 93.6857 -1.88197V1.88197ZM9.40985 110.882C3.17355 110.882 -1.88197 105.826 -1.88197 99.5901H1.88197C1.88197 103.748 5.25232 107.118 9.40985 107.118V110.882ZM178.59 -1.88197C184.826 -1.88197 189.882 3.17355 189.882 9.40985H186.118C186.118 5.25232 182.748 1.88197 178.59 1.88197V-1.88197Z" fill="black" mask="url(#path-1-inside-1_592_10781)"/>
<path d="M19.6602 87V73.0352H25.6172C28.2734 73.0352 29.6016 74.1517 29.6016 76.3848C29.6016 78.2012 28.3027 79.5456 25.7051 80.418L30.5 87H28.1172L23.6738 80.7207V79.5391C26.3431 79.1159 27.6777 78.0905 27.6777 76.4629C27.6777 75.1738 26.9355 74.5293 25.4512 74.5293H21.4668V87H19.6602ZM36.4473 76.7461C39.3639 76.7461 40.8223 78.1882 40.8223 81.0723C40.8223 81.4824 40.793 81.9219 40.7344 82.3906H33.5371C33.5371 84.487 34.7611 85.5352 37.209 85.5352C38.3743 85.5352 39.4095 85.4049 40.3145 85.1445V86.6094C39.4095 86.8698 38.3092 87 37.0137 87C33.4915 87 31.7305 85.252 31.7305 81.7559C31.7305 78.416 33.3027 76.7461 36.4473 76.7461ZM33.5371 80.8867H39.084C39.0449 79.0898 38.166 78.1914 36.4473 78.1914C34.6243 78.1914 33.6543 79.0898 33.5371 80.8867ZM42.7656 83.9043C42.7656 81.8014 44.1523 80.75 46.9258 80.75C47.8177 80.75 48.7096 80.8151 49.6016 80.9453V79.9785C49.6016 78.8001 48.6803 78.2109 46.8379 78.2109C45.7832 78.2109 44.7025 78.3737 43.5957 78.6992V77.2344C44.7025 76.9089 45.7832 76.7461 46.8379 76.7461C49.8848 76.7461 51.4082 77.8073 51.4082 79.9297V87H50.3926L49.7676 85.9844C48.7454 86.6615 47.6322 87 46.4277 87C43.9863 87 42.7656 85.9681 42.7656 83.9043ZM46.9258 82.2148C45.3568 82.2148 44.5723 82.7682 44.5723 83.875C44.5723 84.9818 45.1908 85.5352 46.4277 85.5352C47.6777 85.5352 48.7357 85.2031 49.6016 84.5391V82.4102C48.7096 82.2799 47.8177 82.2148 46.9258 82.2148ZM61.2324 78.8359C60.5033 78.4844 59.6699 78.3086 58.7324 78.3086C56.6686 78.3086 55.6367 79.4056 55.6367 81.5996C55.6367 84.1973 56.6686 85.4961 58.7324 85.4961C59.6699 85.4961 60.5033 85.3691 61.2324 85.1152V78.8359ZM63.0391 86.3848C61.7956 86.7949 60.2624 87 58.4395 87C55.3861 87 53.8594 85.2227 53.8594 81.668C53.8594 78.3867 55.4805 76.7461 58.7227 76.7461C59.6081 76.7461 60.4447 76.9089 61.2324 77.2344V73.0352H63.0391V86.3848ZM70.8516 87V76.7461H72.0723L72.375 78.0352C73.3581 77.1758 74.429 76.7461 75.5879 76.7461C77.0723 76.7461 78.0846 77.2148 78.625 78.1523C79.7383 77.2148 80.8678 76.7461 82.0137 76.7461C84.3704 76.7461 85.5488 78.0449 85.5488 80.6426V87H83.7422V80.5449C83.7422 79.015 83.0977 78.25 81.8086 78.25C80.8451 78.25 79.9434 78.6927 79.1035 79.5781V87H77.2969V80.5742C77.2969 79.0247 76.6589 78.25 75.3828 78.25C74.3672 78.25 73.459 78.6927 72.6582 79.5781V87H70.8516ZM89.8066 81.834C89.8066 84.3014 90.832 85.5352 92.8828 85.5352C94.9336 85.5352 95.959 84.3014 95.959 81.834C95.959 79.4186 94.9336 78.2109 92.8828 78.2109C90.832 78.2109 89.8066 79.4186 89.8066 81.834ZM88 81.873C88 78.4551 89.6276 76.7461 92.8828 76.7461C96.138 76.7461 97.7656 78.4551 97.7656 81.873C97.7656 85.2845 96.138 86.9902 92.8828 86.9902C89.6406 86.9902 88.013 85.2845 88 81.873ZM100.207 87V76.7461H101.428L101.75 78.0547C102.648 77.1823 103.729 76.7461 104.992 76.7461V78.25C103.768 78.25 102.775 78.6829 102.014 79.5488V87H100.207ZM111.037 76.7461C113.954 76.7461 115.412 78.1882 115.412 81.0723C115.412 81.4824 115.383 81.9219 115.324 82.3906H108.127C108.127 84.487 109.351 85.5352 111.799 85.5352C112.964 85.5352 113.999 85.4049 114.904 85.1445V86.6094C113.999 86.8698 112.899 87 111.604 87C108.081 87 106.32 85.252 106.32 81.7559C106.32 78.416 107.893 76.7461 111.037 76.7461ZM108.127 80.8867H113.674C113.635 79.0898 112.756 78.1914 111.037 78.1914C109.214 78.1914 108.244 79.0898 108.127 80.8867Z" fill="white"/>
<path d="M164 82.1422H164.607V82.7493H164V82.1422ZM130.002 82.1422L136.073 78.6371V85.6474L130.002 82.1422ZM164.607 70V82.1422H163.393V70H164.607ZM164 82.7493H135.466V81.5351H164V82.7493Z" fill="white"/>
</svg>
