<svg width="234" height="190" viewBox="0 0 234 190" fill="none" xmlns="http://www.w3.org/2000/svg">
<circle cx="117" cy="106" r="77.1522" fill="#F3702A" fill-opacity="0.2" stroke="#F3702A" stroke-width="13.6957"/>
<circle cx="117.001" cy="106" r="50.0198" stroke="#F3702A" stroke-width="13.7669"/>
<circle cx="117.152" cy="106.151" r="17.2326" fill="#F3702A" stroke="#F3702A" stroke-width="10.9995"/>
<path d="M112.416 106.669C114.18 108.433 117.039 108.433 118.803 106.669C120.566 104.905 120.566 102.046 118.803 100.282L112.416 106.669ZM118.803 100.282L49.8256 31.3051L43.4389 37.6918L112.416 106.669L118.803 100.282Z" fill="#FDE2D4"/>
<path d="M113.693 105.392C114.752 106.45 116.467 106.45 117.525 105.392C118.584 104.333 118.584 102.618 117.525 101.56L113.693 105.392ZM117.525 101.56L48.5483 32.5824L44.7162 36.4145L113.693 105.392L117.525 101.56Z" fill="black"/>
<path d="M55.5649 29.6131C59.358 39.0098 50.0108 48.3571 40.614 44.5639L13.7384 33.7152C12.1023 33.0548 12.1355 30.7271 13.7897 30.1136L23.1188 26.6536C29.8502 24.1571 35.1581 18.8492 37.6546 12.1179L41.1145 2.78876L40.0281 2.38582L41.1145 2.78876C41.728 1.13455 44.0558 1.10136 44.7162 2.73742L55.5649 29.6131Z" fill="#F3702A" stroke="black" stroke-width="2.31756"/>
</svg>
