<svg width="263" height="179" viewBox="0 0 263 179" fill="none" xmlns="http://www.w3.org/2000/svg">
<rect width="263" height="179" fill="black"/>
<rect x="33.5" y="151" width="16" height="8" rx="4" fill="#E6E4D5" fill-opacity="0.05"/>
<rect x="34" y="151.5" width="15" height="7" rx="3.5" stroke="#E6E4D5" stroke-opacity="0.05"/>
<rect x="53.5" y="142" width="16" height="17" rx="6" fill="#E6E4D5" fill-opacity="0.1"/>
<rect x="54" y="142.5" width="15" height="16" rx="5.5" stroke="#E6E4D5" stroke-opacity="0.1"/>
<rect x="73.5" y="128" width="16" height="31" rx="6" fill="#E6E4D5" fill-opacity="0.2"/>
<rect x="74" y="128.5" width="15" height="30" rx="5.5" stroke="#E6E4D5" stroke-opacity="0.2"/>
<rect x="93.5" y="111" width="16" height="48" rx="6" fill="#E6E4D5" fill-opacity="0.3"/>
<rect x="94" y="111.5" width="15" height="47" rx="5.5" stroke="white" stroke-opacity="0.3"/>
<rect x="113.5" y="97" width="16" height="62" rx="6" fill="#E6E4D5" fill-opacity="0.4"/>
<rect x="114" y="97.5" width="15" height="61" rx="5.5" stroke="white" stroke-opacity="0.4"/>
<rect x="133.5" y="81" width="16" height="78" rx="6" fill="#E6E4D5" fill-opacity="0.5"/>
<rect x="134" y="81.5" width="15" height="77" rx="5.5" stroke="white" stroke-opacity="0.5"/>
<rect x="153.5" y="63" width="16" height="96" rx="6" fill="#E6E4D5" fill-opacity="0.6"/>
<rect x="154" y="63.5" width="15" height="95" rx="5.5" stroke="white" stroke-opacity="0.6"/>
<rect x="173.5" y="46" width="16" height="113" rx="6" fill="#E6E4D5" fill-opacity="0.7"/>
<rect x="174" y="46.5" width="15" height="112" rx="5.5" stroke="white" stroke-opacity="0.7"/>
<rect x="193.5" y="34" width="16" height="125" rx="6" fill="#E6E4D5" fill-opacity="0.8"/>
<rect x="194" y="34.5" width="15" height="124" rx="5.5" stroke="white" stroke-opacity="0.8"/>
<rect x="214" y="20.5" width="15" height="138" rx="5.5" fill="#E6E4D5" stroke="#E6E4D5"/>
</svg>
