<svg width="119" height="36" viewBox="0 0 119 36" fill="none" xmlns="http://www.w3.org/2000/svg">
<g filter="url(#filter0_d_386_4763)">
<mask id="path-1-outside-1_386_4763" maskUnits="userSpaceOnUse" x="-2" y="-2" width="120" height="38" fill="black">
<rect fill="white" x="-2" y="-2" width="120" height="38"/>
<path d="M12.72 33.64C10.3733 33.64 8.10667 33.3733 5.92 32.84C3.73333 32.3067 1.93333 31.6133 0.52 30.76L3.56 23.88C4.89333 24.6533 6.37333 25.28 8 25.76C9.65333 26.2133 11.2533 26.44 12.8 26.44C13.7067 26.44 14.4133 26.3867 14.92 26.28C15.4533 26.1467 15.84 25.9733 16.08 25.76C16.32 25.52 16.44 25.24 16.44 24.92C16.44 24.4133 16.16 24.0133 15.6 23.72C15.04 23.4267 14.2933 23.1867 13.36 23C12.4533 22.7867 11.4533 22.5733 10.36 22.36C9.26667 22.12 8.16 21.8133 7.04 21.44C5.94667 21.0667 4.93333 20.5733 4 19.96C3.09333 19.3467 2.36 18.5467 1.8 17.56C1.24 16.5467 0.96 15.2933 0.96 13.8C0.96 12.0667 1.44 10.4933 2.4 9.08C3.38667 7.64 4.84 6.49333 6.76 5.64C8.70667 4.78667 11.12 4.36 14 4.36C15.8933 4.36 17.76 4.56 19.6 4.96C21.44 5.36 23.0933 5.97333 24.56 6.8L21.72 13.64C20.3333 12.9467 18.9867 12.4267 17.68 12.08C16.4 11.7333 15.1467 11.56 13.92 11.56C13.0133 11.56 12.2933 11.64 11.76 11.8C11.2267 11.96 10.84 12.1733 10.6 12.44C10.3867 12.7067 10.28 13 10.28 13.32C10.28 13.8 10.56 14.1867 11.12 14.48C11.68 14.7467 12.4133 14.9733 13.32 15.16C14.2533 15.3467 15.2667 15.5467 16.36 15.76C17.48 15.9733 18.5867 16.2667 19.68 16.64C20.7733 17.0133 21.7733 17.5067 22.68 18.12C23.6133 18.7333 24.36 19.5333 24.92 20.52C25.48 21.5067 25.76 22.7333 25.76 24.2C25.76 25.9067 25.2667 27.48 24.28 28.92C23.32 30.3333 21.88 31.48 19.96 32.36C18.04 33.2133 15.6267 33.64 12.72 33.64ZM35.8491 29.4L36.0491 18.76L43.6091 11.12H54.2891L44.2891 21.6L39.7691 25.24L35.8491 29.4ZM28.2891 33V3.32H37.3291V33H28.2891ZM44.0891 33L38.0891 25.4L43.6491 18.56L55.0091 33H44.0891ZM56.8047 33V11.12H65.8447V33H56.8047ZM61.3247 9.36C59.6714 9.36 58.3514 8.92 57.3647 8.04C56.378 7.16 55.8847 6.06667 55.8847 4.76C55.8847 3.45333 56.378 2.36 57.3647 1.48C58.3514 0.599998 59.6714 0.159998 61.3247 0.159998C62.978 0.159998 64.298 0.573332 65.2847 1.4C66.2714 2.22666 66.7647 3.29333 66.7647 4.6C66.7647 5.98666 66.2714 7.13333 65.2847 8.04C64.298 8.92 62.978 9.36 61.3247 9.36ZM69.8516 33V3.32H78.8916V33H69.8516ZM82.8984 33V3.32H91.9384V33H82.8984ZM104.505 33.4C102.639 33.4 100.799 33.2 98.9853 32.8C97.172 32.4 95.7053 31.88 94.5853 31.24L97.0653 25.28C98.1053 25.8933 99.3053 26.3733 100.665 26.72C102.052 27.0667 103.399 27.24 104.705 27.24C105.799 27.24 106.532 27.1467 106.905 26.96C107.305 26.7733 107.505 26.52 107.505 26.2C107.505 25.88 107.279 25.6533 106.825 25.52C106.372 25.36 105.772 25.24 105.025 25.16C104.279 25.08 103.452 24.9867 102.545 24.88C101.665 24.7467 100.772 24.56 99.8653 24.32C98.9586 24.08 98.132 23.72 97.3853 23.24C96.6386 22.76 96.0386 22.12 95.5853 21.32C95.132 20.4933 94.9053 19.4533 94.9053 18.2C94.9053 16.8133 95.3186 15.56 96.1453 14.44C96.9986 13.32 98.252 12.4267 99.9053 11.76C101.585 11.0667 103.652 10.72 106.105 10.72C107.705 10.72 109.305 10.8667 110.905 11.16C112.505 11.4533 113.879 11.9067 115.025 12.52L112.545 18.48C111.425 17.8667 110.319 17.4533 109.225 17.24C108.159 17 107.159 16.88 106.225 16.88C105.079 16.88 104.292 16.9867 103.865 17.2C103.465 17.4133 103.265 17.6533 103.265 17.92C103.265 18.24 103.492 18.48 103.945 18.64C104.399 18.8 104.999 18.92 105.745 19C106.492 19.08 107.305 19.1867 108.185 19.32C109.092 19.4267 109.985 19.6133 110.865 19.88C111.772 20.12 112.599 20.48 113.345 20.96C114.092 21.44 114.692 22.0933 115.145 22.92C115.599 23.72 115.825 24.7467 115.825 26C115.825 27.3067 115.412 28.5333 114.585 29.68C113.759 30.8 112.505 31.7067 110.825 32.4C109.145 33.0667 107.039 33.4 104.505 33.4Z"/>
</mask>
<path d="M12.72 33.64C10.3733 33.64 8.10667 33.3733 5.92 32.84C3.73333 32.3067 1.93333 31.6133 0.52 30.76L3.56 23.88C4.89333 24.6533 6.37333 25.28 8 25.76C9.65333 26.2133 11.2533 26.44 12.8 26.44C13.7067 26.44 14.4133 26.3867 14.92 26.28C15.4533 26.1467 15.84 25.9733 16.08 25.76C16.32 25.52 16.44 25.24 16.44 24.92C16.44 24.4133 16.16 24.0133 15.6 23.72C15.04 23.4267 14.2933 23.1867 13.36 23C12.4533 22.7867 11.4533 22.5733 10.36 22.36C9.26667 22.12 8.16 21.8133 7.04 21.44C5.94667 21.0667 4.93333 20.5733 4 19.96C3.09333 19.3467 2.36 18.5467 1.8 17.56C1.24 16.5467 0.96 15.2933 0.96 13.8C0.96 12.0667 1.44 10.4933 2.4 9.08C3.38667 7.64 4.84 6.49333 6.76 5.64C8.70667 4.78667 11.12 4.36 14 4.36C15.8933 4.36 17.76 4.56 19.6 4.96C21.44 5.36 23.0933 5.97333 24.56 6.8L21.72 13.64C20.3333 12.9467 18.9867 12.4267 17.68 12.08C16.4 11.7333 15.1467 11.56 13.92 11.56C13.0133 11.56 12.2933 11.64 11.76 11.8C11.2267 11.96 10.84 12.1733 10.6 12.44C10.3867 12.7067 10.28 13 10.28 13.32C10.28 13.8 10.56 14.1867 11.12 14.48C11.68 14.7467 12.4133 14.9733 13.32 15.16C14.2533 15.3467 15.2667 15.5467 16.36 15.76C17.48 15.9733 18.5867 16.2667 19.68 16.64C20.7733 17.0133 21.7733 17.5067 22.68 18.12C23.6133 18.7333 24.36 19.5333 24.92 20.52C25.48 21.5067 25.76 22.7333 25.76 24.2C25.76 25.9067 25.2667 27.48 24.28 28.92C23.32 30.3333 21.88 31.48 19.96 32.36C18.04 33.2133 15.6267 33.64 12.72 33.64ZM35.8491 29.4L36.0491 18.76L43.6091 11.12H54.2891L44.2891 21.6L39.7691 25.24L35.8491 29.4ZM28.2891 33V3.32H37.3291V33H28.2891ZM44.0891 33L38.0891 25.4L43.6491 18.56L55.0091 33H44.0891ZM56.8047 33V11.12H65.8447V33H56.8047ZM61.3247 9.36C59.6714 9.36 58.3514 8.92 57.3647 8.04C56.378 7.16 55.8847 6.06667 55.8847 4.76C55.8847 3.45333 56.378 2.36 57.3647 1.48C58.3514 0.599998 59.6714 0.159998 61.3247 0.159998C62.978 0.159998 64.298 0.573332 65.2847 1.4C66.2714 2.22666 66.7647 3.29333 66.7647 4.6C66.7647 5.98666 66.2714 7.13333 65.2847 8.04C64.298 8.92 62.978 9.36 61.3247 9.36ZM69.8516 33V3.32H78.8916V33H69.8516ZM82.8984 33V3.32H91.9384V33H82.8984ZM104.505 33.4C102.639 33.4 100.799 33.2 98.9853 32.8C97.172 32.4 95.7053 31.88 94.5853 31.24L97.0653 25.28C98.1053 25.8933 99.3053 26.3733 100.665 26.72C102.052 27.0667 103.399 27.24 104.705 27.24C105.799 27.24 106.532 27.1467 106.905 26.96C107.305 26.7733 107.505 26.52 107.505 26.2C107.505 25.88 107.279 25.6533 106.825 25.52C106.372 25.36 105.772 25.24 105.025 25.16C104.279 25.08 103.452 24.9867 102.545 24.88C101.665 24.7467 100.772 24.56 99.8653 24.32C98.9586 24.08 98.132 23.72 97.3853 23.24C96.6386 22.76 96.0386 22.12 95.5853 21.32C95.132 20.4933 94.9053 19.4533 94.9053 18.2C94.9053 16.8133 95.3186 15.56 96.1453 14.44C96.9986 13.32 98.252 12.4267 99.9053 11.76C101.585 11.0667 103.652 10.72 106.105 10.72C107.705 10.72 109.305 10.8667 110.905 11.16C112.505 11.4533 113.879 11.9067 115.025 12.52L112.545 18.48C111.425 17.8667 110.319 17.4533 109.225 17.24C108.159 17 107.159 16.88 106.225 16.88C105.079 16.88 104.292 16.9867 103.865 17.2C103.465 17.4133 103.265 17.6533 103.265 17.92C103.265 18.24 103.492 18.48 103.945 18.64C104.399 18.8 104.999 18.92 105.745 19C106.492 19.08 107.305 19.1867 108.185 19.32C109.092 19.4267 109.985 19.6133 110.865 19.88C111.772 20.12 112.599 20.48 113.345 20.96C114.092 21.44 114.692 22.0933 115.145 22.92C115.599 23.72 115.825 24.7467 115.825 26C115.825 27.3067 115.412 28.5333 114.585 29.68C113.759 30.8 112.505 31.7067 110.825 32.4C109.145 33.0667 107.039 33.4 104.505 33.4Z" fill="black"/>
<path d="M5.92 32.84L6.28361 31.3492L5.92 32.84ZM0.52 30.76L-0.883571 30.1398C-1.19569 30.8462 -0.934228 31.6745 -0.273127 32.0736L0.52 30.76ZM3.56 23.88L4.32988 22.5526C3.95258 22.3338 3.49998 22.2859 3.08521 22.4208C2.67045 22.5558 2.33271 22.8609 2.15643 23.2598L3.56 23.88ZM8 25.76L7.56571 27.2317C7.57519 27.2345 7.5847 27.2372 7.59423 27.2399L8 25.76ZM14.92 26.28L15.2361 27.7816C15.2549 27.7776 15.2736 27.7733 15.2922 27.7687L14.92 26.28ZM16.08 25.76L17.0995 26.9069C17.1219 26.8869 17.1438 26.8663 17.165 26.845L16.08 25.76ZM15.6 23.72L14.888 25.0793L14.888 25.0793L15.6 23.72ZM13.36 23L13.0085 24.4937C13.0253 24.4976 13.0422 24.5013 13.0591 24.5047L13.36 23ZM10.36 22.36L10.031 23.8588C10.0427 23.8614 10.0544 23.8638 10.0661 23.8661L10.36 22.36ZM7.04 21.44L6.54413 22.8922L6.55475 22.8957L7.04 21.44ZM4 19.96L3.14021 21.231C3.14588 21.2348 3.15158 21.2386 3.1573 21.2424L4 19.96ZM1.8 17.56L0.456957 18.3022C0.459769 18.3073 0.462611 18.3124 0.465482 18.3174L1.8 17.56ZM2.4 9.08L1.13415 8.21265L1.13065 8.2178L2.4 9.08ZM6.76 5.64L6.14393 4.2346L6.13679 4.23777L6.76 5.64ZM19.6 4.96L19.274 6.45946L19.274 6.45946L19.6 4.96ZM24.56 6.8L25.9772 7.38842C26.275 6.67119 25.99 5.84455 25.3135 5.46323L24.56 6.8ZM21.72 13.64L21.0338 15.0125C21.4145 15.2028 21.8571 15.2265 22.256 15.0778C22.6548 14.9292 22.974 14.6215 23.1372 14.2284L21.72 13.64ZM17.68 12.08L17.2789 13.5611L17.2865 13.5632L17.68 12.08ZM11.76 11.8L11.3191 10.3302L11.3191 10.3302L11.76 11.8ZM10.6 12.44L9.45943 11.4135C9.43955 11.4356 9.42033 11.4582 9.40177 11.4814L10.6 12.44ZM11.12 14.48L10.408 15.8393C10.4253 15.8483 10.4427 15.857 10.4603 15.8654L11.12 14.48ZM13.32 15.16L13.0106 16.663L13.0191 16.6647L13.32 15.16ZM16.36 15.76L16.0661 17.2661L16.0729 17.2674L16.36 15.76ZM19.68 16.64L19.1841 18.0922L19.1841 18.0922L19.68 16.64ZM22.68 18.12L21.8202 19.391C21.8259 19.3948 21.8316 19.3986 21.8373 19.4024L22.68 18.12ZM24.92 20.52L23.5855 21.2774L23.5855 21.2774L24.92 20.52ZM24.28 28.92L23.0141 28.0527L23.0107 28.0578L24.28 28.92ZM19.96 32.36L20.5832 33.7622C20.5886 33.7598 20.594 33.7574 20.5993 33.7549L19.96 32.36ZM12.72 32.1055C10.4906 32.1055 8.34628 31.8523 6.28361 31.3492L5.55639 34.3308C7.86705 34.8944 10.256 35.1745 12.72 35.1745V32.1055ZM6.28361 31.3492C4.1973 30.8404 2.55461 30.196 1.31313 29.4464L-0.273127 32.0736C1.31206 33.0307 3.26936 33.773 5.55639 34.3308L6.28361 31.3492ZM1.92357 31.3802L4.96357 24.5002L2.15643 23.2598L-0.883571 30.1398L1.92357 31.3802ZM2.79012 25.2074C4.23914 26.0478 5.83342 26.7206 7.56571 27.2317L8.43429 24.2883C6.91324 23.8394 5.54753 23.2589 4.32988 22.5526L2.79012 25.2074ZM7.59423 27.2399C9.36564 27.7256 11.1023 27.9745 12.8 27.9745V24.9055C11.4043 24.9055 9.94103 24.7011 8.40577 24.2801L7.59423 27.2399ZM12.8 27.9745C13.7465 27.9745 14.5761 27.9205 15.2361 27.7816L14.6039 24.7784C14.2506 24.8528 13.6669 24.9055 12.8 24.9055V27.9745ZM15.2922 27.7687C15.9169 27.6125 16.5864 27.3629 17.0995 26.9069L15.0605 24.6131C15.088 24.5887 15.0757 24.6079 14.9823 24.6498C14.8915 24.6905 14.7512 24.7405 14.5478 24.7913L15.2922 27.7687ZM17.165 26.845C17.6734 26.3366 17.9745 25.6736 17.9745 24.92H14.9055C14.9055 24.8829 14.9136 24.8261 14.9396 24.7655C14.9648 24.7067 14.9927 24.6773 14.995 24.675L17.165 26.845ZM17.9745 24.92C17.9745 23.6922 17.2289 22.841 16.312 22.3607L14.888 25.0793C15.0126 25.1446 15.009 25.1715 14.9729 25.12C14.9541 25.0931 14.9348 25.0563 14.9213 25.0128C14.9081 24.9698 14.9055 24.9364 14.9055 24.92H17.9745ZM16.312 22.3607C15.5749 21.9746 14.6729 21.6977 13.6609 21.4953L13.0591 24.5047C13.9138 24.6756 14.5051 24.8787 14.888 25.0793L16.312 22.3607ZM13.7115 21.5063C12.7824 21.2877 11.7629 21.0703 10.6539 20.8539L10.0661 23.8661C11.1438 24.0764 12.1243 24.2856 13.0085 24.4937L13.7115 21.5063ZM10.689 20.8612C9.65125 20.6334 8.59673 20.3414 7.52525 19.9843L6.55475 22.8957C7.72327 23.2852 8.88208 23.6066 10.031 23.8588L10.689 20.8612ZM7.53586 19.9878C6.5606 19.6548 5.66436 19.2176 4.8427 18.6776L3.1573 21.2424C4.20231 21.9291 5.33273 22.4785 6.54414 22.8922L7.53586 19.9878ZM4.85979 18.689C4.15601 18.2129 3.5823 17.5915 3.13452 16.8026L0.465482 18.3174C1.1377 19.5018 2.03066 20.4804 3.14021 21.231L4.85979 18.689ZM3.14304 16.8178C2.73985 16.0882 2.49448 15.107 2.49448 13.8H-0.574483C-0.574483 15.4796 -0.259853 17.0051 0.456957 18.3022L3.14304 16.8178ZM2.49448 13.8C2.49448 12.3694 2.88477 11.0973 3.66935 9.9422L1.13065 8.2178C-0.00476803 9.88939 -0.574483 11.764 -0.574483 13.8H2.49448ZM3.66584 9.94734C4.46195 8.78545 5.66963 7.80382 7.38321 7.04223L6.13679 4.23777C4.01037 5.18284 2.31138 6.49455 1.13416 8.21266L3.66584 9.94734ZM7.37606 7.04539C9.07261 6.30169 11.2611 5.89448 14 5.89448V2.82552C10.9789 2.82552 8.34073 3.27164 6.14394 4.23461L7.37606 7.04539ZM14 5.89448C15.7843 5.89448 17.5417 6.08287 19.274 6.45946L19.926 3.46054C17.9783 3.03713 16.0023 2.82552 14 2.82552V5.89448ZM19.274 6.45946C20.9817 6.8307 22.4882 7.3937 23.8065 8.13677L25.3135 5.46323C23.6985 4.55296 21.8983 3.8893 19.926 3.46054L19.274 6.45946ZM23.1428 6.21158L20.3028 13.0516L23.1372 14.2284L25.9772 7.38842L23.1428 6.21158ZM22.4062 12.2675C20.9394 11.5341 19.4947 10.9739 18.0735 10.5968L17.2865 13.5632C18.4786 13.8794 19.7273 14.3593 21.0338 15.0125L22.4062 12.2675ZM18.0811 10.5989C16.6809 10.2196 15.2926 10.0255 13.92 10.0255V13.0945C15.0007 13.0945 16.1191 13.247 17.2789 13.5611L18.0811 10.5989ZM13.92 10.0255C12.9452 10.0255 12.0566 10.109 11.3191 10.3302L12.2009 13.2698C12.5301 13.171 13.0815 13.0945 13.92 13.0945V10.0255ZM11.3191 10.3302C10.6528 10.5301 9.96433 10.8525 9.45943 11.4135L11.7406 13.4665C11.7231 13.4859 11.7345 13.4659 11.8113 13.4236C11.8883 13.381 12.0129 13.3262 12.2009 13.2698L11.3191 10.3302ZM9.40177 11.4814C8.98646 12.0005 8.74552 12.6272 8.74552 13.32H11.8145C11.8145 13.3257 11.814 13.3354 11.8118 13.3479C11.8096 13.3605 11.8062 13.373 11.8021 13.3844C11.7932 13.4089 11.7862 13.4137 11.7982 13.3986L9.40177 11.4814ZM8.74552 13.32C8.74552 14.5546 9.52907 15.3789 10.408 15.8393L11.832 13.1207C11.6968 13.0499 11.6962 13.0194 11.7328 13.07C11.7527 13.0975 11.7758 13.1385 11.7927 13.1908C11.8095 13.2429 11.8145 13.2885 11.8145 13.32H8.74552ZM10.4603 15.8654C11.172 16.2044 12.036 16.4623 13.0106 16.663L13.6294 13.657C12.7907 13.4844 12.188 13.289 11.7797 13.0946L10.4603 15.8654ZM13.0191 16.6647C13.9551 16.8519 14.9708 17.0524 16.0661 17.2661L16.6539 14.2539C15.5625 14.041 14.5516 13.8414 13.6209 13.6553L13.0191 16.6647ZM16.0729 17.2674C17.1212 17.4671 18.1581 17.7418 19.1841 18.0922L20.1759 15.1878C19.0152 14.7915 17.8388 14.4796 16.6471 14.2526L16.0729 17.2674ZM19.1841 18.0922C20.1558 18.4239 21.0324 18.858 21.8202 19.391L23.5398 16.849C22.5143 16.1553 21.3909 15.6027 20.1759 15.1878L19.1841 18.0922ZM21.8373 19.4024C22.5641 19.88 23.1435 20.4988 23.5855 21.2774L26.2545 19.7626C25.5765 18.5679 24.6626 17.5867 23.5227 16.8376L21.8373 19.4024ZM23.5855 21.2774C23.9815 21.9751 24.2255 22.923 24.2255 24.2H27.2945C27.2945 22.5437 26.9785 21.0382 26.2545 19.7626L23.5855 21.2774ZM24.2255 24.2C24.2255 25.5896 23.8301 26.8618 23.0142 28.0527L25.5458 29.7873C26.7033 28.0982 27.2945 26.2237 27.2945 24.2H24.2255ZM23.0107 28.0578C22.2414 29.1903 21.0459 30.1743 19.3207 30.9651L20.5993 33.7549C22.7141 32.7857 24.3986 31.4763 25.5494 29.7822L23.0107 28.0578ZM19.3368 30.9578C17.673 31.6973 15.4891 32.1055 12.72 32.1055V35.1745C15.7643 35.1745 18.4071 34.7294 20.5832 33.7622L19.3368 30.9578ZM35.8491 29.4L34.3149 29.3712C34.3029 30.0053 34.6823 30.5814 35.2696 30.8209C35.8568 31.0604 36.5309 30.9139 36.9658 30.4524L35.8491 29.4ZM36.0491 18.76L34.9583 17.6807C34.6811 17.9609 34.5223 18.337 34.5149 18.7312L36.0491 18.76ZM43.6091 11.12V9.58551C43.1993 9.58551 42.8065 9.74941 42.5183 10.0407L43.6091 11.12ZM54.2891 11.12L55.3992 12.1793C55.8232 11.735 55.9414 11.0808 55.6998 10.5162C55.4581 9.95164 54.9032 9.58551 54.2891 9.58551V11.12ZM44.2891 21.6L45.2515 22.7951C45.3037 22.7531 45.353 22.7078 45.3992 22.6593L44.2891 21.6ZM39.7691 25.24L38.8066 24.0449C38.752 24.0889 38.7004 24.1366 38.6523 24.1876L39.7691 25.24ZM28.2891 33H26.7546C26.7546 33.8475 27.4416 34.5345 28.2891 34.5345V33ZM28.2891 3.32V1.78552C27.4416 1.78552 26.7546 2.47253 26.7546 3.32H28.2891ZM37.3291 3.32H38.8635C38.8635 2.47253 38.1765 1.78552 37.3291 1.78552V3.32ZM37.3291 33V34.5345C38.1765 34.5345 38.8635 33.8475 38.8635 33H37.3291ZM44.0891 33L42.8847 33.9508C43.1757 34.3194 43.6194 34.5345 44.0891 34.5345V33ZM38.0891 25.4L36.8983 24.4321C36.4452 24.9896 36.4395 25.7869 36.8847 26.3508L38.0891 25.4ZM43.6491 18.56L44.8551 17.6112C44.5668 17.2448 44.1275 17.0293 43.6613 17.0256C43.1951 17.0218 42.7524 17.2303 42.4583 17.5921L43.6491 18.56ZM55.0091 33V34.5345C55.5967 34.5345 56.1327 34.1989 56.3894 33.6704C56.6461 33.1418 56.5784 32.513 56.2151 32.0512L55.0091 33ZM37.3833 29.4288L37.5833 18.7888L34.5149 18.7312L34.3149 29.3712L37.3833 29.4288ZM37.1398 19.8393L44.6998 12.1993L42.5183 10.0407L34.9583 17.6807L37.1398 19.8393ZM43.6091 12.6545H54.2891V9.58551H43.6091V12.6545ZM53.1789 10.0607L43.1789 20.5407L45.3992 22.6593L55.3992 12.1793L53.1789 10.0607ZM43.3266 20.4049L38.8066 24.0449L40.7315 26.4351L45.2515 22.7951L43.3266 20.4049ZM38.6523 24.1876L34.7323 28.3476L36.9658 30.4524L40.8858 26.2924L38.6523 24.1876ZM29.8235 33V3.32H26.7546V33H29.8235ZM28.2891 4.85448H37.3291V1.78552H28.2891V4.85448ZM35.7946 3.32V33H38.8635V3.32H35.7946ZM37.3291 31.4655H28.2891V34.5345H37.3291V31.4655ZM45.2935 32.0492L39.2935 24.4492L36.8847 26.3508L42.8847 33.9508L45.2935 32.0492ZM39.2798 26.3679L44.8398 19.5279L42.4583 17.5921L36.8983 24.4321L39.2798 26.3679ZM42.4431 19.5088L53.8031 33.9488L56.2151 32.0512L44.8551 17.6112L42.4431 19.5088ZM55.0091 31.4655H44.0891V34.5345H55.0091V31.4655ZM56.8047 33H55.2702C55.2702 33.8475 55.9572 34.5345 56.8047 34.5345V33ZM56.8047 11.12V9.58551C55.9572 9.58551 55.2702 10.2725 55.2702 11.12H56.8047ZM65.8447 11.12H67.3792C67.3792 10.2725 66.6922 9.58551 65.8447 9.58551V11.12ZM65.8447 33V34.5345C66.6922 34.5345 67.3792 33.8475 67.3792 33H65.8447ZM57.3647 8.04L58.3861 6.89482L58.3861 6.89482L57.3647 8.04ZM57.3647 1.48L58.3861 2.62518L58.3861 2.62518L57.3647 1.48ZM65.2847 1.4L64.2992 2.57621L64.2992 2.57621L65.2847 1.4ZM65.2847 8.04L66.3061 9.18518C66.3117 9.18012 66.3174 9.17502 66.323 9.16988L65.2847 8.04ZM58.3392 33V11.12H55.2702V33H58.3392ZM56.8047 12.6545H65.8447V9.58551H56.8047V12.6545ZM64.3102 11.12V33H67.3792V11.12H64.3102ZM65.8447 31.4655H56.8047V34.5345H65.8447V31.4655ZM61.3247 7.82552C59.9501 7.82552 59.0262 7.46573 58.3861 6.89482L56.3433 9.18518C57.6765 10.3743 59.3926 10.8945 61.3247 10.8945V7.82552ZM58.3861 6.89482C57.7214 6.30204 57.4192 5.62338 57.4192 4.76H54.3502C54.3502 6.50995 55.0346 8.01796 56.3433 9.18518L58.3861 6.89482ZM57.4192 4.76C57.4192 3.89662 57.7214 3.21796 58.3861 2.62518L56.3433 0.33482C55.0346 1.50203 54.3502 3.01005 54.3502 4.76H57.4192ZM58.3861 2.62518C59.0262 2.05426 59.9501 1.69448 61.3247 1.69448V-1.37448C59.3926 -1.37448 57.6765 -0.854268 56.3433 0.33482L58.3861 2.62518ZM61.3247 1.69448C62.7222 1.69448 63.6595 2.04027 64.2992 2.57621L66.2702 0.223786C64.9365 -0.893606 63.2338 -1.37448 61.3247 -1.37448V1.69448ZM64.2992 2.57621C64.9319 3.10626 65.2302 3.73937 65.2302 4.6H68.2992C68.2992 2.84729 67.6109 1.34707 66.2702 0.223786L64.2992 2.57621ZM65.2302 4.6C65.2302 5.57414 64.9046 6.30531 64.2464 6.91012L66.323 9.16988C67.6381 7.96135 68.2992 6.39919 68.2992 4.6H65.2302ZM64.2633 6.89482C63.6232 7.46573 62.6993 7.82552 61.3247 7.82552V10.8945C63.2567 10.8945 64.9728 10.3743 66.3061 9.18518L64.2633 6.89482ZM69.8516 33H68.3171C68.3171 33.8475 69.0041 34.5345 69.8516 34.5345V33ZM69.8516 3.32V1.78552C69.0041 1.78552 68.3171 2.47253 68.3171 3.32H69.8516ZM78.8916 3.32H80.426C80.426 2.47253 79.739 1.78552 78.8916 1.78552V3.32ZM78.8916 33V34.5345C79.739 34.5345 80.426 33.8475 80.426 33H78.8916ZM71.386 33V3.32H68.3171V33H71.386ZM69.8516 4.85448H78.8916V1.78552H69.8516V4.85448ZM77.3571 3.32V33H80.426V3.32H77.3571ZM78.8916 31.4655H69.8516V34.5345H78.8916V31.4655ZM82.8984 33H81.364C81.364 33.8475 82.051 34.5345 82.8984 34.5345V33ZM82.8984 3.32V1.78552C82.051 1.78552 81.364 2.47253 81.364 3.32H82.8984ZM91.9384 3.32H93.4729C93.4729 2.47253 92.7859 1.78552 91.9384 1.78552V3.32ZM91.9384 33V34.5345C92.7859 34.5345 93.4729 33.8475 93.4729 33H91.9384ZM84.4329 33V3.32H81.364V33H84.4329ZM82.8984 4.85448H91.9384V1.78552H82.8984V4.85448ZM90.404 3.32V33H93.4729V3.32H90.404ZM91.9384 31.4655H82.8984V34.5345H91.9384V31.4655ZM98.9853 32.8L98.6548 34.2985L98.9853 32.8ZM94.5853 31.24L93.1686 30.6505C92.8714 31.3647 93.1523 32.1885 93.824 32.5723L94.5853 31.24ZM97.0653 25.28L97.8448 23.9582C97.4624 23.7327 97.0011 23.6839 96.58 23.8243C96.1588 23.9647 95.8191 24.2806 95.6486 24.6905L97.0653 25.28ZM100.665 26.72L100.286 28.207L100.293 28.2087L100.665 26.72ZM106.905 26.96L106.256 25.5695C106.244 25.5753 106.231 25.5813 106.219 25.5875L106.905 26.96ZM106.825 25.52L106.315 26.967C106.34 26.9761 106.366 26.9844 106.392 26.9921L106.825 25.52ZM102.545 24.88L102.315 26.3972C102.332 26.3997 102.349 26.402 102.366 26.404L102.545 24.88ZM99.8653 24.32L99.4726 25.8034L99.4726 25.8034L99.8653 24.32ZM97.3853 23.24L96.5555 24.5308L96.5555 24.5308L97.3853 23.24ZM95.5853 21.32L94.2399 22.0578C94.2433 22.0641 94.2468 22.0703 94.2503 22.0765L95.5853 21.32ZM96.1453 14.44L94.9247 13.51C94.92 13.5162 94.9153 13.5225 94.9107 13.5287L96.1453 14.44ZM99.9053 11.76L100.479 13.1832L100.491 13.1784L99.9053 11.76ZM110.905 11.16L110.629 12.6693L110.629 12.6693L110.905 11.16ZM115.025 12.52L116.442 13.1095C116.746 12.3801 116.446 11.5395 115.749 11.1669L115.025 12.52ZM112.545 18.48L111.808 19.8259C112.19 20.035 112.643 20.0721 113.054 19.9278C113.465 19.7835 113.795 19.4715 113.962 19.0695L112.545 18.48ZM109.225 17.24L108.888 18.7371C108.903 18.7403 108.917 18.7433 108.931 18.7461L109.225 17.24ZM103.865 17.2L103.179 15.8275C103.167 15.8335 103.155 15.8397 103.143 15.846L103.865 17.2ZM103.945 18.64L104.456 17.193L104.456 17.193L103.945 18.64ZM105.745 19L105.909 17.4742L105.909 17.4742L105.745 19ZM108.185 19.32L107.955 20.8372C107.972 20.8397 107.989 20.842 108.006 20.844L108.185 19.32ZM110.865 19.88L110.42 21.3485C110.438 21.3538 110.455 21.3588 110.473 21.3634L110.865 19.88ZM113.345 20.96L114.175 19.6692L114.175 19.6692L113.345 20.96ZM115.145 22.92L113.8 23.6578C113.803 23.6641 113.807 23.6703 113.81 23.6765L115.145 22.92ZM114.585 29.68L115.82 30.5913C115.823 30.5866 115.827 30.582 115.83 30.5774L114.585 29.68ZM110.825 32.4L111.391 33.8263C111.398 33.8237 111.404 33.8211 111.411 33.8184L110.825 32.4ZM104.505 31.8655C102.749 31.8655 101.02 31.6775 99.3159 31.3015L98.6548 34.2985C100.577 34.7225 102.528 34.9345 104.505 34.9345V31.8655ZM99.3159 31.3015C97.5933 30.9216 96.2874 30.4453 95.3466 29.9077L93.824 32.5723C95.1232 33.3147 96.7507 33.8784 98.6548 34.2985L99.3159 31.3015ZM96.002 31.8295L98.482 25.8695L95.6486 24.6905L93.1686 30.6505L96.002 31.8295ZM96.2858 26.6018C97.4692 27.2996 98.8079 27.8301 100.286 28.2069L101.044 25.2331C99.8027 24.9166 98.7415 24.487 97.8448 23.9582L96.2858 26.6018ZM100.293 28.2087C101.79 28.5829 103.262 28.7745 104.705 28.7745V25.7055C103.535 25.7055 102.314 25.5504 101.037 25.2313L100.293 28.2087ZM104.705 28.7745C105.289 28.7745 105.816 28.7499 106.269 28.6922C106.696 28.6378 107.175 28.5409 107.592 28.3325L106.219 25.5875C106.263 25.5658 106.188 25.6088 105.882 25.6478C105.602 25.6834 105.215 25.7055 104.705 25.7055V28.7745ZM107.554 28.3505C108.255 28.0236 109.04 27.3418 109.04 26.2H105.971C105.971 26.1173 105.984 26.0215 106.019 25.9221C106.054 25.8228 106.102 25.7412 106.151 25.6792C106.243 25.5619 106.315 25.5421 106.256 25.5695L107.554 28.3505ZM109.04 26.2C109.04 25.6322 108.821 25.1055 108.42 24.705C108.06 24.3442 107.623 24.1551 107.258 24.0479L106.392 26.9921C106.481 27.0182 106.384 27.0091 106.25 26.875C106.177 26.8013 106.1 26.6979 106.045 26.5652C105.99 26.4325 105.971 26.3051 105.971 26.2H109.04ZM107.336 24.073C106.726 23.8577 105.996 23.7207 105.189 23.6342L104.862 26.6858C105.548 26.7593 106.018 26.8623 106.315 26.967L107.336 24.073ZM105.189 23.6342C104.448 23.5549 103.627 23.4622 102.725 23.356L102.366 26.404C103.277 26.5111 104.109 26.6051 104.862 26.6858L105.189 23.6342ZM102.775 23.3628C101.953 23.2382 101.114 23.0632 100.258 22.8366L99.4726 25.8034C100.43 26.0568 101.378 26.2551 102.315 26.3972L102.775 23.3628ZM100.258 22.8366C99.4974 22.6353 98.8196 22.3378 98.2151 21.9492L96.5555 24.5308C97.4444 25.1022 98.4199 25.5247 99.4726 25.8034L100.258 22.8366ZM98.2151 21.9492C97.6853 21.6086 97.2556 21.1551 96.9203 20.5635L94.2503 22.0765C94.8217 23.0849 95.592 23.9114 96.5555 24.5308L98.2151 21.9492ZM96.9308 20.5822C96.6356 20.044 96.4398 19.2773 96.4398 18.2H93.3708C93.3708 19.6294 93.6283 20.9427 94.2399 22.0578L96.9308 20.5822ZM96.4398 18.2C96.4398 17.1427 96.7472 16.2085 97.3799 15.3513L94.9107 13.5287C93.8901 14.9115 93.3708 16.484 93.3708 18.2H96.4398ZM97.3659 15.37C98.0129 14.5208 99.0146 13.7737 100.479 13.1831L99.3315 10.3369C97.4893 11.0797 95.9844 12.1192 94.9247 13.51L97.3659 15.37ZM100.491 13.1784C101.932 12.5834 103.787 12.2545 106.105 12.2545V9.18552C103.517 9.18552 101.238 9.54988 99.3199 10.3416L100.491 13.1784ZM106.105 12.2545C107.611 12.2545 109.118 12.3924 110.629 12.6693L111.182 9.65067C109.492 9.34088 107.8 9.18552 106.105 9.18552V12.2545ZM110.629 12.6693C112.11 12.9409 113.325 13.3507 114.302 13.8731L115.749 11.1669C114.432 10.4626 112.901 9.96578 111.182 9.65067L110.629 12.6693ZM113.609 11.9305L111.129 17.8905L113.962 19.0695L116.442 13.1095L113.609 11.9305ZM113.282 17.1341C112.044 16.4558 110.788 15.9816 109.519 15.7339L108.931 18.7461C109.849 18.9251 110.807 19.2776 111.808 19.8259L113.282 17.1341ZM109.562 15.7429C108.403 15.4822 107.289 15.3455 106.225 15.3455V18.4145C107.028 18.4145 107.914 18.5178 108.888 18.7371L109.562 15.7429ZM106.225 15.3455C105.61 15.3455 105.053 15.3738 104.569 15.4394C104.104 15.5025 103.61 15.6119 103.179 15.8275L104.552 18.5725C104.547 18.5748 104.66 18.5242 104.981 18.4806C105.284 18.4396 105.693 18.4145 106.225 18.4145V15.3455ZM103.143 15.846C102.608 16.1312 101.731 16.7671 101.731 17.92H104.8C104.8 18.2054 104.683 18.4163 104.594 18.5224C104.524 18.6068 104.49 18.6059 104.587 18.554L103.143 15.846ZM101.731 17.92C101.731 18.4853 101.947 18.9987 102.32 19.3936C102.659 19.7533 103.075 19.9602 103.435 20.087L104.456 17.193C104.362 17.1598 104.438 17.1667 104.551 17.2864C104.613 17.3523 104.681 17.4465 104.73 17.5693C104.78 17.6929 104.8 17.8145 104.8 17.92H101.731ZM103.435 20.087C104.045 20.3023 104.775 20.4393 105.582 20.5257L105.909 17.4742C105.222 17.4007 104.753 17.2977 104.456 17.193L103.435 20.087ZM105.582 20.5257C106.303 20.603 107.094 20.7066 107.955 20.8372L108.415 17.8028C107.517 17.6667 106.681 17.557 105.909 17.4742L105.582 20.5257ZM108.006 20.844C108.822 20.94 109.626 21.108 110.42 21.3485L111.31 18.4115C110.344 18.1187 109.362 17.9134 108.365 17.796L108.006 20.844ZM110.473 21.3634C111.233 21.5647 111.911 21.8622 112.516 22.2508L114.175 19.6692C113.286 19.0978 112.311 18.6753 111.258 18.3966L110.473 21.3634ZM112.516 22.2508C113.033 22.5837 113.462 23.0412 113.8 23.6578L116.491 22.1822C115.922 21.1455 115.15 20.2963 114.175 19.6692L112.516 22.2508ZM113.81 23.6765C114.094 24.177 114.291 24.9196 114.291 26H117.36C117.36 24.5737 117.103 23.263 116.48 22.1635L113.81 23.6765ZM114.291 26C114.291 26.9578 113.995 27.8747 113.341 28.7826L115.83 30.5774C116.829 29.192 117.36 27.6555 117.36 26H114.291ZM113.351 28.7687C112.734 29.6048 111.739 30.3631 110.24 30.9816L111.411 33.8184C113.272 33.0503 114.784 31.9952 115.82 30.5913L113.351 28.7687ZM110.259 30.9737C108.816 31.5464 106.917 31.8655 104.505 31.8655V34.9345C107.16 34.9345 109.474 34.5869 111.391 33.8263L110.259 30.9737Z" fill="white" mask="url(#path-1-outside-1_386_4763)"/>
</g>
<defs>
<filter id="filter0_d_386_4763" x="0.519531" y="0.160156" width="117.928" height="35.0526" filterUnits="userSpaceOnUse" color-interpolation-filters="sRGB">
<feFlood flood-opacity="0" result="BackgroundImageFix"/>
<feColorMatrix in="SourceAlpha" type="matrix" values="0 0 0 0 0 0 0 0 0 0 0 0 0 0 0 0 0 0 127 0" result="hardAlpha"/>
<feOffset dx="2.62101" dy="1.57261"/>
<feComposite in2="hardAlpha" operator="out"/>
<feColorMatrix type="matrix" values="0 0 0 0 0 0 0 0 0 0 0 0 0 0 0 0 0 0 1 0"/>
<feBlend mode="normal" in2="BackgroundImageFix" result="effect1_dropShadow_386_4763"/>
<feBlend mode="normal" in="SourceGraphic" in2="effect1_dropShadow_386_4763" result="shape"/>
</filter>
</defs>
</svg>
