<svg width="121" height="70" viewBox="0 0 121 70" fill="none" xmlns="http://www.w3.org/2000/svg">
<g clip-path="url(#clip0_373_2633)">
<path d="M0 11.0627L0.427426 10.6648C6.75382 4.77468 16.6079 4.95058 22.7201 11.0627V11.0627" stroke="#E3A017" stroke-width="1.62286" stroke-linecap="round"/>
<path d="M43.8184 9.84573L43.3909 10.2437C37.0645 16.1338 27.2104 15.9579 21.0983 9.84573V9.84573" stroke="#E3A017" stroke-width="1.62286" stroke-linecap="round"/>
<path d="M86.0098 9.84573L85.5823 10.2437C79.2559 16.1338 69.4018 15.9579 63.2897 9.84573V9.84573" stroke="#E3A017" stroke-width="1.62286" stroke-linecap="round"/>
<path d="M42.1953 11.0628L42.6227 10.6649C48.9491 4.7748 58.8032 4.9507 64.9154 11.0628V11.0628" stroke="#E3A017" stroke-width="1.62286" stroke-linecap="round"/>
<path d="M128.205 9.84573L127.778 10.2437C121.451 16.1338 111.597 15.9579 105.485 9.84573V9.84573" stroke="#E3A017" stroke-width="1.62286" stroke-linecap="round"/>
<path d="M84.3887 11.0628L84.8161 10.6649C91.1425 4.7748 100.997 4.9507 107.109 11.0628V11.0628" stroke="#E3A017" stroke-width="1.62286" stroke-linecap="round"/>
<path d="M0 27.2914L0.427426 26.8934C6.75382 21.0033 16.6079 21.1792 22.7201 27.2914V27.2914" stroke="#E3A017" stroke-width="1.62286" stroke-linecap="round"/>
<path d="M43.8184 26.0742L43.3909 26.4722C37.0645 32.3623 27.2104 32.1864 21.0983 26.0742V26.0742" stroke="#E3A017" stroke-width="1.62286" stroke-linecap="round"/>
<path d="M86.0098 26.0742L85.5823 26.4722C79.2559 32.3623 69.4018 32.1864 63.2897 26.0742V26.0742" stroke="#E3A017" stroke-width="1.62286" stroke-linecap="round"/>
<path d="M42.1953 27.2914L42.6227 26.8934C48.9491 21.0033 58.8032 21.1792 64.9154 27.2914V27.2914" stroke="#E3A017" stroke-width="1.62286" stroke-linecap="round"/>
<path d="M128.205 26.0742L127.778 26.4722C121.451 32.3623 111.597 32.1864 105.485 26.0742V26.0742" stroke="#E3A017" stroke-width="1.62286" stroke-linecap="round"/>
<path d="M84.3887 27.2914L84.8161 26.8934C91.1425 21.0033 100.997 21.1792 107.109 27.2914V27.2914" stroke="#E3A017" stroke-width="1.62286" stroke-linecap="round"/>
<path d="M0 43.52L0.427426 43.122C6.75382 37.232 16.6079 37.4079 22.7201 43.52V43.52" stroke="#E3A017" stroke-width="1.62286" stroke-linecap="round"/>
<path d="M43.8184 42.3029L43.3909 42.7008C37.0645 48.5909 27.2104 48.415 21.0983 42.3029V42.3029" stroke="#E3A017" stroke-width="1.62286" stroke-linecap="round"/>
<path d="M86.0098 42.3029L85.5823 42.7008C79.2559 48.5909 69.4018 48.415 63.2897 42.3029V42.3029" stroke="#E3A017" stroke-width="1.62286" stroke-linecap="round"/>
<path d="M42.1953 43.52L42.6227 43.122C48.9491 37.2319 58.8032 37.4079 64.9154 43.52V43.52" stroke="#E3A017" stroke-width="1.62286" stroke-linecap="round"/>
<path d="M128.205 42.3029L127.778 42.7008C121.451 48.5909 111.597 48.415 105.485 42.3029V42.3029" stroke="#E3A017" stroke-width="1.62286" stroke-linecap="round"/>
<path d="M84.3887 43.52L84.8161 43.122C91.1425 37.2319 100.997 37.4079 107.109 43.52V43.52" stroke="#E3A017" stroke-width="1.62286" stroke-linecap="round"/>
<path d="M0 59.7488L0.427426 59.3508C6.75382 53.4607 16.6079 53.6366 22.7201 59.7488V59.7488" stroke="#E3A017" stroke-width="1.62286" stroke-linecap="round"/>
<path d="M43.8184 58.5314L43.3909 58.9293C37.0645 64.8194 27.2104 64.6435 21.0983 58.5314V58.5314" stroke="#E3A017" stroke-width="1.62286" stroke-linecap="round"/>
<path d="M86.0098 58.5314L85.5823 58.9293C79.2559 64.8194 69.4018 64.6435 63.2897 58.5314V58.5314" stroke="#E3A017" stroke-width="1.62286" stroke-linecap="round"/>
<path d="M42.1953 59.7488L42.6227 59.3508C48.9491 53.4607 58.8032 53.6366 64.9154 59.7487V59.7487" stroke="#E3A017" stroke-width="1.62286" stroke-linecap="round"/>
<path d="M128.205 58.5314L127.778 58.9293C121.451 64.8194 111.597 64.6435 105.485 58.5314V58.5314" stroke="#E3A017" stroke-width="1.62286" stroke-linecap="round"/>
<path d="M84.3887 59.7488L84.8161 59.3508C91.1425 53.4607 100.997 53.6366 107.109 59.7487V59.7487" stroke="#E3A017" stroke-width="1.62286" stroke-linecap="round"/>
</g>
<mask id="path-25-outside-1_373_2633" maskUnits="userSpaceOnUse" x="7.52567" y="1.98251" width="99.4747" height="63.4039" fill="black">
<rect fill="white" x="7.52567" y="1.98251" width="99.4747" height="63.4039"/>
<path d="M98.1997 24.4604C101.317 25.2952 103.167 28.4988 102.332 31.6159L95.8514 55.8155C95.0167 58.9326 91.813 60.7828 88.6959 59.948L15.3841 40.3147C12.267 39.4799 10.4168 36.2762 11.2516 33.1591L17.7324 8.95955C18.5672 5.84245 21.7708 3.99226 24.8879 4.82704L98.1997 24.4604Z"/>
</mask>
<path d="M98.1997 24.4604C101.317 25.2952 103.167 28.4988 102.332 31.6159L95.8514 55.8155C95.0167 58.9326 91.813 60.7828 88.6959 59.948L15.3841 40.3147C12.267 39.4799 10.4168 36.2762 11.2516 33.1591L17.7324 8.95955C18.5672 5.84245 21.7708 3.99226 24.8879 4.82704L98.1997 24.4604Z" fill="#FE91E6"/>
<path d="M100.207 24.4939C103.584 25.3983 105.588 28.8689 104.684 32.2457L98.2031 56.4453C97.0205 60.8612 92.482 63.4823 88.0661 62.2997L89.3257 57.5964C91.144 58.0833 93.0128 57.004 93.4998 55.1857L99.9806 30.9861C100.746 28.1288 99.8921 25.4177 98.0738 24.9308L100.207 24.4939ZM14.7543 42.6663C11.3775 41.762 9.37308 38.2914 10.2774 34.9145L17.2621 8.83359C18.1664 5.45673 21.637 3.45236 25.0139 4.3567L24.762 5.29737C21.9046 4.53216 18.968 6.22816 18.2027 9.08551L11.7219 33.2851C11.235 35.1034 13.1566 37.1978 16.0139 37.963L14.7543 42.6663ZM17.2621 8.83359C18.1664 5.45673 21.637 3.45236 25.0139 4.3567L100.207 24.4939C103.584 25.3983 105.588 28.8689 104.684 32.2457L99.9806 30.9861C100.746 28.1288 99.8921 25.4177 98.0738 24.9308L24.762 5.29737C21.9046 4.53216 18.968 6.22816 18.2027 9.08551L17.2621 8.83359ZM98.2031 56.4453C97.0205 60.8612 92.482 63.4823 88.0661 62.2997L14.7543 42.6663C11.3775 41.762 9.37308 38.2914 10.2774 34.9145L11.7219 33.2851C11.235 35.1034 13.1566 37.1978 16.0139 37.963L89.3257 57.5964C91.144 58.0833 93.0128 57.004 93.4998 55.1857L98.2031 56.4453Z" fill="black" mask="url(#path-25-outside-1_373_2633)"/>
<mask id="path-27-outside-2_373_2633" maskUnits="userSpaceOnUse" x="15.8859" y="11.19" width="80.5875" height="43.1022" fill="black">
<rect fill="white" x="15.8859" y="11.19" width="80.5875" height="43.1022"/>
<path d="M26.322 33.2356C24.8219 32.8339 23.7521 32.1532 23.1125 31.1936C22.4768 30.2195 22.3598 28.9825 22.7615 27.4824L25.4558 17.422L29.5665 18.5228L26.8839 28.54C26.7718 28.9583 26.7984 29.3209 26.9635 29.6279C27.1325 29.9205 27.3972 30.1151 27.7578 30.2117C28.2482 30.343 28.6994 30.3324 29.1112 30.1799L29.3574 33.3298C28.9495 33.4678 28.4796 33.5198 27.9477 33.4855C27.412 33.4657 26.87 33.3824 26.322 33.2356ZM22.1069 23.087L22.9296 20.0148L31.4323 22.2919L30.6096 25.3641L22.1069 23.087ZM37.9764 36.1481L38.5616 33.9629L38.4252 33.3467L39.5029 29.3225C39.6767 28.6735 39.6081 28.1218 39.2969 27.6675C39.004 27.2026 38.4249 26.8542 37.5595 26.6225C36.997 26.4718 36.4021 26.413 35.775 26.446C35.1517 26.4646 34.5956 26.5784 34.1068 26.7876L33.4695 23.6258C34.2489 23.3708 35.131 23.2515 36.116 23.2679C37.1192 23.2738 38.0823 23.4004 39.0054 23.6476C40.9093 24.1575 42.2627 24.9914 43.0656 26.1493C43.8868 27.2967 44.0482 28.8008 43.5499 30.6614L41.8059 37.1736L37.9764 36.1481ZM34.4626 35.4158C33.5251 35.1647 32.7743 34.7936 32.2102 34.3024C31.6461 33.8113 31.2644 33.2453 31.065 32.6045C30.88 31.9676 30.8783 31.3101 31.0599 30.6322C31.253 29.9111 31.5994 29.3391 32.099 28.9164C32.617 28.4832 33.2949 28.2319 34.1327 28.1626C34.9744 28.0789 36.0011 28.1992 37.2126 28.5237L39.982 29.2653L39.4084 31.4072L37.2015 30.8162C36.5381 30.6385 36.0403 30.6212 35.7083 30.7641C35.3908 30.911 35.1837 31.1647 35.0871 31.5253C34.9906 31.8859 35.0503 32.211 35.2664 32.5008C35.4825 32.7905 35.8286 32.9991 36.3046 33.1266C36.7517 33.2463 37.1845 33.2463 37.6031 33.1265C38.0399 32.9962 38.4066 32.7234 38.7033 32.3082L38.8603 33.9733C38.4276 34.7231 37.8379 35.2222 37.0913 35.4705C36.3629 35.7083 35.4867 35.69 34.4626 35.4158ZM44.4006 37.8685L48.6998 21.8151L52.8105 22.916L48.5113 38.9694L44.4006 37.8685ZM57.2751 41.5251C55.8904 41.1543 54.7484 40.5702 53.8489 39.7728C52.9678 38.9649 52.3604 38.0293 52.0268 36.9661C51.7115 35.8924 51.7103 34.7713 52.0232 33.603C52.3361 32.4347 52.8882 31.4696 53.6797 30.7077C54.4894 29.9352 55.4523 29.4279 56.5683 29.1858C57.6881 28.9292 58.8611 28.9651 60.0871 29.2934C61.241 29.6024 62.2301 30.1224 63.0546 30.8533C63.883 31.5698 64.4567 32.4577 64.7759 33.517C65.0951 34.5764 65.0808 35.7551 64.7332 37.0532C64.6946 37.1975 64.6429 37.3614 64.5783 37.545C64.5137 37.7287 64.4529 37.8979 64.396 38.0527L55.1144 35.567L55.6938 33.4035L62.7902 35.304L61.0702 35.4926C61.2276 34.9628 61.2502 34.4742 61.1381 34.0268C61.0405 33.5833 60.8332 33.2031 60.5161 32.8863C60.2134 32.5734 59.8169 32.3513 59.3265 32.22C58.8361 32.0886 58.3744 32.0809 57.9415 32.1968C57.5229 32.3166 57.1586 32.5514 56.8485 32.9012C56.5423 33.2366 56.3177 33.6711 56.1748 34.2047L56.0068 34.8322C55.8523 35.4091 55.8344 35.9376 55.9532 36.4177C56.0864 36.9017 56.3456 37.3189 56.7309 37.6694C57.1201 38.0055 57.6248 38.2566 58.245 38.4227C58.822 38.5772 59.3336 38.6292 59.78 38.5787C60.2446 38.5177 60.7252 38.3681 61.2218 38.1301L62.7827 40.9596C62.0541 41.4292 61.2343 41.7197 60.3233 41.8313C59.4162 41.9285 58.4001 41.8264 57.2751 41.5251ZM75.8939 33.5266C76.8026 33.7699 77.5745 34.1776 78.2097 34.7496C78.8487 35.3072 79.275 36.0242 79.4886 36.9007C79.7166 37.781 79.6683 38.827 79.3439 40.0386L77.5477 46.7455L73.437 45.6447L75.0535 39.6084C75.2776 38.7718 75.2667 38.1197 75.021 37.652C74.7935 37.1737 74.3769 36.8534 73.7711 36.6912C73.3384 36.5753 72.9147 36.57 72.5001 36.6754C72.0893 36.7663 71.7288 36.9867 71.4187 37.3365C71.1086 37.6863 70.8667 38.1857 70.6929 38.8348L69.1748 44.5032L65.0641 43.4023L68.2045 31.676L72.1205 32.7247L71.2282 36.0565L70.7317 34.8802C71.4067 34.1489 72.1897 33.6784 73.0806 33.4687C73.9753 33.2446 74.9131 33.2639 75.8939 33.5266ZM85.3122 49.0336C83.8121 48.6319 82.7423 47.9512 82.1027 46.9916C81.467 46.0175 81.35 44.7804 81.7518 43.2804L84.446 33.2199L88.5567 34.3208L85.8741 44.338C85.7621 44.7563 85.7886 45.1189 85.9537 45.4259C86.1227 45.7185 86.3875 45.9131 86.7481 46.0096C87.2385 46.141 87.6896 46.1304 88.1014 45.9779L88.3477 49.1277C87.9397 49.2658 87.4698 49.3177 86.9379 49.2835C86.4022 49.2637 85.8603 49.1804 85.3122 49.0336ZM81.0971 38.885L81.9199 35.8128L90.4226 38.0899L89.5998 41.1621L81.0971 38.885Z"/>
</mask>
<path d="M26.322 33.2356C24.8219 32.8339 23.7521 32.1532 23.1125 31.1936C22.4768 30.2195 22.3598 28.9825 22.7615 27.4824L25.4558 17.422L29.5665 18.5228L26.8839 28.54C26.7718 28.9583 26.7984 29.3209 26.9635 29.6279C27.1325 29.9205 27.3972 30.1151 27.7578 30.2117C28.2482 30.343 28.6994 30.3324 29.1112 30.1799L29.3574 33.3298C28.9495 33.4678 28.4796 33.5198 27.9477 33.4855C27.412 33.4657 26.87 33.3824 26.322 33.2356ZM22.1069 23.087L22.9296 20.0148L31.4323 22.2919L30.6096 25.3641L22.1069 23.087ZM37.9764 36.1481L38.5616 33.9629L38.4252 33.3467L39.5029 29.3225C39.6767 28.6735 39.6081 28.1218 39.2969 27.6675C39.004 27.2026 38.4249 26.8542 37.5595 26.6225C36.997 26.4718 36.4021 26.413 35.775 26.446C35.1517 26.4646 34.5956 26.5784 34.1068 26.7876L33.4695 23.6258C34.2489 23.3708 35.131 23.2515 36.116 23.2679C37.1192 23.2738 38.0823 23.4004 39.0054 23.6476C40.9093 24.1575 42.2627 24.9914 43.0656 26.1493C43.8868 27.2967 44.0482 28.8008 43.5499 30.6614L41.8059 37.1736L37.9764 36.1481ZM34.4626 35.4158C33.5251 35.1647 32.7743 34.7936 32.2102 34.3024C31.6461 33.8113 31.2644 33.2453 31.065 32.6045C30.88 31.9676 30.8783 31.3101 31.0599 30.6322C31.253 29.9111 31.5994 29.3391 32.099 28.9164C32.617 28.4832 33.2949 28.2319 34.1327 28.1626C34.9744 28.0789 36.0011 28.1992 37.2126 28.5237L39.982 29.2653L39.4084 31.4072L37.2015 30.8162C36.5381 30.6385 36.0403 30.6212 35.7083 30.7641C35.3908 30.911 35.1837 31.1647 35.0871 31.5253C34.9906 31.8859 35.0503 32.211 35.2664 32.5008C35.4825 32.7905 35.8286 32.9991 36.3046 33.1266C36.7517 33.2463 37.1845 33.2463 37.6031 33.1265C38.0399 32.9962 38.4066 32.7234 38.7033 32.3082L38.8603 33.9733C38.4276 34.7231 37.8379 35.2222 37.0913 35.4705C36.3629 35.7083 35.4867 35.69 34.4626 35.4158ZM44.4006 37.8685L48.6998 21.8151L52.8105 22.916L48.5113 38.9694L44.4006 37.8685ZM57.2751 41.5251C55.8904 41.1543 54.7484 40.5702 53.8489 39.7728C52.9678 38.9649 52.3604 38.0293 52.0268 36.9661C51.7115 35.8924 51.7103 34.7713 52.0232 33.603C52.3361 32.4347 52.8882 31.4696 53.6797 30.7077C54.4894 29.9352 55.4523 29.4279 56.5683 29.1858C57.6881 28.9292 58.8611 28.9651 60.0871 29.2934C61.241 29.6024 62.2301 30.1224 63.0546 30.8533C63.883 31.5698 64.4567 32.4577 64.7759 33.517C65.0951 34.5764 65.0808 35.7551 64.7332 37.0532C64.6946 37.1975 64.6429 37.3614 64.5783 37.545C64.5137 37.7287 64.4529 37.8979 64.396 38.0527L55.1144 35.567L55.6938 33.4035L62.7902 35.304L61.0702 35.4926C61.2276 34.9628 61.2502 34.4742 61.1381 34.0268C61.0405 33.5833 60.8332 33.2031 60.5161 32.8863C60.2134 32.5734 59.8169 32.3513 59.3265 32.22C58.8361 32.0886 58.3744 32.0809 57.9415 32.1968C57.5229 32.3166 57.1586 32.5514 56.8485 32.9012C56.5423 33.2366 56.3177 33.6711 56.1748 34.2047L56.0068 34.8322C55.8523 35.4091 55.8344 35.9376 55.9532 36.4177C56.0864 36.9017 56.3456 37.3189 56.7309 37.6694C57.1201 38.0055 57.6248 38.2566 58.245 38.4227C58.822 38.5772 59.3336 38.6292 59.78 38.5787C60.2446 38.5177 60.7252 38.3681 61.2218 38.1301L62.7827 40.9596C62.0541 41.4292 61.2343 41.7197 60.3233 41.8313C59.4162 41.9285 58.4001 41.8264 57.2751 41.5251ZM75.8939 33.5266C76.8026 33.7699 77.5745 34.1776 78.2097 34.7496C78.8487 35.3072 79.275 36.0242 79.4886 36.9007C79.7166 37.781 79.6683 38.827 79.3439 40.0386L77.5477 46.7455L73.437 45.6447L75.0535 39.6084C75.2776 38.7718 75.2667 38.1197 75.021 37.652C74.7935 37.1737 74.3769 36.8534 73.7711 36.6912C73.3384 36.5753 72.9147 36.57 72.5001 36.6754C72.0893 36.7663 71.7288 36.9867 71.4187 37.3365C71.1086 37.6863 70.8667 38.1857 70.6929 38.8348L69.1748 44.5032L65.0641 43.4023L68.2045 31.676L72.1205 32.7247L71.2282 36.0565L70.7317 34.8802C71.4067 34.1489 72.1897 33.6784 73.0806 33.4687C73.9753 33.2446 74.9131 33.2639 75.8939 33.5266ZM85.3122 49.0336C83.8121 48.6319 82.7423 47.9512 82.1027 46.9916C81.467 46.0175 81.35 44.7804 81.7518 43.2804L84.446 33.2199L88.5567 34.3208L85.8741 44.338C85.7621 44.7563 85.7886 45.1189 85.9537 45.4259C86.1227 45.7185 86.3875 45.9131 86.7481 46.0096C87.2385 46.141 87.6896 46.1304 88.1014 45.9779L88.3477 49.1277C87.9397 49.2658 87.4698 49.3177 86.9379 49.2835C86.4022 49.2637 85.8603 49.1804 85.3122 49.0336ZM81.0971 38.885L81.9199 35.8128L90.4226 38.0899L89.5998 41.1621L81.0971 38.885Z" fill="black"/>
<path d="M23.1125 31.1936L20.666 32.7903C20.6711 32.7981 20.6763 32.806 20.6815 32.8138L23.1125 31.1936ZM25.4558 17.422L26.2116 14.5999C24.653 14.1826 23.0512 15.1077 22.6338 16.6662L25.4558 17.422ZM29.5665 18.5228L32.3885 19.2786C32.8059 17.72 31.8808 16.1182 30.3223 15.7008L29.5665 18.5228ZM26.9635 29.628L24.3905 31.0117C24.4045 31.0377 24.4189 31.0635 24.4336 31.089L26.9635 29.628ZM29.1112 30.1799L32.0238 29.9522C31.9524 29.0392 31.4569 28.2124 30.6854 27.7189C29.9139 27.2254 28.9556 27.1222 28.0967 27.4403L29.1112 30.1799ZM29.3574 33.3298L30.294 36.097C31.5603 35.6684 32.3742 34.4349 32.27 33.1021L29.3574 33.3298ZM27.9477 33.4855L28.1353 30.5701C28.1088 30.5684 28.0822 30.567 28.0556 30.5661L27.9477 33.4855ZM22.1069 23.087L19.2849 22.3313C18.8675 23.8898 19.7926 25.4917 21.3511 25.909L22.1069 23.087ZM22.9296 20.0148L23.6854 17.1928C22.1268 16.7754 20.525 17.7005 20.1076 19.2591L22.9296 20.0148ZM31.4323 22.2919L34.2543 23.0476C34.6717 21.4891 33.7466 19.8873 32.1881 19.4699L31.4323 22.2919ZM30.6096 25.3641L29.8538 28.1861C31.4124 28.6035 33.0142 27.6784 33.4316 26.1199L30.6096 25.3641ZM27.0777 30.4136C26.0234 30.1313 25.6704 29.7637 25.5435 29.5734L20.6815 32.8138C21.8338 34.5427 23.6204 35.5365 25.5662 36.0576L27.0777 30.4136ZM25.559 29.5969C25.5154 29.5301 25.321 29.2187 25.5836 28.2382L19.9395 26.7267C19.3987 28.7462 19.4382 30.909 20.666 32.7903L25.559 29.5969ZM25.5836 28.2382L28.2778 18.1777L22.6338 16.6662L19.9395 26.7267L25.5836 28.2382ZM24.7 20.244L28.8108 21.3448L30.3223 15.7008L26.2116 14.5999L24.7 20.244ZM26.7445 17.7671L24.0618 27.7843L29.7059 29.2958L32.3885 19.2786L26.7445 17.7671ZM24.0618 27.7843C23.8062 28.7388 23.7926 29.8999 24.3905 31.0117L29.5364 28.2442C29.6569 28.4682 29.718 28.702 29.7334 28.9124C29.748 29.1124 29.7187 29.2479 29.7059 29.2958L24.0618 27.7843ZM24.4336 31.089C25.0325 32.126 25.9792 32.7597 27.0021 33.0337L28.5136 27.3897C28.6369 27.4227 28.8213 27.494 29.0188 27.6391C29.2212 27.7879 29.3817 27.9735 29.4933 28.1669L24.4336 31.089ZM27.0021 33.0337C27.9826 33.2963 29.0614 33.3137 30.1256 32.9196L28.0967 27.4403C28.2023 27.4012 28.3069 27.3837 28.3955 27.3816C28.4802 27.3796 28.5232 27.3922 28.5136 27.3897L27.0021 33.0337ZM26.1986 30.4076L26.4449 33.5575L32.27 33.1021L32.0238 29.9522L26.1986 30.4076ZM28.4209 30.5625C28.4491 30.5529 28.374 30.5855 28.1353 30.5701L27.7601 36.4009C28.5851 36.454 29.4498 36.3827 30.294 36.097L28.4209 30.5625ZM28.0556 30.5661C27.7512 30.5548 27.4265 30.507 27.0777 30.4136L25.5662 36.0576C26.3136 36.2578 27.0727 36.3766 27.8397 36.405L28.0556 30.5661ZM24.9289 23.8428L25.7516 20.7706L20.1076 19.2591L19.2849 22.3313L24.9289 23.8428ZM22.1739 22.8368L30.6766 25.1139L32.1881 19.4699L23.6854 17.1928L22.1739 22.8368ZM28.6103 21.5361L27.7876 24.6084L33.4316 26.1199L34.2543 23.0476L28.6103 21.5361ZM31.3653 22.5421L22.8626 20.265L21.3511 25.909L29.8538 28.1861L31.3653 22.5421ZM37.9764 36.1481L35.1544 35.3923C34.737 36.9509 35.6621 38.5527 37.2207 38.9701L37.9764 36.1481ZM38.5616 33.9629L41.3836 34.7187C41.505 34.2654 41.5154 33.7896 41.414 33.3315L38.5616 33.9629ZM38.4252 33.3467L35.6032 32.591C35.4818 33.0442 35.4714 33.52 35.5728 33.9781L38.4252 33.3467ZM39.2969 27.6675L36.8251 29.2247C36.845 29.2562 36.8655 29.2874 36.8866 29.3182L39.2969 27.6675ZM35.775 26.446L35.862 29.3662C35.8842 29.3655 35.9063 29.3646 35.9285 29.3634L35.775 26.446ZM34.1068 26.7876L31.2429 27.3648C31.4166 28.2268 31.9694 28.9647 32.7478 29.3738C33.5263 29.7828 34.4475 29.8194 35.256 29.4735L34.1068 26.7876ZM33.4695 23.6258L32.561 20.8492C31.1533 21.3099 30.313 22.7511 30.6057 24.203L33.4695 23.6258ZM36.116 23.2679L36.0672 26.189C36.0777 26.1892 36.0883 26.1893 36.0988 26.1893L36.116 23.2679ZM43.0656 26.1493L40.6648 27.814C40.6731 27.8259 40.6814 27.8378 40.6899 27.8496L43.0656 26.1493ZM41.8059 37.1736L41.0501 39.9957C42.6087 40.413 44.2105 39.4879 44.6279 37.9294L41.8059 37.1736ZM32.2102 34.3024L34.1286 32.0991L32.2102 34.3024ZM31.065 32.6045L28.2594 33.4192C28.2646 33.437 28.2699 33.4548 28.2754 33.4725L31.065 32.6045ZM32.099 28.9164L30.2246 26.6756C30.2205 26.6791 30.2163 26.6825 30.2122 26.686L32.099 28.9164ZM34.1327 28.1626L34.3736 31.0741C34.3897 31.0728 34.4059 31.0713 34.422 31.0697L34.1327 28.1626ZM39.982 29.2653L42.804 30.0211C43.2214 28.4625 42.2963 26.8607 40.7377 26.4433L39.982 29.2653ZM39.4084 31.4072L38.6526 34.2292C40.2112 34.6466 41.813 33.7215 42.2304 32.163L39.4084 31.4072ZM35.7083 30.7641L34.5529 28.0809C34.5292 28.0911 34.5057 28.1016 34.4823 28.1124L35.7083 30.7641ZM35.2664 32.5008L32.9246 34.2474L32.9246 34.2474L35.2664 32.5008ZM37.6031 33.1265L38.4069 35.9352C38.4174 35.9322 38.4279 35.9291 38.4384 35.926L37.6031 33.1265ZM38.7033 32.3082L41.6119 32.0341C41.4975 30.82 40.641 29.8047 39.4635 29.4874C38.286 29.1701 37.0353 29.6175 36.3264 30.6097L38.7033 32.3082ZM38.8603 33.9733L41.3906 35.4335C41.6935 34.9086 41.8257 34.3025 41.7688 33.6992L38.8603 33.9733ZM37.0913 35.4705L37.9978 38.2477C38.003 38.246 38.0081 38.2444 38.0132 38.2426L37.0913 35.4705ZM40.7984 36.9038L41.3836 34.7187L35.7396 33.2072L35.1544 35.3923L40.7984 36.9038ZM41.414 33.3315L41.2776 32.7153L35.5728 33.9781L35.7092 34.5943L41.414 33.3315ZM41.2472 34.1025L42.3249 30.0783L36.6809 28.5668L35.6032 32.591L41.2472 34.1025ZM42.3249 30.0783C42.6663 28.8035 42.6053 27.3279 41.7073 26.0167L36.8866 29.3182C36.776 29.1568 36.7054 28.9652 36.6827 28.7828C36.6619 28.6158 36.6902 28.532 36.6809 28.5668L42.3249 30.0783ZM41.7687 26.1102C40.9 24.7312 39.4684 24.1093 38.3152 23.8005L36.8037 29.4445C36.9235 29.4766 37.009 29.5062 37.0662 29.5292C37.1236 29.5522 37.1439 29.5651 37.1372 29.5611C37.1236 29.5529 36.9719 29.4577 36.8251 29.2247L41.7687 26.1102ZM38.3152 23.8005C37.4342 23.5645 36.5308 23.4807 35.6215 23.5286L35.9285 29.3634C36.2734 29.3453 36.5598 29.3791 36.8037 29.4445L38.3152 23.8005ZM35.6879 23.5259C34.7611 23.5535 33.8354 23.7261 32.9575 24.1017L35.256 29.4735C35.3558 29.4308 35.5422 29.3757 35.862 29.3662L35.6879 23.5259ZM36.9706 26.2104L36.3334 23.0486L30.6057 24.203L31.2429 27.3648L36.9706 26.2104ZM34.3781 26.4024C34.7936 26.2665 35.3438 26.1769 36.0672 26.189L36.1647 20.3469C34.9183 20.3261 33.7042 20.4752 32.561 20.8492L34.3781 26.4024ZM36.0988 26.1893C36.865 26.1938 37.5792 26.29 38.2497 26.4696L39.7612 20.8256C38.5854 20.5107 37.3733 20.3538 36.1331 20.3465L36.0988 26.1893ZM38.2497 26.4696C39.7496 26.8713 40.3879 27.4146 40.6648 27.814L45.4664 24.4847C44.1376 22.5682 42.0691 21.4436 39.7612 20.8256L38.2497 26.4696ZM40.6899 27.8496C40.834 28.051 41.0874 28.5631 40.7279 29.9056L46.3719 31.4171C47.0089 29.0384 46.9395 26.5425 45.4413 24.4491L40.6899 27.8496ZM40.7279 29.9056L38.9839 36.4179L44.6279 37.9294L46.3719 31.4171L40.7279 29.9056ZM42.5616 34.3516L38.7322 33.3261L37.2207 38.9701L41.0501 39.9957L42.5616 34.3516ZM35.2184 32.5937C34.5872 32.4247 34.2728 32.2247 34.1286 32.0991L30.2918 36.5057C31.2757 37.3625 32.4629 37.9046 33.7068 38.2378L35.2184 32.5937ZM34.1286 32.0991C33.9249 31.9218 33.875 31.8023 33.8545 31.7366L28.2754 33.4725C28.6537 34.6883 29.3673 35.7008 30.2918 36.5057L34.1286 32.0991ZM33.8705 31.7898C33.8431 31.6952 33.8299 31.5819 33.8819 31.388L28.2379 29.8765C27.9267 31.0383 27.917 32.2399 28.2594 33.4192L33.8705 31.7898ZM33.8819 31.388C33.9153 31.2633 33.9487 31.2001 33.9634 31.1759C33.9763 31.1545 33.9828 31.1495 33.9859 31.1469L30.2122 26.686C29.1957 27.5459 28.5626 28.6638 28.2379 29.8765L33.8819 31.388ZM33.9735 31.1573C33.9591 31.1693 33.9629 31.1603 34.0113 31.1424C34.0645 31.1226 34.1775 31.0903 34.3736 31.0741L33.8918 25.2511C32.6018 25.3578 31.3073 25.7699 30.2246 26.6756L33.9735 31.1573ZM34.422 31.0697C34.787 31.0334 35.4369 31.0725 36.4569 31.3457L37.9684 25.7017C36.5652 25.3259 35.1619 25.1243 33.8435 25.2555L34.422 31.0697ZM36.4569 31.3457L39.2262 32.0873L40.7377 26.4433L37.9684 25.7017L36.4569 31.3457ZM37.16 28.5096L36.5863 30.6515L42.2304 32.163L42.804 30.0211L37.16 28.5096ZM40.1641 28.5852L37.9573 27.9942L36.4458 33.6382L38.6526 34.2292L40.1641 28.5852ZM37.9573 27.9942C37.152 27.7786 35.8312 27.5304 34.5529 28.0809L36.8638 33.4474C36.6838 33.5249 36.5305 33.5597 36.4257 33.5755C36.3216 33.5913 36.2523 33.5904 36.2288 33.5896C36.1913 33.5883 36.2534 33.5867 36.4458 33.6382L37.9573 27.9942ZM34.4823 28.1124C33.3195 28.65 32.5688 29.6355 32.2651 30.7695L37.9091 32.281C37.8654 32.4442 37.7702 32.6765 37.5782 32.9118C37.3825 33.1515 37.1498 33.3163 36.9344 33.4159L34.4823 28.1124ZM32.2651 30.7695C31.9461 31.9609 32.1539 33.2141 32.9246 34.2474L37.6083 30.7541C37.7432 30.935 37.8742 31.1924 37.9328 31.5114C37.9909 31.8274 37.9585 32.0968 37.9091 32.281L32.2651 30.7695ZM32.9246 34.2474C33.6547 35.2263 34.6668 35.7124 35.5488 35.9486L37.0603 30.3046C36.9904 30.2859 37.3103 30.3547 37.6083 30.7541L32.9246 34.2474ZM35.5488 35.9486C36.4737 36.1963 37.4468 36.21 38.4069 35.9352L36.7992 30.3179C36.8498 30.3034 36.9074 30.2949 36.9644 30.2949C37.0203 30.2949 37.0544 30.303 37.0603 30.3046L35.5488 35.9486ZM38.4384 35.926C39.5712 35.588 40.4538 34.8834 41.0803 34.0067L36.3264 30.6097C36.3341 30.5989 36.3757 30.5444 36.4623 30.48C36.5519 30.4133 36.6582 30.3597 36.7677 30.3271L38.4384 35.926ZM35.7948 32.5823L35.9517 34.2475L41.7688 33.6992L41.6119 32.0341L35.7948 32.5823ZM36.3299 32.5132C36.2618 32.6312 36.2148 32.6726 36.2062 32.68C36.2006 32.6847 36.1977 32.6864 36.1958 32.6875C36.1938 32.6886 36.1862 32.6927 36.1693 32.6983L38.0132 38.2426C39.5085 37.7454 40.6391 36.7358 41.3906 35.4335L36.3299 32.5132ZM36.1847 32.6933C36.1639 32.7 35.8981 32.7758 35.2184 32.5937L33.7068 38.2378C35.0753 38.6042 36.5619 38.7165 37.9978 38.2477L36.1847 32.6933ZM44.4006 37.8685L41.5786 37.1128C41.1612 38.6713 42.0863 40.2731 43.6448 40.6905L44.4006 37.8685ZM48.6998 21.8151L49.4556 18.9931C47.897 18.5757 46.2952 19.5008 45.8778 21.0593L48.6998 21.8151ZM52.8105 22.916L55.6325 23.6717C56.0499 22.1132 55.1248 20.5113 53.5663 20.0939L52.8105 22.916ZM48.5113 38.9694L47.7556 41.7914C49.3141 42.2088 50.9159 41.2837 51.3333 39.7252L48.5113 38.9694ZM47.2226 38.6243L51.5218 22.5708L45.8778 21.0593L41.5786 37.1128L47.2226 38.6243ZM47.9441 24.6371L52.0548 25.738L53.5663 20.0939L49.4556 18.9931L47.9441 24.6371ZM49.9885 22.1602L45.6893 38.2137L51.3333 39.7252L55.6325 23.6717L49.9885 22.1602ZM49.2671 36.1474L45.1564 35.0465L43.6448 40.6905L47.7556 41.7914L49.2671 36.1474ZM53.8489 39.7728L51.8746 41.9261C51.8866 41.9371 51.8987 41.9481 51.9109 41.9589L53.8489 39.7728ZM52.0268 36.9661L49.2237 37.7892C49.2288 37.8064 49.234 37.8236 49.2393 37.8407L52.0268 36.9661ZM53.6797 30.7077L51.6631 28.5938L51.6535 28.603L53.6797 30.7077ZM56.5683 29.1858L57.1878 32.0408C57.1988 32.0384 57.2098 32.0359 57.2207 32.0334L56.5683 29.1858ZM63.0546 30.8533L61.1166 33.0394C61.1255 33.0473 61.1344 33.0551 61.1434 33.0629L63.0546 30.8533ZM64.7759 33.517L67.5732 32.6742L67.5732 32.6742L64.7759 33.517ZM64.5783 37.545L67.334 38.515L67.334 38.515L64.5783 37.545ZM64.396 38.0527L63.6402 40.8747C65.0998 41.2656 66.6165 40.479 67.138 39.0608L64.396 38.0527ZM55.1144 35.567L52.2924 34.8113C51.875 36.3698 52.8001 37.9716 54.3586 38.389L55.1144 35.567ZM55.6938 33.4035L56.4495 30.5815C54.891 30.1641 53.2892 31.0892 52.8718 32.6477L55.6938 33.4035ZM62.7902 35.304L63.1087 38.208C64.506 38.0548 65.5961 36.9281 65.7032 35.5264C65.8102 34.1248 64.9038 32.8456 63.5459 32.482L62.7902 35.304ZM61.0702 35.4926L58.2697 34.6609C57.9911 35.5988 58.2006 36.6139 58.8276 37.3649C59.4547 38.116 60.4161 38.5033 61.3887 38.3966L61.0702 35.4926ZM61.1381 34.0268L58.285 34.6549C58.291 34.6822 58.2974 34.7095 58.3042 34.7366L61.1381 34.0268ZM60.5161 32.8863L58.4161 34.9174C58.4277 34.9294 58.4394 34.9413 58.4512 34.9531L60.5161 32.8863ZM57.9415 32.1968L57.1859 29.3748C57.1697 29.3791 57.1537 29.3836 57.1376 29.3882L57.9415 32.1968ZM56.8485 32.9012L59.0059 34.8711C59.0156 34.8606 59.0251 34.8499 59.0346 34.8392L56.8485 32.9012ZM55.9532 36.4177L53.1172 37.1192C53.1233 37.1439 53.1297 37.1684 53.1364 37.1929L55.9532 36.4177ZM56.7309 37.6694L54.7651 39.8305C54.7837 39.8474 54.8025 39.8641 54.8215 39.8805L56.7309 37.6694ZM59.78 38.5787L60.1084 41.4817C60.1259 41.4797 60.1433 41.4776 60.1607 41.4753L59.78 38.5787ZM61.2218 38.1301L63.7798 36.7189C63.0317 35.363 61.3556 34.8263 59.9591 35.4957L61.2218 38.1301ZM62.7827 40.9596L64.3653 43.4153C65.6565 42.5832 66.0827 40.8934 65.3408 39.5484L62.7827 40.9596ZM60.3233 41.8313L60.6344 44.7362C60.6491 44.7346 60.6638 44.7329 60.6785 44.7311L60.3233 41.8313ZM58.0308 38.7031C57.0006 38.4272 56.2876 38.0306 55.7869 37.5867L51.9109 41.9589C53.2091 43.1098 54.7802 43.8813 56.5193 44.3471L58.0308 38.7031ZM55.8233 37.6195C55.2924 37.1327 54.9828 36.6287 54.8143 36.0915L49.2393 37.8407C49.738 39.4299 50.6432 40.7971 51.8746 41.9261L55.8233 37.6195ZM54.8299 36.143C54.6779 35.6253 54.6594 35.0524 54.8452 34.3588L49.2012 32.8473C48.7612 34.4902 48.7451 36.1594 49.2237 37.7892L54.8299 36.143ZM54.8452 34.3588C55.0348 33.6507 55.3355 33.1689 55.7058 32.8124L51.6535 28.603C50.441 29.7703 49.6373 31.2187 49.2012 32.8473L54.8452 34.3588ZM55.6962 32.8216C56.109 32.4278 56.5854 32.1715 57.1878 32.0408L55.9488 26.3308C54.3191 26.6844 52.8698 27.4427 51.6631 28.5938L55.6962 32.8216ZM57.2207 32.0334C57.829 31.8941 58.5165 31.8972 59.3313 32.1154L60.8428 26.4714C59.2056 26.0329 57.5473 25.9643 55.9158 26.3381L57.2207 32.0334ZM59.3313 32.1154C60.0847 32.3172 60.6595 32.6341 61.1166 33.0394L64.9926 28.6672C63.8008 27.6106 62.3972 26.8877 60.8428 26.4714L59.3313 32.1154ZM61.1434 33.0629C61.5483 33.4131 61.8176 33.8252 61.9787 34.3598L67.5732 32.6742C67.0959 31.0903 66.2176 29.7265 64.9658 28.6437L61.1434 33.0629ZM61.9787 34.3598C62.1105 34.7973 62.1486 35.4111 61.9112 36.2975L67.5552 37.809C68.0131 36.0991 68.0797 34.3555 67.5732 32.6742L61.9787 34.3598ZM61.9112 36.2975C61.8967 36.3517 61.8694 36.4421 61.8226 36.5751L67.334 38.515C67.4165 38.2807 67.4925 38.0432 67.5552 37.809L61.9112 36.2975ZM61.8226 36.5751C61.7616 36.7482 61.7055 36.9045 61.654 37.0446L67.138 39.0608C67.2003 38.8913 67.2657 38.7092 67.334 38.515L61.8226 36.5751ZM65.1517 35.2307L55.8701 32.745L54.3586 38.389L63.6402 40.8747L65.1517 35.2307ZM57.9364 36.3228L58.5158 34.1592L52.8718 32.6477L52.2924 34.8113L57.9364 36.3228ZM54.938 36.2255L62.0344 38.126L63.5459 32.482L56.4495 30.5815L54.938 36.2255ZM62.4717 32.3999L60.7518 32.5885L61.3887 38.3966L63.1087 38.208L62.4717 32.3999ZM63.8708 36.3243C64.1474 35.3927 64.2344 34.3642 63.972 33.3169L58.3042 34.7366C58.296 34.7038 58.2912 34.6737 58.2887 34.6479C58.2863 34.6222 58.2864 34.6036 58.2869 34.5935C58.2878 34.5735 58.2896 34.5937 58.2697 34.6609L63.8708 36.3243ZM63.9913 33.3987C63.7753 32.4178 63.2983 31.5363 62.5809 30.8196L58.4512 34.9531C58.419 34.9209 58.3795 34.8718 58.3447 34.808C58.31 34.7445 58.2926 34.6892 58.285 34.6549L63.9913 33.3987ZM62.616 30.8553C61.8879 30.1024 60.998 29.6432 60.0823 29.398L58.5707 35.042C58.6084 35.052 58.6005 35.0543 58.5639 35.0338C58.5251 35.0121 58.471 34.9741 58.4161 34.9174L62.616 30.8553ZM60.0823 29.398C59.1637 29.152 58.1768 29.1095 57.1859 29.3748L58.6971 35.0189C58.6435 35.0332 58.596 35.0373 58.5637 35.0367C58.5334 35.0362 58.5336 35.032 58.5707 35.042L60.0823 29.398ZM57.1376 29.3882C56.1452 29.6722 55.3127 30.2296 54.6624 30.9632L59.0346 34.8392C59.0268 34.848 58.9954 34.8807 58.9369 34.9184C58.8771 34.957 58.8103 34.9869 58.7453 35.0055L57.1376 29.3882ZM54.6912 30.9313C54.0081 31.6793 53.5909 32.5599 53.3528 33.449L58.9968 34.9605C59.0209 34.8708 59.0413 34.8285 59.0458 34.8199C59.0493 34.8131 59.0385 34.8354 59.0059 34.8711L54.6912 30.9313ZM53.3528 33.449L53.1848 34.0764L58.8288 35.5879L58.9968 34.9605L53.3528 33.449ZM53.1848 34.0764C52.929 35.0316 52.8576 36.0699 53.1172 37.1192L58.7891 35.7162C58.7988 35.7552 58.7968 35.7735 58.7973 35.76C58.7978 35.7442 58.8017 35.689 58.8288 35.5879L53.1848 34.0764ZM53.1364 37.1929C53.4221 38.2308 53.9869 39.1226 54.7651 39.8305L58.6968 35.5084C58.6917 35.5037 58.7078 35.5177 58.7289 35.5517C58.7505 35.5865 58.7637 35.6202 58.7699 35.6426L53.1364 37.1929ZM54.8215 39.8805C55.6166 40.5672 56.5466 40.9923 57.4893 41.2447L59.0008 35.6007C58.7031 35.521 58.6236 35.4439 58.6404 35.4583L54.8215 39.8805ZM57.4893 41.2447C58.3095 41.4644 59.2007 41.5844 60.1084 41.4817L59.4515 35.6758C59.4665 35.6741 59.3344 35.6901 59.0008 35.6007L57.4893 41.2447ZM60.1607 41.4753C60.9795 41.3677 61.7571 41.1132 62.4845 40.7646L59.9591 35.4957C59.6933 35.623 59.5098 35.6677 59.3993 35.6822L60.1607 41.4753ZM58.6638 39.5413L60.2247 42.3708L65.3408 39.5484L63.7798 36.7189L58.6638 39.5413ZM61.2002 38.5039C60.8636 38.7208 60.4681 38.8703 59.9682 38.9315L60.6785 44.7311C62.0005 44.5692 63.2446 44.1375 64.3653 43.4153L61.2002 38.5039ZM60.0123 38.9265C59.5465 38.9763 58.9003 38.9359 58.0308 38.7031L56.5193 44.3471C57.9 44.7168 59.2859 44.8806 60.6344 44.7362L60.0123 38.9265ZM78.2097 34.7496L76.2547 36.9205C76.266 36.9307 76.2775 36.9409 76.289 36.9509L78.2097 34.7496ZM79.4886 36.9007L76.6502 37.5923C76.6535 37.6059 76.6569 37.6195 76.6604 37.6331L79.4886 36.9007ZM77.5477 46.7455L76.7919 49.5675C78.3505 49.9849 79.9523 49.0598 80.3697 47.5013L77.5477 46.7455ZM73.437 45.6447L70.615 44.8889C70.1976 46.4475 71.1227 48.0493 72.6812 48.4667L73.437 45.6447ZM75.021 37.652L72.3827 38.9066C72.3993 38.9417 72.4167 38.9764 72.4348 39.0107L75.021 37.652ZM72.5001 36.6754L73.1315 39.5278C73.1609 39.5213 73.1903 39.5143 73.2195 39.5069L72.5001 36.6754ZM69.1748 44.5032L68.4191 47.3252C69.9776 47.7426 71.5794 46.8175 71.9968 45.259L69.1748 44.5032ZM65.0641 43.4023L62.2421 42.6466C61.8247 44.2051 62.7498 45.807 64.3083 46.2244L65.0641 43.4023ZM68.2045 31.676L68.9602 28.854C67.4017 28.4366 65.7999 29.3617 65.3825 30.9202L68.2045 31.676ZM72.1205 32.7247L74.9425 33.4804C75.3599 31.9219 74.4348 30.3201 72.8762 29.9027L72.1205 32.7247ZM71.2282 36.0565L68.5366 37.1925C69.0219 38.3424 70.1841 39.0569 71.4292 38.9711C72.6743 38.8852 73.7273 38.0179 74.0502 36.8123L71.2282 36.0565ZM70.7317 34.8802L68.585 32.8985C67.8075 33.7408 67.5944 34.96 68.0401 36.0162L70.7317 34.8802ZM73.0806 33.4687L73.7499 36.3125C73.7634 36.3093 73.7769 36.306 73.7904 36.3026L73.0806 33.4687ZM75.1382 36.3486C75.6468 36.4848 75.9957 36.6872 76.2547 36.9205L80.1647 32.5787C79.1534 31.668 77.9584 31.055 76.6497 30.7046L75.1382 36.3486ZM76.289 36.9509C76.444 37.0861 76.5698 37.2622 76.6502 37.5923L82.327 36.2091C81.9803 34.7862 81.2535 33.5283 80.1304 32.5483L76.289 36.9509ZM76.6604 37.6331C76.723 37.8746 76.763 38.3822 76.5219 39.2828L82.1659 40.7943C82.5736 39.2718 82.7102 37.6874 82.3168 36.1683L76.6604 37.6331ZM76.5219 39.2828L74.7257 45.9898L80.3697 47.5013L82.1659 40.7943L76.5219 39.2828ZM78.3034 43.9235L74.1927 42.8227L72.6812 48.4667L76.7919 49.5675L78.3034 43.9235ZM76.259 46.4004L77.8755 40.3641L72.2315 38.8526L70.615 44.8889L76.259 46.4004ZM77.8755 40.3641C78.1752 39.245 78.3558 37.7179 77.6072 36.2932L72.4348 39.0107C72.301 38.7562 72.2928 38.5661 72.2924 38.5404C72.2922 38.5274 72.2935 38.5459 72.2856 38.6014C72.2777 38.6566 72.2618 38.7394 72.2315 38.8526L77.8755 40.3641ZM77.6593 36.3973C76.9956 35.0016 75.7915 34.2078 74.5269 33.8692L73.0154 39.5132C73.0172 39.5137 72.907 39.4842 72.7575 39.3693C72.597 39.2459 72.4654 39.0807 72.3827 38.9066L77.6593 36.3973ZM74.5269 33.8692C73.6349 33.6303 72.7028 33.6096 71.7806 33.8439L73.2195 39.5069C73.1824 39.5163 73.1379 39.5221 73.0926 39.5216C73.0479 39.521 73.0204 39.5145 73.0154 39.5132L74.5269 33.8692ZM71.8686 33.823C70.7897 34.0618 69.904 34.6412 69.2326 35.3985L73.6048 39.2745C73.588 39.2934 73.537 39.3455 73.4455 39.4014C73.3513 39.459 73.2427 39.5032 73.1315 39.5278L71.8686 33.823ZM69.2326 35.3985C68.5194 36.203 68.1142 37.1702 67.8709 38.079L73.5149 39.5905C73.5636 39.4085 73.6081 39.3003 73.6338 39.2471C73.6593 39.1945 73.6566 39.216 73.6048 39.2745L69.2326 35.3985ZM67.8709 38.079L66.3528 43.7475L71.9968 45.259L73.5149 39.5905L67.8709 38.079ZM69.9306 41.6812L65.8198 40.5803L64.3083 46.2244L68.4191 47.3252L69.9306 41.6812ZM67.8861 44.1581L71.0265 32.4317L65.3825 30.9202L62.2421 42.6466L67.8861 44.1581ZM67.4487 34.498L71.3647 35.5467L72.8762 29.9027L68.9602 28.854L67.4487 34.498ZM69.2985 31.9689L68.4062 35.3008L74.0502 36.8123L74.9425 33.4804L69.2985 31.9689ZM73.9197 34.9206L73.4232 33.7442L68.0401 36.0162L68.5366 37.1925L73.9197 34.9206ZM72.8783 36.8618C73.1941 36.5197 73.4762 36.3769 73.7499 36.3125L72.4112 30.625C70.9032 30.98 69.6193 31.7781 68.585 32.8985L72.8783 36.8618ZM73.7904 36.3026C74.1562 36.211 74.5875 36.2011 75.1382 36.3486L76.6497 30.7046C75.2388 30.3267 73.7945 30.2782 72.3707 30.6348L73.7904 36.3026ZM82.1027 46.9916L79.6562 48.5882C79.6613 48.5961 79.6665 48.6039 79.6717 48.6117L82.1027 46.9916ZM84.446 33.2199L85.2018 30.3979C83.6432 29.9805 82.0414 30.9056 81.624 32.4642L84.446 33.2199ZM88.5567 34.3208L91.3788 35.0765C91.7961 33.518 90.871 31.9162 89.3125 31.4988L88.5567 34.3208ZM85.9537 45.4259L83.3808 46.8097C83.3947 46.8357 83.4091 46.8614 83.4239 46.887L85.9537 45.4259ZM88.1014 45.9779L91.014 45.7502C90.9426 44.8371 90.4472 44.0104 89.6756 43.5169C88.9041 43.0234 87.9458 42.9202 87.087 43.2382L88.1014 45.9779ZM88.3477 49.1277L89.2842 51.895C90.5506 51.4664 91.3644 50.2329 91.2602 48.9L88.3477 49.1277ZM86.9379 49.2835L87.1255 46.3681C87.099 46.3664 87.0724 46.365 87.0459 46.364L86.9379 49.2835ZM81.0971 38.885L78.2751 38.1292C77.8577 39.6878 78.7828 41.2896 80.3413 41.707L81.0971 38.885ZM81.9199 35.8128L82.6756 32.9908C81.1171 32.5734 79.5152 33.4985 79.0979 35.057L81.9199 35.8128ZM90.4226 38.0899L93.2446 38.8456C93.662 37.2871 92.7369 35.6852 91.1783 35.2678L90.4226 38.0899ZM89.5998 41.1621L88.8441 43.9841C90.4026 44.4015 92.0044 43.4764 92.4218 41.9178L89.5998 41.1621ZM86.0679 46.2116C85.0137 45.9293 84.6606 45.5617 84.5338 45.3714L79.6717 48.6117C80.824 50.3407 82.6106 51.3345 84.5564 51.8556L86.0679 46.2116ZM84.5493 45.3949C84.5057 45.328 84.3112 45.0167 84.5738 44.0361L78.9298 42.5246C78.3889 44.5442 78.4284 46.7069 79.6562 48.5882L84.5493 45.3949ZM84.5738 44.0361L87.268 33.9757L81.624 32.4642L78.9298 42.5246L84.5738 44.0361ZM83.6903 36.0419L87.801 37.1428L89.3125 31.4988L85.2018 30.3979L83.6903 36.0419ZM85.7347 33.565L83.0521 43.5822L88.6961 45.0937L91.3788 35.0765L85.7347 33.565ZM83.0521 43.5822C82.7964 44.5368 82.7828 45.6978 83.3808 46.8097L88.5267 44.0421C88.6471 44.2661 88.7082 44.5 88.7236 44.7104C88.7383 44.9104 88.7089 45.0459 88.6961 45.0937L83.0521 43.5822ZM83.4239 46.887C84.0228 47.924 84.9694 48.5577 85.9923 48.8316L87.5038 43.1876C87.6272 43.2207 87.8115 43.292 88.009 43.4371C88.2114 43.5859 88.3719 43.7715 88.4836 43.9649L83.4239 46.887ZM85.9923 48.8316C86.9729 49.0942 88.0516 49.1116 89.1159 48.7176L87.087 43.2382C87.1925 43.1991 87.2971 43.1816 87.3857 43.1796C87.4704 43.1776 87.5134 43.1902 87.5038 43.1876L85.9923 48.8316ZM85.1888 46.2056L85.4351 49.3554L91.2602 48.9L91.014 45.7502L85.1888 46.2056ZM87.4111 46.3605C87.4394 46.3509 87.3642 46.3834 87.1255 46.3681L86.7503 52.1989C87.5754 52.252 88.44 52.1807 89.2842 51.895L87.4111 46.3605ZM87.0459 46.364C86.7414 46.3528 86.4167 46.305 86.0679 46.2116L84.5564 51.8556C85.3038 52.0558 86.063 52.1746 86.83 52.2029L87.0459 46.364ZM83.9191 39.6408L84.7419 36.5685L79.0979 35.057L78.2751 38.1292L83.9191 39.6408ZM81.1641 38.6348L89.6668 40.9119L91.1783 35.2678L82.6756 32.9908L81.1641 38.6348ZM87.6006 37.3341L86.7778 40.4063L92.4218 41.9178L93.2446 38.8456L87.6006 37.3341ZM90.3556 38.3401L81.8529 36.063L80.3413 41.707L88.8441 43.9841L90.3556 38.3401Z" fill="white" mask="url(#path-27-outside-2_373_2633)"/>
<defs>
<clipPath id="clip0_373_2633">
<rect width="121" height="69.7831" fill="white" transform="translate(0 0.108398)"/>
</clipPath>
</defs>
</svg>
