<svg width="764" height="69" viewBox="0 0 764 69" fill="none" xmlns="http://www.w3.org/2000/svg">
<g filter="url(#filter0_d_427_43023)">
<mask id="path-1-outside-1_427_43023" maskUnits="userSpaceOnUse" x="-6.5" y="-6" width="766" height="74" fill="black">
<rect fill="white" x="-6.5" y="-6" width="766" height="74"/>
<path d="M14.5696 49L0.144 3.91999H15.7932L27.4496 41.9804H19.5928L31.9576 3.91999H45.9324L57.46 41.9804H49.9252L62.0968 3.91999H76.5224L62.0968 49H45.8036L36.4012 17.8304H40.7804L30.8628 49H14.5696ZM104.862 13.1292C107.567 13.1292 110.014 13.6873 112.204 14.8036C114.393 15.8769 116.11 17.5728 117.356 19.8912C118.644 22.2096 119.288 25.2149 119.288 28.9072V49H104.733V31.4188C104.733 29.2292 104.347 27.6836 103.574 26.782C102.801 25.8375 101.749 25.3652 100.418 25.3652C99.4309 25.3652 98.5078 25.6013 97.6491 26.0736C96.8334 26.5029 96.1679 27.2328 95.6527 28.2632C95.1805 29.2936 94.9443 30.6889 94.9443 32.4492V49H80.3899V1.21519H94.9443V24.0772L91.4667 21.1148C92.8406 18.4529 94.6867 16.4565 97.0051 15.1256C99.3665 13.7947 101.985 13.1292 104.862 13.1292ZM146.925 49V42.7532L145.894 41.0788V29.2292C145.894 27.5119 145.358 26.2024 144.284 25.3008C143.254 24.3992 141.558 23.9484 139.197 23.9484C137.608 23.9484 135.998 24.206 134.367 24.7212C132.735 25.1935 131.34 25.8589 130.181 26.7176L125.544 17.122C127.605 15.834 130.073 14.8465 132.95 14.1596C135.826 13.4727 138.639 13.1292 141.386 13.1292C147.44 13.1292 152.12 14.4816 155.425 17.1864C158.774 19.8912 160.449 24.1845 160.449 30.0664V49H146.925ZM136.943 49.644C134.066 49.644 131.662 49.1503 129.73 48.1628C127.798 47.1753 126.338 45.8659 125.351 44.2344C124.363 42.56 123.869 40.7139 123.869 38.696C123.869 36.4205 124.449 34.4885 125.608 32.9C126.767 31.3115 128.528 30.1093 130.889 29.2936C133.293 28.4779 136.32 28.07 139.969 28.07H147.311V35.0896H142.288C140.742 35.0896 139.605 35.3472 138.875 35.8624C138.188 36.3347 137.844 37.0645 137.844 38.052C137.844 38.8677 138.145 39.5547 138.746 40.1128C139.39 40.628 140.249 40.8856 141.322 40.8856C142.309 40.8856 143.211 40.628 144.027 40.1128C144.885 39.5547 145.508 38.696 145.894 37.5368L147.762 41.8516C147.204 44.4705 146.023 46.424 144.22 47.712C142.417 49 139.991 49.644 136.943 49.644ZM183.74 49.644C178.889 49.644 175.111 48.4848 172.406 46.1664C169.701 43.8051 168.349 40.1987 168.349 35.3472V5.85199H182.903V35.2184C182.903 36.2917 183.182 37.1289 183.74 37.73C184.341 38.3311 185.071 38.6316 185.93 38.6316C187.175 38.6316 188.27 38.3096 189.214 37.6656L192.692 47.7764C191.576 48.4204 190.223 48.8927 188.635 49.1932C187.089 49.4937 185.458 49.644 183.74 49.644ZM163.519 26.3312V15.7052H190.116V26.3312H163.519ZM216.118 49V3.91999H231.317V49H216.118ZM276.424 49.644C272.388 49.644 268.803 48.8712 265.669 47.3256C262.535 45.78 260.066 43.6333 258.263 40.8856C256.502 38.0949 255.622 34.9179 255.622 31.3544C255.622 27.7909 256.502 24.6353 258.263 21.8876C260.066 19.1399 262.535 16.9932 265.669 15.4476C268.803 13.902 272.388 13.1292 276.424 13.1292C280.717 13.1292 284.388 14.0523 287.436 15.8984C290.484 17.7445 292.588 20.2991 293.747 23.562L282.477 29.1004C281.747 27.4689 280.846 26.2883 279.772 25.5584C278.742 24.8285 277.604 24.4636 276.359 24.4636C275.286 24.4636 274.277 24.7212 273.332 25.2364C272.431 25.7516 271.701 26.5244 271.143 27.5548C270.628 28.5423 270.37 29.8088 270.37 31.3544C270.37 32.9 270.628 34.188 271.143 35.2184C271.701 36.2488 272.431 37.0216 273.332 37.5368C274.277 38.052 275.286 38.3096 276.359 38.3096C277.604 38.3096 278.742 37.9447 279.772 37.2148C280.846 36.4849 281.747 35.3043 282.477 33.6728L293.747 39.2112C292.588 42.4741 290.484 45.0287 287.436 46.8748C284.388 48.7209 280.717 49.644 276.424 49.644ZM318.427 49V42.7532L317.397 41.0788V29.2292C317.397 27.5119 316.86 26.2024 315.787 25.3008C314.757 24.3992 313.061 23.9484 310.699 23.9484C309.111 23.9484 307.501 24.206 305.869 24.7212C304.238 25.1935 302.843 25.8589 301.683 26.7176L297.047 17.122C299.107 15.834 301.576 14.8465 304.453 14.1596C307.329 13.4727 310.141 13.1292 312.889 13.1292C318.943 13.1292 323.622 14.4816 326.928 17.1864C330.277 19.8912 331.951 24.1845 331.951 30.0664V49H318.427ZM308.445 49.644C305.569 49.644 303.165 49.1503 301.233 48.1628C299.301 47.1753 297.841 45.8659 296.853 44.2344C295.866 42.56 295.372 40.7139 295.372 38.696C295.372 36.4205 295.952 34.4885 297.111 32.9C298.27 31.3115 300.031 30.1093 302.392 29.2936C304.796 28.4779 307.823 28.07 311.472 28.07H318.814V35.0896H313.791C312.245 35.0896 311.107 35.3472 310.377 35.8624C309.691 36.3347 309.347 37.0645 309.347 38.052C309.347 38.8677 309.648 39.5547 310.249 40.1128C310.893 40.628 311.751 40.8856 312.825 40.8856C313.812 40.8856 314.714 40.628 315.529 40.1128C316.388 39.5547 317.011 38.696 317.397 37.5368L319.265 41.8516C318.707 44.4705 317.526 46.424 315.723 47.712C313.919 49 311.494 49.644 308.445 49.644ZM362.714 13.1292C365.418 13.1292 367.866 13.6873 370.055 14.8036C372.245 15.8769 373.962 17.5728 375.207 19.8912C376.495 22.2096 377.139 25.2149 377.139 28.9072V49H362.585V31.4188C362.585 29.2292 362.198 27.6836 361.426 26.782C360.653 25.8375 359.601 25.3652 358.27 25.3652C357.282 25.3652 356.359 25.6013 355.501 26.0736C354.685 26.5029 354.02 27.2328 353.504 28.2632C353.032 29.2936 352.796 30.6889 352.796 32.4492V49H338.242V13.7732H352.088V24.0772L349.318 21.1148C350.692 18.4529 352.538 16.4565 354.857 15.1256C357.218 13.7947 359.837 13.1292 362.714 13.1292ZM418.223 49.644C415.175 49.644 412.341 48.9141 409.723 47.4544C407.147 45.9517 405.086 43.848 403.54 41.1432C401.995 38.3955 401.222 35.1325 401.222 31.3544C401.222 27.5763 401.995 24.3348 403.54 21.63C405.086 18.8823 407.147 16.7785 409.723 15.3188C412.341 13.8591 415.175 13.1292 418.223 13.1292C421.315 13.1292 423.848 13.7947 425.823 15.1256C427.797 16.4136 429.257 18.41 430.202 21.1148C431.146 23.7767 431.619 27.1899 431.619 31.3544C431.619 35.5619 431.168 39.018 430.266 41.7228C429.407 44.4276 427.991 46.424 426.016 47.712C424.084 49 421.486 49.644 418.223 49.644ZM421.701 38.3096C422.774 38.3096 423.74 38.052 424.599 37.5368C425.458 37.0216 426.145 36.2488 426.66 35.2184C427.175 34.1451 427.433 32.8571 427.433 31.3544C427.433 29.8088 427.175 28.5423 426.66 27.5548C426.145 26.5244 425.458 25.7516 424.599 25.2364C423.74 24.7212 422.774 24.4636 421.701 24.4636C420.628 24.4636 419.662 24.7212 418.803 25.2364C417.944 25.7516 417.257 26.5244 416.742 27.5548C416.227 28.5423 415.969 29.8088 415.969 31.3544C415.969 32.8571 416.227 34.1451 416.742 35.2184C417.257 36.2488 417.944 37.0216 418.803 37.5368C419.662 38.052 420.628 38.3096 421.701 38.3096ZM427.883 49V44.2344L427.819 31.3544L427.175 18.4744V1.21519H441.729V49H427.883ZM466.786 49.644C462.793 49.644 459.251 48.8712 456.16 47.3256C453.112 45.7371 450.707 43.5689 448.947 40.8212C447.187 38.0735 446.307 34.9179 446.307 31.3544C446.307 27.7909 447.187 24.6353 448.947 21.8876C450.707 19.1399 453.112 16.9932 456.16 15.4476C459.251 13.902 462.793 13.1292 466.786 13.1292C470.779 13.1292 474.321 13.902 477.412 15.4476C480.503 16.9932 482.907 19.1399 484.625 21.8876C486.385 24.6353 487.265 27.7909 487.265 31.3544C487.265 34.9179 486.385 38.0735 484.625 40.8212C482.907 43.5689 480.503 45.7371 477.412 47.3256C474.321 48.8712 470.779 49.644 466.786 49.644ZM466.786 38.3096C467.859 38.3096 468.825 38.052 469.684 37.5368C470.543 37.0216 471.23 36.2488 471.745 35.2184C472.26 34.1451 472.518 32.8571 472.518 31.3544C472.518 29.8088 472.26 28.5423 471.745 27.5548C471.23 26.5244 470.543 25.7516 469.684 25.2364C468.825 24.7212 467.859 24.4636 466.786 24.4636C465.713 24.4636 464.747 24.7212 463.888 25.2364C463.029 25.7516 462.342 26.5244 461.827 27.5548C461.312 28.5423 461.054 29.8088 461.054 31.3544C461.054 32.8571 461.312 34.1451 461.827 35.2184C462.342 36.2488 463.029 37.0216 463.888 37.5368C464.747 38.052 465.713 38.3096 466.786 38.3096ZM512.738 49V15.512C512.738 10.9611 514.09 7.33319 516.795 4.62839C519.543 1.92359 523.428 0.571191 528.451 0.571191C529.997 0.571191 531.543 0.721457 533.088 1.02199C534.677 1.27959 536.008 1.70893 537.081 2.30999L533.603 12.4208C533.131 12.2061 532.616 12.0129 532.058 11.8412C531.5 11.6695 530.92 11.5836 530.319 11.5836C529.289 11.5836 528.451 11.9056 527.807 12.5496C527.163 13.1936 526.841 14.224 526.841 15.6408V17.3152L527.292 23.3044V49H512.738ZM507.908 26.3312V15.7052H534.505V26.3312H507.908ZM556.845 49.644C552.853 49.644 549.311 48.8712 546.219 47.3256C543.171 45.7371 540.767 43.5689 539.007 40.8212C537.246 38.0735 536.366 34.9179 536.366 31.3544C536.366 27.7909 537.246 24.6353 539.007 21.8876C540.767 19.1399 543.171 16.9932 546.219 15.4476C549.311 13.902 552.853 13.1292 556.845 13.1292C560.838 13.1292 564.38 13.902 567.471 15.4476C570.563 16.9932 572.967 19.1399 574.684 21.8876C576.444 24.6353 577.325 27.7909 577.325 31.3544C577.325 34.9179 576.444 38.0735 574.684 40.8212C572.967 43.5689 570.563 45.7371 567.471 47.3256C564.38 48.8712 560.838 49.644 556.845 49.644ZM556.845 38.3096C557.919 38.3096 558.885 38.052 559.743 37.5368C560.602 37.0216 561.289 36.2488 561.804 35.2184C562.319 34.1451 562.577 32.8571 562.577 31.3544C562.577 29.8088 562.319 28.5423 561.804 27.5548C561.289 26.5244 560.602 25.7516 559.743 25.2364C558.885 24.7212 557.919 24.4636 556.845 24.4636C555.772 24.4636 554.806 24.7212 553.947 25.2364C553.089 25.7516 552.402 26.5244 551.887 27.5548C551.371 28.5423 551.114 29.8088 551.114 31.3544C551.114 32.8571 551.371 34.1451 551.887 35.2184C552.402 36.2488 553.089 37.0216 553.947 37.5368C554.806 38.052 555.772 38.3096 556.845 38.3096ZM581.88 49V13.7732H595.726V24.3992L593.472 21.3724C594.545 18.6247 596.263 16.5639 598.624 15.19C600.985 13.8161 603.819 13.1292 607.125 13.1292V26.0092C606.481 25.9233 605.901 25.8589 605.386 25.816C604.914 25.7731 604.42 25.7516 603.905 25.7516C601.715 25.7516 599.912 26.3312 598.495 27.4904C597.121 28.6067 596.434 30.5601 596.434 33.3508V49H581.88ZM638.285 62.1376C636.353 62.1376 634.378 61.8371 632.36 61.236C630.385 60.6779 628.797 59.9265 627.595 58.982L632.425 49C633.155 49.5581 633.97 50.0089 634.872 50.3524C635.816 50.6959 636.718 50.8676 637.577 50.8676C638.865 50.8676 639.852 50.5885 640.539 50.0304C641.226 49.5152 641.784 48.7209 642.214 47.6476L643.695 43.9124L644.725 42.4956L655.995 13.7732H669.777L655.287 49.7084C653.999 52.9284 652.496 55.44 650.779 57.2432C649.104 59.0464 647.215 60.3129 645.112 61.0428C643.051 61.7727 640.775 62.1376 638.285 62.1376ZM641.698 50.61L626.371 13.7732H641.312L651.874 41.2076L641.698 50.61ZM689.67 49.644C685.678 49.644 682.136 48.8712 679.044 47.3256C675.996 45.7371 673.592 43.5689 671.832 40.8212C670.071 38.0735 669.191 34.9179 669.191 31.3544C669.191 27.7909 670.071 24.6353 671.832 21.8876C673.592 19.1399 675.996 16.9932 679.044 15.4476C682.136 13.902 685.678 13.1292 689.67 13.1292C693.663 13.1292 697.205 13.902 700.296 15.4476C703.388 16.9932 705.792 19.1399 707.509 21.8876C709.269 24.6353 710.15 27.7909 710.15 31.3544C710.15 34.9179 709.269 38.0735 707.509 40.8212C705.792 43.5689 703.388 45.7371 700.296 47.3256C697.205 48.8712 693.663 49.644 689.67 49.644ZM689.67 38.3096C690.744 38.3096 691.71 38.052 692.568 37.5368C693.427 37.0216 694.114 36.2488 694.629 35.2184C695.144 34.1451 695.402 32.8571 695.402 31.3544C695.402 29.8088 695.144 28.5423 694.629 27.5548C694.114 26.5244 693.427 25.7516 692.568 25.2364C691.71 24.7212 690.744 24.4636 689.67 24.4636C688.597 24.4636 687.631 24.7212 686.772 25.2364C685.914 25.7516 685.227 26.5244 684.712 27.5548C684.196 28.5423 683.939 29.8088 683.939 31.3544C683.939 32.8571 684.196 34.1451 684.712 35.2184C685.227 36.2488 685.914 37.0216 686.772 37.5368C687.631 38.052 688.597 38.3096 689.67 38.3096ZM729.388 49.644C726.597 49.644 724.064 49.0859 721.789 47.9696C719.556 46.8104 717.796 45.0287 716.508 42.6244C715.22 40.1772 714.576 37.0431 714.576 33.222V13.7732H729.13V30.7104C729.13 33.2005 729.538 34.9393 730.354 35.9268C731.17 36.9143 732.286 37.408 733.703 37.408C734.562 37.408 735.356 37.1933 736.086 36.764C736.858 36.2917 737.481 35.5404 737.953 34.51C738.426 33.4367 738.662 32.0413 738.662 30.324V13.7732H753.216V49H739.37V38.8248L742.139 41.594C740.894 44.3417 739.112 46.3811 736.794 47.712C734.519 49 732.05 49.644 729.388 49.644Z"/>
</mask>
<path d="M14.5696 49L0.144 3.91999H15.7932L27.4496 41.9804H19.5928L31.9576 3.91999H45.9324L57.46 41.9804H49.9252L62.0968 3.91999H76.5224L62.0968 49H45.8036L36.4012 17.8304H40.7804L30.8628 49H14.5696ZM104.862 13.1292C107.567 13.1292 110.014 13.6873 112.204 14.8036C114.393 15.8769 116.11 17.5728 117.356 19.8912C118.644 22.2096 119.288 25.2149 119.288 28.9072V49H104.733V31.4188C104.733 29.2292 104.347 27.6836 103.574 26.782C102.801 25.8375 101.749 25.3652 100.418 25.3652C99.4309 25.3652 98.5078 25.6013 97.6491 26.0736C96.8334 26.5029 96.1679 27.2328 95.6527 28.2632C95.1805 29.2936 94.9443 30.6889 94.9443 32.4492V49H80.3899V1.21519H94.9443V24.0772L91.4667 21.1148C92.8406 18.4529 94.6867 16.4565 97.0051 15.1256C99.3665 13.7947 101.985 13.1292 104.862 13.1292ZM146.925 49V42.7532L145.894 41.0788V29.2292C145.894 27.5119 145.358 26.2024 144.284 25.3008C143.254 24.3992 141.558 23.9484 139.197 23.9484C137.608 23.9484 135.998 24.206 134.367 24.7212C132.735 25.1935 131.34 25.8589 130.181 26.7176L125.544 17.122C127.605 15.834 130.073 14.8465 132.95 14.1596C135.826 13.4727 138.639 13.1292 141.386 13.1292C147.44 13.1292 152.12 14.4816 155.425 17.1864C158.774 19.8912 160.449 24.1845 160.449 30.0664V49H146.925ZM136.943 49.644C134.066 49.644 131.662 49.1503 129.73 48.1628C127.798 47.1753 126.338 45.8659 125.351 44.2344C124.363 42.56 123.869 40.7139 123.869 38.696C123.869 36.4205 124.449 34.4885 125.608 32.9C126.767 31.3115 128.528 30.1093 130.889 29.2936C133.293 28.4779 136.32 28.07 139.969 28.07H147.311V35.0896H142.288C140.742 35.0896 139.605 35.3472 138.875 35.8624C138.188 36.3347 137.844 37.0645 137.844 38.052C137.844 38.8677 138.145 39.5547 138.746 40.1128C139.39 40.628 140.249 40.8856 141.322 40.8856C142.309 40.8856 143.211 40.628 144.027 40.1128C144.885 39.5547 145.508 38.696 145.894 37.5368L147.762 41.8516C147.204 44.4705 146.023 46.424 144.22 47.712C142.417 49 139.991 49.644 136.943 49.644ZM183.74 49.644C178.889 49.644 175.111 48.4848 172.406 46.1664C169.701 43.8051 168.349 40.1987 168.349 35.3472V5.85199H182.903V35.2184C182.903 36.2917 183.182 37.1289 183.74 37.73C184.341 38.3311 185.071 38.6316 185.93 38.6316C187.175 38.6316 188.27 38.3096 189.214 37.6656L192.692 47.7764C191.576 48.4204 190.223 48.8927 188.635 49.1932C187.089 49.4937 185.458 49.644 183.74 49.644ZM163.519 26.3312V15.7052H190.116V26.3312H163.519ZM216.118 49V3.91999H231.317V49H216.118ZM276.424 49.644C272.388 49.644 268.803 48.8712 265.669 47.3256C262.535 45.78 260.066 43.6333 258.263 40.8856C256.502 38.0949 255.622 34.9179 255.622 31.3544C255.622 27.7909 256.502 24.6353 258.263 21.8876C260.066 19.1399 262.535 16.9932 265.669 15.4476C268.803 13.902 272.388 13.1292 276.424 13.1292C280.717 13.1292 284.388 14.0523 287.436 15.8984C290.484 17.7445 292.588 20.2991 293.747 23.562L282.477 29.1004C281.747 27.4689 280.846 26.2883 279.772 25.5584C278.742 24.8285 277.604 24.4636 276.359 24.4636C275.286 24.4636 274.277 24.7212 273.332 25.2364C272.431 25.7516 271.701 26.5244 271.143 27.5548C270.628 28.5423 270.37 29.8088 270.37 31.3544C270.37 32.9 270.628 34.188 271.143 35.2184C271.701 36.2488 272.431 37.0216 273.332 37.5368C274.277 38.052 275.286 38.3096 276.359 38.3096C277.604 38.3096 278.742 37.9447 279.772 37.2148C280.846 36.4849 281.747 35.3043 282.477 33.6728L293.747 39.2112C292.588 42.4741 290.484 45.0287 287.436 46.8748C284.388 48.7209 280.717 49.644 276.424 49.644ZM318.427 49V42.7532L317.397 41.0788V29.2292C317.397 27.5119 316.86 26.2024 315.787 25.3008C314.757 24.3992 313.061 23.9484 310.699 23.9484C309.111 23.9484 307.501 24.206 305.869 24.7212C304.238 25.1935 302.843 25.8589 301.683 26.7176L297.047 17.122C299.107 15.834 301.576 14.8465 304.453 14.1596C307.329 13.4727 310.141 13.1292 312.889 13.1292C318.943 13.1292 323.622 14.4816 326.928 17.1864C330.277 19.8912 331.951 24.1845 331.951 30.0664V49H318.427ZM308.445 49.644C305.569 49.644 303.165 49.1503 301.233 48.1628C299.301 47.1753 297.841 45.8659 296.853 44.2344C295.866 42.56 295.372 40.7139 295.372 38.696C295.372 36.4205 295.952 34.4885 297.111 32.9C298.27 31.3115 300.031 30.1093 302.392 29.2936C304.796 28.4779 307.823 28.07 311.472 28.07H318.814V35.0896H313.791C312.245 35.0896 311.107 35.3472 310.377 35.8624C309.691 36.3347 309.347 37.0645 309.347 38.052C309.347 38.8677 309.648 39.5547 310.249 40.1128C310.893 40.628 311.751 40.8856 312.825 40.8856C313.812 40.8856 314.714 40.628 315.529 40.1128C316.388 39.5547 317.011 38.696 317.397 37.5368L319.265 41.8516C318.707 44.4705 317.526 46.424 315.723 47.712C313.919 49 311.494 49.644 308.445 49.644ZM362.714 13.1292C365.418 13.1292 367.866 13.6873 370.055 14.8036C372.245 15.8769 373.962 17.5728 375.207 19.8912C376.495 22.2096 377.139 25.2149 377.139 28.9072V49H362.585V31.4188C362.585 29.2292 362.198 27.6836 361.426 26.782C360.653 25.8375 359.601 25.3652 358.27 25.3652C357.282 25.3652 356.359 25.6013 355.501 26.0736C354.685 26.5029 354.02 27.2328 353.504 28.2632C353.032 29.2936 352.796 30.6889 352.796 32.4492V49H338.242V13.7732H352.088V24.0772L349.318 21.1148C350.692 18.4529 352.538 16.4565 354.857 15.1256C357.218 13.7947 359.837 13.1292 362.714 13.1292ZM418.223 49.644C415.175 49.644 412.341 48.9141 409.723 47.4544C407.147 45.9517 405.086 43.848 403.54 41.1432C401.995 38.3955 401.222 35.1325 401.222 31.3544C401.222 27.5763 401.995 24.3348 403.54 21.63C405.086 18.8823 407.147 16.7785 409.723 15.3188C412.341 13.8591 415.175 13.1292 418.223 13.1292C421.315 13.1292 423.848 13.7947 425.823 15.1256C427.797 16.4136 429.257 18.41 430.202 21.1148C431.146 23.7767 431.619 27.1899 431.619 31.3544C431.619 35.5619 431.168 39.018 430.266 41.7228C429.407 44.4276 427.991 46.424 426.016 47.712C424.084 49 421.486 49.644 418.223 49.644ZM421.701 38.3096C422.774 38.3096 423.74 38.052 424.599 37.5368C425.458 37.0216 426.145 36.2488 426.66 35.2184C427.175 34.1451 427.433 32.8571 427.433 31.3544C427.433 29.8088 427.175 28.5423 426.66 27.5548C426.145 26.5244 425.458 25.7516 424.599 25.2364C423.74 24.7212 422.774 24.4636 421.701 24.4636C420.628 24.4636 419.662 24.7212 418.803 25.2364C417.944 25.7516 417.257 26.5244 416.742 27.5548C416.227 28.5423 415.969 29.8088 415.969 31.3544C415.969 32.8571 416.227 34.1451 416.742 35.2184C417.257 36.2488 417.944 37.0216 418.803 37.5368C419.662 38.052 420.628 38.3096 421.701 38.3096ZM427.883 49V44.2344L427.819 31.3544L427.175 18.4744V1.21519H441.729V49H427.883ZM466.786 49.644C462.793 49.644 459.251 48.8712 456.16 47.3256C453.112 45.7371 450.707 43.5689 448.947 40.8212C447.187 38.0735 446.307 34.9179 446.307 31.3544C446.307 27.7909 447.187 24.6353 448.947 21.8876C450.707 19.1399 453.112 16.9932 456.16 15.4476C459.251 13.902 462.793 13.1292 466.786 13.1292C470.779 13.1292 474.321 13.902 477.412 15.4476C480.503 16.9932 482.907 19.1399 484.625 21.8876C486.385 24.6353 487.265 27.7909 487.265 31.3544C487.265 34.9179 486.385 38.0735 484.625 40.8212C482.907 43.5689 480.503 45.7371 477.412 47.3256C474.321 48.8712 470.779 49.644 466.786 49.644ZM466.786 38.3096C467.859 38.3096 468.825 38.052 469.684 37.5368C470.543 37.0216 471.23 36.2488 471.745 35.2184C472.26 34.1451 472.518 32.8571 472.518 31.3544C472.518 29.8088 472.26 28.5423 471.745 27.5548C471.23 26.5244 470.543 25.7516 469.684 25.2364C468.825 24.7212 467.859 24.4636 466.786 24.4636C465.713 24.4636 464.747 24.7212 463.888 25.2364C463.029 25.7516 462.342 26.5244 461.827 27.5548C461.312 28.5423 461.054 29.8088 461.054 31.3544C461.054 32.8571 461.312 34.1451 461.827 35.2184C462.342 36.2488 463.029 37.0216 463.888 37.5368C464.747 38.052 465.713 38.3096 466.786 38.3096ZM512.738 49V15.512C512.738 10.9611 514.09 7.33319 516.795 4.62839C519.543 1.92359 523.428 0.571191 528.451 0.571191C529.997 0.571191 531.543 0.721457 533.088 1.02199C534.677 1.27959 536.008 1.70893 537.081 2.30999L533.603 12.4208C533.131 12.2061 532.616 12.0129 532.058 11.8412C531.5 11.6695 530.92 11.5836 530.319 11.5836C529.289 11.5836 528.451 11.9056 527.807 12.5496C527.163 13.1936 526.841 14.224 526.841 15.6408V17.3152L527.292 23.3044V49H512.738ZM507.908 26.3312V15.7052H534.505V26.3312H507.908ZM556.845 49.644C552.853 49.644 549.311 48.8712 546.219 47.3256C543.171 45.7371 540.767 43.5689 539.007 40.8212C537.246 38.0735 536.366 34.9179 536.366 31.3544C536.366 27.7909 537.246 24.6353 539.007 21.8876C540.767 19.1399 543.171 16.9932 546.219 15.4476C549.311 13.902 552.853 13.1292 556.845 13.1292C560.838 13.1292 564.38 13.902 567.471 15.4476C570.563 16.9932 572.967 19.1399 574.684 21.8876C576.444 24.6353 577.325 27.7909 577.325 31.3544C577.325 34.9179 576.444 38.0735 574.684 40.8212C572.967 43.5689 570.563 45.7371 567.471 47.3256C564.38 48.8712 560.838 49.644 556.845 49.644ZM556.845 38.3096C557.919 38.3096 558.885 38.052 559.743 37.5368C560.602 37.0216 561.289 36.2488 561.804 35.2184C562.319 34.1451 562.577 32.8571 562.577 31.3544C562.577 29.8088 562.319 28.5423 561.804 27.5548C561.289 26.5244 560.602 25.7516 559.743 25.2364C558.885 24.7212 557.919 24.4636 556.845 24.4636C555.772 24.4636 554.806 24.7212 553.947 25.2364C553.089 25.7516 552.402 26.5244 551.887 27.5548C551.371 28.5423 551.114 29.8088 551.114 31.3544C551.114 32.8571 551.371 34.1451 551.887 35.2184C552.402 36.2488 553.089 37.0216 553.947 37.5368C554.806 38.052 555.772 38.3096 556.845 38.3096ZM581.88 49V13.7732H595.726V24.3992L593.472 21.3724C594.545 18.6247 596.263 16.5639 598.624 15.19C600.985 13.8161 603.819 13.1292 607.125 13.1292V26.0092C606.481 25.9233 605.901 25.8589 605.386 25.816C604.914 25.7731 604.42 25.7516 603.905 25.7516C601.715 25.7516 599.912 26.3312 598.495 27.4904C597.121 28.6067 596.434 30.5601 596.434 33.3508V49H581.88ZM638.285 62.1376C636.353 62.1376 634.378 61.8371 632.36 61.236C630.385 60.6779 628.797 59.9265 627.595 58.982L632.425 49C633.155 49.5581 633.97 50.0089 634.872 50.3524C635.816 50.6959 636.718 50.8676 637.577 50.8676C638.865 50.8676 639.852 50.5885 640.539 50.0304C641.226 49.5152 641.784 48.7209 642.214 47.6476L643.695 43.9124L644.725 42.4956L655.995 13.7732H669.777L655.287 49.7084C653.999 52.9284 652.496 55.44 650.779 57.2432C649.104 59.0464 647.215 60.3129 645.112 61.0428C643.051 61.7727 640.775 62.1376 638.285 62.1376ZM641.698 50.61L626.371 13.7732H641.312L651.874 41.2076L641.698 50.61ZM689.67 49.644C685.678 49.644 682.136 48.8712 679.044 47.3256C675.996 45.7371 673.592 43.5689 671.832 40.8212C670.071 38.0735 669.191 34.9179 669.191 31.3544C669.191 27.7909 670.071 24.6353 671.832 21.8876C673.592 19.1399 675.996 16.9932 679.044 15.4476C682.136 13.902 685.678 13.1292 689.67 13.1292C693.663 13.1292 697.205 13.902 700.296 15.4476C703.388 16.9932 705.792 19.1399 707.509 21.8876C709.269 24.6353 710.15 27.7909 710.15 31.3544C710.15 34.9179 709.269 38.0735 707.509 40.8212C705.792 43.5689 703.388 45.7371 700.296 47.3256C697.205 48.8712 693.663 49.644 689.67 49.644ZM689.67 38.3096C690.744 38.3096 691.71 38.052 692.568 37.5368C693.427 37.0216 694.114 36.2488 694.629 35.2184C695.144 34.1451 695.402 32.8571 695.402 31.3544C695.402 29.8088 695.144 28.5423 694.629 27.5548C694.114 26.5244 693.427 25.7516 692.568 25.2364C691.71 24.7212 690.744 24.4636 689.67 24.4636C688.597 24.4636 687.631 24.7212 686.772 25.2364C685.914 25.7516 685.227 26.5244 684.712 27.5548C684.196 28.5423 683.939 29.8088 683.939 31.3544C683.939 32.8571 684.196 34.1451 684.712 35.2184C685.227 36.2488 685.914 37.0216 686.772 37.5368C687.631 38.052 688.597 38.3096 689.67 38.3096ZM729.388 49.644C726.597 49.644 724.064 49.0859 721.789 47.9696C719.556 46.8104 717.796 45.0287 716.508 42.6244C715.22 40.1772 714.576 37.0431 714.576 33.222V13.7732H729.13V30.7104C729.13 33.2005 729.538 34.9393 730.354 35.9268C731.17 36.9143 732.286 37.408 733.703 37.408C734.562 37.408 735.356 37.1933 736.086 36.764C736.858 36.2917 737.481 35.5404 737.953 34.51C738.426 33.4367 738.662 32.0413 738.662 30.324V13.7732H753.216V49H739.37V38.8248L742.139 41.594C740.894 44.3417 739.112 46.3811 736.794 47.712C734.519 49 732.05 49.644 729.388 49.644Z" fill="black"/>
<path d="M14.5696 49L8.99359 50.7843C9.76954 53.2092 12.0236 54.8545 14.5696 54.8545V49ZM0.144 3.91999V-1.93456C-1.72547 -1.93456 -3.48253 -1.04175 -4.58475 0.468229C-5.68696 1.97821 -6.00178 3.92378 -5.43201 5.70431L0.144 3.91999ZM15.7932 3.91999L21.3911 2.20557C20.6376 -0.254638 18.3662 -1.93456 15.7932 -1.93456V3.91999ZM27.4496 41.9804V47.8349C29.3062 47.8349 31.0527 46.9544 32.1567 45.4617C33.2606 43.969 33.5912 42.0412 33.0475 40.266L27.4496 41.9804ZM19.5928 41.9804L14.0247 40.1715C13.4457 41.9538 13.7549 43.9056 14.8564 45.4217C15.958 46.9378 17.7188 47.8349 19.5928 47.8349V41.9804ZM31.9576 3.91999V-1.93456C29.4212 -1.93456 27.1732 -0.301254 26.3895 2.11107L31.9576 3.91999ZM45.9324 3.91999L51.5356 2.22292C50.7878 -0.246029 48.5121 -1.93456 45.9324 -1.93456V3.91999ZM57.46 41.9804V47.8349C59.3134 47.8349 61.0573 46.9574 62.1617 45.469C63.266 43.9806 63.6004 42.0571 63.0632 40.2833L57.46 41.9804ZM49.9252 41.9804L44.3489 40.1971C43.7795 41.9776 44.0945 43.9229 45.1968 45.4326C46.299 46.9423 48.0559 47.8349 49.9252 47.8349V41.9804ZM62.0968 3.91999V-1.93456C59.5505 -1.93456 57.2961 -0.288663 56.5205 2.13669L62.0968 3.91999ZM76.5224 3.91999L82.0984 5.70431C82.6682 3.92378 82.3534 1.97821 81.2512 0.46823C80.1489 -1.04175 78.3919 -1.93456 76.5224 -1.93456V3.91999ZM62.0968 49V54.8545C64.6428 54.8545 66.8969 53.2092 67.6728 50.7843L62.0968 49ZM45.8036 49L40.1985 50.6908C40.9442 53.1629 43.2215 54.8545 45.8036 54.8545V49ZM36.4012 17.8304V11.9758C34.549 11.9758 32.806 12.8523 31.7015 14.3392C30.597 15.8261 30.2612 17.7479 30.7961 19.5212L36.4012 17.8304ZM40.7804 17.8304L46.3594 19.6055C46.9257 17.8257 46.6088 15.8824 45.5063 14.3747C44.4039 12.867 42.6482 11.9758 40.7804 11.9758V17.8304ZM30.8628 49V54.8545C33.4123 54.8545 35.6687 53.2046 36.4418 50.7751L30.8628 49ZM20.1456 47.2157L5.72001 2.13567L-5.43201 5.70431L8.99359 50.7843L20.1456 47.2157ZM0.144 9.77454H15.7932V-1.93456H0.144V9.77454ZM10.1953 5.63441L21.8517 43.6948L33.0475 40.266L21.3911 2.20557L10.1953 5.63441ZM27.4496 36.1259H19.5928V47.8349H27.4496V36.1259ZM25.1609 43.7893L37.5257 5.72891L26.3895 2.11107L14.0247 40.1715L25.1609 43.7893ZM31.9576 9.77454H45.9324V-1.93456H31.9576V9.77454ZM40.3292 5.61706L51.8568 43.6775L63.0632 40.2833L51.5356 2.22292L40.3292 5.61706ZM57.46 36.1259H49.9252V47.8349H57.46V36.1259ZM55.5015 43.7637L67.6731 5.70329L56.5205 2.13669L44.3489 40.1971L55.5015 43.7637ZM62.0968 9.77454H76.5224V-1.93456H62.0968V9.77454ZM70.9464 2.13567L56.5208 47.2157L67.6728 50.7843L82.0984 5.70431L70.9464 2.13567ZM62.0968 43.1455H45.8036V54.8545H62.0968V43.1455ZM51.4087 47.3092L42.0063 16.1396L30.7961 19.5212L40.1985 50.6908L51.4087 47.3092ZM36.4012 23.6849H40.7804V11.9758H36.4012V23.6849ZM35.2015 16.0553L25.2839 47.2249L36.4418 50.7751L46.3594 19.6055L35.2015 16.0553ZM30.8628 43.1455H14.5696V54.8545H30.8628V43.1455ZM112.204 14.8036L109.544 20.0194C109.572 20.0333 109.599 20.047 109.627 20.0605L112.204 14.8036ZM117.356 19.8912L112.198 22.6611C112.211 22.6857 112.224 22.7101 112.238 22.7344L117.356 19.8912ZM119.288 49V54.8545C122.521 54.8545 125.142 52.2334 125.142 49H119.288ZM104.733 49H98.8786C98.8786 52.2334 101.5 54.8545 104.733 54.8545V49ZM103.574 26.782L99.0428 30.4893C99.0711 30.5239 99.0998 30.5582 99.1288 30.5921L103.574 26.782ZM97.6491 26.0736L100.376 31.2544C100.408 31.2377 100.439 31.2207 100.471 31.2034L97.6491 26.0736ZM95.6527 28.2632L90.4163 25.645C90.3867 25.7041 90.3581 25.7638 90.3306 25.8239L95.6527 28.2632ZM94.9443 49V54.8545C98.1777 54.8545 100.799 52.2334 100.799 49H94.9443ZM80.3899 49H74.5354C74.5354 52.2334 77.1566 54.8545 80.3899 54.8545V49ZM80.3899 1.21519V-4.63936C77.1566 -4.63936 74.5354 -2.01819 74.5354 1.21519H80.3899ZM94.9443 1.21519H100.799C100.799 -2.01819 98.1777 -4.63936 94.9443 -4.63936V1.21519ZM94.9443 24.0772L91.1479 28.5339C92.8859 30.0145 95.326 30.3496 97.3988 29.3924C99.4716 28.4352 100.799 26.3603 100.799 24.0772H94.9443ZM91.4667 21.1148L86.2643 18.4296C85.0162 20.8477 85.5988 23.8069 87.6703 25.5715L91.4667 21.1148ZM97.0051 15.1256L94.1305 10.0254C94.1171 10.0329 94.1037 10.0406 94.0903 10.0482L97.0051 15.1256ZM104.862 18.9837C106.737 18.9837 108.259 19.3639 109.544 20.0194L114.863 9.58774C111.769 8.01074 108.397 7.27465 104.862 7.27465V18.9837ZM109.627 20.0605C110.629 20.5517 111.483 21.331 112.198 22.6611L122.513 17.1213C120.738 13.8145 118.158 11.2021 114.78 9.54667L109.627 20.0605ZM112.238 22.7344C112.89 23.9084 113.433 25.8396 113.433 28.9072H125.142C125.142 24.5903 124.397 20.5108 122.473 17.048L112.238 22.7344ZM113.433 28.9072V49H125.142V28.9072H113.433ZM119.288 43.1455H104.733V54.8545H119.288V43.1455ZM110.588 49V31.4188H98.8786V49H110.588ZM110.588 31.4188C110.588 28.8742 110.205 25.5221 108.019 22.9719L99.1288 30.5921C98.7572 30.1585 98.719 29.8589 98.7636 30.0373C98.8066 30.2093 98.8786 30.638 98.8786 31.4188H110.588ZM108.105 23.0747C106.111 20.6368 103.324 19.5107 100.418 19.5107V31.2197C100.384 31.2197 100.143 31.2111 99.8075 31.0603C99.457 30.903 99.1967 30.6775 99.0428 30.4893L108.105 23.0747ZM100.418 19.5107C98.4523 19.5107 96.5577 19.9923 94.8277 20.9437L100.471 31.2034C100.477 31.1998 100.476 31.2008 100.468 31.204C100.46 31.2072 100.449 31.2109 100.436 31.2142C100.424 31.2175 100.414 31.2191 100.408 31.2198C100.402 31.2205 100.405 31.2197 100.418 31.2197V19.5107ZM94.9224 20.8928C92.7779 22.0215 91.3412 23.7952 90.4163 25.645L100.889 30.8814C100.945 30.7701 100.949 30.7947 100.864 30.8875C100.773 30.9883 100.611 31.1309 100.376 31.2544L94.9224 20.8928ZM90.3306 25.8239C89.3673 27.9255 89.0898 30.2651 89.0898 32.4492H100.799C100.799 31.821 100.842 31.3676 100.894 31.0594C100.947 30.7474 100.997 30.6535 100.975 30.7025L90.3306 25.8239ZM89.0898 32.4492V49H100.799V32.4492H89.0898ZM94.9443 43.1455H80.3899V54.8545H94.9443V43.1455ZM86.2445 49V1.21519H74.5354V49H86.2445ZM80.3899 7.06974H94.9443V-4.63936H80.3899V7.06974ZM89.0898 1.21519V24.0772H100.799V1.21519H89.0898ZM98.7408 19.6205L95.2632 16.6581L87.6703 25.5715L91.1479 28.5339L98.7408 19.6205ZM96.6692 23.7999C97.5908 22.0144 98.6932 20.9072 99.9199 20.203L94.0903 10.0482C90.6803 12.0058 88.0904 14.8915 86.2643 18.4296L96.6692 23.7999ZM99.8798 20.2258C101.31 19.4198 102.929 18.9837 104.862 18.9837V7.27465C101.042 7.27465 97.4232 8.16951 94.1305 10.0254L99.8798 20.2258ZM146.925 49H141.07C141.07 52.2334 143.691 54.8545 146.925 54.8545V49ZM146.925 42.7532H152.779C152.779 41.6698 152.479 40.6076 151.911 39.6848L146.925 42.7532ZM145.894 41.0788H140.04C140.04 42.1622 140.34 43.2244 140.908 44.1472L145.894 41.0788ZM144.284 25.3008L140.429 29.7068C140.459 29.7327 140.489 29.7583 140.519 29.7836L144.284 25.3008ZM134.367 24.7212L135.995 30.3449C136.04 30.3318 136.085 30.3182 136.13 30.304L134.367 24.7212ZM130.181 26.7176L124.909 29.2648C125.668 30.8349 127.087 31.985 128.78 32.4022C130.473 32.8193 132.264 32.46 133.665 31.4221L130.181 26.7176ZM125.544 17.122L122.441 12.1573C119.907 13.741 118.972 16.9788 120.273 19.6692L125.544 17.122ZM132.95 14.1596L134.31 19.854L132.95 14.1596ZM155.425 17.1864L151.718 21.7176C151.728 21.7254 151.737 21.7331 151.747 21.7409L155.425 17.1864ZM160.449 49V54.8545C163.682 54.8545 166.303 52.2334 166.303 49H160.449ZM129.73 48.1628L127.065 53.3759L129.73 48.1628ZM125.351 44.2344L120.308 47.2084C120.319 47.2276 120.331 47.2468 120.342 47.2659L125.351 44.2344ZM125.608 32.9L130.338 36.3511L125.608 32.9ZM130.889 29.2936L129.008 23.7495C128.998 23.7529 128.988 23.7564 128.977 23.7599L130.889 29.2936ZM147.311 28.07H153.166C153.166 24.8366 150.544 22.2155 147.311 22.2155V28.07ZM147.311 35.0896V40.9441C150.544 40.9441 153.166 38.323 153.166 35.0896H147.311ZM138.875 35.8624L142.191 40.6868C142.211 40.6731 142.231 40.6593 142.251 40.6454L138.875 35.8624ZM138.746 40.1128L134.762 44.403C134.867 44.5008 134.976 44.5947 135.089 44.6844L138.746 40.1128ZM144.027 40.1128L147.153 45.0628C147.175 45.0491 147.196 45.0354 147.217 45.0215L144.027 40.1128ZM145.894 37.5368L151.267 35.2112C150.303 32.9841 148.065 31.5825 145.64 31.6878C143.216 31.793 141.108 33.3831 140.34 35.6854L145.894 37.5368ZM147.762 41.8516L153.488 43.0719C153.741 41.882 153.618 40.6426 153.135 39.526L147.762 41.8516ZM144.22 47.712L140.817 42.948L144.22 47.712ZM152.779 49V42.7532H141.07V49H152.779ZM151.911 39.6848L150.88 38.0104L140.908 44.1472L141.939 45.8216L151.911 39.6848ZM151.749 41.0788V29.2292H140.04V41.0788H151.749ZM151.749 29.2292C151.749 26.2085 150.742 23.0796 148.05 20.8179L140.519 29.7836C140.433 29.7116 140.341 29.6163 140.256 29.4997C140.171 29.3833 140.112 29.2714 140.075 29.1793C140 28.9963 140.04 28.9736 140.04 29.2292H151.749ZM148.14 20.8948C145.501 18.5858 142.037 18.0938 139.197 18.0938V29.8029C140.032 29.8029 140.514 29.8857 140.736 29.9445C140.951 30.0018 140.754 29.9912 140.429 29.7068L148.14 20.8948ZM139.197 18.0938C136.966 18.0938 134.762 18.4569 132.604 19.1384L136.13 30.304C137.235 29.955 138.251 29.8029 139.197 29.8029V18.0938ZM132.739 19.0975C130.555 19.7298 128.504 20.6738 126.696 22.0131L133.665 31.4221C134.176 31.0441 134.916 30.6572 135.995 30.3449L132.739 19.0975ZM135.452 24.1704L130.815 14.5748L120.273 19.6692L124.909 29.2648L135.452 24.1704ZM128.647 22.0866C130.068 21.1985 131.921 20.4245 134.31 19.854L131.59 8.46517C128.226 9.26854 125.142 10.4695 122.441 12.1573L128.647 22.0866ZM134.31 19.854C136.775 19.2654 139.13 18.9837 141.386 18.9837V7.27465C138.147 7.27465 134.878 7.6799 131.59 8.46517L134.31 19.854ZM141.386 18.9837C146.642 18.9837 149.819 20.1635 151.718 21.7176L159.133 12.6552C154.42 8.79966 148.238 7.27465 141.386 7.27465V18.9837ZM151.747 21.7409C153.261 22.9642 154.594 25.2659 154.594 30.0664H166.303C166.303 23.1031 164.287 16.8182 159.104 12.6319L151.747 21.7409ZM154.594 30.0664V49H166.303V30.0664H154.594ZM160.449 43.1455H146.925V54.8545H160.449V43.1455ZM136.943 43.7895C134.703 43.7895 133.277 43.401 132.394 42.9497L127.065 53.3759C130.046 54.8995 133.429 55.4985 136.943 55.4985V43.7895ZM132.394 42.9497C131.295 42.3876 130.709 41.7804 130.359 41.2029L120.342 47.2659C121.968 49.9514 124.301 51.963 127.065 53.3759L132.394 42.9497ZM130.394 41.2604C129.958 40.5222 129.724 39.7094 129.724 38.696H118.015C118.015 41.7183 118.768 44.5978 120.308 47.2084L130.394 41.2604ZM129.724 38.696C129.724 37.459 130.02 36.7858 130.338 36.3511L120.879 29.4489C118.878 32.1913 118.015 35.382 118.015 38.696H129.724ZM130.338 36.3511C130.623 35.9601 131.263 35.3583 132.801 34.8273L128.977 23.7599C125.792 24.8603 122.912 26.6629 120.879 29.4489L130.338 36.3511ZM132.77 34.8377C134.367 34.296 136.705 33.9245 139.969 33.9245V22.2155C135.936 22.2155 132.22 22.6597 129.008 23.7495L132.77 34.8377ZM139.969 33.9245H147.311V22.2155H139.969V33.9245ZM141.457 28.07V35.0896H153.166V28.07H141.457ZM147.311 29.2351H142.288V40.9441H147.311V29.2351ZM142.288 29.2351C140.318 29.2351 137.706 29.5209 135.498 31.0794L142.251 40.6454C142.036 40.7972 141.854 40.8858 141.737 40.934C141.622 40.9817 141.559 40.995 141.568 40.9928C141.577 40.9908 141.639 40.9777 141.765 40.9657C141.889 40.9537 142.062 40.9441 142.288 40.9441V29.2351ZM135.558 31.038C132.973 32.815 131.99 35.5448 131.99 38.052H143.699C143.699 38.2309 143.667 38.6872 143.399 39.2568C143.114 39.8632 142.673 40.3556 142.191 40.6868L135.558 31.038ZM131.99 38.052C131.99 40.5059 132.976 42.7441 134.762 44.403L142.73 35.8226C142.962 36.0382 143.233 36.3736 143.433 36.8324C143.634 37.2919 143.699 37.7239 143.699 38.052H131.99ZM135.089 44.6844C137.048 46.2518 139.324 46.7401 141.322 46.7401V35.0311C141.246 35.0311 141.344 35.0213 141.555 35.0848C141.782 35.1527 142.09 35.2907 142.403 35.5412L135.089 44.6844ZM141.322 46.7401C143.389 46.7401 145.379 46.1834 147.153 45.0628L140.9 35.1628C140.95 35.1316 141.03 35.0918 141.13 35.0631C141.23 35.0347 141.301 35.0311 141.322 35.0311V46.7401ZM147.217 45.0215C149.391 43.6085 150.727 41.5526 151.448 39.3882L140.34 35.6854C140.308 35.7826 140.31 35.7353 140.398 35.6138C140.493 35.4825 140.642 35.3305 140.836 35.2041L147.217 45.0215ZM140.521 39.8624L142.389 44.1772L153.135 39.526L151.267 35.2112L140.521 39.8624ZM142.036 40.6313C141.716 42.1343 141.193 42.6795 140.817 42.948L147.623 52.476C150.853 50.1685 152.692 46.8068 153.488 43.0719L142.036 40.6313ZM140.817 42.948C140.318 43.3047 139.218 43.7895 136.943 43.7895V55.4985C140.764 55.4985 144.516 54.6953 147.623 52.476L140.817 42.948ZM172.406 46.1664L168.556 50.5767C168.569 50.5884 168.582 50.6 168.596 50.6115L172.406 46.1664ZM168.349 5.85199V-0.00255299C165.115 -0.00255299 162.494 2.61862 162.494 5.85199H168.349ZM182.903 5.85199H188.758C188.758 2.61862 186.137 -0.00255299 182.903 -0.00255299V5.85199ZM183.74 37.73L179.45 41.7137C179.499 41.7667 179.549 41.8187 179.601 41.8698L183.74 37.73ZM189.214 37.6656L194.751 35.7614C194.157 34.0351 192.792 32.6845 191.059 32.1093C189.326 31.534 187.425 31.8 185.916 32.8284L189.214 37.6656ZM192.692 47.7764L195.618 52.8475C198.045 51.447 199.14 48.5225 198.228 45.8722L192.692 47.7764ZM188.635 49.1932L187.546 43.4407C187.537 43.4425 187.527 43.4444 187.517 43.4463L188.635 49.1932ZM163.519 26.3312H157.664C157.664 29.5646 160.285 32.1857 163.519 32.1857V26.3312ZM163.519 15.7052V9.85065C160.285 9.85065 157.664 12.4718 157.664 15.7052H163.519ZM190.116 15.7052H195.971C195.971 12.4718 193.349 9.85065 190.116 9.85065V15.7052ZM190.116 26.3312V32.1857C193.349 32.1857 195.971 29.5646 195.971 26.3312H190.116ZM183.74 43.7895C179.779 43.7895 177.53 42.8472 176.216 41.7213L168.596 50.6115C172.692 54.1224 177.998 55.4985 183.74 55.4985V43.7895ZM176.256 41.7561C175.23 40.8599 174.203 39.1321 174.203 35.3472H162.494C162.494 41.2652 164.173 46.7502 168.556 50.5767L176.256 41.7561ZM174.203 35.3472V5.85199H162.494V35.3472H174.203ZM168.349 11.7065H182.903V-0.00255299H168.349V11.7065ZM177.049 5.85199V35.2184H188.758V5.85199H177.049ZM177.049 35.2184C177.049 37.3006 177.607 39.7292 179.45 41.7137L188.031 33.7463C188.362 34.1037 188.562 34.4868 188.667 34.7999C188.764 35.0913 188.758 35.2571 188.758 35.2184H177.049ZM179.601 41.8698C181.312 43.5813 183.536 44.4861 185.93 44.4861V32.7771C186.198 32.7771 186.566 32.827 186.968 32.9926C187.371 33.1587 187.677 33.3867 187.88 33.5902L179.601 41.8698ZM185.93 44.4861C188.242 44.4861 190.509 43.8689 192.512 42.5028L185.916 32.8284C185.929 32.82 185.947 32.8086 185.972 32.7972C185.996 32.7859 186.017 32.7781 186.033 32.7734C186.048 32.7689 186.051 32.7694 186.037 32.7713C186.023 32.7733 185.989 32.7771 185.93 32.7771V44.4861ZM183.678 39.5698L187.156 49.6806L198.228 45.8722L194.751 35.7614L183.678 39.5698ZM189.766 42.7053C189.344 42.949 188.646 43.2327 187.546 43.4407L189.723 54.9457C191.801 54.5527 193.808 53.8918 195.618 52.8475L189.766 42.7053ZM187.517 43.4463C186.371 43.6691 185.116 43.7895 183.74 43.7895V55.4985C185.799 55.4985 187.807 55.3184 189.752 54.9401L187.517 43.4463ZM169.373 26.3312V15.7052H157.664V26.3312H169.373ZM163.519 21.5597H190.116V9.85065H163.519V21.5597ZM184.261 15.7052V26.3312H195.971V15.7052H184.261ZM190.116 20.4767H163.519V32.1857H190.116V20.4767ZM216.118 49H210.264C210.264 52.2334 212.885 54.8545 216.118 54.8545V49ZM216.118 3.91999V-1.93456C212.885 -1.93456 210.264 0.686614 210.264 3.91999H216.118ZM231.317 3.91999H237.171C237.171 0.686614 234.55 -1.93456 231.317 -1.93456V3.91999ZM231.317 49V54.8545C234.55 54.8545 237.171 52.2334 237.171 49H231.317ZM221.973 49V3.91999H210.264V49H221.973ZM216.118 9.77454H231.317V-1.93456H216.118V9.77454ZM225.462 3.91999V49H237.171V3.91999H225.462ZM231.317 43.1455H216.118V54.8545H231.317V43.1455ZM265.669 47.3256L263.079 52.5764L265.669 47.3256ZM258.263 40.8856L253.311 44.009C253.33 44.0388 253.349 44.0683 253.368 44.0977L258.263 40.8856ZM258.263 21.8876L253.368 18.6755C253.356 18.6934 253.345 18.7114 253.333 18.7295L258.263 21.8876ZM265.669 15.4476L268.258 20.6984L265.669 15.4476ZM287.436 15.8984L284.403 20.9061V20.9061L287.436 15.8984ZM293.747 23.562L296.329 28.8164C298.997 27.5053 300.259 24.4031 299.264 21.6021L293.747 23.562ZM282.477 29.1004L277.133 31.4912C277.782 32.942 278.993 34.0666 280.488 34.6066C281.983 35.1467 283.633 35.0557 285.059 34.3548L282.477 29.1004ZM279.772 25.5584L276.388 30.3358C276.419 30.3574 276.449 30.3787 276.48 30.3997L279.772 25.5584ZM273.332 25.2364L270.529 20.0967C270.495 20.1152 270.461 20.1341 270.428 20.1532L273.332 25.2364ZM271.143 27.5548L265.995 24.7664C265.98 24.793 265.966 24.8198 265.952 24.8467L271.143 27.5548ZM271.143 35.2184L265.906 37.8366C265.935 37.8938 265.964 37.9506 265.995 38.0068L271.143 35.2184ZM273.332 37.5368L270.428 42.62C270.461 42.6391 270.495 42.658 270.529 42.6765L273.332 37.5368ZM279.772 37.2148L276.48 32.3735C276.449 32.3945 276.419 32.4158 276.388 32.4373L279.772 37.2148ZM282.477 33.6728L285.059 28.4184C283.633 27.7174 281.983 27.6265 280.488 28.1666C278.993 28.7066 277.782 29.8312 277.133 31.282L282.477 33.6728ZM293.747 39.2112L299.264 41.1711C300.259 38.3701 298.997 35.2679 296.329 33.9568L293.747 39.2112ZM287.436 46.8748L290.469 51.8825V51.8825L287.436 46.8748ZM276.424 43.7895C273.147 43.7895 270.471 43.166 268.258 42.0748L263.079 52.5764C267.135 54.5764 271.629 55.4985 276.424 55.4985V43.7895ZM268.258 42.0748C265.999 40.9607 264.351 39.4926 263.157 37.6735L253.368 44.0977C255.781 47.7741 259.07 50.5993 263.079 52.5764L268.258 42.0748ZM263.215 37.7622C262.091 35.9815 261.477 33.9045 261.477 31.3544H249.768C249.768 35.9313 250.914 40.2084 253.311 44.009L263.215 37.7622ZM261.477 31.3544C261.477 28.8033 262.091 26.7645 263.192 25.0457L253.333 18.7295C250.914 22.5061 249.768 26.7785 249.768 31.3544H261.477ZM263.157 25.0997C264.351 23.2806 265.999 21.8125 268.258 20.6984L263.079 10.1968C259.07 12.1739 255.781 14.9991 253.368 18.6755L263.157 25.0997ZM268.258 20.6984C270.471 19.6072 273.147 18.9837 276.424 18.9837V7.27465C271.629 7.27465 267.135 8.19676 263.079 10.1968L268.258 20.6984ZM276.424 18.9837C279.867 18.9837 282.441 19.7177 284.403 20.9061L290.469 10.8907C286.335 8.38681 281.566 7.27465 276.424 7.27465V18.9837ZM284.403 20.9061C286.333 22.0752 287.537 23.5706 288.23 25.5219L299.264 21.6021C297.639 17.0275 294.635 13.4139 290.469 10.8907L284.403 20.9061ZM291.165 18.3076L279.895 23.846L285.059 34.3548L296.329 28.8164L291.165 18.3076ZM287.821 26.7096C286.809 24.4461 285.314 22.2465 283.064 20.7171L276.48 30.3997C276.378 30.33 276.686 30.4917 277.133 31.4912L287.821 26.7096ZM283.156 20.7809C281.152 19.361 278.835 18.6091 276.359 18.6091V30.3181C276.383 30.3181 276.391 30.3198 276.387 30.3191C276.384 30.3188 276.381 30.3181 276.375 30.3168C276.37 30.3155 276.364 30.3139 276.358 30.3121C276.352 30.3102 276.348 30.3084 276.344 30.307C276.341 30.3056 276.339 30.3049 276.341 30.3055C276.342 30.3064 276.358 30.3146 276.388 30.3358L283.156 20.7809ZM276.359 18.6091C274.304 18.6091 272.331 19.1136 270.529 20.0967L276.136 30.3761C276.223 30.3288 276.268 30.3181 276.359 30.3181V18.6091ZM270.428 20.1532C268.462 21.2767 267.004 22.9035 265.995 24.7664L276.291 30.3432C276.322 30.2861 276.345 30.251 276.358 30.2332C276.37 30.2156 276.373 30.2136 276.365 30.2223C276.357 30.2311 276.34 30.247 276.316 30.2662C276.292 30.2855 276.265 30.3038 276.237 30.3196L270.428 20.1532ZM265.952 24.8467C264.865 26.9307 264.515 29.2115 264.515 31.3544H276.225C276.225 30.4061 276.39 30.1539 276.333 30.2629L265.952 24.8467ZM264.515 31.3544C264.515 33.5127 264.87 35.7644 265.906 37.8366L276.379 32.6002C276.385 32.6116 276.225 32.2873 276.225 31.3544H264.515ZM265.995 38.0068C267.004 39.8697 268.462 41.4965 270.428 42.62L276.237 32.4536C276.265 32.4694 276.292 32.4877 276.316 32.507C276.34 32.5262 276.357 32.5421 276.365 32.5509C276.373 32.5596 276.37 32.5576 276.358 32.54C276.345 32.5222 276.322 32.4871 276.291 32.43L265.995 38.0068ZM270.529 42.6765C272.331 43.6596 274.304 44.1641 276.359 44.1641V32.4551C276.268 32.4551 276.223 32.4444 276.136 32.3971L270.529 42.6765ZM276.359 44.1641C278.835 44.1641 281.152 43.4122 283.156 41.9923L276.388 32.4373C276.358 32.4586 276.342 32.4668 276.341 32.4677C276.339 32.4683 276.341 32.4676 276.344 32.4662C276.348 32.4648 276.352 32.463 276.358 32.4611C276.364 32.4592 276.37 32.4576 276.375 32.4564C276.381 32.4551 276.384 32.4544 276.387 32.4541C276.391 32.4533 276.383 32.4551 276.359 32.4551V44.1641ZM283.064 42.0561C285.314 40.5267 286.809 38.327 287.821 36.0636L277.133 31.282C276.686 32.2815 276.378 32.4432 276.48 32.3735L283.064 42.0561ZM279.895 38.9272L291.165 44.4656L296.329 33.9568L285.059 28.4184L279.895 38.9272ZM288.23 37.2513C287.537 39.2026 286.333 40.698 284.403 41.8671L290.469 51.8825C294.635 49.3593 297.639 45.7457 299.264 41.1711L288.23 37.2513ZM284.403 41.8671C282.441 43.0555 279.867 43.7895 276.424 43.7895V55.4985C281.566 55.4985 286.335 54.3864 290.469 51.8825L284.403 41.8671ZM318.427 49H312.573C312.573 52.2334 315.194 54.8545 318.427 54.8545V49ZM318.427 42.7532H324.282C324.282 41.6698 323.981 40.6076 323.414 39.6848L318.427 42.7532ZM317.397 41.0788H311.543C311.543 42.1622 311.843 43.2244 312.411 44.1472L317.397 41.0788ZM315.787 25.3008L311.932 29.7068C311.961 29.7327 311.991 29.7583 312.021 29.7836L315.787 25.3008ZM305.869 24.7212L307.497 30.3449C307.543 30.3318 307.588 30.3182 307.632 30.304L305.869 24.7212ZM301.683 26.7176L296.412 29.2648C297.171 30.8349 298.59 31.985 300.283 32.4022C301.976 32.8193 303.767 32.46 305.168 31.4221L301.683 26.7176ZM297.047 17.122L293.944 12.1573C291.41 13.741 290.475 16.9788 291.775 19.6692L297.047 17.122ZM304.453 14.1596L305.812 19.854H305.813L304.453 14.1596ZM326.928 17.1864L323.221 21.7176C323.23 21.7254 323.24 21.7331 323.25 21.7409L326.928 17.1864ZM331.951 49V54.8545C335.185 54.8545 337.806 52.2334 337.806 49H331.951ZM301.233 48.1628L298.568 53.3759L301.233 48.1628ZM296.853 44.2344L291.811 47.2084C291.822 47.2276 291.833 47.2468 291.845 47.2659L296.853 44.2344ZM297.111 32.9L301.84 36.3511L297.111 32.9ZM302.392 29.2936L300.511 23.7495C300.501 23.7529 300.49 23.7564 300.48 23.7599L302.392 29.2936ZM318.814 28.07H324.668C324.668 24.8366 322.047 22.2155 318.814 22.2155V28.07ZM318.814 35.0896V40.9441C322.047 40.9441 324.668 38.323 324.668 35.0896H318.814ZM310.377 35.8624L313.694 40.6868C313.714 40.6731 313.734 40.6593 313.754 40.6454L310.377 35.8624ZM310.249 40.1128L306.265 44.403C306.37 44.5008 306.479 44.5947 306.591 44.6844L310.249 40.1128ZM315.529 40.1128L318.656 45.0628C318.677 45.0491 318.699 45.0354 318.72 45.0215L315.529 40.1128ZM317.397 37.5368L322.77 35.2112C321.806 32.9841 319.568 31.5825 317.143 31.6878C314.719 31.793 312.61 33.3831 311.843 35.6854L317.397 37.5368ZM319.265 41.8516L324.991 43.0719C325.244 41.882 325.121 40.6426 324.638 39.526L319.265 41.8516ZM315.723 47.712L312.32 42.948L315.723 47.712ZM324.282 49V42.7532H312.573V49H324.282ZM323.414 39.6848L322.383 38.0104L312.411 44.1472L313.441 45.8216L323.414 39.6848ZM323.252 41.0788V29.2292H311.543V41.0788H323.252ZM323.252 29.2292C323.252 26.2085 322.245 23.0796 319.553 20.8179L312.021 29.7836C311.936 29.7116 311.844 29.6163 311.759 29.4997C311.674 29.3833 311.615 29.2714 311.577 29.1793C311.502 28.9963 311.543 28.9736 311.543 29.2292H323.252ZM319.642 20.8948C317.003 18.5858 313.54 18.0938 310.699 18.0938V29.8029C311.535 29.8029 312.017 29.8857 312.238 29.9445C312.454 30.0018 312.257 29.9912 311.932 29.7068L319.642 20.8948ZM310.699 18.0938C308.469 18.0938 306.264 18.4569 304.106 19.1384L307.632 30.304C308.737 29.955 309.753 29.8029 310.699 29.8029V18.0938ZM304.242 19.0975C302.057 19.7298 300.007 20.6738 298.199 22.0131L305.168 31.4221C305.679 31.0441 306.418 30.6572 307.497 30.3449L304.242 19.0975ZM306.955 24.1704L302.318 14.5748L291.775 19.6692L296.412 29.2648L306.955 24.1704ZM300.15 22.0866C301.571 21.1985 303.424 20.4245 305.812 19.854L303.093 8.46517C299.729 9.26854 296.644 10.4695 293.944 12.1573L300.15 22.0866ZM305.813 19.854C308.277 19.2654 310.633 18.9837 312.889 18.9837V7.27465C309.65 7.27465 306.381 7.6799 303.093 8.46517L305.813 19.854ZM312.889 18.9837C318.145 18.9837 321.322 20.1635 323.221 21.7176L330.636 12.6552C325.923 8.79966 319.74 7.27465 312.889 7.27465V18.9837ZM323.25 21.7409C324.764 22.9642 326.097 25.2659 326.097 30.0664H337.806C337.806 23.1031 335.79 16.8182 330.607 12.6319L323.25 21.7409ZM326.097 30.0664V49H337.806V30.0664H326.097ZM331.951 43.1455H318.427V54.8545H331.951V43.1455ZM308.445 43.7895C306.206 43.7895 304.78 43.401 303.897 42.9497L298.568 53.3759C301.549 54.8995 304.932 55.4985 308.445 55.4985V43.7895ZM303.897 42.9497C302.797 42.3876 302.212 41.7804 301.862 41.2029L291.845 47.2659C293.47 49.9514 295.804 51.963 298.568 53.3759L303.897 42.9497ZM301.896 41.2604C301.461 40.5222 301.227 39.7094 301.227 38.696H289.518C289.518 41.7183 290.271 44.5978 291.811 47.2084L301.896 41.2604ZM301.227 38.696C301.227 37.459 301.523 36.7858 301.84 36.3511L292.382 29.4489C290.381 32.1913 289.518 35.382 289.518 38.696H301.227ZM301.84 36.3511C302.126 35.9601 302.766 35.3583 304.303 34.8273L300.48 23.7599C297.295 24.8603 294.415 26.6629 292.382 29.4489L301.84 36.3511ZM304.273 34.8377C305.869 34.296 308.207 33.9245 311.472 33.9245V22.2155C307.438 22.2155 303.723 22.6597 300.511 23.7495L304.273 34.8377ZM311.472 33.9245H318.814V22.2155H311.472V33.9245ZM312.959 28.07V35.0896H324.668V28.07H312.959ZM318.814 29.2351H313.791V40.9441H318.814V29.2351ZM313.791 29.2351C311.821 29.2351 309.209 29.5209 307.001 31.0794L313.754 40.6454C313.539 40.7972 313.356 40.8858 313.24 40.934C313.125 40.9817 313.061 40.995 313.071 40.9928C313.08 40.9908 313.142 40.9777 313.267 40.9657C313.392 40.9537 313.565 40.9441 313.791 40.9441V29.2351ZM307.061 31.038C304.476 32.815 303.493 35.5448 303.493 38.052H315.202C315.202 38.2309 315.17 38.6872 314.902 39.2568C314.617 39.8632 314.176 40.3556 313.694 40.6868L307.061 31.038ZM303.493 38.052C303.493 40.5059 304.478 42.7441 306.265 44.403L314.232 35.8226C314.465 36.0382 314.735 36.3736 314.936 36.8324C315.137 37.2919 315.202 37.7239 315.202 38.052H303.493ZM306.591 44.6844C308.551 46.2518 310.826 46.7401 312.825 46.7401V35.0311C312.749 35.0311 312.846 35.0213 313.058 35.0848C313.284 35.1527 313.593 35.2907 313.906 35.5412L306.591 44.6844ZM312.825 46.7401C314.891 46.7401 316.881 46.1834 318.656 45.0628L312.403 35.1628C312.453 35.1316 312.533 35.0918 312.633 35.0631C312.732 35.0347 312.803 35.0311 312.825 35.0311V46.7401ZM318.72 45.0215C320.894 43.6085 322.23 41.5526 322.951 39.3882L311.843 35.6854C311.811 35.7826 311.812 35.7353 311.9 35.6138C311.996 35.4825 312.144 35.3305 312.339 35.2041L318.72 45.0215ZM312.024 39.8624L313.892 44.1772L324.638 39.526L322.77 35.2112L312.024 39.8624ZM313.539 40.6313C313.218 42.1343 312.696 42.6795 312.32 42.948L319.126 52.476C322.356 50.1685 324.195 46.8068 324.991 43.0719L313.539 40.6313ZM312.32 42.948C311.82 43.3047 310.721 43.7895 308.445 43.7895V55.4985C312.266 55.4985 316.019 54.6953 319.126 52.476L312.32 42.948ZM370.055 14.8036L367.396 20.0194C367.423 20.0333 367.451 20.047 367.478 20.0605L370.055 14.8036ZM375.207 19.8912L370.049 22.6611C370.062 22.6857 370.076 22.7101 370.089 22.7344L375.207 19.8912ZM377.139 49V54.8545C380.372 54.8545 382.994 52.2334 382.994 49H377.139ZM362.585 49H356.73C356.73 52.2334 359.351 54.8545 362.585 54.8545V49ZM361.426 26.782L356.894 30.4893C356.923 30.5239 356.951 30.5582 356.98 30.5921L361.426 26.782ZM355.501 26.0736L358.227 31.2544C358.259 31.2377 358.291 31.2207 358.322 31.2034L355.501 26.0736ZM353.504 28.2632L348.268 25.645C348.238 25.7041 348.21 25.7638 348.182 25.8239L353.504 28.2632ZM352.796 49V54.8545C356.029 54.8545 358.65 52.2334 358.65 49H352.796ZM338.242 49H332.387C332.387 52.2334 335.008 54.8545 338.242 54.8545V49ZM338.242 13.7732V7.91865C335.008 7.91865 332.387 10.5398 332.387 13.7732H338.242ZM352.088 13.7732H357.942C357.942 10.5398 355.321 7.91865 352.088 7.91865V13.7732ZM352.088 24.0772L347.811 28.0752C349.452 29.8313 352 30.4055 354.237 29.5231C356.473 28.6407 357.942 26.4811 357.942 24.0772H352.088ZM349.318 21.1148L344.116 18.4296C342.981 20.629 343.351 23.3047 345.041 25.1128L349.318 21.1148ZM354.857 15.1256L351.982 10.0254C351.969 10.0329 351.955 10.0406 351.942 10.0482L354.857 15.1256ZM362.714 18.9837C364.588 18.9837 366.11 19.3639 367.396 20.0194L372.714 9.58774C369.621 8.01074 366.248 7.27465 362.714 7.27465V18.9837ZM367.478 20.0605C368.48 20.5517 369.335 21.331 370.049 22.6611L380.365 17.1213C378.589 13.8145 376.009 11.2021 372.632 9.54667L367.478 20.0605ZM370.089 22.7344C370.742 23.9084 371.285 25.8396 371.285 28.9072H382.994C382.994 24.5903 382.249 20.5108 380.325 17.048L370.089 22.7344ZM371.285 28.9072V49H382.994V28.9072H371.285ZM377.139 43.1455H362.585V54.8545H377.139V43.1455ZM368.439 49V31.4188H356.73V49H368.439ZM368.439 31.4188C368.439 28.8742 368.057 25.5221 365.871 22.9719L356.98 30.5921C356.609 30.1585 356.571 29.8589 356.615 30.0373C356.658 30.2093 356.73 30.638 356.73 31.4188H368.439ZM365.957 23.0747C363.962 20.6368 361.176 19.5107 358.27 19.5107V31.2197C358.236 31.2197 357.995 31.2111 357.659 31.0603C357.309 30.903 357.048 30.6775 356.894 30.4893L365.957 23.0747ZM358.27 19.5107C356.304 19.5107 354.409 19.9923 352.679 20.9437L358.322 31.2034C358.329 31.1998 358.328 31.2008 358.32 31.204C358.312 31.2072 358.301 31.2109 358.288 31.2142C358.275 31.2175 358.265 31.2191 358.26 31.2198C358.254 31.2205 358.257 31.2197 358.27 31.2197V19.5107ZM352.774 20.8928C350.629 22.0215 349.193 23.7952 348.268 25.645L358.741 30.8814C358.796 30.7701 358.801 30.7947 358.716 30.8875C358.624 30.9883 358.462 31.1309 358.227 31.2544L352.774 20.8928ZM348.182 25.8239C347.219 27.9255 346.941 30.2651 346.941 32.4492H358.65C358.65 31.821 358.693 31.3676 358.745 31.0594C358.798 30.7474 358.849 30.6535 358.826 30.7025L348.182 25.8239ZM346.941 32.4492V49H358.65V32.4492H346.941ZM352.796 43.1455H338.242V54.8545H352.796V43.1455ZM344.096 49V13.7732H332.387V49H344.096ZM338.242 19.6277H352.088V7.91865H338.242V19.6277ZM346.233 13.7732V24.0772H357.942V13.7732H346.233ZM356.364 20.0792L353.595 17.1168L345.041 25.1128L347.811 28.0752L356.364 20.0792ZM354.521 23.7999C355.442 22.0144 356.545 20.9072 357.772 20.203L351.942 10.0482C348.532 12.0058 345.942 14.8915 344.116 18.4296L354.521 23.7999ZM357.731 20.2258C359.161 19.4198 360.78 18.9837 362.714 18.9837V7.27465C358.894 7.27465 355.275 8.16951 351.982 10.0254L357.731 20.2258ZM409.723 47.4544L406.773 52.5114C406.806 52.5307 406.839 52.5496 406.872 52.5682L409.723 47.4544ZM403.54 41.1432L398.437 44.0135C398.444 44.0249 398.45 44.0364 398.457 44.0479L403.54 41.1432ZM403.54 21.63L408.623 24.5347C408.63 24.5232 408.636 24.5117 408.643 24.5003L403.54 21.63ZM409.723 15.3188L406.872 10.205C406.86 10.2117 406.848 10.2184 406.836 10.2252L409.723 15.3188ZM425.823 15.1256L422.551 19.9806C422.575 19.997 422.6 20.0133 422.624 20.0294L425.823 15.1256ZM430.202 21.1148L424.674 23.0449C424.678 23.0542 424.681 23.0634 424.684 23.0726L430.202 21.1148ZM430.266 41.7228L424.712 39.8714C424.703 39.898 424.694 39.9246 424.686 39.9513L430.266 41.7228ZM426.016 47.712L422.818 42.8082C422.801 42.8189 422.785 42.8298 422.768 42.8407L426.016 47.712ZM424.599 37.5368L427.611 42.557V42.557L424.599 37.5368ZM426.66 35.2184L431.896 37.8366C431.91 37.8085 431.924 37.7802 431.938 37.7518L426.66 35.2184ZM426.66 27.5548L421.423 30.173C421.438 30.2031 421.454 30.2331 421.469 30.2629L426.66 27.5548ZM424.599 25.2364L427.611 20.2162L424.599 25.2364ZM418.803 25.2364L421.815 30.2566V30.2566L418.803 25.2364ZM416.742 27.5548L421.933 30.2629C421.948 30.2331 421.964 30.2031 421.979 30.173L416.742 27.5548ZM416.742 35.2184L411.464 37.7518C411.478 37.7802 411.492 37.8085 411.506 37.8366L416.742 35.2184ZM418.803 37.5368L421.815 32.5166L418.803 37.5368ZM427.883 49H422.029C422.029 52.2334 424.65 54.8545 427.883 54.8545V49ZM427.883 44.2344H433.738C433.738 44.2246 433.738 44.2149 433.738 44.2051L427.883 44.2344ZM427.819 31.3544L433.673 31.3251C433.673 31.2374 433.671 31.1497 433.666 31.062L427.819 31.3544ZM427.175 18.4744H421.32C421.32 18.5719 421.323 18.6694 421.328 18.7668L427.175 18.4744ZM427.175 1.21519V-4.63936C423.942 -4.63936 421.32 -2.01819 421.32 1.21519H427.175ZM441.729 1.21519H447.584C447.584 -2.01819 444.963 -4.63936 441.729 -4.63936V1.21519ZM441.729 49V54.8545C444.963 54.8545 447.584 52.2334 447.584 49H441.729ZM418.223 43.7895C416.155 43.7895 414.305 43.3062 412.573 42.3406L406.872 52.5682C410.378 54.5221 414.195 55.4985 418.223 55.4985V43.7895ZM412.672 42.3974C411.024 41.436 409.683 40.0925 408.623 38.2385L398.457 44.0479C400.489 47.6035 403.269 50.4674 406.773 52.5114L412.672 42.3974ZM408.643 38.2729C407.679 36.5603 407.076 34.3264 407.076 31.3544H395.367C395.367 35.9386 396.31 40.2307 398.437 44.0135L408.643 38.2729ZM407.076 31.3544C407.076 28.379 407.681 26.1844 408.623 24.5347L398.457 18.7253C396.308 22.4851 395.367 26.7735 395.367 31.3544H407.076ZM408.643 24.5003C409.701 22.619 411.021 21.3123 412.609 20.4124L406.836 10.2252C403.272 12.2448 400.47 15.1456 398.437 18.7597L408.643 24.5003ZM412.573 20.4326C414.305 19.467 416.155 18.9837 418.223 18.9837V7.27465C414.195 7.27465 410.378 8.25108 406.872 10.205L412.573 20.4326ZM418.223 18.9837C420.493 18.9837 421.793 19.47 422.551 19.9806L429.094 10.2706C425.902 8.1193 422.136 7.27465 418.223 7.27465V18.9837ZM422.624 20.0294C423.298 20.469 424.062 21.2914 424.674 23.0449L435.729 19.1847C434.452 15.5285 432.297 12.3582 429.021 10.2218L422.624 20.0294ZM424.684 23.0726C425.327 24.8832 425.764 27.5705 425.764 31.3544H437.473C437.473 26.8092 436.966 22.6702 435.719 19.157L424.684 23.0726ZM425.764 31.3544C425.764 35.2028 425.344 37.975 424.712 39.8714L435.82 43.5742C436.991 40.061 437.473 35.921 437.473 31.3544H425.764ZM424.686 39.9513C424.15 41.6408 423.443 42.4005 422.818 42.8082L429.214 52.6158C432.539 50.4475 434.665 47.2144 435.846 43.4943L424.686 39.9513ZM422.768 42.8407C422.115 43.2765 420.781 43.7895 418.223 43.7895V55.4985C422.192 55.4985 426.053 54.7235 429.263 52.5833L422.768 42.8407ZM421.701 44.1641C423.756 44.1641 425.777 43.6575 427.611 42.557L421.587 32.5166C421.604 32.5064 421.626 32.4949 421.652 32.4839C421.677 32.473 421.702 32.4649 421.722 32.4595C421.766 32.4478 421.766 32.4551 421.701 32.4551V44.1641ZM427.611 42.557C429.562 41.3867 430.96 39.7096 431.896 37.8366L421.423 32.6002C421.37 32.7073 421.348 32.7199 421.382 32.6812C421.399 32.6625 421.426 32.6354 421.463 32.6045C421.5 32.5735 421.542 32.5435 421.587 32.5166L427.611 42.557ZM431.938 37.7518C432.918 35.7086 433.287 33.5108 433.287 31.3544H421.578C421.578 32.2033 421.431 32.5815 421.382 32.685L431.938 37.7518ZM433.287 31.3544C433.287 29.2115 432.938 26.9307 431.85 24.8467L421.469 30.2629C421.412 30.1539 421.578 30.4061 421.578 31.3544H433.287ZM431.896 24.9366C430.96 23.0636 429.562 21.3864 427.611 20.2162L421.587 30.2566C421.542 30.2297 421.5 30.1997 421.463 30.1687C421.426 30.1378 421.399 30.1107 421.382 30.0919C421.348 30.0533 421.37 30.0659 421.423 30.173L431.896 24.9366ZM427.611 20.2162C425.777 19.1157 423.756 18.6091 421.701 18.6091V30.3181C421.766 30.3181 421.766 30.3254 421.722 30.3137C421.702 30.3083 421.677 30.3002 421.652 30.2893C421.626 30.2783 421.604 30.2667 421.587 30.2566L427.611 20.2162ZM421.701 18.6091C419.646 18.6091 417.625 19.1157 415.791 20.2162L421.815 30.2566C421.798 30.2667 421.776 30.2783 421.75 30.2893C421.724 30.3002 421.7 30.3083 421.68 30.3137C421.636 30.3254 421.636 30.3181 421.701 30.3181V18.6091ZM415.791 20.2162C413.84 21.3864 412.442 23.0636 411.506 24.9366L421.979 30.173C422.032 30.0659 422.054 30.0533 422.019 30.0919C422.003 30.1107 421.976 30.1378 421.939 30.1687C421.902 30.1997 421.86 30.2297 421.815 30.2566L415.791 20.2162ZM411.552 24.8467C410.464 26.9307 410.115 29.2115 410.115 31.3544H421.824C421.824 30.4061 421.99 30.1539 421.933 30.2629L411.552 24.8467ZM410.115 31.3544C410.115 33.5108 410.483 35.7086 411.464 37.7518L422.02 32.685C421.97 32.5815 421.824 32.2033 421.824 31.3544H410.115ZM411.506 37.8366C412.442 39.7096 413.84 41.3867 415.791 42.557L421.815 32.5166C421.86 32.5435 421.902 32.5735 421.939 32.6045C421.976 32.6354 422.003 32.6625 422.019 32.6812C422.054 32.7199 422.032 32.7073 421.979 32.6002L411.506 37.8366ZM415.791 42.557C417.625 43.6575 419.646 44.1641 421.701 44.1641V32.4551C421.636 32.4551 421.636 32.4478 421.68 32.4595C421.7 32.4649 421.724 32.473 421.75 32.4839C421.776 32.4949 421.798 32.5065 421.815 32.5166L415.791 42.557ZM433.738 49V44.2344H422.029V49H433.738ZM433.738 44.2051L433.673 31.3251L421.964 31.3837L422.029 44.2637L433.738 44.2051ZM433.666 31.062L433.022 18.182L421.328 18.7668L421.972 31.6468L433.666 31.062ZM433.029 18.4744V1.21519H421.32V18.4744H433.029ZM427.175 7.06974H441.729V-4.63936H427.175V7.06974ZM435.875 1.21519V49H447.584V1.21519H435.875ZM441.729 43.1455H427.883V54.8545H441.729V43.1455ZM456.16 47.3256L453.454 52.5175C453.483 52.5326 453.512 52.5474 453.542 52.5621L456.16 47.3256ZM448.947 40.8212L444.017 43.9793L448.947 40.8212ZM448.947 21.8876L444.017 18.7295V18.7295L448.947 21.8876ZM456.16 15.4476L453.542 10.2111C453.532 10.216 453.522 10.221 453.512 10.2259L456.16 15.4476ZM477.412 15.4476L474.794 20.6841L477.412 15.4476ZM484.625 21.8876L479.66 24.9905C479.672 25.009 479.683 25.0274 479.695 25.0457L484.625 21.8876ZM484.625 40.8212L479.695 37.6631C479.683 37.6814 479.672 37.6998 479.66 37.7183L484.625 40.8212ZM477.412 47.3256L480.03 52.5621C480.049 52.5524 480.069 52.5427 480.088 52.5328L477.412 47.3256ZM469.684 37.5368L466.672 32.5166L469.684 37.5368ZM471.745 35.2184L476.981 37.8366C476.995 37.8085 477.009 37.7802 477.023 37.7518L471.745 35.2184ZM471.745 27.5548L466.508 30.173C466.523 30.2031 466.539 30.2331 466.554 30.2629L471.745 27.5548ZM469.684 25.2364L466.672 30.2566V30.2566L469.684 25.2364ZM463.888 25.2364L460.876 20.2162H460.876L463.888 25.2364ZM461.827 27.5548L467.018 30.2629C467.033 30.2331 467.049 30.2031 467.064 30.173L461.827 27.5548ZM461.827 35.2184L456.549 37.7518C456.563 37.7802 456.577 37.8085 456.591 37.8366L461.827 35.2184ZM463.888 37.5368L460.876 42.557L460.876 42.557L463.888 37.5368ZM466.786 43.7895C463.561 43.7895 460.939 43.1695 458.778 42.0891L453.542 52.5621C457.563 54.5729 462.026 55.4985 466.786 55.4985V43.7895ZM458.866 42.1337C456.673 40.9912 455.056 39.504 453.877 37.6631L444.017 43.9793C446.359 47.6339 449.55 50.4829 453.454 52.5175L458.866 42.1337ZM453.877 37.6631C452.776 35.9443 452.161 33.9055 452.161 31.3544H440.452C440.452 35.9303 441.598 40.2027 444.017 43.9793L453.877 37.6631ZM452.161 31.3544C452.161 28.8033 452.776 26.7645 453.877 25.0457L444.017 18.7295C441.598 22.5061 440.452 26.7785 440.452 31.3544H452.161ZM453.877 25.0457C455.047 23.2194 456.644 21.7661 458.808 20.6693L453.512 10.2259C449.579 12.2203 446.368 15.0603 444.017 18.7295L453.877 25.0457ZM458.778 20.6841C460.939 19.6037 463.561 18.9837 466.786 18.9837V7.27465C462.026 7.27465 457.563 8.20025 453.542 10.2111L458.778 20.6841ZM466.786 18.9837C470.011 18.9837 472.633 19.6037 474.794 20.6841L480.03 10.2111C476.008 8.20025 471.546 7.27465 466.786 7.27465V18.9837ZM474.794 20.6841C476.988 21.7813 478.552 23.2176 479.66 24.9905L489.589 18.7847C487.263 15.0621 484.018 12.2051 480.03 10.2111L474.794 20.6841ZM479.695 25.0457C480.796 26.7645 481.411 28.8033 481.411 31.3544H493.12C493.12 26.7785 491.974 22.5061 489.554 18.7295L479.695 25.0457ZM481.411 31.3544C481.411 33.9055 480.796 35.9443 479.695 37.6631L489.554 43.9793C491.974 40.2027 493.12 35.9303 493.12 31.3544H481.411ZM479.66 37.7183C478.543 39.5061 476.959 40.9759 474.736 42.1184L480.088 52.5328C484.047 50.4983 487.272 47.6318 489.589 43.9241L479.66 37.7183ZM474.794 42.0891C472.633 43.1695 470.011 43.7895 466.786 43.7895V55.4985C471.546 55.4985 476.008 54.5729 480.03 52.5621L474.794 42.0891ZM466.786 44.1641C468.841 44.1641 470.862 43.6575 472.696 42.557L466.672 32.5166C466.689 32.5065 466.711 32.4949 466.737 32.4839C466.763 32.473 466.787 32.4649 466.807 32.4595C466.851 32.4478 466.851 32.4551 466.786 32.4551V44.1641ZM472.696 42.557C474.647 41.3867 476.045 39.7096 476.981 37.8366L466.508 32.6002C466.455 32.7073 466.433 32.7199 466.467 32.6812C466.484 32.6625 466.511 32.6354 466.548 32.6045C466.585 32.5735 466.627 32.5435 466.672 32.5166L472.696 42.557ZM477.023 37.7518C478.004 35.7086 478.372 33.5108 478.372 31.3544H466.663C466.663 32.2033 466.516 32.5815 466.467 32.6849L477.023 37.7518ZM478.372 31.3544C478.372 29.2115 478.023 26.9307 476.935 24.8467L466.554 30.2629C466.497 30.1539 466.663 30.4061 466.663 31.3544H478.372ZM476.981 24.9366C476.045 23.0636 474.647 21.3864 472.696 20.2162L466.672 30.2566C466.627 30.2297 466.585 30.1997 466.548 30.1687C466.511 30.1378 466.484 30.1107 466.467 30.0919C466.433 30.0533 466.455 30.0659 466.508 30.173L476.981 24.9366ZM472.696 20.2162C470.862 19.1157 468.841 18.6091 466.786 18.6091V30.3181C466.851 30.3181 466.851 30.3254 466.807 30.3137C466.787 30.3083 466.763 30.3002 466.737 30.2893C466.711 30.2783 466.689 30.2667 466.672 30.2566L472.696 20.2162ZM466.786 18.6091C464.731 18.6091 462.71 19.1157 460.876 20.2162L466.9 30.2566C466.883 30.2667 466.861 30.2783 466.835 30.2893C466.809 30.3002 466.785 30.3083 466.765 30.3137C466.721 30.3254 466.721 30.3181 466.786 30.3181V18.6091ZM460.876 20.2162C458.925 21.3864 457.527 23.0636 456.591 24.9366L467.064 30.173C467.117 30.0659 467.139 30.0533 467.104 30.0919C467.088 30.1107 467.061 30.1378 467.024 30.1687C466.987 30.1997 466.945 30.2297 466.9 30.2566L460.876 20.2162ZM456.637 24.8467C455.549 26.9307 455.2 29.2115 455.2 31.3544H466.909C466.909 30.4061 467.075 30.1539 467.018 30.2629L456.637 24.8467ZM455.2 31.3544C455.2 33.5108 455.568 35.7086 456.549 37.7518L467.105 32.6849C467.056 32.5815 466.909 32.2033 466.909 31.3544H455.2ZM456.591 37.8366C457.527 39.7096 458.925 41.3867 460.876 42.557L466.9 32.5166C466.945 32.5435 466.987 32.5735 467.024 32.6045C467.061 32.6354 467.088 32.6625 467.104 32.6813C467.139 32.7199 467.117 32.7073 467.064 32.6002L456.591 37.8366ZM460.876 42.557C462.71 43.6575 464.731 44.1641 466.786 44.1641V32.4551C466.721 32.4551 466.721 32.4478 466.765 32.4595C466.785 32.4649 466.809 32.473 466.835 32.4839C466.861 32.4949 466.883 32.5064 466.9 32.5166L460.876 42.557ZM512.738 49H506.883C506.883 52.2334 509.504 54.8545 512.738 54.8545V49ZM516.795 4.62839L512.688 0.456138C512.677 0.466916 512.666 0.477737 512.655 0.488603L516.795 4.62839ZM533.088 1.02199L531.971 6.7689C532.031 6.78056 532.091 6.79127 532.151 6.80104L533.088 1.02199ZM537.081 2.30999L542.617 4.21417C543.538 1.53726 542.412 -1.41498 539.942 -2.79813L537.081 2.30999ZM533.603 12.4208L531.181 17.7506C532.683 18.4332 534.403 18.4506 535.918 17.7984C537.433 17.1462 538.603 15.885 539.14 14.325L533.603 12.4208ZM532.058 11.8412L533.78 6.24554L532.058 11.8412ZM527.807 12.5496L523.668 8.4098V8.40981L527.807 12.5496ZM526.841 17.3152H520.987C520.987 17.4618 520.992 17.6084 521.003 17.7546L526.841 17.3152ZM527.292 23.3044H533.147C533.147 23.1578 533.141 23.0112 533.13 22.865L527.292 23.3044ZM527.292 49V54.8545C530.526 54.8545 533.147 52.2334 533.147 49H527.292ZM507.908 26.3312H502.053C502.053 29.5646 504.674 32.1857 507.908 32.1857V26.3312ZM507.908 15.7052V9.85065C504.674 9.85065 502.053 12.4718 502.053 15.7052H507.908ZM534.505 15.7052H540.36C540.36 12.4718 537.738 9.85065 534.505 9.85065V15.7052ZM534.505 26.3312V32.1857C537.738 32.1857 540.36 29.5646 540.36 26.3312H534.505ZM518.592 49V15.512H506.883V49H518.592ZM518.592 15.512C518.592 12.1976 519.533 10.17 520.935 8.76818L512.655 0.488603C508.648 4.49635 506.883 9.72451 506.883 15.512H518.592ZM520.902 8.80065C522.253 7.47128 524.482 6.42574 528.451 6.42574V-5.28335C522.375 -5.28335 516.833 -3.62409 512.688 0.456138L520.902 8.80065ZM528.451 6.42574C529.615 6.42574 530.786 6.53862 531.971 6.7689L534.206 -4.72492C532.299 -5.0957 530.379 -5.28335 528.451 -5.28335V6.42574ZM532.151 6.80104C533.261 6.98104 533.896 7.23661 534.221 7.41812L539.942 -2.79813C538.119 -3.81876 536.093 -4.42185 534.025 -4.75706L532.151 6.80104ZM531.545 0.405812L528.067 10.5166L539.14 14.325L542.617 4.21417L531.545 0.405812ZM536.026 7.09101C535.3 6.76093 534.548 6.48185 533.78 6.24554L530.336 17.4368C530.684 17.544 530.963 17.6513 531.181 17.7506L536.026 7.09101ZM533.78 6.24554C532.647 5.89717 531.487 5.72905 530.319 5.72905V17.4381C530.33 17.4381 530.337 17.4385 530.341 17.4388C530.345 17.4391 530.347 17.4394 530.347 17.4393C530.346 17.4393 530.345 17.439 530.342 17.4385C530.34 17.438 530.338 17.4374 530.336 17.4368L533.78 6.24554ZM530.319 5.72905C527.958 5.72905 525.557 6.52007 523.668 8.4098L531.947 16.6894C531.699 16.9375 531.378 17.1517 531.02 17.2894C530.676 17.4217 530.417 17.4381 530.319 17.4381V5.72905ZM523.668 8.40981C521.448 10.6295 520.987 13.5113 520.987 15.6408H532.696C532.696 15.3508 532.732 15.3567 532.671 15.5517C532.602 15.7728 532.408 16.2287 531.947 16.6894L523.668 8.40981ZM520.987 15.6408V17.3152H532.696V15.6408H520.987ZM521.003 17.7546L521.454 23.7438L533.13 22.865L532.68 16.8758L521.003 17.7546ZM521.438 23.3044V49H533.147V23.3044H521.438ZM527.292 43.1455H512.738V54.8545H527.292V43.1455ZM513.762 26.3312V15.7052H502.053V26.3312H513.762ZM507.908 21.5597H534.505V9.85065H507.908V21.5597ZM528.651 15.7052V26.3312H540.36V15.7052H528.651ZM534.505 20.4767H507.908V32.1857H534.505V20.4767ZM546.219 47.3256L543.514 52.5175C543.543 52.5326 543.572 52.5474 543.601 52.5621L546.219 47.3256ZM539.007 40.8212L534.077 43.9793L539.007 40.8212ZM539.007 21.8876L534.077 18.7295V18.7295L539.007 21.8876ZM546.219 15.4476L543.601 10.2111C543.591 10.216 543.581 10.221 543.572 10.2259L546.219 15.4476ZM567.471 15.4476L564.853 20.6841L567.471 15.4476ZM574.684 21.8876L569.719 24.9905C569.731 25.009 569.743 25.0274 569.754 25.0457L574.684 21.8876ZM574.684 40.8212L569.754 37.6631C569.743 37.6814 569.731 37.6998 569.719 37.7183L574.684 40.8212ZM567.471 47.3256L570.09 52.5621C570.109 52.5524 570.128 52.5427 570.147 52.5328L567.471 47.3256ZM559.743 37.5368L556.731 32.5166L559.743 37.5368ZM561.804 35.2184L567.041 37.8366C567.055 37.8085 567.069 37.7802 567.082 37.7518L561.804 35.2184ZM561.804 27.5548L556.568 30.173C556.583 30.2031 556.598 30.2331 556.614 30.2629L561.804 27.5548ZM559.743 25.2364L556.731 30.2566V30.2566L559.743 25.2364ZM553.947 25.2364L550.935 20.2162L553.947 25.2364ZM551.887 27.5548L557.077 30.2629C557.093 30.2331 557.108 30.2031 557.123 30.173L551.887 27.5548ZM551.887 35.2184L546.609 37.7518C546.622 37.7802 546.636 37.8085 546.65 37.8366L551.887 35.2184ZM553.947 37.5368L550.935 42.557V42.557L553.947 37.5368ZM556.845 43.7895C553.62 43.7895 550.998 43.1695 548.838 42.0891L543.601 52.5621C547.623 54.5729 552.085 55.4985 556.845 55.4985V43.7895ZM548.925 42.1337C546.733 40.9912 545.116 39.504 543.936 37.6631L534.077 43.9793C536.418 47.6339 539.61 50.4829 543.514 52.5175L548.925 42.1337ZM543.936 37.6631C542.835 35.9443 542.221 33.9055 542.221 31.3544H530.512C530.512 35.9303 531.657 40.2027 534.077 43.9793L543.936 37.6631ZM542.221 31.3544C542.221 28.8033 542.835 26.7645 543.936 25.0457L534.077 18.7295C531.657 22.5061 530.512 26.7785 530.512 31.3544H542.221ZM543.936 25.0457C545.106 23.2194 546.704 21.7661 548.867 20.6693L543.572 10.2259C539.638 12.2203 536.427 15.0603 534.077 18.7295L543.936 25.0457ZM548.838 20.6841C550.998 19.6037 553.62 18.9837 556.845 18.9837V7.27465C552.085 7.27465 547.623 8.20025 543.601 10.2111L548.838 20.6841ZM556.845 18.9837C560.071 18.9837 562.692 19.6037 564.853 20.6841L570.09 10.2111C566.068 8.20025 561.606 7.27465 556.845 7.27465V18.9837ZM564.853 20.6841C567.048 21.7813 568.611 23.2176 569.719 24.9905L579.649 18.7847C577.322 15.0621 574.077 12.2051 570.09 10.2111L564.853 20.6841ZM569.754 25.0457C570.856 26.7645 571.47 28.8033 571.47 31.3544H583.179C583.179 26.7785 582.033 22.5061 579.614 18.7295L569.754 25.0457ZM571.47 31.3544C571.47 33.9055 570.856 35.9443 569.754 37.6631L579.614 43.9793C582.033 40.2027 583.179 35.9303 583.179 31.3544H571.47ZM569.719 37.7183C568.602 39.5061 567.019 40.9759 564.795 42.1184L570.147 52.5328C574.106 50.4983 577.331 47.6318 579.649 43.9241L569.719 37.7183ZM564.853 42.0891C562.692 43.1695 560.071 43.7895 556.845 43.7895V55.4985C561.606 55.4985 566.068 54.5729 570.09 52.5621L564.853 42.0891ZM556.845 44.1641C558.901 44.1641 560.921 43.6575 562.755 42.557L556.731 32.5166C556.748 32.5065 556.77 32.4949 556.796 32.4839C556.822 32.473 556.846 32.4649 556.866 32.4595C556.91 32.4478 556.91 32.4551 556.845 32.4551V44.1641ZM562.755 42.557C564.706 41.3867 566.104 39.7096 567.041 37.8366L556.568 32.6002C556.514 32.7073 556.492 32.7199 556.527 32.6812C556.544 32.6625 556.57 32.6354 556.607 32.6045C556.644 32.5735 556.686 32.5435 556.731 32.5166L562.755 42.557ZM567.082 37.7518C568.063 35.7086 568.431 33.5108 568.431 31.3544H556.722C556.722 32.2033 556.576 32.5815 556.526 32.6849L567.082 37.7518ZM568.431 31.3544C568.431 29.2115 568.082 26.9307 566.995 24.8467L556.614 30.2629C556.557 30.1539 556.722 30.4061 556.722 31.3544H568.431ZM567.041 24.9366C566.104 23.0636 564.706 21.3864 562.755 20.2162L556.731 30.2566C556.686 30.2297 556.644 30.1997 556.607 30.1687C556.57 30.1378 556.544 30.1107 556.527 30.0919C556.492 30.0533 556.514 30.0659 556.568 30.173L567.041 24.9366ZM562.755 20.2162C560.921 19.1157 558.901 18.6091 556.845 18.6091V30.3181C556.91 30.3181 556.91 30.3254 556.866 30.3137C556.846 30.3083 556.822 30.3002 556.796 30.2893C556.77 30.2783 556.748 30.2667 556.731 30.2566L562.755 20.2162ZM556.845 18.6091C554.79 18.6091 552.769 19.1157 550.935 20.2162L556.959 30.2566C556.943 30.2667 556.921 30.2783 556.895 30.2893C556.869 30.3002 556.845 30.3083 556.824 30.3137C556.781 30.3254 556.781 30.3181 556.845 30.3181V18.6091ZM550.935 20.2162C548.985 21.3864 547.587 23.0636 546.65 24.9366L557.123 30.173C557.177 30.0659 557.198 30.0533 557.164 30.0919C557.147 30.1107 557.121 30.1378 557.084 30.1687C557.046 30.1997 557.004 30.2297 556.959 30.2566L550.935 20.2162ZM546.696 24.8467C545.609 26.9307 545.259 29.2115 545.259 31.3544H556.968C556.968 30.4061 557.134 30.1539 557.077 30.2629L546.696 24.8467ZM545.259 31.3544C545.259 33.5108 545.628 35.7086 546.609 37.7518L557.165 32.6849C557.115 32.5815 556.968 32.2033 556.968 31.3544H545.259ZM546.65 37.8366C547.587 39.7096 548.985 41.3867 550.935 42.557L556.959 32.5166C557.004 32.5435 557.046 32.5735 557.084 32.6045C557.121 32.6354 557.147 32.6625 557.164 32.6813C557.198 32.7199 557.177 32.7073 557.123 32.6002L546.65 37.8366ZM550.935 42.557C552.769 43.6575 554.79 44.1641 556.845 44.1641V32.4551C556.781 32.4551 556.781 32.4478 556.824 32.4595C556.845 32.4649 556.869 32.473 556.895 32.4839C556.921 32.4949 556.943 32.5064 556.959 32.5166L550.935 42.557ZM581.88 49H576.025C576.025 52.2334 578.646 54.8545 581.88 54.8545V49ZM581.88 13.7732V7.91865C578.646 7.91865 576.025 10.5398 576.025 13.7732H581.88ZM595.726 13.7732H601.58C601.58 10.5398 598.959 7.91865 595.726 7.91865V13.7732ZM595.726 24.3992L591.03 27.8959C592.538 29.92 595.172 30.7504 597.568 29.9565C599.963 29.1625 601.58 26.9228 601.58 24.3992H595.726ZM593.472 21.3724L588.019 19.2422C587.284 21.123 587.57 23.2496 588.776 24.8691L593.472 21.3724ZM598.624 15.19L595.68 10.1296V10.1296L598.624 15.19ZM607.125 13.1292H612.979C612.979 9.89581 610.358 7.27465 607.125 7.27465V13.1292ZM607.125 26.0092L606.351 31.8124C608.024 32.0354 609.711 31.5257 610.981 30.4141C612.251 29.3024 612.979 27.6968 612.979 26.0092H607.125ZM605.386 25.816L604.856 31.6465C604.87 31.6478 604.885 31.6491 604.9 31.6503L605.386 25.816ZM598.495 27.4904L602.187 32.0342C602.192 32.03 602.197 32.0258 602.202 32.0216L598.495 27.4904ZM596.434 49V54.8545C599.668 54.8545 602.289 52.2334 602.289 49H596.434ZM587.734 49V13.7732H576.025V49H587.734ZM581.88 19.6277H595.726V7.91865H581.88V19.6277ZM589.871 13.7732V24.3992H601.58V13.7732H589.871ZM600.421 20.9025L598.167 17.8757L588.776 24.8691L591.03 27.8959L600.421 20.9025ZM598.925 23.5026C599.558 21.8819 600.444 20.9044 601.568 20.2504L595.68 10.1296C592.081 12.2233 589.532 15.3674 588.019 19.2422L598.925 23.5026ZM601.568 20.2504C602.865 19.4959 604.636 18.9837 607.125 18.9837V7.27465C603.002 7.27465 599.106 8.13633 595.68 10.1296L601.568 20.2504ZM601.27 13.1292V26.0092H612.979V13.1292H601.27ZM607.898 20.206C607.182 20.1105 606.504 20.0343 605.872 19.9817L604.9 31.6503C605.298 31.6835 605.779 31.7362 606.351 31.8124L607.898 20.206ZM605.916 19.9855C605.253 19.9252 604.582 19.897 603.905 19.897V31.6061C604.258 31.6061 604.574 31.6209 604.856 31.6465L605.916 19.9855ZM603.905 19.897C600.639 19.897 597.446 20.7845 594.788 22.9592L602.202 32.0216C602.378 31.8779 602.791 31.6061 603.905 31.6061V19.897ZM594.803 22.9466C591.43 25.6875 590.58 29.8148 590.58 33.3508H602.289C602.289 32.402 602.41 31.9128 602.472 31.7349C602.519 31.6021 602.472 31.8022 602.187 32.0342L594.803 22.9466ZM590.58 33.3508V49H602.289V33.3508H590.58ZM596.434 43.1455H581.88V54.8545H596.434V43.1455ZM632.36 61.236L634.032 55.6251C634.005 55.6172 633.979 55.6096 633.953 55.6021L632.36 61.236ZM627.595 58.982L622.325 56.432C621.126 58.9087 621.814 61.8857 623.978 63.5855L627.595 58.982ZM632.425 49L635.981 44.3494C634.584 43.281 632.78 42.8973 631.069 43.3045C629.358 43.7118 627.921 44.8667 627.155 46.45L632.425 49ZM634.872 50.3524L632.788 55.8234C632.815 55.834 632.843 55.8443 632.871 55.8545L634.872 50.3524ZM640.539 50.0304L637.026 45.3468C636.966 45.3922 636.906 45.4388 636.847 45.4866L640.539 50.0304ZM642.214 47.6476L647.649 49.8219C647.652 49.8165 647.654 49.8111 647.656 49.8057L642.214 47.6476ZM643.695 43.9124L638.96 40.4689C638.671 40.866 638.433 41.2978 638.253 41.7543L643.695 43.9124ZM644.725 42.4956L649.46 45.9391C649.753 45.5363 649.993 45.0977 650.175 44.6341L644.725 42.4956ZM655.995 13.7732V7.91865C653.587 7.91865 651.425 9.39309 650.545 11.6347L655.995 13.7732ZM669.777 13.7732L675.207 15.9626C675.934 14.1582 675.718 12.1103 674.629 10.4977C673.541 8.88514 671.722 7.91865 669.777 7.91865V13.7732ZM655.287 49.7084L649.857 47.519C649.855 47.524 649.853 47.529 649.851 47.5341L655.287 49.7084ZM650.779 57.2432L646.539 53.2056C646.522 53.2234 646.505 53.2414 646.489 53.2595L650.779 57.2432ZM645.112 61.0428L643.193 55.5117C643.181 55.5158 643.169 55.52 643.157 55.5241L645.112 61.0428ZM641.698 50.61L636.293 52.8591C637.028 54.6251 638.579 55.9208 640.448 56.3294C642.316 56.738 644.267 56.208 645.672 54.9099L641.698 50.61ZM626.371 13.7732V7.91865C624.414 7.91865 622.587 8.89643 621.501 10.5245C620.415 12.1525 620.214 14.2154 620.966 16.0223L626.371 13.7732ZM641.312 13.7732L646.776 11.6698C645.906 9.40974 643.734 7.91865 641.312 7.91865V13.7732ZM651.874 41.2076L655.847 45.5075C657.608 43.8798 658.199 41.3424 657.337 39.1042L651.874 41.2076ZM638.285 56.2831C636.967 56.2831 635.556 56.079 634.032 55.6251L630.689 66.8469C633.201 67.5951 635.739 67.9921 638.285 67.9921V56.2831ZM633.953 55.6021C632.476 55.1848 631.645 54.7189 631.212 54.3785L623.978 63.5855C625.949 65.1341 628.295 66.1709 630.768 66.8699L633.953 55.6021ZM632.865 61.532L637.695 51.55L627.155 46.45L622.325 56.432L632.865 61.532ZM628.868 53.6506C630.069 54.5686 631.385 55.289 632.788 55.8234L636.956 44.8814C636.556 44.7289 636.24 44.5477 635.981 44.3494L628.868 53.6506ZM632.871 55.8545C634.35 56.3922 635.93 56.7221 637.577 56.7221V45.0131C637.506 45.0131 637.283 44.9996 636.873 44.8503L632.871 55.8545ZM637.577 56.7221C639.615 56.7221 642.117 56.2916 644.231 54.5742L636.847 45.4866C637.213 45.1895 637.539 45.0674 637.691 45.0244C637.828 44.9858 637.813 45.0131 637.577 45.0131V56.7221ZM644.052 54.714C645.846 53.3683 646.955 51.558 647.649 49.8219L636.778 45.4733C636.701 45.6663 636.657 45.7185 636.683 45.6823C636.712 45.6406 636.818 45.5032 637.026 45.3468L644.052 54.714ZM647.656 49.8057L649.137 46.0705L638.253 41.7543L636.771 45.4895L647.656 49.8057ZM648.43 47.3559L649.46 45.9391L639.99 39.0521L638.96 40.4689L648.43 47.3559ZM650.175 44.6341L661.445 15.9117L650.545 11.6347L639.275 40.3571L650.175 44.6341ZM655.995 19.6277H669.777V7.91865H655.995V19.6277ZM664.347 11.5838L649.857 47.519L660.716 51.8978L675.207 15.9626L664.347 11.5838ZM649.851 47.5341C648.739 50.3148 647.584 52.1087 646.539 53.2056L655.018 61.2808C657.408 58.7713 659.259 55.542 660.723 51.8827L649.851 47.5341ZM646.489 53.2595C645.396 54.4358 644.299 55.1278 643.193 55.5117L647.031 66.5739C650.132 65.4981 652.812 63.657 655.069 61.2269L646.489 53.2595ZM643.157 55.5241C641.805 56.0031 640.201 56.2831 638.285 56.2831V67.9921C641.35 67.9921 644.297 67.5422 647.066 66.5615L643.157 55.5241ZM647.104 48.3609L631.776 11.5241L620.966 16.0223L636.293 52.8591L647.104 48.3609ZM626.371 19.6277H641.312V7.91865H626.371V19.6277ZM635.848 15.8766L646.41 43.311L657.337 39.1042L646.776 11.6698L635.848 15.8766ZM647.9 36.9077L637.725 46.3101L645.672 54.9099L655.847 45.5075L647.9 36.9077ZM679.044 47.3256L676.339 52.5175C676.368 52.5326 676.397 52.5474 676.426 52.5621L679.044 47.3256ZM671.832 40.8212L666.902 43.9793L671.832 40.8212ZM671.832 21.8876L666.902 18.7295V18.7295L671.832 21.8876ZM679.044 15.4476L676.426 10.2111C676.416 10.216 676.406 10.221 676.397 10.2259L679.044 15.4476ZM700.296 15.4476L697.678 20.6841L700.296 15.4476ZM707.509 21.8876L702.544 24.9905C702.556 25.009 702.568 25.0274 702.579 25.0457L707.509 21.8876ZM707.509 40.8212L702.579 37.6631C702.568 37.6814 702.556 37.6998 702.544 37.7183L707.509 40.8212ZM700.296 47.3256L702.915 52.5621C702.934 52.5524 702.953 52.5427 702.972 52.5328L700.296 47.3256ZM692.568 37.5368L689.556 32.5166L692.568 37.5368ZM694.629 35.2184L699.866 37.8366C699.88 37.8085 699.894 37.7802 699.907 37.7518L694.629 35.2184ZM694.629 27.5548L689.393 30.173C689.408 30.2031 689.423 30.2331 689.439 30.2629L694.629 27.5548ZM692.568 25.2364L689.556 30.2566V30.2566L692.568 25.2364ZM686.772 25.2364L683.76 20.2162L686.772 25.2364ZM684.712 27.5548L689.902 30.2629C689.918 30.2331 689.933 30.2031 689.948 30.173L684.712 27.5548ZM684.712 35.2184L679.434 37.7518C679.447 37.7802 679.461 37.8085 679.475 37.8366L684.712 35.2184ZM686.772 37.5368L683.76 42.557V42.557L686.772 37.5368ZM689.67 43.7895C686.445 43.7895 683.823 43.1695 681.663 42.0891L676.426 52.5621C680.448 54.5729 684.91 55.4985 689.67 55.4985V43.7895ZM681.75 42.1337C679.558 40.9912 677.941 39.504 676.761 37.6631L666.902 43.9793C669.243 47.6339 672.435 50.4829 676.339 52.5175L681.75 42.1337ZM676.761 37.6631C675.66 35.9443 675.046 33.9055 675.046 31.3544H663.337C663.337 35.9303 664.482 40.2027 666.902 43.9793L676.761 37.6631ZM675.046 31.3544C675.046 28.8033 675.66 26.7645 676.761 25.0457L666.902 18.7295C664.482 22.5061 663.337 26.7785 663.337 31.3544H675.046ZM676.761 25.0457C677.931 23.2194 679.529 21.7661 681.692 20.6693L676.397 10.2259C672.463 12.2203 669.252 15.0603 666.902 18.7295L676.761 25.0457ZM681.663 20.6841C683.823 19.6037 686.445 18.9837 689.67 18.9837V7.27465C684.91 7.27465 680.448 8.20025 676.426 10.2111L681.663 20.6841ZM689.67 18.9837C692.896 18.9837 695.517 19.6037 697.678 20.6841L702.915 10.2111C698.893 8.20025 694.431 7.27465 689.67 7.27465V18.9837ZM697.678 20.6841C699.873 21.7813 701.436 23.2176 702.544 24.9905L712.474 18.7847C710.147 15.0621 706.902 12.2051 702.915 10.2111L697.678 20.6841ZM702.579 25.0457C703.681 26.7645 704.295 28.8033 704.295 31.3544H716.004C716.004 26.7785 714.858 22.5061 712.439 18.7295L702.579 25.0457ZM704.295 31.3544C704.295 33.9055 703.681 35.9443 702.579 37.6631L712.439 43.9793C714.858 40.2027 716.004 35.9303 716.004 31.3544H704.295ZM702.544 37.7183C701.427 39.5061 699.844 40.9759 697.62 42.1184L702.972 52.5328C706.931 50.4983 710.156 47.6318 712.474 43.9241L702.544 37.7183ZM697.678 42.0891C695.517 43.1695 692.896 43.7895 689.67 43.7895V55.4985C694.431 55.4985 698.893 54.5729 702.915 52.5621L697.678 42.0891ZM689.67 44.1641C691.726 44.1641 693.746 43.6575 695.581 42.557L689.556 32.5166C689.573 32.5065 689.595 32.4949 689.621 32.4839C689.647 32.473 689.671 32.4649 689.691 32.4595C689.735 32.4478 689.735 32.4551 689.67 32.4551V44.1641ZM695.581 42.557C697.531 41.3867 698.929 39.7096 699.866 37.8366L689.393 32.6002C689.339 32.7073 689.317 32.7199 689.352 32.6812C689.369 32.6625 689.395 32.6354 689.432 32.6045C689.469 32.5735 689.511 32.5435 689.556 32.5166L695.581 42.557ZM699.907 37.7518C700.888 35.7086 701.256 33.5108 701.256 31.3544H689.547C689.547 32.2033 689.401 32.5815 689.351 32.6849L699.907 37.7518ZM701.256 31.3544C701.256 29.2115 700.907 26.9307 699.82 24.8467L689.439 30.2629C689.382 30.1539 689.547 30.4061 689.547 31.3544H701.256ZM699.866 24.9366C698.929 23.0636 697.531 21.3864 695.581 20.2162L689.556 30.2566C689.511 30.2297 689.469 30.1997 689.432 30.1687C689.395 30.1378 689.369 30.1107 689.352 30.0919C689.317 30.0533 689.339 30.0659 689.393 30.173L699.866 24.9366ZM695.581 20.2162C693.746 19.1157 691.726 18.6091 689.67 18.6091V30.3181C689.735 30.3181 689.735 30.3254 689.691 30.3137C689.671 30.3083 689.647 30.3002 689.621 30.2893C689.595 30.2783 689.573 30.2667 689.556 30.2566L695.581 20.2162ZM689.67 18.6091C687.615 18.6091 685.594 19.1157 683.76 20.2162L689.784 30.2566C689.768 30.2667 689.746 30.2783 689.72 30.2893C689.694 30.3002 689.67 30.3083 689.649 30.3137C689.606 30.3254 689.606 30.3181 689.67 30.3181V18.6091ZM683.76 20.2162C681.81 21.3864 680.412 23.0636 679.475 24.9366L689.948 30.173C690.002 30.0659 690.023 30.0533 689.989 30.0919C689.972 30.1107 689.946 30.1378 689.909 30.1687C689.871 30.1997 689.829 30.2297 689.784 30.2566L683.76 20.2162ZM679.521 24.8467C678.434 26.9307 678.084 29.2115 678.084 31.3544H689.793C689.793 30.4061 689.959 30.1539 689.902 30.2629L679.521 24.8467ZM678.084 31.3544C678.084 33.5108 678.453 35.7086 679.434 37.7518L689.99 32.6849C689.94 32.5815 689.793 32.2033 689.793 31.3544H678.084ZM679.475 37.8366C680.412 39.7096 681.81 41.3867 683.76 42.557L689.784 32.5166C689.829 32.5435 689.871 32.5735 689.909 32.6045C689.946 32.6354 689.972 32.6625 689.989 32.6813C690.023 32.7199 690.002 32.7073 689.948 32.6002L679.475 37.8366ZM683.76 42.557C685.594 43.6575 687.615 44.1641 689.67 44.1641V32.4551C689.606 32.4551 689.606 32.4478 689.649 32.4595C689.67 32.4649 689.694 32.473 689.72 32.4839C689.746 32.4949 689.768 32.5064 689.784 32.5166L683.76 42.557ZM721.789 47.9696L719.091 53.1655C719.131 53.186 719.17 53.2061 719.21 53.2257L721.789 47.9696ZM716.508 42.6244L711.327 45.3511C711.334 45.3638 711.341 45.3764 711.347 45.389L716.508 42.6244ZM714.576 13.7732V7.91865C711.343 7.91865 708.721 10.5398 708.721 13.7732H714.576ZM729.13 13.7732H734.985C734.985 10.5398 732.364 7.91865 729.13 7.91865V13.7732ZM736.086 36.764L739.054 41.8102C739.082 41.7936 739.111 41.7767 739.139 41.7596L736.086 36.764ZM737.953 34.51L743.275 36.9493C743.288 36.9223 743.3 36.8951 743.312 36.8679L737.953 34.51ZM738.662 13.7732V7.91865C735.428 7.91865 732.807 10.5398 732.807 13.7732H738.662ZM753.216 13.7732H759.071C759.071 10.5398 756.449 7.91865 753.216 7.91865V13.7732ZM753.216 49V54.8545C756.449 54.8545 759.071 52.2334 759.071 49H753.216ZM739.37 49H733.516C733.516 52.2334 736.137 54.8545 739.37 54.8545V49ZM739.37 38.8248L743.51 34.685C741.835 33.0106 739.317 32.5097 737.13 33.4159C734.942 34.3221 733.516 36.4569 733.516 38.8248H739.37ZM742.139 41.594L747.472 44.0103C748.478 41.7898 748.003 39.1781 746.279 37.4542L742.139 41.594ZM736.794 47.712L739.678 52.807C739.688 52.8011 739.699 52.7953 739.709 52.7894L736.794 47.712ZM729.388 43.7895C727.4 43.7895 725.762 43.3976 724.367 42.7135L719.21 53.2257C722.367 54.7742 725.795 55.4985 729.388 55.4985V43.7895ZM724.487 42.7737C723.39 42.2044 722.449 41.3159 721.669 39.8598L711.347 45.389C713.143 48.7415 715.722 51.4164 719.091 53.1655L724.487 42.7737ZM721.689 39.8977C720.98 38.5502 720.431 36.4366 720.431 33.222H708.721C708.721 37.6495 709.46 41.8042 711.327 45.3511L721.689 39.8977ZM720.431 33.222V13.7732H708.721V33.222H720.431ZM714.576 19.6277H729.13V7.91865H714.576V19.6277ZM723.276 13.7732V30.7104H734.985V13.7732H723.276ZM723.276 30.7104C723.276 33.4592 723.649 37.0031 725.84 39.6554L734.868 32.1981C735.215 32.6183 735.211 32.8622 735.136 32.5451C735.066 32.2477 734.985 31.6674 734.985 30.7104H723.276ZM725.84 39.6554C727.896 42.1432 730.75 43.2625 733.703 43.2625V31.5535C733.68 31.5535 733.873 31.5516 734.171 31.6835C734.486 31.8227 734.726 32.0264 734.868 32.1981L725.84 39.6554ZM733.703 43.2625C735.59 43.2625 737.411 42.7766 739.054 41.8102L733.117 31.7178C733.19 31.6749 733.292 31.6284 733.415 31.5952C733.537 31.5622 733.639 31.5535 733.703 31.5535V43.2625ZM739.139 41.7596C741.129 40.543 742.44 38.7716 743.275 36.9493L732.631 32.0707C732.575 32.1933 732.561 32.1874 732.624 32.111C732.693 32.0277 732.827 31.8943 733.033 31.7684L739.139 41.7596ZM743.312 36.8679C744.227 34.7895 744.516 32.5075 744.516 30.324H732.807C732.807 31.5751 732.625 32.0838 732.595 32.1521L743.312 36.8679ZM744.516 30.324V13.7732H732.807V30.324H744.516ZM738.662 19.6277H753.216V7.91865H738.662V19.6277ZM747.362 13.7732V49H759.071V13.7732H747.362ZM753.216 43.1455H739.37V54.8545H753.216V43.1455ZM745.225 49V38.8248H733.516V49H745.225ZM735.23 42.9646L737.999 45.7338L746.279 37.4542L743.51 34.685L735.23 42.9646ZM736.807 39.1777C736.001 40.9566 734.998 41.9922 733.879 42.6346L739.709 52.7894C743.227 50.7699 745.788 47.7269 747.472 44.0103L736.807 39.1777ZM733.91 42.617C732.531 43.3978 731.058 43.7895 729.388 43.7895V55.4985C733.042 55.4985 736.506 54.6022 739.678 52.807L733.91 42.617Z" fill="white" mask="url(#path-1-outside-1_427_43023)"/>
</g>
<defs>
<filter id="filter0_d_427_43023" x="0.144531" y="0.571289" width="763.072" height="67.5664" filterUnits="userSpaceOnUse" color-interpolation-filters="sRGB">
<feFlood flood-opacity="0" result="BackgroundImageFix"/>
<feColorMatrix in="SourceAlpha" type="matrix" values="0 0 0 0 0 0 0 0 0 0 0 0 0 0 0 0 0 0 127 0" result="hardAlpha"/>
<feOffset dx="10" dy="6"/>
<feComposite in2="hardAlpha" operator="out"/>
<feColorMatrix type="matrix" values="0 0 0 0 0 0 0 0 0 0 0 0 0 0 0 0 0 0 1 0"/>
<feBlend mode="normal" in2="BackgroundImageFix" result="effect1_dropShadow_427_43023"/>
<feBlend mode="normal" in="SourceGraphic" in2="effect1_dropShadow_427_43023" result="shape"/>
</filter>
</defs>
</svg>
