<svg width="504" height="71" viewBox="0 0 504 71" fill="none" xmlns="http://www.w3.org/2000/svg">
<g filter="url(#filter0_d_386_4715)">
<mask id="path-1-outside-1_386_4715" maskUnits="userSpaceOnUse" x="-3" y="-2.5" width="506" height="74" fill="black">
<rect fill="white" x="-3" y="-2.5" width="506" height="74"/>
<path d="M0.0241458 53.5V4.08067H13.7204L33.4881 36.3444H26.287L45.4899 4.08067H59.1861L59.3273 53.5H44.1486L44.0074 26.9548H46.4077L33.2763 49.0523H25.934L12.2378 26.9548H15.2029V53.5H0.0241458ZM75.3605 67.9022C73.2425 67.9022 71.0775 67.5727 68.8654 66.9138C66.7003 66.302 64.9589 65.4783 63.6411 64.4429L68.936 53.5C69.7361 54.1119 70.6304 54.6061 71.6187 54.9826C72.6542 55.3591 73.6426 55.5474 74.5839 55.5474C75.9959 55.5474 77.0784 55.2414 77.8315 54.6296C78.5845 54.0648 79.1964 53.1941 79.667 52.0174L81.2908 47.9227L82.4204 46.3695L94.7752 14.8823H109.883L93.9986 54.2766C92.5867 57.8065 90.9394 60.5599 89.0567 62.5367C87.2211 64.5135 85.1502 65.9019 82.844 66.702C80.5848 67.5021 78.0903 67.9022 75.3605 67.9022ZM79.1022 55.265L62.2997 14.8823H78.6787L90.2569 44.9575L79.1022 55.265ZM142.949 53.5L129.535 14.8823H144.644L154.81 46.2283H147.538L158.199 14.8823H171.754L181.92 46.2283H174.86L185.379 14.8823H199.358L185.944 53.5H170.412L162.293 28.6491H166.953L158.481 53.5H142.949ZM221.802 54.206C217.425 54.206 213.542 53.3588 210.153 51.6644C206.812 49.923 204.176 47.5461 202.246 44.5339C200.317 41.5217 199.352 38.0623 199.352 34.1559C199.352 30.2494 200.317 26.79 202.246 23.7778C204.176 20.7656 206.812 18.4123 210.153 16.7179C213.542 15.0235 217.425 14.1763 221.802 14.1763C226.179 14.1763 230.062 15.0235 233.451 16.7179C236.84 18.4123 239.476 20.7656 241.358 23.7778C243.288 26.79 244.253 30.2494 244.253 34.1559C244.253 38.0623 243.288 41.5217 241.358 44.5339C239.476 47.5461 236.84 49.923 233.451 51.6644C230.062 53.3588 226.179 54.206 221.802 54.206ZM221.802 41.7806C222.979 41.7806 224.038 41.4982 224.979 40.9334C225.92 40.3686 226.674 39.5214 227.238 38.3918C227.803 37.2152 228.086 35.8032 228.086 34.1559C228.086 32.4615 227.803 31.073 227.238 29.9905C226.674 28.8609 225.92 28.0137 224.979 27.449C224.038 26.8842 222.979 26.6018 221.802 26.6018C220.626 26.6018 219.567 26.8842 218.625 27.449C217.684 28.0137 216.931 28.8609 216.366 29.9905C215.801 31.073 215.519 32.4615 215.519 34.1559C215.519 35.8032 215.801 37.2152 216.366 38.3918C216.931 39.5214 217.684 40.3686 218.625 40.9334C219.567 41.4982 220.626 41.7806 221.802 41.7806ZM249.247 53.5V14.8823H264.425V26.5312L261.954 23.213C263.131 20.2008 265.014 17.9416 267.602 16.4355C270.191 14.9294 273.297 14.1763 276.921 14.1763V28.2961C276.215 28.202 275.58 28.1314 275.015 28.0843C274.497 28.0373 273.956 28.0137 273.391 28.0137C270.991 28.0137 269.014 28.6491 267.461 29.9199C265.955 31.1436 265.202 33.2851 265.202 36.3444V53.5H249.247ZM294.787 47.1461L295.14 28.3667L308.483 14.8823H327.333L309.683 33.3793L301.705 39.8038L294.787 47.1461ZM281.444 53.5V1.11551H297.399V53.5H281.444ZM309.33 53.5L298.74 40.0862L308.554 28.0137L328.604 53.5H309.33ZM333.538 53.5V16.7885C333.538 11.7995 335.02 7.82242 337.986 4.85726C340.998 1.8921 345.257 0.409516 350.764 0.409516C352.458 0.409516 354.153 0.574246 355.847 0.903707C357.589 1.18611 359.048 1.65677 360.224 2.31569L356.412 13.3997C355.894 13.1644 355.329 12.9526 354.718 12.7643C354.106 12.5761 353.47 12.482 352.811 12.482C351.682 12.482 350.764 12.8349 350.058 13.5409C349.352 14.2469 348.999 15.3765 348.999 16.9297V18.7653L349.493 25.331V53.5H333.538ZM328.243 28.6491V17.0003H357.4V28.6491H328.243ZM363.613 53.5V1.11551H379.568V53.5H363.613ZM407.056 54.206C402.679 54.206 398.796 53.3588 395.407 51.6644C392.065 49.923 389.43 47.5461 387.5 44.5339C385.57 41.5217 384.605 38.0623 384.605 34.1559C384.605 30.2494 385.57 26.79 387.5 23.7778C389.43 20.7656 392.065 18.4123 395.407 16.7179C398.796 15.0235 402.679 14.1763 407.056 14.1763C411.433 14.1763 415.316 15.0235 418.705 16.7179C422.093 18.4123 424.729 20.7656 426.612 23.7778C428.541 26.79 429.506 30.2494 429.506 34.1559C429.506 38.0623 428.541 41.5217 426.612 44.5339C424.729 47.5461 422.093 49.923 418.705 51.6644C415.316 53.3588 411.433 54.206 407.056 54.206ZM407.056 41.7806C408.232 41.7806 409.291 41.4982 410.233 40.9334C411.174 40.3686 411.927 39.5214 412.492 38.3918C413.057 37.2152 413.339 35.8032 413.339 34.1559C413.339 32.4615 413.057 31.073 412.492 29.9905C411.927 28.8609 411.174 28.0137 410.233 27.449C409.291 26.8842 408.232 26.6018 407.056 26.6018C405.879 26.6018 404.82 26.8842 403.879 27.449C402.937 28.0137 402.184 28.8609 401.62 29.9905C401.055 31.073 400.772 32.4615 400.772 34.1559C400.772 35.8032 401.055 37.2152 401.62 38.3918C402.184 39.5214 402.937 40.3686 403.879 40.9334C404.82 41.4982 405.879 41.7806 407.056 41.7806ZM442.926 53.5L429.512 14.8823H444.621L454.787 46.2283H447.515L458.176 14.8823H471.731L481.897 46.2283H474.837L485.356 14.8823H499.335L485.921 53.5H470.389L462.27 28.6491H466.93L458.458 53.5H442.926Z"/>
</mask>
<path d="M0.0241458 53.5V4.08067H13.7204L33.4881 36.3444H26.287L45.4899 4.08067H59.1861L59.3273 53.5H44.1486L44.0074 26.9548H46.4077L33.2763 49.0523H25.934L12.2378 26.9548H15.2029V53.5H0.0241458ZM75.3605 67.9022C73.2425 67.9022 71.0775 67.5727 68.8654 66.9138C66.7003 66.302 64.9589 65.4783 63.6411 64.4429L68.936 53.5C69.7361 54.1119 70.6304 54.6061 71.6187 54.9826C72.6542 55.3591 73.6426 55.5474 74.5839 55.5474C75.9959 55.5474 77.0784 55.2414 77.8315 54.6296C78.5845 54.0648 79.1964 53.1941 79.667 52.0174L81.2908 47.9227L82.4204 46.3695L94.7752 14.8823H109.883L93.9986 54.2766C92.5867 57.8065 90.9394 60.5599 89.0567 62.5367C87.2211 64.5135 85.1502 65.9019 82.844 66.702C80.5848 67.5021 78.0903 67.9022 75.3605 67.9022ZM79.1022 55.265L62.2997 14.8823H78.6787L90.2569 44.9575L79.1022 55.265ZM142.949 53.5L129.535 14.8823H144.644L154.81 46.2283H147.538L158.199 14.8823H171.754L181.92 46.2283H174.86L185.379 14.8823H199.358L185.944 53.5H170.412L162.293 28.6491H166.953L158.481 53.5H142.949ZM221.802 54.206C217.425 54.206 213.542 53.3588 210.153 51.6644C206.812 49.923 204.176 47.5461 202.246 44.5339C200.317 41.5217 199.352 38.0623 199.352 34.1559C199.352 30.2494 200.317 26.79 202.246 23.7778C204.176 20.7656 206.812 18.4123 210.153 16.7179C213.542 15.0235 217.425 14.1763 221.802 14.1763C226.179 14.1763 230.062 15.0235 233.451 16.7179C236.84 18.4123 239.476 20.7656 241.358 23.7778C243.288 26.79 244.253 30.2494 244.253 34.1559C244.253 38.0623 243.288 41.5217 241.358 44.5339C239.476 47.5461 236.84 49.923 233.451 51.6644C230.062 53.3588 226.179 54.206 221.802 54.206ZM221.802 41.7806C222.979 41.7806 224.038 41.4982 224.979 40.9334C225.92 40.3686 226.674 39.5214 227.238 38.3918C227.803 37.2152 228.086 35.8032 228.086 34.1559C228.086 32.4615 227.803 31.073 227.238 29.9905C226.674 28.8609 225.92 28.0137 224.979 27.449C224.038 26.8842 222.979 26.6018 221.802 26.6018C220.626 26.6018 219.567 26.8842 218.625 27.449C217.684 28.0137 216.931 28.8609 216.366 29.9905C215.801 31.073 215.519 32.4615 215.519 34.1559C215.519 35.8032 215.801 37.2152 216.366 38.3918C216.931 39.5214 217.684 40.3686 218.625 40.9334C219.567 41.4982 220.626 41.7806 221.802 41.7806ZM249.247 53.5V14.8823H264.425V26.5312L261.954 23.213C263.131 20.2008 265.014 17.9416 267.602 16.4355C270.191 14.9294 273.297 14.1763 276.921 14.1763V28.2961C276.215 28.202 275.58 28.1314 275.015 28.0843C274.497 28.0373 273.956 28.0137 273.391 28.0137C270.991 28.0137 269.014 28.6491 267.461 29.9199C265.955 31.1436 265.202 33.2851 265.202 36.3444V53.5H249.247ZM294.787 47.1461L295.14 28.3667L308.483 14.8823H327.333L309.683 33.3793L301.705 39.8038L294.787 47.1461ZM281.444 53.5V1.11551H297.399V53.5H281.444ZM309.33 53.5L298.74 40.0862L308.554 28.0137L328.604 53.5H309.33ZM333.538 53.5V16.7885C333.538 11.7995 335.02 7.82242 337.986 4.85726C340.998 1.8921 345.257 0.409516 350.764 0.409516C352.458 0.409516 354.153 0.574246 355.847 0.903707C357.589 1.18611 359.048 1.65677 360.224 2.31569L356.412 13.3997C355.894 13.1644 355.329 12.9526 354.718 12.7643C354.106 12.5761 353.47 12.482 352.811 12.482C351.682 12.482 350.764 12.8349 350.058 13.5409C349.352 14.2469 348.999 15.3765 348.999 16.9297V18.7653L349.493 25.331V53.5H333.538ZM328.243 28.6491V17.0003H357.4V28.6491H328.243ZM363.613 53.5V1.11551H379.568V53.5H363.613ZM407.056 54.206C402.679 54.206 398.796 53.3588 395.407 51.6644C392.065 49.923 389.43 47.5461 387.5 44.5339C385.57 41.5217 384.605 38.0623 384.605 34.1559C384.605 30.2494 385.57 26.79 387.5 23.7778C389.43 20.7656 392.065 18.4123 395.407 16.7179C398.796 15.0235 402.679 14.1763 407.056 14.1763C411.433 14.1763 415.316 15.0235 418.705 16.7179C422.093 18.4123 424.729 20.7656 426.612 23.7778C428.541 26.79 429.506 30.2494 429.506 34.1559C429.506 38.0623 428.541 41.5217 426.612 44.5339C424.729 47.5461 422.093 49.923 418.705 51.6644C415.316 53.3588 411.433 54.206 407.056 54.206ZM407.056 41.7806C408.232 41.7806 409.291 41.4982 410.233 40.9334C411.174 40.3686 411.927 39.5214 412.492 38.3918C413.057 37.2152 413.339 35.8032 413.339 34.1559C413.339 32.4615 413.057 31.073 412.492 29.9905C411.927 28.8609 411.174 28.0137 410.233 27.449C409.291 26.8842 408.232 26.6018 407.056 26.6018C405.879 26.6018 404.82 26.8842 403.879 27.449C402.937 28.0137 402.184 28.8609 401.62 29.9905C401.055 31.073 400.772 32.4615 400.772 34.1559C400.772 35.8032 401.055 37.2152 401.62 38.3918C402.184 39.5214 402.937 40.3686 403.879 40.9334C404.82 41.4982 405.879 41.7806 407.056 41.7806ZM442.926 53.5L429.512 14.8823H444.621L454.787 46.2283H447.515L458.176 14.8823H471.731L481.897 46.2283H474.837L485.356 14.8823H499.335L485.921 53.5H470.389L462.27 28.6491H466.93L458.458 53.5H442.926Z" fill="#110F10"/>
<path d="M0.0241456 53.5H-2.68418C-2.68418 54.9958 -1.47162 56.2083 0.0241456 56.2083V53.5ZM0.0241456 4.08067V1.37234C-1.47162 1.37234 -2.68418 2.5849 -2.68418 4.08067H0.0241456ZM13.7204 4.08067L16.0297 2.66575C15.5374 1.8622 14.6627 1.37234 13.7204 1.37234V4.08067ZM33.4881 36.3444V39.0528C34.4683 39.0528 35.3721 38.5231 35.851 37.6679C36.33 36.8126 36.3095 35.7653 35.7974 34.9295L33.4881 36.3444ZM26.287 36.3444L23.9597 34.9593C23.4615 35.7962 23.4512 36.8363 23.9326 37.683C24.414 38.5297 25.313 39.0528 26.287 39.0528V36.3444ZM45.4899 4.08067V1.37234C44.5352 1.37234 43.6509 1.87505 43.1626 2.69549L45.4899 4.08067ZM59.1861 4.08067L61.8945 4.07293C61.8902 2.58019 60.6789 1.37234 59.1861 1.37234V4.08067ZM59.3273 53.5V56.2083C60.047 56.2083 60.737 55.9219 61.2452 55.4123C61.7533 54.9028 62.0377 54.2119 62.0357 53.4923L59.3273 53.5ZM44.1486 53.5L41.4403 53.5144C41.4482 55.0045 42.6584 56.2083 44.1486 56.2083V53.5ZM44.0074 26.9548V24.2464C43.2866 24.2464 42.5955 24.5338 42.0872 25.0448C41.5789 25.5558 41.2952 26.2484 41.2991 26.9692L44.0074 26.9548ZM46.4077 26.9548L48.736 28.3383C49.2334 27.5013 49.2432 26.4617 48.7617 25.6154C48.2801 24.7691 47.3814 24.2464 46.4077 24.2464V26.9548ZM33.2763 49.0523V51.7606C34.2317 51.7606 35.1165 51.2572 35.6046 50.4358L33.2763 49.0523ZM25.934 49.0523L23.632 50.4791C24.1258 51.2758 24.9966 51.7606 25.934 51.7606V49.0523ZM12.2378 26.9548V24.2464C11.255 24.2464 10.3494 24.7788 9.87142 25.6374C9.39342 26.4961 9.41805 27.5463 9.93577 28.3816L12.2378 26.9548ZM15.2029 26.9548H17.9113C17.9113 25.459 16.6987 24.2464 15.2029 24.2464V26.9548ZM15.2029 53.5V56.2083C16.6987 56.2083 17.9113 54.9958 17.9113 53.5H15.2029ZM2.73247 53.5V4.08067H-2.68418V53.5H2.73247ZM0.0241456 6.78899H13.7204V1.37234H0.0241456V6.78899ZM11.411 5.49558L31.1788 37.7593L35.7974 34.9295L16.0297 2.66575L11.411 5.49558ZM33.4881 33.6361H26.287V39.0528H33.4881V33.6361ZM28.6143 37.7296L47.8172 5.46584L43.1626 2.69549L23.9597 34.9593L28.6143 37.7296ZM45.4899 6.78899H59.1861V1.37234H45.4899V6.78899ZM56.4778 4.0884L56.619 53.5077L62.0357 53.4923L61.8945 4.07293L56.4778 4.0884ZM59.3273 50.7917H44.1486V56.2083H59.3273V50.7917ZM46.8568 53.4856L46.7156 26.9404L41.2991 26.9692L41.4403 53.5144L46.8568 53.4856ZM44.0074 29.6631H46.4077V24.2464H44.0074V29.6631ZM44.0795 25.5712L30.948 47.6687L35.6046 50.4358L48.736 28.3383L44.0795 25.5712ZM33.2763 46.3439H25.934V51.7606H33.2763V46.3439ZM28.236 47.6255L14.5398 25.528L9.93577 28.3816L23.632 50.4791L28.236 47.6255ZM12.2378 29.6631H15.2029V24.2464H12.2378V29.6631ZM12.4946 26.9548V53.5H17.9113V26.9548H12.4946ZM15.2029 50.7917H0.0241456V56.2083H15.2029V50.7917ZM68.8654 66.9138L69.6385 64.3182C69.6264 64.3146 69.6142 64.311 69.6019 64.3076L68.8654 66.9138ZM63.6411 64.4429L61.2031 63.2632C60.6488 64.4089 60.967 65.7861 61.9678 66.5725L63.6411 64.4429ZM68.936 53.5L70.5812 51.3486C69.9348 50.8544 69.1005 50.6769 68.3089 50.8653C67.5174 51.0536 66.8525 51.5879 66.4981 52.3204L68.936 53.5ZM71.6187 54.9826L70.6546 57.5135C70.6674 57.5184 70.6803 57.5232 70.6932 57.5278L71.6187 54.9826ZM77.8315 54.6296L76.2065 52.4629C76.1784 52.4839 76.1508 52.5055 76.1236 52.5276L77.8315 54.6296ZM79.667 52.0174L82.1817 53.0233L82.1846 53.0158L79.667 52.0174ZM81.2908 47.9227L79.1005 46.3297C78.9669 46.5134 78.8569 46.7132 78.7732 46.9243L81.2908 47.9227ZM82.4204 46.3695L84.6107 47.9625C84.7462 47.7761 84.8574 47.5732 84.9416 47.3588L82.4204 46.3695ZM94.7752 14.8823V12.174C93.6613 12.174 92.6609 12.8561 92.254 13.8931L94.7752 14.8823ZM109.883 14.8823L112.395 15.8951C112.732 15.0604 112.632 14.113 112.128 13.3671C111.625 12.6211 110.783 12.174 109.883 12.174V14.8823ZM93.9986 54.2766L91.4868 53.2638L91.484 53.2707L93.9986 54.2766ZM89.0567 62.5367L87.0955 60.6689C87.0876 60.6771 87.0798 60.6854 87.0721 60.6938L89.0567 62.5367ZM82.844 66.702L81.9563 64.1433C81.9508 64.1452 81.9453 64.1471 81.9398 64.1491L82.844 66.702ZM79.1022 55.265L76.6017 56.3054C76.9417 57.1224 77.6592 57.7218 78.5237 57.9108C79.3881 58.0998 80.2904 57.8546 80.9403 57.2541L79.1022 55.265ZM62.2997 14.8823V12.174C61.3944 12.174 60.5489 12.6263 60.0466 13.3794C59.5442 14.1326 59.4514 15.0869 59.7992 15.9227L62.2997 14.8823ZM78.6786 14.8823L81.2061 13.9093C80.8036 12.8638 79.799 12.174 78.6786 12.174V14.8823ZM90.2569 44.9575L92.0949 46.9466C92.9098 46.1937 93.183 45.0199 92.7844 43.9845L90.2569 44.9575ZM75.3605 65.1939C73.5267 65.1939 71.6221 64.909 69.6385 64.3182L68.0922 69.5094C70.5329 70.2364 72.9583 70.6105 75.3605 70.6105V65.1939ZM69.6019 64.3076C67.6674 63.7609 66.2765 63.0693 65.3143 62.3132L61.9678 66.5725C63.6413 67.8874 65.7333 68.8431 68.1288 69.5201L69.6019 64.3076ZM66.079 65.6225L71.3739 54.6796L66.4981 52.3204L61.2031 63.2632L66.079 65.6225ZM67.2908 55.6514C68.3086 56.4297 69.4343 57.0486 70.6546 57.5135L72.5829 52.4517C71.8264 52.1635 71.1636 51.794 70.5812 51.3486L67.2908 55.6514ZM70.6932 57.5278C71.9758 57.9942 73.2782 58.2557 74.5839 58.2557V52.839C74.007 52.839 73.3326 52.724 72.5443 52.4373L70.6932 57.5278ZM74.5839 58.2557C76.3429 58.2557 78.1262 57.8797 79.5393 56.7316L76.1236 52.5276C76.0306 52.6032 75.6489 52.839 74.5839 52.839V58.2557ZM79.4565 56.7962C80.7218 55.8472 81.5884 54.5065 82.1817 53.0233L77.1524 51.0116C76.8044 51.8816 76.4472 52.2824 76.2065 52.4629L79.4565 56.7962ZM82.1846 53.0158L83.8084 48.921L78.7732 46.9243L77.1494 51.0191L82.1846 53.0158ZM83.4811 49.5156L84.6107 47.9625L80.2301 44.7765L79.1005 46.3297L83.4811 49.5156ZM84.9416 47.3588L97.2964 15.8716L92.254 13.8931L79.8992 45.3802L84.9416 47.3588ZM94.7752 17.5906H109.883V12.174H94.7752V17.5906ZM107.372 13.8695L91.4868 53.2638L96.5105 55.2894L112.395 15.8951L107.372 13.8695ZM91.484 53.2707C90.1533 56.5975 88.667 59.0188 87.0955 60.6689L91.0179 64.4045C93.2117 62.101 95.02 59.0156 96.5133 55.2824L91.484 53.2707ZM87.0721 60.6938C85.5058 62.3806 83.8012 63.5033 81.9563 64.1433L83.7317 69.2607C86.4993 68.3006 88.9365 66.6463 91.0414 64.3796L87.0721 60.6938ZM81.9398 64.1491C80.0083 64.8332 77.8245 65.1939 75.3605 65.1939V70.6105C78.3561 70.6105 81.1613 70.1711 83.7482 69.255L81.9398 64.1491ZM81.6028 54.2246L64.8002 13.8419L59.7992 15.9227L76.6017 56.3054L81.6028 54.2246ZM62.2997 17.5906H78.6786V12.174H62.2997V17.5906ZM76.1512 15.8553L87.7294 45.9305L92.7844 43.9845L81.2061 13.9093L76.1512 15.8553ZM88.4188 42.9684L77.2642 53.2759L80.9403 57.2541L92.0949 46.9466L88.4188 42.9684ZM142.949 53.5L140.391 54.3886C140.769 55.478 141.796 56.2083 142.949 56.2083V53.5ZM129.535 14.8823V12.174C128.659 12.174 127.836 12.5982 127.328 13.3126C126.82 14.0269 126.689 14.9429 126.977 15.771L129.535 14.8823ZM144.644 14.8823L147.22 14.0468C146.858 12.9302 145.817 12.174 144.644 12.174V14.8823ZM154.81 46.2283V48.9366C155.676 48.9366 156.491 48.5218 157 47.8208C157.51 47.1198 157.653 46.2172 157.386 45.3928L154.81 46.2283ZM147.538 46.2283L144.974 45.3563C144.693 46.1832 144.828 47.0951 145.336 47.8052C145.845 48.5154 146.665 48.9366 147.538 48.9366V46.2283ZM158.199 14.8823V12.174C157.039 12.174 156.008 12.9124 155.634 14.0103L158.199 14.8823ZM171.754 14.8823L174.33 14.0468C173.968 12.9302 172.927 12.174 171.754 12.174V14.8823ZM181.92 46.2283V48.9366C182.787 48.9366 183.601 48.5218 184.11 47.8208C184.62 47.1198 184.763 46.2172 184.496 45.3928L181.92 46.2283ZM174.86 46.2283L172.292 45.3666C172.015 46.1929 172.152 47.1021 172.661 47.8097C173.17 48.5172 173.988 48.9366 174.86 48.9366V46.2283ZM185.379 14.8823V12.174C184.215 12.174 183.182 12.9174 182.812 14.0207L185.379 14.8823ZM199.358 14.8823L201.916 15.771C202.204 14.9429 202.073 14.0269 201.565 13.3126C201.057 12.5982 200.234 12.174 199.358 12.174V14.8823ZM185.944 53.5V56.2083C187.097 56.2083 188.124 55.478 188.502 54.3886L185.944 53.5ZM170.412 53.5L167.838 54.3411C168.202 55.4548 169.24 56.2083 170.412 56.2083V53.5ZM162.293 28.6491V25.9408C161.426 25.9408 160.61 26.3566 160.101 27.059C159.591 27.7614 159.449 28.6654 159.719 29.4902L162.293 28.6491ZM166.953 28.6491L169.516 29.523C169.798 28.696 169.664 27.7836 169.155 27.073C168.647 26.3624 167.827 25.9408 166.953 25.9408V28.6491ZM158.481 53.5V56.2083C159.64 56.2083 160.67 55.4709 161.044 54.3739L158.481 53.5ZM145.508 52.6114L132.094 13.9937L126.977 15.771L140.391 54.3886L145.508 52.6114ZM129.535 17.5906H144.644V12.174H129.535V17.5906ZM142.067 15.7178L152.234 47.0638L157.386 45.3928L147.22 14.0468L142.067 15.7178ZM154.81 43.52H147.538V48.9366H154.81V43.52ZM150.102 47.1003L160.763 15.7543L155.634 14.0103L144.974 45.3563L150.102 47.1003ZM158.199 17.5906H171.754V12.174H158.199V17.5906ZM169.177 15.7178L179.344 47.0638L184.496 45.3928L174.33 14.0468L169.177 15.7178ZM181.92 43.52H174.86V48.9366H181.92V43.52ZM177.428 47.0899L187.947 15.744L182.812 14.0207L172.292 45.3666L177.428 47.0899ZM185.379 17.5906H199.358V12.174H185.379V17.5906ZM196.799 13.9937L183.386 52.6114L188.502 54.3886L201.916 15.771L196.799 13.9937ZM185.944 50.7917H170.412V56.2083H185.944V50.7917ZM172.987 52.6589L164.868 27.8081L159.719 29.4902L167.838 54.3411L172.987 52.6589ZM162.293 31.3575H166.953V25.9408H162.293V31.3575ZM164.389 27.7752L155.917 52.6261L161.044 54.3739L169.516 29.523L164.389 27.7752ZM158.481 50.7917H142.949V56.2083H158.481V50.7917ZM210.153 51.6644L208.902 54.0662C208.915 54.0732 208.929 54.0801 208.942 54.0868L210.153 51.6644ZM202.246 44.5339L199.966 45.9949L202.246 44.5339ZM202.246 23.7778L199.966 22.3169L202.246 23.7778ZM210.153 16.7179L208.942 14.2955C208.938 14.2978 208.933 14.3 208.929 14.3023L210.153 16.7179ZM233.451 16.7179L232.24 19.1403L233.451 16.7179ZM241.358 23.7778L239.061 25.2132C239.067 25.2218 239.072 25.2303 239.078 25.2387L241.358 23.7778ZM241.358 44.5339L239.078 43.073C239.072 43.0815 239.067 43.09 239.061 43.0985L241.358 44.5339ZM233.451 51.6644L234.662 54.0868C234.671 54.0824 234.68 54.0779 234.689 54.0733L233.451 51.6644ZM224.979 40.9334L223.586 38.611L224.979 40.9334ZM227.238 38.3918L229.661 39.603C229.667 39.59 229.674 39.5769 229.68 39.5638L227.238 38.3918ZM227.238 29.9905L224.816 31.2017C224.823 31.2156 224.83 31.2295 224.837 31.2433L227.238 29.9905ZM224.979 27.449L223.586 29.7713V29.7713L224.979 27.449ZM218.625 27.449L217.232 25.1266L218.625 27.449ZM216.366 29.9905L218.767 31.2433C218.774 31.2295 218.782 31.2156 218.788 31.2017L216.366 29.9905ZM216.366 38.3918L213.924 39.5638C213.931 39.5769 213.937 39.59 213.944 39.603L216.366 38.3918ZM218.625 40.9334L217.232 43.2557L218.625 40.9334ZM221.802 51.4977C217.78 51.4977 214.323 50.7212 211.365 49.242L208.942 54.0868C212.761 55.9964 217.07 56.9143 221.802 56.9143V51.4977ZM211.405 49.2627C208.459 47.7276 206.188 45.6657 204.527 43.073L199.966 45.9949C202.164 49.4266 205.164 52.1184 208.902 54.0662L211.405 49.2627ZM204.527 43.073C202.902 40.5367 202.06 37.594 202.06 34.1559H196.643C196.643 38.5307 197.731 42.5067 199.966 45.9949L204.527 43.073ZM202.06 34.1559C202.06 30.7177 202.902 27.775 204.527 25.2387L199.966 22.3169C197.731 25.805 196.643 29.781 196.643 34.1559H202.06ZM204.527 25.2387C206.183 22.6528 208.446 20.6202 211.378 19.1335L208.929 14.3023C205.177 16.2043 202.169 18.8784 199.966 22.3169L204.527 25.2387ZM211.365 19.1403C214.323 17.6612 217.78 16.8847 221.802 16.8847V11.468C217.07 11.468 212.761 12.3859 208.942 14.2955L211.365 19.1403ZM221.802 16.8847C225.824 16.8847 229.282 17.6612 232.24 19.1403L234.662 14.2955C230.843 12.3859 226.534 11.468 221.802 11.468V16.8847ZM232.24 19.1403C235.214 20.6273 237.461 22.652 239.061 25.2132L243.655 22.3424C241.49 18.8792 238.466 16.1973 234.662 14.2955L232.24 19.1403ZM239.078 25.2387C240.702 27.775 241.544 30.7177 241.544 34.1559H246.961C246.961 29.781 245.873 25.8051 243.639 22.3169L239.078 25.2387ZM241.544 34.1559C241.544 37.594 240.702 40.5367 239.078 43.073L243.639 45.9949C245.873 42.5067 246.961 38.5307 246.961 34.1559H241.544ZM239.061 43.0985C237.456 45.6667 235.2 47.7204 232.213 49.2556L234.689 54.0733C238.479 52.1255 241.495 49.4256 243.655 45.9693L239.061 43.0985ZM232.24 49.242C229.282 50.7212 225.824 51.4977 221.802 51.4977V56.9143C226.534 56.9143 230.843 55.9964 234.662 54.0868L232.24 49.242ZM221.802 44.4889C223.433 44.4889 224.98 44.0913 226.373 43.2557L223.586 38.611C223.096 38.905 222.525 39.0722 221.802 39.0722V44.4889ZM226.373 43.2557C227.819 42.3879 228.901 41.1224 229.661 39.603L224.816 37.1806C224.446 37.9204 224.022 38.3492 223.586 38.611L226.373 43.2557ZM229.68 39.5638C230.46 37.9385 230.794 36.1056 230.794 34.1559H225.377C225.377 35.5008 225.146 36.4918 224.797 37.2198L229.68 39.5638ZM230.794 34.1559C230.794 32.1852 230.469 30.3275 229.64 28.7377L224.837 31.2433C225.137 31.8186 225.377 32.7378 225.377 34.1559H230.794ZM229.661 28.7793C228.901 27.2599 227.819 25.9944 226.373 25.1266L223.586 29.7713C224.022 30.0331 224.446 30.4619 224.816 31.2017L229.661 28.7793ZM226.373 25.1266C224.98 24.291 223.433 23.8934 221.802 23.8934V29.3101C222.525 29.3101 223.096 29.4773 223.586 29.7713L226.373 25.1266ZM221.802 23.8934C220.171 23.8934 218.624 24.291 217.232 25.1266L220.019 29.7713C220.509 29.4773 221.08 29.3101 221.802 29.3101V23.8934ZM217.232 25.1266C215.785 25.9944 214.703 27.2599 213.944 28.7793L218.788 31.2017C219.158 30.4619 219.582 30.0331 220.019 29.7713L217.232 25.1266ZM213.965 28.7377C213.135 30.3275 212.811 32.1852 212.811 34.1559H218.227C218.227 32.7378 218.467 31.8186 218.767 31.2433L213.965 28.7377ZM212.811 34.1559C212.811 36.1056 213.144 37.9385 213.924 39.5638L218.808 37.2198C218.458 36.4918 218.227 35.5008 218.227 34.1559H212.811ZM213.944 39.603C214.703 41.1224 215.785 42.3879 217.232 43.2557L220.019 38.611C219.582 38.3493 219.158 37.9204 218.788 37.1806L213.944 39.603ZM217.232 43.2557C218.624 44.0913 220.171 44.4889 221.802 44.4889V39.0722C221.08 39.0722 220.509 38.905 220.019 38.611L217.232 43.2557ZM249.247 53.5H246.538C246.538 54.9958 247.751 56.2083 249.247 56.2083V53.5ZM249.247 14.8823V12.174C247.751 12.174 246.538 13.3866 246.538 14.8823H249.247ZM264.425 14.8823H267.134C267.134 13.3866 265.921 12.174 264.425 12.174V14.8823ZM264.425 26.5312L262.253 28.1488C262.95 29.0851 264.169 29.4693 265.277 29.102C266.386 28.7347 267.134 27.6986 267.134 26.5312H264.425ZM261.954 23.213L259.432 22.2276C259.092 23.0976 259.224 24.0814 259.782 24.8306L261.954 23.213ZM267.602 16.4355L266.24 14.0946V14.0946L267.602 16.4355ZM276.921 14.1763H279.63C279.63 12.6806 278.417 11.468 276.921 11.468V14.1763ZM276.921 28.2961L276.563 30.9807C277.337 31.0839 278.118 30.8481 278.705 30.3338C279.293 29.8196 279.63 29.0768 279.63 28.2961H276.921ZM275.015 28.0843L274.77 30.7815C274.777 30.7822 274.783 30.7827 274.79 30.7833L275.015 28.0843ZM267.461 29.9199L269.169 32.0219L269.176 32.016L267.461 29.9199ZM265.202 53.5V56.2083C266.698 56.2083 267.91 54.9958 267.91 53.5H265.202ZM251.955 53.5V14.8823H246.538V53.5H251.955ZM249.247 17.5906H264.425V12.174H249.247V17.5906ZM261.717 14.8823V26.5312H267.134V14.8823H261.717ZM266.598 24.9136L264.127 21.5954L259.782 24.8306L262.253 28.1488L266.598 24.9136ZM264.477 24.1984C265.45 21.7076 266.948 19.9496 268.964 18.7764L266.24 14.0946C263.079 15.9337 260.812 18.694 259.432 22.2276L264.477 24.1984ZM268.964 18.7764C271.06 17.5569 273.675 16.8847 276.921 16.8847V11.468C272.919 11.468 269.321 12.3019 266.24 14.0946L268.964 18.7764ZM274.213 14.1763V28.2961H279.63V14.1763H274.213ZM277.279 25.6116C276.54 25.513 275.859 25.4369 275.24 25.3854L274.79 30.7833C275.301 30.8259 275.891 30.8911 276.563 30.9807L277.279 25.6116ZM275.26 25.3871C274.654 25.3321 274.031 25.3054 273.391 25.3054V30.7221C273.881 30.7221 274.34 30.7425 274.77 30.7815L275.26 25.3871ZM273.391 25.3054C270.493 25.3054 267.873 26.0832 265.746 27.8238L269.176 32.016C270.155 31.2151 271.489 30.7221 273.391 30.7221V25.3054ZM265.753 27.8179C263.322 29.7932 262.494 32.9403 262.494 36.3444H267.91C267.91 33.6299 268.588 32.494 269.169 32.0219L265.753 27.8179ZM262.494 36.3444V53.5H267.91V36.3444H262.494ZM265.202 50.7917H249.247V56.2083H265.202V50.7917ZM294.787 47.1461L292.079 47.0952C292.058 48.2144 292.727 49.2311 293.764 49.6539C294.8 50.0766 295.99 49.8181 296.758 49.0035L294.787 47.1461ZM295.14 28.3667L293.215 26.4618C292.725 26.9563 292.445 27.6202 292.432 28.3158L295.14 28.3667ZM308.483 14.8823V12.174C307.76 12.174 307.067 12.4633 306.558 12.9773L308.483 14.8823ZM327.333 14.8823L329.292 16.752C330.041 15.9678 330.249 14.8131 329.823 13.8166C329.396 12.8202 328.417 12.174 327.333 12.174V14.8823ZM309.683 33.3793L311.382 35.4886C311.474 35.4145 311.561 35.3344 311.643 35.2489L309.683 33.3793ZM301.705 39.8038L300.007 37.6944C299.91 37.7721 299.819 37.8563 299.734 37.9464L301.705 39.8038ZM281.444 53.5H278.735C278.735 54.9958 279.948 56.2083 281.444 56.2083V53.5ZM281.444 1.11551V-1.59282C279.948 -1.59282 278.735 -0.380261 278.735 1.11551H281.444ZM297.399 1.11551H300.107C300.107 -0.380261 298.895 -1.59282 297.399 -1.59282V1.11551ZM297.399 53.5V56.2083C298.895 56.2083 300.107 54.9958 300.107 53.5H297.399ZM309.33 53.5L307.204 55.1782C307.718 55.8288 308.501 56.2083 309.33 56.2083V53.5ZM298.74 40.0862L296.639 38.3779C295.839 39.3619 295.829 40.7691 296.615 41.7644L298.74 40.0862ZM308.554 28.0137L310.682 26.3392C310.173 25.6924 309.398 25.3121 308.575 25.3055C307.752 25.2989 306.971 25.6669 306.452 26.3054L308.554 28.0137ZM328.604 53.5V56.2083C329.641 56.2083 330.587 55.6161 331.04 54.6832C331.493 53.7503 331.374 52.6405 330.732 51.8254L328.604 53.5ZM297.495 47.197L297.848 28.4176L292.432 28.3158L292.079 47.0952L297.495 47.197ZM297.065 30.2717L310.408 16.7873L306.558 12.9773L293.215 26.4618L297.065 30.2717ZM308.483 17.5906H327.333V12.174H308.483V17.5906ZM325.373 13.0126L307.724 31.5096L311.643 35.2489L329.292 16.752L325.373 13.0126ZM307.984 31.2699L300.007 37.6944L303.404 41.9132L311.382 35.4886L307.984 31.2699ZM299.734 37.9464L292.816 45.2887L296.758 49.0035L303.677 41.6612L299.734 37.9464ZM284.152 53.5V1.11551H278.735V53.5H284.152ZM281.444 3.82383H297.399V-1.59282H281.444V3.82383ZM294.691 1.11551V53.5H300.107V1.11551H294.691ZM297.399 50.7917H281.444V56.2083H297.399V50.7917ZM311.456 51.8218L300.866 38.408L296.615 41.7644L307.204 55.1782L311.456 51.8218ZM300.842 41.7945L310.655 29.7221L306.452 26.3054L296.639 38.3779L300.842 41.7945ZM306.425 29.6883L326.475 55.1746L330.732 51.8254L310.682 26.3392L306.425 29.6883ZM328.604 50.7917H309.33V56.2083H328.604V50.7917ZM333.538 53.5H330.83C330.83 54.9958 332.042 56.2083 333.538 56.2083V53.5ZM337.986 4.85726L336.086 2.92716C336.081 2.93215 336.076 2.93715 336.071 2.94218L337.986 4.85726ZM355.847 0.903708L355.33 3.56224C355.358 3.56763 355.386 3.57259 355.414 3.57711L355.847 0.903708ZM360.224 2.31569L362.785 3.19657C363.211 1.95822 362.69 0.59251 361.548 -0.0473394L360.224 2.31569ZM356.412 13.3997L355.291 15.8653C355.986 16.1811 356.782 16.1891 357.483 15.8874C358.184 15.5857 358.725 15.0023 358.973 14.2806L356.412 13.3997ZM354.718 12.7643L355.514 10.1758L354.718 12.7643ZM350.058 13.5409L348.143 11.6259V11.6259L350.058 13.5409ZM348.999 18.7653H346.291C346.291 18.8331 346.293 18.9009 346.298 18.9685L348.999 18.7653ZM349.493 25.331H352.202C352.202 25.2631 352.199 25.1953 352.194 25.1277L349.493 25.331ZM349.493 53.5V56.2083C350.989 56.2083 352.202 54.9958 352.202 53.5H349.493ZM328.243 28.6491H325.535C325.535 30.1449 326.747 31.3575 328.243 31.3575V28.6491ZM328.243 17.0003V14.292C326.747 14.292 325.535 15.5045 325.535 17.0003H328.243ZM357.4 17.0003H360.109C360.109 15.5045 358.896 14.292 357.4 14.292V17.0003ZM357.4 28.6491V31.3575C358.896 31.3575 360.109 30.1449 360.109 28.6491H357.4ZM363.613 53.5H360.905C360.905 54.9958 362.117 56.2083 363.613 56.2083V53.5ZM363.613 1.11551V-1.59282C362.117 -1.59282 360.905 -0.380261 360.905 1.11551H363.613ZM379.568 1.11551H382.277C382.277 -0.380261 381.064 -1.59282 379.568 -1.59282V1.11551ZM379.568 53.5V56.2083C381.064 56.2083 382.277 54.9958 382.277 53.5H379.568ZM336.246 53.5V16.7885H330.83V53.5H336.246ZM336.246 16.7885C336.246 12.3715 337.538 9.13474 339.901 6.77234L336.071 2.94218C332.503 6.51009 330.83 11.2275 330.83 16.7885H336.246ZM339.886 6.78735C342.251 4.45847 345.745 3.11784 350.764 3.11784V-2.29881C344.77 -2.29881 339.744 -0.674276 336.086 2.92716L339.886 6.78735ZM350.764 3.11784C352.282 3.11784 353.803 3.26528 355.33 3.56224L356.364 -1.75483C354.503 -2.11679 352.635 -2.29881 350.764 -2.29881V3.11784ZM355.414 3.57711C356.934 3.82361 358.071 4.21389 358.901 4.67872L361.548 -0.0473394C360.024 -0.900352 358.244 -1.4514 356.281 -1.7697L355.414 3.57711ZM357.663 1.43481L353.851 12.5189L358.973 14.2806L362.785 3.19657L357.663 1.43481ZM357.533 10.9342C356.898 10.6454 356.223 10.3939 355.514 10.1758L353.921 15.3529C354.436 15.5113 354.891 15.6834 355.291 15.8653L357.533 10.9342ZM355.514 10.1758C354.637 9.90581 353.732 9.77363 352.811 9.77363V15.1903C353.208 15.1903 353.575 15.2464 353.921 15.3529L355.514 10.1758ZM352.811 9.77363C351.066 9.77363 349.425 10.3436 348.143 11.6259L351.973 15.456C352.103 15.3263 352.297 15.1903 352.811 15.1903V9.77363ZM348.143 11.6259C346.708 13.0608 346.291 15.0468 346.291 16.9297H351.707C351.707 16.3467 351.775 15.9617 351.849 15.7254C351.885 15.6114 351.919 15.5415 351.941 15.5033C351.952 15.4842 351.96 15.4722 351.965 15.4655C351.97 15.4589 351.973 15.4562 351.973 15.456L348.143 11.6259ZM346.291 16.9297V18.7653H351.707V16.9297H346.291ZM346.298 18.9685L346.793 25.5343L352.194 25.1277L351.7 18.562L346.298 18.9685ZM346.785 25.331V53.5H352.202V25.331H346.785ZM349.493 50.7917H333.538V56.2083H349.493V50.7917ZM330.951 28.6491V17.0003H325.535V28.6491H330.951ZM328.243 19.7086H357.4V14.292H328.243V19.7086ZM354.692 17.0003V28.6491H360.109V17.0003H354.692ZM357.4 25.9408H328.243V31.3575H357.4V25.9408ZM366.321 53.5V1.11551H360.905V53.5H366.321ZM363.613 3.82383H379.568V-1.59282H363.613V3.82383ZM376.86 1.11551V53.5H382.277V1.11551H376.86ZM379.568 50.7917H363.613V56.2083H379.568V50.7917ZM395.407 51.6644L394.155 54.0662C394.169 54.0732 394.182 54.0801 394.196 54.0868L395.407 51.6644ZM387.5 44.5339L385.219 45.9949L387.5 44.5339ZM387.5 23.7778L385.219 22.3169L387.5 23.7778ZM395.407 16.7179L394.196 14.2955C394.191 14.2978 394.187 14.3 394.182 14.3023L395.407 16.7179ZM418.705 16.7179L417.493 19.1403L418.705 16.7179ZM426.612 23.7778L424.315 25.2132C424.32 25.2218 424.326 25.2303 424.331 25.2387L426.612 23.7778ZM426.612 44.5339L424.331 43.073C424.326 43.0815 424.32 43.09 424.315 43.0985L426.612 44.5339ZM418.705 51.6644L419.916 54.0868C419.925 54.0824 419.934 54.0779 419.943 54.0733L418.705 51.6644ZM410.233 40.9334L408.839 38.611L410.233 40.9334ZM412.492 38.3918L414.914 39.603C414.921 39.59 414.927 39.5769 414.934 39.5638L412.492 38.3918ZM412.492 29.9905L410.069 31.2017C410.076 31.2156 410.084 31.2295 410.091 31.2433L412.492 29.9905ZM410.233 27.449L408.839 29.7713V29.7713L410.233 27.449ZM403.879 27.449L402.485 25.1266L403.879 27.449ZM401.62 29.9905L404.021 31.2433C404.028 31.2295 404.035 31.2156 404.042 31.2017L401.62 29.9905ZM401.62 38.3918L399.178 39.5638C399.184 39.5769 399.191 39.59 399.197 39.603L401.62 38.3918ZM403.879 40.9334L402.485 43.2557L403.879 40.9334ZM407.056 51.4977C403.034 51.4977 399.576 50.7212 396.618 49.242L394.196 54.0868C398.015 55.9964 402.324 56.9143 407.056 56.9143V51.4977ZM396.659 49.2627C393.713 47.7276 391.441 45.6657 389.78 43.073L385.219 45.9949C387.418 49.4266 390.418 52.1184 394.155 54.0662L396.659 49.2627ZM389.78 43.073C388.156 40.5367 387.314 37.594 387.314 34.1559H381.897C381.897 38.5307 382.985 42.5067 385.219 45.9949L389.78 43.073ZM387.314 34.1559C387.314 30.7177 388.156 27.775 389.78 25.2387L385.219 22.3169C382.985 25.805 381.897 29.781 381.897 34.1559H387.314ZM389.78 25.2387C391.437 22.6528 393.699 20.6202 396.632 19.1335L394.182 14.3023C390.431 16.2043 387.422 18.8784 385.219 22.3169L389.78 25.2387ZM396.618 19.1403C399.576 17.6612 403.034 16.8847 407.056 16.8847V11.468C402.324 11.468 398.015 12.3859 394.196 14.2955L396.618 19.1403ZM407.056 16.8847C411.078 16.8847 414.535 17.6612 417.493 19.1403L419.916 14.2955C416.097 12.3859 411.788 11.468 407.056 11.468V16.8847ZM417.493 19.1403C420.467 20.6273 422.714 22.652 424.315 25.2132L428.908 22.3424C426.744 18.8792 423.719 16.1973 419.916 14.2955L417.493 19.1403ZM424.331 25.2387C425.956 27.775 426.798 30.7177 426.798 34.1559H432.215C432.215 29.781 431.127 25.8051 428.892 22.3169L424.331 25.2387ZM426.798 34.1559C426.798 37.594 425.956 40.5367 424.331 43.073L428.892 45.9949C431.127 42.5067 432.215 38.5307 432.215 34.1559H426.798ZM424.315 43.0985C422.71 45.6667 420.454 47.7204 417.467 49.2556L419.943 54.0733C423.733 52.1255 426.748 49.4256 428.908 45.9693L424.315 43.0985ZM417.493 49.242C414.535 50.7212 411.078 51.4977 407.056 51.4977V56.9143C411.788 56.9143 416.097 55.9964 419.916 54.0868L417.493 49.242ZM407.056 44.4889C408.687 44.4889 410.234 44.0913 411.626 43.2557L408.839 38.611C408.349 38.905 407.778 39.0722 407.056 39.0722V44.4889ZM411.626 43.2557C413.073 42.3879 414.155 41.1224 414.914 39.603L410.069 37.1806C409.7 37.9204 409.276 38.3492 408.839 38.611L411.626 43.2557ZM414.934 39.5638C415.714 37.9385 416.047 36.1056 416.047 34.1559H410.631C410.631 35.5008 410.4 36.4918 410.05 37.2198L414.934 39.5638ZM416.047 34.1559C416.047 32.1852 415.723 30.3275 414.893 28.7377L410.091 31.2433C410.391 31.8186 410.631 32.7378 410.631 34.1559H416.047ZM414.914 28.7793C414.155 27.2599 413.073 25.9944 411.626 25.1266L408.839 29.7713C409.276 30.0331 409.7 30.4619 410.069 31.2017L414.914 28.7793ZM411.626 25.1266C410.234 24.291 408.687 23.8934 407.056 23.8934V29.3101C407.778 29.3101 408.349 29.4773 408.839 29.7713L411.626 25.1266ZM407.056 23.8934C405.425 23.8934 403.878 24.291 402.485 25.1266L405.272 29.7713C405.762 29.4773 406.333 29.3101 407.056 29.3101V23.8934ZM402.485 25.1266C401.039 25.9944 399.957 27.2599 399.197 28.7793L404.042 31.2017C404.412 30.4619 404.836 30.0331 405.272 29.7713L402.485 25.1266ZM399.218 28.7377C398.389 30.3275 398.064 32.1852 398.064 34.1559H403.481C403.481 32.7378 403.721 31.8186 404.021 31.2433L399.218 28.7377ZM398.064 34.1559C398.064 36.1056 398.398 37.9385 399.178 39.5638L404.061 37.2198C403.712 36.4918 403.481 35.5008 403.481 34.1559H398.064ZM399.197 39.603C399.957 41.1224 401.039 42.3879 402.485 43.2557L405.272 38.611C404.836 38.3493 404.412 37.9204 404.042 37.1806L399.197 39.603ZM402.485 43.2557C403.878 44.0913 405.425 44.4889 407.056 44.4889V39.0722C406.333 39.0722 405.762 38.905 405.272 38.611L402.485 43.2557ZM442.926 53.5L440.368 54.3886C440.746 55.478 441.773 56.2083 442.926 56.2083V53.5ZM429.512 14.8823V12.174C428.636 12.174 427.813 12.5982 427.305 13.3126C426.797 14.0269 426.666 14.9429 426.954 15.771L429.512 14.8823ZM444.621 14.8823L447.197 14.0468C446.835 12.9302 445.794 12.174 444.621 12.174V14.8823ZM454.787 46.2283V48.9366C455.653 48.9366 456.468 48.5218 456.977 47.8208C457.487 47.1198 457.63 46.2172 457.363 45.3928L454.787 46.2283ZM447.515 46.2283L444.951 45.3563C444.67 46.1832 444.805 47.0951 445.313 47.8052C445.822 48.5154 446.642 48.9366 447.515 48.9366V46.2283ZM458.176 14.8823V12.174C457.016 12.174 455.985 12.9124 455.611 14.0103L458.176 14.8823ZM471.731 14.8823L474.307 14.0468C473.945 12.9302 472.904 12.174 471.731 12.174V14.8823ZM481.897 46.2283V48.9366C482.764 48.9366 483.578 48.5218 484.087 47.8208C484.597 47.1198 484.74 46.2172 484.473 45.3928L481.897 46.2283ZM474.837 46.2283L472.269 45.3666C471.992 46.1929 472.129 47.1021 472.638 47.8097C473.147 48.5172 473.965 48.9366 474.837 48.9366V46.2283ZM485.356 14.8823V12.174C484.192 12.174 483.159 12.9174 482.789 14.0207L485.356 14.8823ZM499.335 14.8823L501.893 15.771C502.181 14.9429 502.05 14.0269 501.542 13.3126C501.034 12.5982 500.211 12.174 499.335 12.174V14.8823ZM485.921 53.5V56.2083C487.074 56.2083 488.101 55.478 488.479 54.3886L485.921 53.5ZM470.389 53.5L467.815 54.3411C468.179 55.4548 469.217 56.2083 470.389 56.2083V53.5ZM462.27 28.6491V25.9408C461.403 25.9408 460.587 26.3566 460.078 27.059C459.568 27.7614 459.426 28.6654 459.696 29.4902L462.27 28.6491ZM466.93 28.6491L469.493 29.523C469.775 28.696 469.641 27.7836 469.132 27.073C468.624 26.3624 467.804 25.9408 466.93 25.9408V28.6491ZM458.458 53.5V56.2083C459.617 56.2083 460.647 55.4709 461.021 54.3739L458.458 53.5ZM445.485 52.6114L432.071 13.9937L426.954 15.771L440.368 54.3886L445.485 52.6114ZM429.512 17.5906H444.621V12.174H429.512V17.5906ZM442.044 15.7178L452.211 47.0638L457.363 45.3928L447.197 14.0468L442.044 15.7178ZM454.787 43.52H447.515V48.9366H454.787V43.52ZM450.079 47.1003L460.74 15.7543L455.611 14.0103L444.951 45.3563L450.079 47.1003ZM458.176 17.5906H471.731V12.174H458.176V17.5906ZM469.154 15.7178L479.321 47.0638L484.473 45.3928L474.307 14.0468L469.154 15.7178ZM481.897 43.52H474.837V48.9366H481.897V43.52ZM477.405 47.0899L487.924 15.744L482.789 14.0207L472.269 45.3666L477.405 47.0899ZM485.356 17.5906H499.335V12.174H485.356V17.5906ZM496.776 13.9937L483.363 52.6114L488.479 54.3886L501.893 15.771L496.776 13.9937ZM485.921 50.7917H470.389V56.2083H485.921V50.7917ZM472.964 52.6589L464.845 27.8081L459.696 29.4902L467.815 54.3411L472.964 52.6589ZM462.27 31.3575H466.93V25.9408H462.27V31.3575ZM464.366 27.7752L455.894 52.6261L461.021 54.3739L469.493 29.523L464.366 27.7752ZM458.458 50.7917H442.926V56.2083H458.458V50.7917Z" fill="white" mask="url(#path-1-outside-1_386_4715)"/>
</g>
<defs>
<filter id="filter0_d_386_4715" x="0.0234375" y="0.40918" width="503.937" height="70.2688" filterUnits="userSpaceOnUse" color-interpolation-filters="sRGB">
<feFlood flood-opacity="0" result="BackgroundImageFix"/>
<feColorMatrix in="SourceAlpha" type="matrix" values="0 0 0 0 0 0 0 0 0 0 0 0 0 0 0 0 0 0 127 0" result="hardAlpha"/>
<feOffset dx="4.62602" dy="2.77561"/>
<feComposite in2="hardAlpha" operator="out"/>
<feColorMatrix type="matrix" values="0 0 0 0 0 0 0 0 0 0 0 0 0 0 0 0 0 0 1 0"/>
<feBlend mode="normal" in2="BackgroundImageFix" result="effect1_dropShadow_386_4715"/>
<feBlend mode="normal" in="SourceGraphic" in2="effect1_dropShadow_386_4715" result="shape"/>
</filter>
</defs>
</svg>
